<svg id="hamburger" xmlns="http://www.w3.org/2000/svg" viewBox="0 0 59.16 40.32"><defs><style>.cls-1{fill:#ec4f29;}</style></defs><path class="cls-1" d="M165.56,183.6c-.08.05.06.15.07.19C165.72,183.65,165.53,183.57,165.56,183.6Z" transform="translate(-119.21 -176.58)"/><polygon class="cls-1" points="47.19 5.7 47.22 5.77 47.26 5.49 47.19 5.7"/><path class="cls-1" d="M167.38,181.22c-.31-.07-.31.43-.56.56l-.08,0,.1.24C167,181.75,167.18,181.35,167.38,181.22Z" transform="translate(-119.21 -176.58)"/><path class="cls-1" d="M168.5,180.7c-.15,0,.05-.27-.2.24l.06,0A.91.91,0,0,1,168.5,180.7Z" transform="translate(-119.21 -176.58)"/><path class="cls-1" d="M168.36,180.91c-.13.22.17-.1,0,0Z" transform="translate(-119.21 -176.58)"/><path class="cls-1" d="M168.77,179.86a1.71,1.71,0,0,1,0,.32c.11-.05.19-.34.22-.23C169,179.62,168.92,179.69,168.77,179.86Z" transform="translate(-119.21 -176.58)"/><path class="cls-1" d="M168.61,179.58v.15S168.68,179.66,168.61,179.58Z" transform="translate(-119.21 -176.58)"/><path class="cls-1" d="M168.63,180.05c0-.11,0-.22,0-.32s-.16,0,0,.14C168.54,179.84,168.61,179.91,168.63,180.05Z" transform="translate(-119.21 -176.58)"/><path class="cls-1" d="M168.5,180.22c-.13.14-.25.31-.23,0-.09.25-.1.38,0,.38S168.41,180.49,168.5,180.22Z" transform="translate(-119.21 -176.58)"/><path class="cls-1" d="M167.19,181,167,181v.17C167,181.12,167.26,181,167.19,181Z" transform="translate(-119.21 -176.58)"/><path class="cls-1" d="M168.63,178c-.06,0-.08.17-.15.23l.18.16C168.64,178.25,168.57,178,168.63,178Z" transform="translate(-119.21 -176.58)"/><path class="cls-1" d="M168.48,178.21a1.79,1.79,0,0,0-.28-.2C168.37,178.23,168.43,178.26,168.48,178.21Z" transform="translate(-119.21 -176.58)"/><path class="cls-1" d="M168.29,179.55a4.8,4.8,0,0,1,.1.47,2,2,0,0,0-.1-.56Z" transform="translate(-119.21 -176.58)"/><path class="cls-1" d="M167.6,177.14a1.32,1.32,0,0,1,.28,0,1.83,1.83,0,0,0-.47,0Z" transform="translate(-119.21 -176.58)"/><path class="cls-1" d="M166.69,176.88c.19-.08-.17-.25,0-.28a.91.91,0,0,0-.63.11A.79.79,0,0,1,166.69,176.88Z" transform="translate(-119.21 -176.58)"/><path class="cls-1" d="M165.81,176.81l.27-.1A.68.68,0,0,0,165.81,176.81Z" transform="translate(-119.21 -176.58)"/><path class="cls-1" d="M167.83,177.64a.28.28,0,0,0-.11-.27v.2Z" transform="translate(-119.21 -176.58)"/><path class="cls-1" d="M167.72,177.58h0l-.23-.14Z" transform="translate(-119.21 -176.58)"/><path class="cls-1" d="M167.85,177.66l0,0S167.83,177.67,167.85,177.66Z" transform="translate(-119.21 -176.58)"/><path class="cls-1" d="M168.42,178.78c-.13-.15-.37-.38-.38,0C168.19,178.8,168.21,178.59,168.42,178.78Z" transform="translate(-119.21 -176.58)"/><path class="cls-1" d="M167.8,177.9a1.43,1.43,0,0,1,.2.23s.05-.11.15-.07A1.87,1.87,0,0,0,167.8,177.9Z" transform="translate(-119.21 -176.58)"/><polygon class="cls-1" points="48.43 1.27 48.59 1.32 48.51 1.24 48.43 1.27"/><path class="cls-1" d="M166.29,177a.88.88,0,0,1-.43,0l.48.12S166.48,177.06,166.29,177Z" transform="translate(-119.21 -176.58)"/><path class="cls-1" d="M167,177.25h0S167,177.28,167,177.25Z" transform="translate(-119.21 -176.58)"/><polygon class="cls-1" points="45.37 0.45 45.39 0.48 45.4 0.45 45.37 0.45"/><path class="cls-1" d="M166.37,177.23a.37.37,0,0,0,.34,0,2.46,2.46,0,0,1-.37,0S166.32,177.23,166.37,177.23Z" transform="translate(-119.21 -176.58)"/><path class="cls-1" d="M165.44,176.87a.78.78,0,0,0,.18.11C165.57,176.92,165.46,176.83,165.44,176.87Z" transform="translate(-119.21 -176.58)"/><path class="cls-1" d="M167,177.19h0C166.94,177.14,166.94,177.16,167,177.19Z" transform="translate(-119.21 -176.58)"/><path class="cls-1" d="M167,177.19a.85.85,0,0,0-.24.05H167A.09.09,0,0,1,167,177.19Z" transform="translate(-119.21 -176.58)"/><path class="cls-1" d="M164.24,178.17a.3.3,0,0,1,.49-.15c.21-.12.08-.66-.12-1,0,.07,0,.13-.24.23.09.09.51.2.32.35s-.25-.05-.39-.14c.12.2-.37.31-.3.61l.26-.12C164.26,178.05,164.17,178.13,164.24,178.17Z" transform="translate(-119.21 -176.58)"/><path class="cls-1" d="M165.05,177.08h.1a.82.82,0,0,1-.33-.23c-.17.08-.2.14-.21.19l.48,0Z" transform="translate(-119.21 -176.58)"/><path class="cls-1" d="M165.6,177.09c-.1.17-.33.23-.2.43.28,0,.21-.13.38-.2-.46,0,.15-.09-.18-.21a.8.8,0,0,1,.26,0l-.24-.1h0s0,0,0,0h0a.14.14,0,0,1,0,.07c-.14-.05,0-.05,0-.07v0h0c-.16,0-.33,0-.48.08A2.51,2.51,0,0,0,165.6,177.09Z" transform="translate(-119.21 -176.58)"/><path class="cls-1" d="M167.57,178.68l0,0S167.55,178.63,167.57,178.68Z" transform="translate(-119.21 -176.58)"/><path class="cls-1" d="M167.54,178.48s.13,0,.18.09-.07,0-.12.07.24.15.2-.08l0,0c-.06-.18-.1-.49-.06-.48A1.31,1.31,0,0,0,167.54,178.48Z" transform="translate(-119.21 -176.58)"/><path class="cls-1" d="M166.72,177.69h-.48l.17.19,0-.09C166.66,177.87,166.66,177.75,166.72,177.69Z" transform="translate(-119.21 -176.58)"/><polygon class="cls-1" points="45.33 0.36 45.38 0.17 45.16 0.44 45.33 0.36"/><polygon class="cls-1" points="44.84 0.4 44.85 0.23 44.72 0.34 44.84 0.4"/><path class="cls-1" d="M138.29,183.16l-.1.05Z" transform="translate(-119.21 -176.58)"/><path class="cls-1" d="M139.05,183.07V183S139,183.07,139.05,183.07Z" transform="translate(-119.21 -176.58)"/><path class="cls-1" d="M152.6,178.67c-.18-.12-.39-.33-.34-.15l.08.17A.3.3,0,0,1,152.6,178.67Z" transform="translate(-119.21 -176.58)"/><path class="cls-1" d="M145.1,181.15l.05,0,.07-.18Z" transform="translate(-119.21 -176.58)"/><path class="cls-1" d="M145.12,181.89l-.22-.07A.71.71,0,0,0,145.12,181.89Z" transform="translate(-119.21 -176.58)"/><path class="cls-1" d="M134.06,183.7l-.12.19C134.14,183.88,134.05,183.79,134.06,183.7Z" transform="translate(-119.21 -176.58)"/><path class="cls-1" d="M159.21,177.57a.85.85,0,0,0-.35-.06C159,177.59,159.19,177.72,159.21,177.57Z" transform="translate(-119.21 -176.58)"/><path class="cls-1" d="M138.35,181.24a.14.14,0,0,0-.08.12C138.34,181.32,138.37,181.28,138.35,181.24Z" transform="translate(-119.21 -176.58)"/><path class="cls-1" d="M158.48,177.57l.07,0a.8.8,0,0,1,.31-.09A.28.28,0,0,0,158.48,177.57Z" transform="translate(-119.21 -176.58)"/><path class="cls-1" d="M124.1,185v0S124.11,185,124.1,185Z" transform="translate(-119.21 -176.58)"/><path class="cls-1" d="M126.24,189.12a1.26,1.26,0,0,1-.18-.08A.43.43,0,0,0,126.24,189.12Z" transform="translate(-119.21 -176.58)"/><path class="cls-1" d="M162.11,177.05c.1,0,0,0,0,0Z" transform="translate(-119.21 -176.58)"/><path class="cls-1" d="M162.66,177.7a.12.12,0,0,0,0,.09A.19.19,0,0,1,162.66,177.7Z" transform="translate(-119.21 -176.58)"/><path class="cls-1" d="M157.68,178.82h0S157.7,178.85,157.68,178.82Z" transform="translate(-119.21 -176.58)"/><path class="cls-1" d="M162.27,177.11l-.14,0Z" transform="translate(-119.21 -176.58)"/><path class="cls-1" d="M162.24,177h.09S162.32,177,162.24,177Z" transform="translate(-119.21 -176.58)"/><path class="cls-1" d="M162,177.07h.16s0,0,0,0Z" transform="translate(-119.21 -176.58)"/><path class="cls-1" d="M127,182.29l0,0C126.9,182.33,126.94,182.32,127,182.29Z" transform="translate(-119.21 -176.58)"/><polygon class="cls-1" points="31.2 4.38 31.21 4.37 31.2 4.37 31.2 4.38"/><path class="cls-1" d="M150.09,181.16c.11-.25.2-.23.32-.21l-.21-.48Z" transform="translate(-119.21 -176.58)"/><path class="cls-1" d="M136.45,183.41l.27.13c-.28.29-.52.22-.26.43,0-.56,1-.16,1-.72l.18.1s0,0-.1,0c.35.23.19-.43.62-.4.15,0,.26.1.17.18l.3-.18c.09,0,.08.1,0,.1l.48-.11v0a1.75,1.75,0,0,1,.27-.32c.13.06-.06.06,0,.13l.25-.17c.13.13-.07.3-.26.3.33.52.21-.17.79.08l-.24.1c.21.3.39.15.71.31-.09-.1-.65-.41-.38-.59a.32.32,0,0,0,.34-.1c0,.19.18.12.37.08l0,.26c.2-.1.16-.23.26-.37s.32.18.4.35c.38,0-.31-.29.12-.4.33,0,.53-.1.87-.31.23,0,0,.16.08.23l.15-.24s0,.06,0,.09c.15-.1,0-.26.21-.37,0-.3.59.33.85-.05.09.06,0,.17,0,.26a2.17,2.17,0,0,0,.64-.56l.33.12c-.26-.16,0-.44.2-.67l-.23-.18.36-.21c.06,0,0,.13,0,.25l.06-.08c.16.07.11.24,0,.4l-.17-.14a.83.83,0,0,0-.08.52.27.27,0,0,1,.11-.1.26.26,0,0,0,0,.12s.05,0,.1-.12l.15.27v-.12l.54.09c.32-.36.55-.84,1.11-1.07-.1.24,0,.35.07.61-.2-.24-.43.19-.74.19.17,0,.15.13.12.18l.49-.34c0,.2.15.13.3.19-.18-.39.35-.35.55-.51,0,.13,0,.28-.26.3.35.25.29-.55.62-.34-.06,0-.1,0-.11.07.13-.15.52-.12.45,0l-.06,0c.44,0,1.31-.24,1.31-.6a4,4,0,0,1,0,.5l.55-1.3c0,.31.38,1,0,1.19a.48.48,0,0,0,.45-.09c-.08,0-.26-.4-.17-.44.33.28.22.14.59.36-.11-.05-.08-.53.08-.55,0,.08.11.46,0,.52l.33-.54c-.09.11.05.39.17.5-.06-.08.36-.05.46-.12l-.19-.07c.47,0,.34-.73.8-.79,0,.1,0,.6.22.62.06-.26.27-1.21.64-1.47l.11.12.28-.21a8,8,0,0,1-.79,1.57c.2.07.08.15.34.09.11.1-.11.21-.18.23l.62,0c-.08-.26.41-.36.35-.58l-.61.41a.84.84,0,0,1,.68-.88c.13.09,0,.5,0,.59,0-.1.38-.25.43-.19l-.16.17c.26.06.33-.43.66-.22.1,0,.36.3.35.14a2.92,2.92,0,0,1-.35-1.5,3.93,3.93,0,0,1,.71.34c.21.22-.14.63,0,.81a.4.4,0,0,1,.09-.22c.12,0,0,.24.22.17,0-.29.47-.06.07-.25.21-.12.25,0,.5-.05-.11-.16.13-.64.35-.76a.29.29,0,0,0,.09.19c.46,0,.73,0,1.15,0,0,.06.27.11.2.24.06-.06.1-.16.23-.19.29.2-.29.08,0,.34,0-.16.3-.27.48-.4-.1-.24-.44,0-.62.15a1.06,1.06,0,0,1,.65-1c.34-.14.18.2.24.14.68,0,.49-.68,1.08-.51.25.2.07.44.14.59-.28.12-.47-.08-.66,0l.25.07a.41.41,0,0,1-.38.11c.21.18,1.14-.11,1.67,0,.09-.08.24-.17.15-.25l-.16,0c-.17-.16.29-.27.07-.34a1,1,0,0,1,.76-.29l.08.25c0-.08-.21-.14-.3-.05.13-.13.51.3.63,0l-.23-.16c.21-.14.47-.43.77-.36-.15-.24-.07,0-.29-.25.2.35-.73,0-.42.39-.23-.32-.36-.11-.66-.37,0,.08.11.15-.13.13l-.05.07h0a.26.26,0,0,1,.13.12c-.1.2-.47.23-.59.34s0-.1,0-.18l-.18.17c0-.18-.4-.26-.08-.41l-.3,0a.63.63,0,0,0-.57,0c-.14,0-.32.25-.22.09l-.44.18v-.05c-.46,0-.88.44-1.45.19a1,1,0,0,1-.55.14l-.07-.15c-.19.09-.61-.06-.66.12-.29-.39-1,.06-1.31,0l0,.21a2.26,2.26,0,0,0-.72.26l.05.18c-.22.19-.66,0-1.05.07,0-.07.12-.07.19,0-.54-.33-.93.48-1.41.26a.22.22,0,0,1-.26,0h0l-.16-.07.14.07a1.09,1.09,0,0,0-.31.13l-.09-.18h0c-.13,0-.08.11,0,.24l-.14.15c-.15-.29-.29.17-.49-.14-.05.18-.59.23-.59.59,0,0,0-.06,0-.07-.15,0-.29,0-.39.09l-.11-.24-.23.39c-.2-.12-.3-.19-.15-.41-.38.37-.33.17-.64.53v-.16c-.13,0-.3.28-.41.17-.35-.25-1.45.23-2.25.08.23.45-.39-.15-.35.22-.07-.1-.18-.14-.08-.26-.36.18-.6-.07-.81.28-.07-.1.05-.18,0-.24s-.1.12-.16.06,0-.1.09-.16c-.38.09-.36.44-.33.77-.23-.12-.32-.08-.43.16-.08-.1-.22-.19,0-.27-.14,0-.86,0-.83.26-.06-.06-.2,0-.23,0a3.4,3.4,0,0,0-.64.09l.09,0c-.06.33-.23.11-.47.19v0c-.59-.14-.22.15-.81,0l.06.19c0,.42-.53-.17-.82,0l.13.09c-.15.17-.58-.49-.76-.52s.05-.07.1-.1c-.49-.18,0,.26-.35.37-.08-.13,0-.36-.2-.35s-.6.54-1,.32c.09.1.17.19,0,.3s-.71-.32-.88,0a.13.13,0,0,1-.06-.07c-.17.11-.58.21-.67.41-.25-.65-1.13.45-1.19-.17l-.56.08v-.06a.62.62,0,0,0-.61.3c-.08,0,0-.1,0-.13a.94.94,0,0,0-1,.27l-.06-.2c-.12.13-.77-.29-1.28-.06a.2.2,0,0,1,.06-.09c-.6.24-1.32-.62-1.59.1l-.39.13c.48.13-.12.31.07.46-.21,0-.48-.29-.23-.29l0,0c.14-.36-.57-.25-.5-.5-1-.2-1.95-.61-2.93-.74l.08.31-.33-.06c-.09-.08-.1-.25.14-.21-.1-.19-.42.1-.43.17-.47-.16.22-.33.07-.35h-.2l0,0c-.17.11-.2.24-.49.2s-.08-.19-.16-.21,0,0-.11,0l-.45,0,.18.24c-.2.12-.41,0-.21.25-.15-.2-.56-.24-1-.19a8.48,8.48,0,0,1-.92.12,2.86,2.86,0,0,1-.88.53c.13,0,.29.19,0,.33-.12-.26-.28-.2-.48-.08a2.45,2.45,0,0,1-.62.43c.19-.08,0,.18,0,.44s0,.49.19.31c-.06.29-.2,0-.34.22a5.76,5.76,0,0,0,.67,2.22c.07,0,.09-.19.27-.12,0,.18-.06.36-.08.53s.41-.14.37.22c0-.07.07-.17.14-.11a4.34,4.34,0,0,0,1.43,1.55,6.85,6.85,0,0,1,1.56,1.49c-.09-.22,0-.16.15-.09-.06-.08.09-.16.13-.25.12.17.25.35.39.52.21-.19.58.27.75,0l-.19,0c.34-.19,0-.77.19-1.11-.4.2-.33-.74-.92-.53,0-.11.13-.07.14-.17-.18.09-.3,0-.45-.14l0,0a4.06,4.06,0,0,1-1.12-1.2l-.09.18a.45.45,0,0,1-.1-.27c-.34.09.3.3,0,.43.1-.42-.79-.78-.52-1.19-.15-.17-.13.2-.28,0l.06-.12-.16,0a.29.29,0,0,1,.09-.35s.08.06.11.08c0-.23-.34-.39-.33-.47l0,.21a2.19,2.19,0,0,1-.47-.77,4,4,0,0,0-.26-.63l-.1,0c-.06-.17,0-.24,0-.28a.55.55,0,0,0,.2-.22v0a.22.22,0,0,1,.12-.25c0,.13.25.1.22.25.06-.15.14-.2.14-.26a1.2,1.2,0,0,1,.1-.36l.11.13c.07-.16.07-.23.31-.32-.18.17.19.19,0,.41.53.24.75-.43,1,.05.24-.43-.48-.21-.34-.31-.14-.13.19-.32.37-.29s.31.55.75.55c0,0,0,0-.09,0,.15.1.33-.13.53.06.13-.24.26,0,.33-.28l-.43,0c.24-.05.51-.43.88-.19a.69.69,0,0,1-.25.17c.1.11.23,0,.34.08-.08.32-.52,0-.79.23.1.15.49-.19.33.15.23-.42.43.11.78-.18l-.05.19c.06,0,.17-.11.26-.09l-.2.23c.28-.18.44.27.7.19-.5-.08-.07-.25-.26-.43.66-.14.26.56,1,.6-.1,0-.32-.19-.16-.24a.8.8,0,0,1,.34.29c.46.06,0-.21.19-.29.1.27.24-.05.46-.08l0,.2c.54.23.24-.38.72-.13l-.27.23.29,0-.09.22a.76.76,0,0,1,.69,0,.29.29,0,0,1,.33-.34c.16.14-.11.19.25.18-.09.13-.2.27-.34.08,0,.06-.09.11-.11.17.18.16.47.08.6.08a.3.3,0,0,1-.14-.06l.54-.24c.07.07,0,.13-.06.19.11,0,.18-.11.34-.13-.05.16,0,.33-.26.4l.5-.17c0,.08.25.2.19.26.27.09.66-.32,1-.21a.29.29,0,0,1,.13-.09c.34,0,.65.2,1,0l.24.27c.31-.09-.33-.34.18-.49.35-.12.15.24.29.31.17-.16.45-.49.8-.28C136.64,183.41,136.55,183.38,136.45,183.41Zm3.73-.59c-.07.06-.2.2-.27.1S140,182.78,140.18,182.82Zm5.52-1.39c0,.07-.13,0-.23,0A.26.26,0,0,1,145.7,181.43Zm15.33-4.1h0C160.85,177.28,160.91,177.31,161,177.33Zm.34,0s0-.06,0-.09-.09.07-.18.06S161.28,177.43,161.37,177.38Zm-35.3,3.49.06.06C126,181,126,180.93,126.07,180.87Z" transform="translate(-119.21 -176.58)"/><path class="cls-1" d="M145.12,181.81a.24.24,0,0,1-.05-.1S145.05,181.78,145.12,181.81Z" transform="translate(-119.21 -176.58)"/><path class="cls-1" d="M134.09,183.67h0s0,0,0,0Z" transform="translate(-119.21 -176.58)"/><path class="cls-1" d="M156.5,179.82a.3.3,0,0,1-.14-.08S156.4,179.82,156.5,179.82Z" transform="translate(-119.21 -176.58)"/><path class="cls-1" d="M163.15,176.86l-.22.07a.27.27,0,0,1,.21,0S163.08,176.87,163.15,176.86Z" transform="translate(-119.21 -176.58)"/><path class="cls-1" d="M165.09,178s.07,0,.1,0v-.1C165.05,177.92,165,178,165.09,178Z" transform="translate(-119.21 -176.58)"/><path class="cls-1" d="M163.4,177.51c0,.16.16.09.31.06h0C163.72,177.33,163.56,177.42,163.4,177.51Z" transform="translate(-119.21 -176.58)"/><path class="cls-1" d="M163.75,177.56a.32.32,0,0,1,.14,0C163.9,177.46,163.83,177.53,163.75,177.56Z" transform="translate(-119.21 -176.58)"/><path class="cls-1" d="M161.79,177.22c.08,0,0-.22.07-.16C161.92,176.84,161.41,177.37,161.79,177.22Z" transform="translate(-119.21 -176.58)"/><polygon class="cls-1" points="44.34 1.47 44.28 1.26 44.2 1.44 44.34 1.47"/><path class="cls-1" d="M162.36,178l.25,0s0-.06.06-.08C162.52,178,162.35,177.93,162.36,178Z" transform="translate(-119.21 -176.58)"/><path class="cls-1" d="M162.67,178a.29.29,0,0,0,.19,0A.77.77,0,0,0,162.67,178Z" transform="translate(-119.21 -176.58)"/><polygon class="cls-1" points="44.02 1.55 43.95 1.51 43.78 1.51 44.02 1.55"/><path class="cls-1" d="M159.8,178.27l-.25.1c0,.07.06.1.15.06S159.85,178.33,159.8,178.27Z" transform="translate(-119.21 -176.58)"/><path class="cls-1" d="M160.66,178.72c-.08,0-.09-.08-.14-.14l0,.26Z" transform="translate(-119.21 -176.58)"/><path class="cls-1" d="M159.91,178.89c0,.07-.34.25,0,.19C159.91,179,160.16,178.91,159.91,178.89Z" transform="translate(-119.21 -176.58)"/><polygon class="cls-1" points="36.77 2.62 36.84 2.6 36.75 2.19 36.77 2.62"/><path class="cls-1" d="M152.76,180.81c.32,0,0-.27.32-.2,0-.11-.24-.05-.19-.15C152.73,180.59,152.62,180.56,152.76,180.81Z" transform="translate(-119.21 -176.58)"/><path class="cls-1" d="M152.89,180.46l.08-.08Z" transform="translate(-119.21 -176.58)"/><path class="cls-1" d="M126.85,189.68a1.37,1.37,0,0,0,.17.17l-.08-.18Z" transform="translate(-119.21 -176.58)"/><path class="cls-1" d="M127.36,189.57l0,.26.21-.17S127.37,189.64,127.36,189.57Z" transform="translate(-119.21 -176.58)"/><path class="cls-1" d="M140.81,183.28v-.07c0-.07-.09-.06-.18-.06Z" transform="translate(-119.21 -176.58)"/><polygon class="cls-1" points="18.85 6.86 18.9 6.86 18.78 6.63 18.85 6.86"/><path class="cls-1" d="M135.78,184a2.68,2.68,0,0,0,.3,0C135.88,184,135.73,183.69,135.78,184Z" transform="translate(-119.21 -176.58)"/><path class="cls-1" d="M171.91,207.32c.37.28.35.06.43.09C171.65,206.93,171.91,207.38,171.91,207.32Z" transform="translate(-119.21 -176.58)"/><polygon class="cls-1" points="47.56 29.84 47.66 29.78 46.93 29.87 47.56 29.84"/><path class="cls-1" d="M162.3,206c.4.31,1.62.06,2.41.23l.13.08.38-.21C164.24,206.09,163,206.16,162.3,206Z" transform="translate(-119.21 -176.58)"/><path class="cls-1" d="M159.94,205.27c.14.12-.52.07.56.06l-.1,0Z" transform="translate(-119.21 -176.58)"/><path class="cls-1" d="M160.4,205.3c.47,0-.31-.11,0,0Z" transform="translate(-119.21 -176.58)"/><path class="cls-1" d="M158.21,205.27l.63-.08c-.13-.07-.68-.11-.47-.15C157.72,205.07,157.85,205.14,158.21,205.27Z" transform="translate(-119.21 -176.58)"/><path class="cls-1" d="M157.61,205.46l.33,0C157.88,205.4,157.8,205.39,157.61,205.46Z" transform="translate(-119.21 -176.58)"/><path class="cls-1" d="M158.62,205.37l-.68.06c.09,0,.09.15.31,0C158.19,205.49,158.33,205.42,158.62,205.37Z" transform="translate(-119.21 -176.58)"/><path class="cls-1" d="M159,205.43c.35.07.79.14.17.21C160.37,205.66,160.2,205.44,159,205.43Z" transform="translate(-119.21 -176.58)"/><path class="cls-1" d="M162.05,206.33l.46.11.41-.07C162.71,206.4,162,206.23,162.05,206.33Z" transform="translate(-119.21 -176.58)"/><path class="cls-1" d="M154.34,205c0,.06.21.17.25.26l.46-.06C154.82,205.14,154.37,205.09,154.34,205Z" transform="translate(-119.21 -176.58)"/><path class="cls-1" d="M154.59,205.25l-.69.08C154.52,205.36,154.63,205.32,154.59,205.25Z" transform="translate(-119.21 -176.58)"/><polygon class="cls-1" points="38.28 29.2 39.41 29.02 38.06 29.2 38.28 29.2"/><polygon class="cls-1" points="32.51 28.34 32.9 28.2 32.2 28.41 32.51 28.34"/><path class="cls-1" d="M150,204.91c.29-.11-.39-.2-.08-.27a6.11,6.11,0,0,0-1.24.19A4.45,4.45,0,0,1,150,204.91Z" transform="translate(-119.21 -176.58)"/><path class="cls-1" d="M148.05,205c.19,0,.39-.08.61-.13A3.15,3.15,0,0,0,148.05,205Z" transform="translate(-119.21 -176.58)"/><path class="cls-1" d="M152.74,205.28a1,1,0,0,0-.54-.19l.27.18Z" transform="translate(-119.21 -176.58)"/><path class="cls-1" d="M152.48,205.27h0l-.59,0Z" transform="translate(-119.21 -176.58)"/><path class="cls-1" d="M152.8,205.28h-.06S152.78,205.3,152.8,205.28Z" transform="translate(-119.21 -176.58)"/><path class="cls-1" d="M155.7,205.56c-.41.09-1.25.17-.44.34C155.55,205.79,155.09,205.69,155.7,205.56Z" transform="translate(-119.21 -176.58)"/><path class="cls-1" d="M153.13,205.5l.73.06s-.14-.11.06-.16Z" transform="translate(-119.21 -176.58)"/><polygon class="cls-1" points="33.56 28.97 33.92 28.92 33.65 28.9 33.56 28.97"/><path class="cls-1" d="M149.29,205.14a4.87,4.87,0,0,1-1,.08c.42,0,.85.07,1.26.07C149.56,205.24,149.74,205.14,149.29,205.14Z" transform="translate(-119.21 -176.58)"/><path class="cls-1" d="M150.84,205.22h-.07S150.85,205.25,150.84,205.22Z" transform="translate(-119.21 -176.58)"/><polygon class="cls-1" points="25.21 28.59 25.27 28.62 25.28 28.59 25.21 28.59"/><path class="cls-1" d="M149.57,205.33a1.55,1.55,0,0,0,.68-.05c-.24,0-.49,0-.75,0C149.47,205.32,149.47,205.33,149.57,205.33Z" transform="translate(-119.21 -176.58)"/><path class="cls-1" d="M147,205c.16,0,.34.08.54.11A1.28,1.28,0,0,0,147,205Z" transform="translate(-119.21 -176.58)"/><path class="cls-1" d="M150.66,205.18h.05C150.61,205.13,150.62,205.15,150.66,205.18Z" transform="translate(-119.21 -176.58)"/><path class="cls-1" d="M150.66,205.18a2.05,2.05,0,0,0-.41.1l.52-.05Z" transform="translate(-119.21 -176.58)"/><path class="cls-1" d="M143.25,206.28c.05-.16.88-.3,1.59-.12.7-.11.25-.65-.36-1,0,.07,0,.14-.74.23.25.09,1.59.22,1,.36a2,2,0,0,1-1.24-.16c.39.21-1.21.29-1,.59l.83-.1S143,206.24,143.25,206.28Z" transform="translate(-119.21 -176.58)"/><path class="cls-1" d="M145.85,205.24l.3,0a4.51,4.51,0,0,1-1-.24c-.49.08-.59.14-.63.19l1.46,0Z" transform="translate(-119.21 -176.58)"/><path class="cls-1" d="M147.47,205.24c-.23.17-.94.24-.51.43.87,0,.61-.14,1.13-.2-1.4,0,.41-.1-.61-.21.28,0,.53,0,.76,0q-.37,0-.72-.09h0c.06,0,.08,0,0,0h0a.45.45,0,0,1-.07.07c-.4-.05-.06-.05.07-.07l0,0h0l-1.4.08A12.19,12.19,0,0,0,147.47,205.24Z" transform="translate(-119.21 -176.58)"/><path class="cls-1" d="M154.5,206.27s0,0,0-.05S154.33,206.26,154.5,206.27Z" transform="translate(-119.21 -176.58)"/><path class="cls-1" d="M153.93,206.14a1.07,1.07,0,0,1,.52-.06c.28.06,0,.08,0,.14.2,0,.7-.11.07-.21l-.1,0a3.29,3.29,0,0,1-1.18-.33A1.8,1.8,0,0,0,153.93,206.14Z" transform="translate(-119.21 -176.58)"/><path class="cls-1" d="M150.66,205.73l-1.17.06.59.17,0-.1C150.72,205.91,150.58,205.79,150.66,205.73Z" transform="translate(-119.21 -176.58)"/><polygon class="cls-1" points="25.07 28.5 25.23 28.31 24.55 28.57 25.07 28.5"/><polygon class="cls-1" points="23.55 28.5 23.61 28.34 23.21 28.43 23.55 28.5"/><path class="cls-1" d="M158.26,195.13l-.34.07Z" transform="translate(-119.21 -176.58)"/><path class="cls-1" d="M160.73,195l.06-.08C160.67,195,160.63,195,160.73,195Z" transform="translate(-119.21 -176.58)"/><path class="cls-1" d="M134.56,201c.51.11,1.08.3,1,.12l-.17-.16A3.14,3.14,0,0,1,134.56,201Z" transform="translate(-119.21 -176.58)"/><path class="cls-1" d="M159.92,197.87l-.15,0-.32.22Z" transform="translate(-119.21 -176.58)"/><path class="cls-1" d="M160.17,197.09l.66,0A4.15,4.15,0,0,0,160.17,197.09Z" transform="translate(-119.21 -176.58)"/><path class="cls-1" d="M144.74,196.22l-.39.21C145,196.38,144.69,196.31,144.74,196.22Z" transform="translate(-119.21 -176.58)"/><path class="cls-1" d="M127.26,204.86a9.72,9.72,0,0,0-1.05-.17C126.71,204.83,127.12,205,127.26,204.86Z" transform="translate(-119.21 -176.58)"/><path class="cls-1" d="M159.13,193.18c-.21,0-.3.09-.29.13C159.05,193.27,159.17,193.22,159.13,193.18Z" transform="translate(-119.21 -176.58)"/><path class="cls-1" d="M125,204.6l.21.06a8.79,8.79,0,0,1,1,0A2.6,2.6,0,0,0,125,204.6Z" transform="translate(-119.21 -176.58)"/><path class="cls-1" d="M150.22,189.14h.12S150.29,189.13,150.22,189.14Z" transform="translate(-119.21 -176.58)"/><path class="cls-1" d="M164.67,188.47a4.72,4.72,0,0,1-.57.19A3,3,0,0,0,164.67,188.47Z" transform="translate(-119.21 -176.58)"/><path class="cls-1" d="M136.66,204.94c.32,0,.05,0,0,0Z" transform="translate(-119.21 -176.58)"/><path class="cls-1" d="M138.22,205.66c-.07,0-.12.05-.13.09A.21.21,0,0,1,138.22,205.66Z" transform="translate(-119.21 -176.58)"/><path class="cls-1" d="M121.91,204.69l0,0C122,204.76,121.94,204.74,121.91,204.69Z" transform="translate(-119.21 -176.58)"/><path class="cls-1" d="M137.15,205l-.41-.05Z" transform="translate(-119.21 -176.58)"/><path class="cls-1" d="M137.08,204.94l.28,0S137.37,204.91,137.08,204.94Z" transform="translate(-119.21 -176.58)"/><path class="cls-1" d="M136.22,204.94a4.41,4.41,0,0,1,.52,0l-.08,0Z" transform="translate(-119.21 -176.58)"/><path class="cls-1" d="M123.52,193.12l.08,0C123.76,192.89,123.66,193,123.52,193.12Z" transform="translate(-119.21 -176.58)"/><path class="cls-1" d="M142.78,198.52l0,0h0Z" transform="translate(-119.21 -176.58)"/><path class="cls-1" d="M143.93,198.32a1.86,1.86,0,0,1-1.14.22l.42.49Z" transform="translate(-119.21 -176.58)"/><path class="cls-1" d="M152.33,195.56l.82.11c-1,.33-1.67.29-.89.46.08-.57,3.14-.27,3.21-.83l.55.08c-.16,0-.18,0-.33,0,1.05.2.74-.45,2.08-.45.47,0,.8.08.49.16l1-.2c.3,0,.23.1-.07.1l1.58-.12v0a9.2,9.2,0,0,1,1-.33c.4.06-.2.07-.09.13l.87-.17c.36.14-.36.3-1,.31.84.52.73-.18,2.48.1l-.81.09a2.2,2.2,0,0,0,.89.22l.47.05c.13,0,.06,0,.07.1s.14-.18-.28-.3c-.27-.13-.44-.26,0-.33l.2,0h.16a1.12,1.12,0,0,0,.32-.08c-.1.2.09.15.35.14l-.34.26c.24-.07.46-.2.83-.3s-.17.25-.58.4c0,0,.25,0,.45-.13a1.27,1.27,0,0,1,.75-.15l.12.16a.29.29,0,0,1,0,.21.82.82,0,0,1-.08.37c-.51.1-.32-.07-.6,0a.59.59,0,0,1,.2.18.34.34,0,0,1-.23,0c-.08.12.49.14.11.34.13.12-.32.14-.69.14a2.42,2.42,0,0,0-1.3.26c-.25,0,.09-.18,0-.27-1.31.49-1.13.39-2.21.86l-1,0c.74.09-.13.46-.91.76.27.06.49.11.65.13l-1.27.31c-.16,0,0-.13.15-.26l-.22.09c-.48,0-.26-.22.05-.41l.49.1c.29-.2.56-.41.48-.56a2.22,2.22,0,0,1-.41.13c.07-.05.12-.1.08-.12s-.17.05-.37.15l-.33-.26-.05.13h-1.7a16.46,16.46,0,0,1-4.07,1.25c.46-.25.07-.36.08-.61.54.22,1.47-.25,2.46-.29-.52,0-.42-.11-.29-.16l-1.74.4c0-.21-.39-.12-.86-.17.39.39-1.29.39-2,.57-.05-.14.11-.29,1-.33-1-.23-1.22.58-2.19.39.22,0,.33,0,.41-.08-.49.16-1.72.15-1.44,0l.21,0c-1.42.06-4.34.29-4.53.65a1.37,1.37,0,0,1,.25-.5l-2.47,1.34c.2-.32-.71-1,.47-1.22a4.9,4.9,0,0,0-1.48.1c.24,0,.61.4.29.45a9.19,9.19,0,0,0-1.7-.35c.35,0,0,.53-.56.55.08-.07-.07-.46.12-.52l-1.33.56c.33-.11,0-.4-.28-.51a13.13,13.13,0,0,1-1.55.15l.59.06c-1.55.05-1.48.76-3,.86.18-.11.41-.62-.37-.61a7.82,7.82,0,0,1-2.81,1.59l-.27-.11-1,.27a20.11,20.11,0,0,1,3.3-1.74c-.59-.06-.18-.15-1,0-.32-.1.45-.24.71-.27l-2,.11c.11.27-1.52.45-1.42.68l2.17-.53c.11.27-1.19.9-2.62,1-.37-.07.21-.53.17-.62a5.05,5.05,0,0,1-1.47.32l.58-.23c-.81,0-1.24.54-2.25.46-.33,0-1.06-.15-1.09,0,.62.19.9,1.14.61,1.44l-2.12.09c-.61-.05.6-.82.09-.87,0,.07-.27.26-.38.34-.37.06.06-.29-.69.06-.06.27-1.75,1.1-.3.42a7.92,7.92,0,0,0-.77.61,1.28,1.28,0,0,0-.4,1c.1-.17.2.11.49.4a5.87,5.87,0,0,0,1,.71c-.08,0,0,.2,0,.28.3.24.57.43.83.61a2.74,2.74,0,0,0,.42.21l.42.11a11.25,11.25,0,0,0,1.82.28c.13.09.8.21.5.31a2.66,2.66,0,0,1,.84-.1c.83.29-1,0-.35.31a6.56,6.56,0,0,1,1.77-.24c-.18-.26-1.43-.11-2.06-.05,0-.35,1.12-.64,2.59-.75,1.16,0,.49.24.7.2,2.19.12,1.88-.56,3.69-.27.72.23,0,.44.19.6a15.61,15.61,0,0,1-2.11-.17l.79.12a3.9,3.9,0,0,1-1.28,0c.6.21,3.71.11,5.4.32.3-.07.82-.14.58-.24l-.54,0c-.49-.19,1-.24.34-.33a8.58,8.58,0,0,1,2.54-.19l.18.25a1.8,1.8,0,0,0-.94-.08c.42-.11,1.55.36,2,0l-.71-.18a9.43,9.43,0,0,1,2.52-.29c-.41-.25-.21,0-.84-.27.55.37-2.3,0-1.41.35-.65-.34-1.13-.15-2-.45,0,.08.31.16-.45.11l-.16.07h0l0,0s0,0,0,0a1,1,0,0,1,.38.13,12.79,12.79,0,0,1-2,.26c-.45-.05.18-.09-.06-.19l-.61.14c-.05-.18-1.18-.32-.12-.41l-.95,0a6.5,6.5,0,0,0-1.79-.1c-.45-.05-1.13.18-.74,0l-1.48.07,0,0c-1.45-.08-3,.21-4.63-.26a5.43,5.43,0,0,1-1.66-.17c0-.06-.08-.12-.07-.18.06.13-.42-.26-.66-.46l-.19-.16-.06-.06a.22.22,0,0,0-.13,0c.14-.17.11-.25.19-.35l.05-.07a.75.75,0,0,1,.2-.11,3.93,3.93,0,0,1,.83-.29l0-.21,2.24-.66-.08-.17a19.82,19.82,0,0,1,3.33-.38,1.19,1.19,0,0,1-.63.09c1.56.22,3.19-.66,4.62-.48a2,2,0,0,1,.84-.07l-.08,0h.14l.49.06a2.35,2.35,0,0,0-.41-.07c.26,0,.67-.08,1.06-.16l.19.19.09,0c.4,0,.31-.11.09-.25a3.61,3.61,0,0,0,.52-.16c.34.3,1-.18,1.5.13.26-.19,2-.26,2.2-.63,0,0,.14.06-.08.08A3.89,3.89,0,0,0,141,200l.21.24.95-.4c.61.12.86.19.28.42,1.41-.39,1.15-.19,2.34-.56l0,.17c.44,0,1.11-.3,1.38-.18,1,.24,4.8-.28,7.31-.21-.53-.44,1.17.11,1.24-.27.16.1.51.13.11.27,1.26-.23,1.93,0,2.78-.42.16.1-.26.2-.12.25a1.14,1.14,0,0,1,.53-.09c.14,0-.17.12-.37.19,1.3-.17,1.39-.54,1.45-.87a1.91,1.91,0,0,0,1.44-.27c.24.07.64.13-.16.28.45,0,2.79-.27,2.79-.55a1.83,1.83,0,0,0,.75-.15l1.09-.21.48-.1.78-.22-.39.05a1.17,1.17,0,0,1,.69-.35,6.11,6.11,0,0,0,1.14-.34v0a3.6,3.6,0,0,0,1.42-.61c.11-.12.34-.18,1.11-.76l-.32.07c-.12,0-.06-.09.05-.22a.94.94,0,0,0,.37-.58.71.71,0,0,0-.4-.55,1.75,1.75,0,0,0-.71-.26l.18.15a.88.88,0,0,1-.68-.4,1.27,1.27,0,0,0-.82-.52c-.14-.06.38,0,.64,0a3.18,3.18,0,0,0-.95-.17c-.18,0-.24,0-.29.08s-.18.23-1,.24c-.24-.14.7-.34-.57-.38a3.85,3.85,0,0,0-.88,0l-1,.14a5.61,5.61,0,0,1-1.89.1c.24.1.47.2-.05.3-.81.07-2.21-.31-2.92.07-.1,0-.15,0-.15-.07a13.7,13.7,0,0,0-2.35.47c-.62-.65-3.81.58-3.84-.05l-1.88.17,0-.07a4.64,4.64,0,0,0-2,.4c-.28,0-.08-.1-.06-.13a8.67,8.67,0,0,0-3.41.44l-.17-.19c-.39.14-2.57-.15-4.28.18,0,0,.05-.06.18-.1-1.93.36-4.68-.33-5.36.43l-1.28.23c1.67,0-.23.33.45.43-.65.07-1.7-.18-.89-.24l.12,0c.29-.39-2.06-.1-2-.37-.82,0-1.62,0-2.42,0l-1.19-.08-.59-.05-.33-.05a5.82,5.82,0,0,1-1.07-.25,1.14,1.14,0,0,1-.43-.24.29.29,0,0,1,0-.45,4.78,4.78,0,0,0-.91.14.86.86,0,0,1,.53-.44c.32,0,.68,0,.34.19.3,0,.32-.09.32-.18s-.05-.18-.1-.2c.55-.09.54,0,.54.1s0,.17,0,.14l.2-.08h-.11c0-.14-.08-.26.46-.35.37,0,.26.14.38.13s0,0,.21,0l1.31-.17-.56-.16c.57-.21,1.25-.16.6-.35,1,.27,5-.41,5.58-.32a11.14,11.14,0,0,1,2.66-.38c-.26,0-.43-.29.45-.33-.27.58,1.64.11,2.38.44-.66-.21,2.5-.27,1.47-.56.74,0,.06.2.63.29,1.74-.36,3.88-.19,6-.47,0-.08-.35-.15.1-.3l1.18.24c.43-.08.36-.45,1.16-.29-.11,0-.29-.12,0-.17,4.29-.13,8.59-1.27,13-1.79-.61,0-.23-.09.21-.23-.3.05,0-.17-.13-.25.62-.08,1.23-.19,1.85-.33a3.52,3.52,0,0,1,1-.59c.44-.21.86-.46.88-.63l-.51.35c.28-.34-.05-.33-.44-.35s-.86,0-.88-.22c-.65.67-2.21.27-3.4,1.08-.31,0,.22-.19,0-.24a2.61,2.61,0,0,1-1.48.48l.08-.06a38,38,0,0,1-5.59.72l.21.17a3.94,3.94,0,0,1-.91,0c-.57.38,1.49-.18,1,.21-.75-.28-3.75.48-4.28.08-.82.09.27.2-.55.28l-.23-.1-.2.18c-.54,0-.82-.09-.85-.19a4.8,4.8,0,0,0,.5-.09,16.49,16.49,0,0,0-2.2.22h.79c-2.23.34-5,.41-7.14.84l.17.07c-1.64.31-1.34,0-3.15.24l.06,0a6,6,0,0,1-1.34.24c.45-.15-.89-.14-.29-.31a5,5,0,0,0-2,.67l-.29-.13a3.31,3.31,0,0,1-1.33.38c.74-.21-.6-.18.22-.43-2-.15-2.81.62-3.75.25-.83.52,1.69,0,1.21.18.42.09-.69.39-1.3.43a3.06,3.06,0,0,1-1-.15,4.37,4.37,0,0,0-.7-.08,4.61,4.61,0,0,0-1.13.11c.22,0,.22-.07.44-.11a5.89,5.89,0,0,0-1.25.25,11,11,0,0,1-1.39.33c-.22.32-1.06.44-.73.64a6.67,6.67,0,0,1,1.48-.61,4.53,4.53,0,0,0-1.1.61,6.5,6.5,0,0,0-1.26.92c0-.12.14-.4.29-.56a1.24,1.24,0,0,0-.63.94c-.08,0-.13-.17-.09-.36a1.28,1.28,0,0,1,.34-.54,13.36,13.36,0,0,1,1.28-.93,2.07,2.07,0,0,0-.91.5c-.21.18-.34.31-.41.12.07.28-.25.46-.43.92a1,1,0,0,0,.06.77,1.22,1.22,0,0,0,.64.55h-.29a8.94,8.94,0,0,0,.83.42,4.56,4.56,0,0,1-.79-.2c.46.23.8.44,1.22.67a4.57,4.57,0,0,0,.74.3,4.81,4.81,0,0,0,1,.17,5.2,5.2,0,0,1-1.17-.27c-.15-.07-.14-.1-.08-.13s.42-.07,0-.24a8,8,0,0,1,2.26.53,6.21,6.21,0,0,0,.83.28,5.27,5.27,0,0,0,1.27.12c-.32,0-1.21-.17-.7-.23a7.28,7.28,0,0,1,1.33.26c1.58,0-.24-.21.44-.31.53.24.77-.09,1.46-.17v.2c1.79.11.47-.41,2.07-.29l-.67.29.84-.09-.17.23a6.66,6.66,0,0,1,2.08-.12c-.21-.14.1-.36.89-.4.54.09-.29.2.82.12a1.09,1.09,0,0,1-1,.14c0,.07-.24.14-.29.2a8,8,0,0,0,1.86-.05,1.85,1.85,0,0,1-.44,0l1.6-.35c.26.06.06.13-.14.2.33,0,.55-.14,1-.18-.12.16-.08.33-.75.44l1.52-.26c.11.06.8.15.61.22.85,0,2.07-.44,3.2-.39a1.47,1.47,0,0,1,.41-.11,13.22,13.22,0,0,0,3.25-.21l.73.24c1-.13-1-.29.64-.51,1.16-.18.45.21.86.26a5.6,5.6,0,0,1,2.63-.38C152.94,195.54,152.66,195.52,152.33,195.56Zm12-.77c-.2.05-.65.19-.83.07C163.79,194.63,164,194.73,164.36,194.79Zm-6.26,2.92a1.36,1.36,0,0,1,.75-.05A3,3,0,0,1,158.1,197.71Zm-25,7.34h0C132.59,205,132.78,205,133.14,205.05Zm1.08.1c.11,0,.11-.05.06-.08a1.43,1.43,0,0,1-.6,0A.81.81,0,0,0,134.22,205.15Zm-6.51-12-.13,0C127.84,193,127.77,193.08,127.71,193.15Z" transform="translate(-119.21 -176.58)"/><path class="cls-1" d="M160.13,197.18a.24.24,0,0,1,.12.09C160.33,197.23,160.33,197.19,160.13,197.18Z" transform="translate(-119.21 -176.58)"/><path class="cls-1" d="M144.81,196.18h0a.05.05,0,0,0,0,0Z" transform="translate(-119.21 -176.58)"/><path class="cls-1" d="M122.5,200.93a1.31,1.31,0,0,1,.47-.05S122.85,200.81,122.5,200.93Z" transform="translate(-119.21 -176.58)"/><path class="cls-1" d="M140,204.89l-.69,0a2.18,2.18,0,0,1,.62.07S139.78,204.89,140,204.89Z" transform="translate(-119.21 -176.58)"/><path class="cls-1" d="M146,206.18c.1,0,.21,0,.31,0l0-.09C145.89,206.07,145.59,206.14,146,206.18Z" transform="translate(-119.21 -176.58)"/><path class="cls-1" d="M140.63,205.55c.06.17.49.12,1,.09h-.08C141.67,205.41,141.15,205.48,140.63,205.55Z" transform="translate(-119.21 -176.58)"/><path class="cls-1" d="M141.73,205.64h.45C142.24,205.55,142,205.62,141.73,205.64Z" transform="translate(-119.21 -176.58)"/><path class="cls-1" d="M135.6,205.06c.24.05.15-.21.28-.14C136.14,204.71,134.34,205.15,135.6,205.06Z" transform="translate(-119.21 -176.58)"/><polygon class="cls-1" points="21.81 29.52 21.64 29.32 21.36 29.48 21.81 29.52"/><path class="cls-1" d="M137.17,205.91l.78.07s.08,0,.21-.07A4,4,0,0,0,137.17,205.91Z" transform="translate(-119.21 -176.58)"/><path class="cls-1" d="M138.16,205.91a2.3,2.3,0,0,0,.62,0C138.65,205.89,138.36,205.89,138.16,205.91Z" transform="translate(-119.21 -176.58)"/><polygon class="cls-1" points="20.74 29.57 20.51 29.53 19.96 29.51 20.74 29.57"/><path class="cls-1" d="M128.78,205.7l-.85,0c-.09.07.14.12.45.1S128.91,205.78,128.78,205.7Z" transform="translate(-119.21 -176.58)"/><path class="cls-1" d="M131.34,206.34a.92.92,0,0,1-.37-.16l0,.25Z" transform="translate(-119.21 -176.58)"/><path class="cls-1" d="M128.85,206.33c-.09.07-1.25.16-.17.18C128.77,206.45,129.63,206.42,128.85,206.33Z" transform="translate(-119.21 -176.58)"/><polygon class="cls-1" points="4.8 24.62 4.59 24.68 4.72 25.08 4.8 24.62"/><path class="cls-1" d="M135.16,198.77c-1,0-.21.27-1.14.22-.23.12.76,0,.52.15C135.14,199,135.47,199,135.16,198.77Z" transform="translate(-119.21 -176.58)"/><path class="cls-1" d="M134.54,199.14l-.31.08Z" transform="translate(-119.21 -176.58)"/><path class="cls-1" d="M167.1,187.77c.22-.08.45-.16.67-.26a4.4,4.4,0,0,1-.47.1Z" transform="translate(-119.21 -176.58)"/><path class="cls-1" d="M168.13,186.82l.3.12.21-.47C168.51,186.58,168.27,186.81,168.13,186.82Z" transform="translate(-119.21 -176.58)"/><path class="cls-1" d="M164.79,195.32l.07-.06c.06-.07,0-.07,0-.09A.23.23,0,0,1,164.79,195.32Z" transform="translate(-119.21 -176.58)"/><polygon class="cls-1" points="38.25 18.86 38.4 18.85 38.1 18.63 38.25 18.86"/><path class="cls-1" d="M150.12,196.24c.3,0,.65-.09.95-.1C150.42,196.23,150,195.94,150.12,196.24Z" transform="translate(-119.21 -176.58)"/><path class="cls-1" d="M174.89,211.49c-.09-.12-.19,0-.23,0C174.88,211.7,174.92,211.46,174.89,211.49Z" transform="translate(-119.21 -176.58)"/><path class="cls-1" d="M177,212.32l0,.06a1.67,1.67,0,0,1,.23-.11Z" transform="translate(-119.21 -176.58)"/><path class="cls-1" d="M177.91,212.73c.3-.24-.38-.18-.44-.3l0-.07-.26.17C177.43,212.55,177.9,212.56,177.91,212.73Z" transform="translate(-119.21 -176.58)"/><path class="cls-1" d="M177.15,213.23c.18,0,.16,0,0,0h0S177.17,213.21,177.15,213.23Z" transform="translate(-119.21 -176.58)"/><path class="cls-1" d="M177.16,213.19s-.14,0,0,0Z" transform="translate(-119.21 -176.58)"/><path class="cls-1" d="M177.24,213.39l-.14-.08a1.34,1.34,0,0,1-.21,0A.79.79,0,0,0,177.24,213.39Z" transform="translate(-119.21 -176.58)"/><path class="cls-1" d="M177.52,213.55l0-.06S177.42,213.49,177.52,213.55Z" transform="translate(-119.21 -176.58)"/><path class="cls-1" d="M177.38,213.38a.52.52,0,0,1,.1.11c.07,0,.22,0,0-.05C177.58,213.48,177.46,213.43,177.38,213.38Z" transform="translate(-119.21 -176.58)"/><path class="cls-1" d="M177.45,213.34a.7.7,0,0,1,.18-.05h0a.3.3,0,0,1,.13.06s0,0,0,0-.28-.09-.3,0A.13.13,0,0,0,177.45,213.34Z" transform="translate(-119.21 -176.58)"/><path class="cls-1" d="M178.36,212.62a.66.66,0,0,0,0-.14h-.23C178.26,212.47,178.25,212.67,178.36,212.62Z" transform="translate(-119.21 -176.58)"/><path class="cls-1" d="M176.83,213.47c0,.05.14.14.21.21a.22.22,0,0,0,0-.08A.52.52,0,0,1,176.83,213.47Z" transform="translate(-119.21 -176.58)"/><path class="cls-1" d="M177,213.68a.25.25,0,0,1,0,.12C177.13,213.79,177.11,213.74,177,213.68Z" transform="translate(-119.21 -176.58)"/><path class="cls-1" d="M178,213.73a1.17,1.17,0,0,0-.22-.29.82.82,0,0,1,.2.33Z" transform="translate(-119.21 -176.58)"/><path class="cls-1" d="M176.66,213.48a.34.34,0,0,0,0-.14.54.54,0,0,1,0,.22Z" transform="translate(-119.21 -176.58)"/><path class="cls-1" d="M176.28,213.51c.09-.12-.12-.21,0-.28a1,1,0,0,0-.47.19A.58.58,0,0,1,176.28,213.51Z" transform="translate(-119.21 -176.58)"/><path class="cls-1" d="M175.55,213.54l.24-.12A.68.68,0,0,0,175.55,213.54Z" transform="translate(-119.21 -176.58)"/><path class="cls-1" d="M176.86,213.8a1,1,0,0,0-.13-.17l.09.17Z" transform="translate(-119.21 -176.58)"/><path class="cls-1" d="M176.82,213.81h0Z" transform="translate(-119.21 -176.58)"/><path class="cls-1" d="M176.87,213.8h0S176.87,213.82,176.87,213.8Z" transform="translate(-119.21 -176.58)"/><path class="cls-1" d="M177.47,213.85c.05.11-.06.28.28.33C177.69,214.05,177.52,214,177.47,213.85Z" transform="translate(-119.21 -176.58)"/><path class="cls-1" d="M177,214h.16s-.1-.1-.1-.15A.42.42,0,0,1,177,214Z" transform="translate(-119.21 -176.58)"/><polygon class="cls-1" points="57.76 37.48 57.8 37.42 57.75 37.41 57.76 37.48"/><path class="cls-1" d="M176,213.73a.75.75,0,0,1-.4.07,2,2,0,0,0,.47.08S176.18,213.73,176,213.73Z" transform="translate(-119.21 -176.58)"/><path class="cls-1" d="M176.53,213.8h0S176.53,213.83,176.53,213.8Z" transform="translate(-119.21 -176.58)"/><polygon class="cls-1" points="54.96 37.13 54.98 37.16 54.99 37.13 54.96 37.13"/><path class="cls-1" d="M176.1,213.92a.21.21,0,0,0,.24,0,1.06,1.06,0,0,1-.26,0S176.07,213.92,176.1,213.92Z" transform="translate(-119.21 -176.58)"/><path class="cls-1" d="M175.14,213.6l.2.1C175.29,213.65,175.17,213.55,175.14,213.6Z" transform="translate(-119.21 -176.58)"/><path class="cls-1" d="M176.48,213.76h0S176.46,213.73,176.48,213.76Z" transform="translate(-119.21 -176.58)"/><path class="cls-1" d="M176.48,213.76l-.14.11a.85.85,0,0,0,.17-.06A.09.09,0,0,1,176.48,213.76Z" transform="translate(-119.21 -176.58)"/><path class="cls-1" d="M173.67,214.81c0-.16.35-.29.6-.1.28-.1.14-.65-.08-1,0,.07,0,.13-.29.21.09.1.59.25.35.38s-.29-.08-.46-.17c.14.21-.47.27-.41.57l.32-.09S173.58,214.77,173.67,214.81Z" transform="translate(-119.21 -176.58)"/><path class="cls-1" d="M174.71,213.79h.11a1,1,0,0,1-.37-.24c-.19.07-.23.12-.25.18l.55.05Z" transform="translate(-119.21 -176.58)"/><path class="cls-1" d="M175.32,213.81c-.1.17-.37.23-.22.43.33,0,.24-.13.44-.2-.53,0,.16-.09-.22-.21l.29,0-.27-.1v0h0s0,0,0,0h0l0,.07c-.15-.05,0-.05,0-.07v0h0l-.53.06A1.67,1.67,0,0,0,175.32,213.81Z" transform="translate(-119.21 -176.58)"/><path class="cls-1" d="M177.86,214.58l-.05,0S177.8,214.6,177.86,214.58Z" transform="translate(-119.21 -176.58)"/><path class="cls-1" d="M177.59,214.54s0-.1.1-.11.07.07.12.12.11-.18-.15-.19v0a.78.78,0,0,1-.51-.21A1.21,1.21,0,0,0,177.59,214.54Z" transform="translate(-119.21 -176.58)"/><path class="cls-1" d="M176.47,214.31l-.42.07.22.16v-.09C176.49,214.5,176.45,214.38,176.47,214.31Z" transform="translate(-119.21 -176.58)"/><polygon class="cls-1" points="54.91 37.04 54.98 36.86 54.72 37.1 54.91 37.04"/><polygon class="cls-1" points="54.34 37.03 54.37 36.87 54.22 36.95 54.34 37.03"/><path class="cls-1" d="M141.17,213.74l-.13,0Z" transform="translate(-119.21 -176.58)"/><path class="cls-1" d="M142.1,213.75l0-.08C142.08,213.72,142.06,213.75,142.1,213.75Z" transform="translate(-119.21 -176.58)"/><path class="cls-1" d="M159.51,212.6c-.18-.17-.37-.42-.37-.24l.05.18A.48.48,0,0,1,159.51,212.6Z" transform="translate(-119.21 -176.58)"/><path class="cls-1" d="M149.79,213l.05.06.14-.16Z" transform="translate(-119.21 -176.58)"/><path class="cls-1" d="M149.62,213.75l-.24-.12A.88.88,0,0,0,149.62,213.75Z" transform="translate(-119.21 -176.58)"/><path class="cls-1" d="M136.11,214.13l-.13.19C136.21,214.3,136.1,214.22,136.11,214.13Z" transform="translate(-119.21 -176.58)"/><path class="cls-1" d="M167.7,213.27a1.48,1.48,0,0,0-.4-.14C167.49,213.25,167.63,213.41,167.7,213.27Z" transform="translate(-119.21 -176.58)"/><path class="cls-1" d="M141.52,211.85c-.08,0-.11.07-.11.1S141.54,211.89,141.52,211.85Z" transform="translate(-119.21 -176.58)"/><path class="cls-1" d="M166.83,213.1l.08.05a1.25,1.25,0,0,1,.39,0A.42.42,0,0,0,166.83,213.1Z" transform="translate(-119.21 -176.58)"/><path class="cls-1" d="M119.77,213.91l.06,0S119.79,213.88,119.77,213.91Z" transform="translate(-119.21 -176.58)"/><path class="cls-1" d="M125.32,210.89a1.22,1.22,0,0,1-.16.14S125.25,211,125.32,210.89Z" transform="translate(-119.21 -176.58)"/><path class="cls-1" d="M171.26,213.38c.12,0,0,0,0,0Z" transform="translate(-119.21 -176.58)"/><path class="cls-1" d="M171.8,214.13a.16.16,0,0,0-.05.08A.12.12,0,0,1,171.8,214.13Z" transform="translate(-119.21 -176.58)"/><path class="cls-1" d="M165.54,214.11h0S165.55,214.14,165.54,214.11Z" transform="translate(-119.21 -176.58)"/><path class="cls-1" d="M171.44,213.48l-.15-.07A.52.52,0,0,0,171.44,213.48Z" transform="translate(-119.21 -176.58)"/><path class="cls-1" d="M171.42,213.39l.1,0S171.53,213.37,171.42,213.39Z" transform="translate(-119.21 -176.58)"/><path class="cls-1" d="M171.09,213.38a.64.64,0,0,1,.2,0s0,0,0,0Z" transform="translate(-119.21 -176.58)"/><path class="cls-1" d="M127.65,214.82h0C127.52,214.91,127.57,214.89,127.65,214.82Z" transform="translate(-119.21 -176.58)"/><polygon class="cls-1" points="37 37.63 37.01 37.62 36.99 37.61 37 37.63"/><path class="cls-1" d="M155.76,214.31c.21-.2.31-.17.45-.11l-.11-.53Z" transform="translate(-119.21 -176.58)"/><path class="cls-1" d="M138.94,213.84l.31.16c-.36.27-.62.19-.33.4,0-.56,1.17-.08,1.2-.64l.2.11c-.06,0-.06,0-.12,0,.39.26.28-.41.79-.34.17,0,.29.12.18.19l.39-.14c.11,0,.08.11,0,.1l.59,0h0a2.33,2.33,0,0,1,.37-.27c.15.08-.07,0,0,.12l.33-.13c.13.15-.14.28-.37.26.3.56.27-.14.93.19l-.31.07c.2.32.44.21.79.4-.08-.1-.69-.5-.34-.63a.46.46,0,0,0,.43-.05c0,.2.19.15.43.14l0,.27c.25-.07.24-.21.39-.32s.34.24.4.41c.45.06-.31-.33.23-.37a1.78,1.78,0,0,0,1.11-.13c.26.1-.05.16,0,.24l.24-.21c.06,0,0,.08,0,.11.2-.08,0-.27.34-.33.09-.29.62.45,1,.14.1.08,0,.16,0,.26a3,3,0,0,0,.91-.4l.36.19c-.26-.21.1-.43.41-.61l-.22-.23.49-.11c.06,0,0,.13-.08.24l.09-.06c.17.1.07.25-.06.39l-.17-.17a.77.77,0,0,0-.23.48.34.34,0,0,1,.16-.06s-.05.08,0,.1.07,0,.15-.09l.1.3,0-.11.63.21a3.68,3.68,0,0,1,1.63-.75c-.2.2-.06.34-.09.6-.18-.28-.57.08-.94,0,.2,0,.15.16.09.2l.69-.21c0,.21.13.17.3.27-.11-.42.52-.25.8-.36,0,.14-.07.28-.4.23.35.33.5-.46.85-.17-.08,0-.13,0-.16,0,.19-.11.65,0,.53.13h-.08c.54.08,1.64.11,1.75-.23a2.77,2.77,0,0,1-.14.48l1-1.1c-.1.29.17,1-.29,1.16a.67.67,0,0,0,.56,0c-.08,0-.18-.45-.06-.47.3.36.21.2.6.51-.13-.07.05-.53.26-.5,0,.06,0,.46-.1.51l.55-.43c-.14.08-.05.39.05.53,0-.09.45,0,.59,0l-.21-.13c.58.12.62-.6,1.2-.53-.08.09-.22.57.07.65.15-.22.69-1.09,1.21-1.23l.09.14.4-.12a8.76,8.76,0,0,1-1.41,1.29c.21.12,0,.17.38.18.1.13-.2.18-.29.18l.75.14c0-.28.6-.24.59-.47l-.84.22c0-.27.53-.74,1.07-.65.13.12-.14.48-.14.57.08-.09.53-.14.57-.07l-.24.13c.29.13.52-.32.86,0,.12,0,.34.38.38.22a2.42,2.42,0,0,1,0-1.53,4.17,4.17,0,0,1,.76.51c.18.27-.35.57-.2.79,0-.07.14-.15.19-.18s-.08.23.21.22c.07-.28.58.06.15-.23.29-.06.29.08.62.09-.09-.18.34-.59.63-.65,0,.07,0,.17.06.21.56.07.86.22,1.39.27,0,.07.3.17.18.28a.56.56,0,0,1,.32-.13c.3.27-.37,0-.15.32,0-.16.44-.19.68-.27-.05-.26-.53-.09-.77,0,0-.35.45-.68,1-.8s.18.24.26.2c.82.12.74-.56,1.41-.26.26.24,0,.44,0,.61-.36.05-.54-.18-.78-.19l.29.12a.6.6,0,0,1-.49,0c.22.21,1.4.13,2,.36.11-.07.32-.13.23-.23l-.21,0c-.17-.19.4-.22.15-.32a1.32,1.32,0,0,1,1-.15l.06.25c0-.07-.24-.16-.35-.09.16-.11.56.38.76.06l-.26-.19c.28-.11.63-.36,1-.26-.14-.26-.08,0-.3-.28.18.37-.87-.07-.56.33-.22-.35-.42-.17-.72-.48,0,.08.11.16-.18.1a.14.14,0,0,1-.06.07h0c.06,0,.12.09.13.14-.15.18-.6.14-.76.23s.08-.09,0-.19l-.24.13c0-.18-.42-.33,0-.41l-.35,0a.89.89,0,0,0-.68-.11c-.16-.05-.44.17-.28,0l-.57.07v0c-.55-.07-1.16.22-1.77-.16a1.58,1.58,0,0,1-.69,0l-.05-.17c-.24,0-.7-.21-.82,0-.22-.45-1.15-.19-1.57-.3l0,.21a3.49,3.49,0,0,0-.94.06v.19c-.32.12-.78-.2-1.27-.22,0-.06.16,0,.24,0-.55-.46-1.26.21-1.77-.13a.35.35,0,0,1-.32,0h0l-.17-.11a1.1,1.1,0,0,0,.14.11,1.26,1.26,0,0,0-.41,0l-.05-.21h0c-.14-.09-.12.08-.05.24a.59.59,0,0,0-.21.1c-.1-.33-.41.08-.55-.27-.12.15-.77.06-.88.41,0-.05-.05-.07,0-.07a.64.64,0,0,0-.49,0l-.06-.25-.39.31c-.22-.17-.3-.27-.07-.44-.56.26-.44.08-.92.34l0-.16c-.16,0-.44.19-.53,0-.34-.34-1.81-.16-2.73-.51.15.49-.43-.24-.49.13,0-.11-.17-.19,0-.28-.49.09-.72-.22-1.07.07-.05-.11.12-.16.07-.23s-.16.09-.2,0,.07-.09.15-.13c-.49,0-.56.34-.62.67-.24-.17-.36-.16-.55.05-.08-.11-.22-.23.08-.25-.17,0-1-.21-1.07,0,0-.07-.24,0-.28,0a4.35,4.35,0,0,0-.8,0l.1,0c-.16.31-.32.06-.62.09v0c-.7-.25-.31.1-1-.18l0,.2c-.08.42-.6-.27-1-.12l.14.12c-.22.14-.6-.6-.82-.66,0,0,.08,0,.15-.08-.58-.27-.08.25-.52.31-.07-.14.11-.36-.18-.38s-.85.44-1.24.18c.09.1.17.21,0,.29s-.83-.41-1.1-.07a.12.12,0,0,1-.06-.09c-.23.09-.76.15-.9.34-.23-.67-1.45.37-1.46-.25l-.72.05,0-.07a.8.8,0,0,0-.78.3c-.11,0,0-.1,0-.14a1.38,1.38,0,0,0-1.29.3l-.07-.2c-.14.14-1-.27-1.65,0a.22.22,0,0,1,.07-.1c-.72.33-1.86-.36-2,.41l-.46.24c.64,0,0,.33.23.42-.25.07-.67-.12-.38-.21l.06,0c.05-.4-.8,0-.83-.27-.62.12-1.24.17-1.85.24s-1.22.18-1.8.31l.21.26-.41.08c-.12,0-.2-.19.09-.25-.2-.12-.44.26-.43.32-.59,0,.12-.4,0-.35a.92.92,0,0,0-.23.09h.06c-.15.18-.13.31-.47.41s-.17-.14-.26-.12,0,0-.13,0l-.51.14.28.16c-.18.18-.47.14-.16.32-.48-.29-1.89.51-2,.44a1.12,1.12,0,0,1-.71.38.23.23,0,0,1-.18.35c.22-.63-.38-.15-.23-.62-.07.32-.54.14-.74.6-.14-.05.22-.26.26-.43-.29.15-.54,0-.44-.24s.32-.45.36-.6c-.11,0-.32.12-.43.06a3.76,3.76,0,0,1,.65-.24s-.49-.09-.08-.18c-.08,0-.22,0-.2,0l.33-.24.31-.3.82-.88a4.52,4.52,0,0,1,2-1.34c-.25,0-.15-.08,0-.19-.1,0-.11-.14-.18-.2l.68-.18c0-.3.54-.39.45-.63l-.13.13c.08-.41-.69-.37-.89-.7-.07.47-1,.11-1.14.85-.14,0,0-.16-.11-.19,0,.22-.1.35-.38.49v0c-.63.59-1,.71-1.79,1.32l.19.09a.8.8,0,0,1-.35.15c0,.38.43-.4.51,0-.24,0-.5.22-.76.48s-.67.7-1,.73c-.3.37.31,0,0,.32l-.2.07.11.12a1,1,0,0,1-.57.35,1.12,1.12,0,0,0,.11-.25,2.1,2.1,0,0,0-.53,1,2.58,2.58,0,0,1,.24-.37,2.89,2.89,0,0,0-.23,1.53,1,1,0,0,0,.5.66,1.67,1.67,0,0,0,.77.13v-.09c.82-.12.48.15,1.42,0l0,0a2.45,2.45,0,0,1,.71-.3c-.26.18.43.11.1.31.52-.21.54-.29.62-.36a2,2,0,0,1,.29-.41l.15.1c.14-.18.13-.26.44-.42-.22.23.29.14,0,.42.81,0,.9-.69,1.38-.34.16-.5-.67,0-.52-.16-.2-.08.14-.38.37-.42s.55.39,1.08.2c-.06,0,0,.05-.1.07.23,0,.35-.28.64-.19.07-.3.33-.09.28-.41a5.24,5.24,0,0,0-.48.23c.25-.19.43-.62,1-.56a.69.69,0,0,1-.23.26c.17.06.25-.12.42-.06.05.33-.6.21-.83.54.17.08.51-.37.45,0,.1-.49.55-.08.84-.5l0,.19c.05,0,.15-.16.26-.18l-.14.29c.25-.28.62,0,.88-.14-.6.15-.18-.2-.47-.27.7-.44.53.38,1.36.14-.11,0-.45,0-.29-.16a1.21,1.21,0,0,1,.52.13c.55-.13-.12-.18.1-.34.23.2.26-.14.49-.26l0,.19c.66,0,.1-.43.71-.38l-.2.31.29-.12,0,.23a.86.86,0,0,1,.75-.16c-.09-.13,0-.36.29-.4s-.09.2.32.13c-.08.13-.16.3-.36.14,0,.06-.08.13-.09.2.23.11.54,0,.68-.05a.41.41,0,0,1-.16,0l.56-.34c.11.06,0,.13,0,.2.12,0,.19-.14.37-.18,0,.17,0,.33-.25.44l.55-.24c0,.06.31.16.24.22.32.07.75-.36,1.17-.27a.32.32,0,0,1,.15-.09c.4,0,.76.18,1.21-.07l.28.27c.36-.09-.37-.34.23-.48.43-.11.17.24.33.32.21-.16.57-.46,1-.24C139.17,213.86,139.06,213.82,138.94,213.84Zm4.55-.17c-.09,0-.27.17-.33.05C143.26,213.5,143.34,213.61,143.49,213.67Zm7-.23c-.07.06-.17,0-.28-.06A.45.45,0,0,1,150.45,213.44Zm19.47,0h0C169.72,213.37,169.79,213.4,169.92,213.45Zm.41.11a0,0,0,0,0,0-.08c0,.05-.12.05-.23,0S170.2,213.6,170.33,213.56Zm-44.31.37.09,0C126,214.06,126,214,126,213.93Z" transform="translate(-119.21 -176.58)"/><path class="cls-1" d="M149.64,213.67a.35.35,0,0,1,0-.11S149.57,213.63,149.64,213.67Z" transform="translate(-119.21 -176.58)"/><path class="cls-1" d="M136.14,214.09h0v0Z" transform="translate(-119.21 -176.58)"/><path class="cls-1" d="M163.84,214.77a.44.44,0,0,1-.16-.12S163.71,214.75,163.84,214.77Z" transform="translate(-119.21 -176.58)"/><path class="cls-1" d="M172.52,213.38l-.26,0a.41.41,0,0,1,.23.08S172.44,213.38,172.52,213.38Z" transform="translate(-119.21 -176.58)"/><path class="cls-1" d="M174.73,214.74s.08,0,.12,0v-.09C174.68,214.63,174.56,214.69,174.73,214.74Z" transform="translate(-119.21 -176.58)"/><path class="cls-1" d="M172.72,214.05c0,.17.18.12.37.1h0C173.12,213.92,172.92,214,172.72,214.05Z" transform="translate(-119.21 -176.58)"/><path class="cls-1" d="M173.13,214.15h.17C173.33,214.07,173.23,214.13,173.13,214.15Z" transform="translate(-119.21 -176.58)"/><path class="cls-1" d="M170.85,213.49c.09,0,.07-.21.12-.14C171.08,213.15,170.37,213.57,170.85,213.49Z" transform="translate(-119.21 -176.58)"/><polygon class="cls-1" points="53.62 38.03 53.57 37.82 53.46 37.98 53.62 38.03"/><path class="cls-1" d="M171.39,214.36l.29.08s0-.05.08-.07C171.58,214.36,171.39,214.3,171.39,214.36Z" transform="translate(-119.21 -176.58)"/><path class="cls-1" d="M171.76,214.37a.37.37,0,0,0,.24,0A1,1,0,0,0,171.76,214.37Z" transform="translate(-119.21 -176.58)"/><polygon class="cls-1" points="53.22 38.06 53.13 38.02 52.92 37.99 53.22 38.06"/><path class="cls-1" d="M168.23,214.1l-.33,0c0,.07,0,.12.17.1S168.27,214.17,168.23,214.1Z" transform="translate(-119.21 -176.58)"/><path class="cls-1" d="M169.16,214.73c-.09,0-.09-.09-.13-.16l0,.25Z" transform="translate(-119.21 -176.58)"/><path class="cls-1" d="M168.22,214.72c0,.07-.49.17-.08.19C168.18,214.84,168.51,214.8,168.22,214.72Z" transform="translate(-119.21 -176.58)"/><polygon class="cls-1" points="44.18 37.45 44.27 37.45 44.29 37.03 44.18 37.45"/><path class="cls-1" d="M159.05,214.7c.38.13.11-.25.45-.1.09-.09-.28-.12-.18-.2C159.08,214.49,159,214.42,159.05,214.7Z" transform="translate(-119.21 -176.58)"/><path class="cls-1" d="M159.32,214.4l.12-.05Z" transform="translate(-119.21 -176.58)"/><path class="cls-1" d="M126.13,210.59a.71.71,0,0,1,.2,0,.49.49,0,0,0-.17-.06Z" transform="translate(-119.21 -176.58)"/><path class="cls-1" d="M126.26,210.16l.06.12,0,.06s0,0,0,0l-.09-.29v0h0l.11.34h0l-.06,0a.41.41,0,0,1-.22-.13.5.5,0,0,0,.13,0h.15l-.06-.19h0c.06.22,0,.17,0,.17S126.27,210.17,126.26,210.16Z" transform="translate(-119.21 -176.58)"/><path class="cls-1" d="M144.15,214.22l0-.07c0-.07-.09-.08-.2-.09Z" transform="translate(-119.21 -176.58)"/><polygon class="cls-1" points="21.65 37.42 21.7 37.42 21.6 37.19 21.65 37.42"/><path class="cls-1" d="M138.12,214.38c.11,0,.24,0,.35,0C138.23,214.39,138.08,214.08,138.12,214.38Z" transform="translate(-119.21 -176.58)"/></svg>