<svg id="view" xmlns="http://www.w3.org/2000/svg" viewBox="0 0 25.41 10.81" width="50" height="50"><defs><style>.cls-1{fill:#e43b26;}</style></defs><path class="cls-1" d="M346.39,180.77s0-.1,0-.12S346.39,180.8,346.39,180.77Z" transform="translate(-321 -177.49)"/><polygon class="cls-1" points="24.75 3.56 24.75 3.52 24.66 3.63 24.75 3.56"/><path class="cls-1" d="M345.12,181.07c.06.18.23,0,.34,0l0,0,0-.15C345.39,181,345.21,181.12,345.12,181.07Z" transform="translate(-321 -177.49)"/><path class="cls-1" d="M344.79,180.68c0,.07-.07,0,.08,0v0Z" transform="translate(-321 -177.49)"/><path class="cls-1" d="M344.86,180.68c.06,0-.05-.06,0,0Z" transform="translate(-321 -177.49)"/><path class="cls-1" d="M344.55,180.71l.09-.06s-.09-.05-.06-.08S344.51,180.64,344.55,180.71Z" transform="translate(-321 -177.49)"/><path class="cls-1" d="M344.47,180.84l0,0S344.5,180.79,344.47,180.84Z" transform="translate(-321 -177.49)"/><path class="cls-1" d="M344.61,180.76l-.1.06s0,.08.05,0S344.57,180.8,344.61,180.76Z" transform="translate(-321 -177.49)"/><path class="cls-1" d="M344.66,180.79s.11.07,0,.13C344.85,180.9,344.83,180.77,344.66,180.79Z" transform="translate(-321 -177.49)"/><path class="cls-1" d="M345.09,181.25l.06.05.06-.06S345.08,181.2,345.09,181.25Z" transform="translate(-321 -177.49)"/><path class="cls-1" d="M344,180.59s0,.1,0,.15l.07,0S344,180.65,344,180.59Z" transform="translate(-321 -177.49)"/><path class="cls-1" d="M344.05,180.74l-.1.06C344,180.81,344.06,180.78,344.05,180.74Z" transform="translate(-321 -177.49)"/><polygon class="cls-1" points="23.44 3.54 23.61 3.41 23.41 3.54 23.44 3.54"/><polygon class="cls-1" points="22.67 3.06 22.73 2.98 22.62 3.1 22.67 3.06"/><path class="cls-1" d="M343.43,180.54c.05-.07,0-.13,0-.17a.47.47,0,0,0-.18.12C343.31,180.46,343.36,180.48,343.43,180.54Z" transform="translate(-321 -177.49)"/><path class="cls-1" d="M343.16,180.56l.09-.07A.18.18,0,0,0,343.16,180.56Z" transform="translate(-321 -177.49)"/><path class="cls-1" d="M343.79,180.77a.14.14,0,0,0-.06-.12l0,.11Z" transform="translate(-321 -177.49)"/><path class="cls-1" d="M343.76,180.76h0Z" transform="translate(-321 -177.49)"/><path class="cls-1" d="M343.8,180.77h0Z" transform="translate(-321 -177.49)"/><path class="cls-1" d="M344.2,180.93c-.06,0-.19.11-.08.21C344.17,181.07,344.1,181,344.2,180.93Z" transform="translate(-321 -177.49)"/><path class="cls-1" d="M343.84,180.9l.1,0s0-.07,0-.1Z" transform="translate(-321 -177.49)"/><polygon class="cls-1" points="22.78 3.44 22.84 3.41 22.8 3.4 22.78 3.44"/><path class="cls-1" d="M343.32,180.68a.23.23,0,0,1-.16,0l.18.05S343.38,180.68,343.32,180.68Z" transform="translate(-321 -177.49)"/><path class="cls-1" d="M343.53,180.73h0S343.53,180.75,343.53,180.73Z" transform="translate(-321 -177.49)"/><polygon class="cls-1" points="21.63 3.15 21.64 3.17 21.64 3.15 21.63 3.15"/><path class="cls-1" d="M343.34,180.79s.07,0,.1,0h-.1S343.33,180.79,343.34,180.79Z" transform="translate(-321 -177.49)"/><path class="cls-1" d="M343,180.59l.07.07S343,180.56,343,180.59Z" transform="translate(-321 -177.49)"/><path class="cls-1" d="M343.51,180.7Z" transform="translate(-321 -177.49)"/><path class="cls-1" d="M343.51,180.7l-.07.06a.11.11,0,0,0,.08,0S343.51,180.71,343.51,180.7Z" transform="translate(-321 -177.49)"/><path class="cls-1" d="M342.36,181.3c0-.1.16-.17.24-.05.11-.06.09-.39,0-.59,0,.05,0,.09-.13.13s.21.16.11.23-.11-.05-.16-.11c0,.13-.2.15-.2.33l.13,0S342.33,181.27,342.36,181.3Z" transform="translate(-321 -177.49)"/><path class="cls-1" d="M342.83,180.7h0a.46.46,0,0,1-.12-.16c-.08,0-.1.07-.11.11l.2,0Z" transform="translate(-321 -177.49)"/><path class="cls-1" d="M343.06,180.72c-.05.1-.16.13-.11.26s.1-.08.18-.12c-.2,0,.06-.05-.07-.13h.1l-.09-.06h0s0,0,0,0h0v0c-.06,0,0,0,0,0v0h0l-.2,0A.45.45,0,0,0,343.06,180.72Z" transform="translate(-321 -177.49)"/><path class="cls-1" d="M344,181.36a0,0,0,0,1,0,0S344,181.35,344,181.36Z" transform="translate(-321 -177.49)"/><path class="cls-1" d="M343.92,181.29s0-.06.08,0,0,.05,0,.08.11-.06,0-.12h0a.41.41,0,0,1-.16-.2A.92.92,0,0,0,343.92,181.29Z" transform="translate(-321 -177.49)"/><path class="cls-1" d="M343.47,181l-.17,0,.08.1v0C343.47,181.15,343.46,181.08,343.47,181Z" transform="translate(-321 -177.49)"/><polygon class="cls-1" points="21.62 3.09 21.66 2.98 21.54 3.13 21.62 3.09"/><polygon class="cls-1" points="21.41 3.07 21.43 2.98 21.36 3.03 21.41 3.07"/><path class="cls-1" d="M330.34,181.43l0,0Z" transform="translate(-321 -177.49)"/><path class="cls-1" d="M330.66,181.33v-.05S330.65,181.33,330.66,181.33Z" transform="translate(-321 -177.49)"/><path class="cls-1" d="M337.1,179.53c-.06-.11-.12-.27-.13-.16v.12A.13.13,0,0,1,337.1,179.53Z" transform="translate(-321 -177.49)"/><path class="cls-1" d="M333.34,180.12l0,0,0-.11Z" transform="translate(-321 -177.49)"/><path class="cls-1" d="M333.35,180.57l-.1-.06A.14.14,0,0,0,333.35,180.57Z" transform="translate(-321 -177.49)"/><path class="cls-1" d="M328.67,182.3v.13C328.75,182.38,328.69,182.35,328.67,182.3Z" transform="translate(-321 -177.49)"/><path class="cls-1" d="M340.23,180.18a.33.33,0,0,0-.14-.09C340.15,180.16,340.19,180.27,340.23,180.18Z" transform="translate(-321 -177.49)"/><path class="cls-1" d="M330.08,180.3a.07.07,0,0,0,0,.08A.09.09,0,0,0,330.08,180.3Z" transform="translate(-321 -177.49)"/><path class="cls-1" d="M339.91,180.05l0,0a.26.26,0,0,1,.15,0A.11.11,0,0,0,339.91,180.05Z" transform="translate(-321 -177.49)"/><path class="cls-1" d="M323.61,186.76h0S323.6,186.77,323.61,186.76Z" transform="translate(-321 -177.49)"/><path class="cls-1" d="M321.43,187.48l.06,0S321.46,187.45,321.43,187.48Z" transform="translate(-321 -177.49)"/><path class="cls-1" d="M341.56,180.37c.05,0,0,0,0,0Z" transform="translate(-321 -177.49)"/><path class="cls-1" d="M341.71,180.84s0,0,0,0S341.7,180.84,341.71,180.84Z" transform="translate(-321 -177.49)"/><path class="cls-1" d="M339.31,180.62Z" transform="translate(-321 -177.49)"/><path class="cls-1" d="M341.62,180.43l-.05,0A.11.11,0,0,0,341.62,180.43Z" transform="translate(-321 -177.49)"/><path class="cls-1" d="M341.62,180.38l0,0S341.67,180.37,341.62,180.38Z" transform="translate(-321 -177.49)"/><path class="cls-1" d="M341.5,180.37l.07,0v0Z" transform="translate(-321 -177.49)"/><path class="cls-1" d="M325.83,183.79h0C325.81,183.85,325.82,183.83,325.83,183.79Z" transform="translate(-321 -177.49)"/><polygon class="cls-1" points="14.78 3.01 14.79 3.01 14.78 3 14.78 3.01"/><path class="cls-1" d="M335.62,180.58c.07-.13.11-.12.16-.08l0-.32Z" transform="translate(-321 -177.49)"/><path class="cls-1" d="M329.58,181.77l.14,0c-.06.2-.16.2,0,.27-.12-.32.39-.19.27-.51l.1,0s0,0,0,0c.19.1,0-.27.2-.29s.13,0,.11.08l.1-.13c.05,0,.06,0,0,.06l.21-.09h0a1.29,1.29,0,0,1,.07-.21c.07,0,0,.05,0,.08l.09-.12c.07.07,0,.19-.08.2.21.29.07-.11.36,0l-.09.08c.12.16.19.06.34.14,0,0-.33-.21-.23-.33s.09,0,.14-.08c0,.12.1.07.18,0l0,.16c.08-.07.05-.15.08-.23s.16.1.21.2-.16-.16,0-.24.23-.07.38-.2c.11,0,0,.1.05.14l.06-.14s0,0,0,.06,0-.16.08-.22.28.2.39,0c0,0,0,.1,0,.16a1.22,1.22,0,0,0,.28-.32l.16.08c-.12-.1,0-.26.09-.39a.68.68,0,0,0-.11-.12l.18-.11s0,.08,0,.15l0,0c.07.05.05.15,0,.24l-.08-.09a.67.67,0,0,0,0,.31.1.1,0,0,1,.06-.05s0,.05,0,.06,0,0,.05-.06l.06.17v-.07l.25.08c.15-.2.28-.47.55-.56-.06.14,0,.22,0,.37-.08-.16-.2.08-.34,0a.09.09,0,0,1,.05.12l.23-.16c0,.12.06.09.13.14-.06-.25.18-.18.28-.26,0,.09,0,.17-.14.16.14.18.17-.3.31-.15,0,0-.05,0-.06,0s.24,0,.2.06h0c.2,0,.61,0,.65-.2,0,0,0,.26-.05.3.13-.24.26-.48.4-.7,0,.18,0,.62-.12.71a.17.17,0,0,0,.21,0s-.07-.27,0-.28a1.34,1.34,0,0,0,.21.3s0-.32.11-.31a1.34,1.34,0,0,1-.05.31l.22-.26c-.05,0,0,.24,0,.32s.17,0,.22,0l-.07-.08c.21.08.26-.35.48-.29,0,.05-.11.34,0,.4.07-.14.32-.65.53-.72l0,.09.16-.06a5,5,0,0,1-.62.74c.08.08,0,.1.13.12s-.08.1-.11.1l.27.11c0-.17.24-.13.25-.27l-.33.11c0-.17.25-.43.44-.36s-.08.28-.09.34.21-.07.22,0l-.1.07c.1.09.22-.18.33,0,0,0,.1.24.13.14a2.1,2.1,0,0,1,.12-.92,1.83,1.83,0,0,1,.25.33c.05.17-.18.33-.14.47a.21.21,0,0,1,.08-.1c.05,0,0,.13.07.13.05-.16.21.06.07-.13.12,0,.11.06.23.07s.18-.34.3-.37,0,.1,0,.13c.21.06.31.16.51.2,0,0,.1.11,0,.17a.18.18,0,0,1,.14-.06c.08.17-.15,0-.1.18,0-.09.19-.1.3-.14s-.2-.07-.3,0a.61.61,0,0,1,.47-.44c.18,0,0,.15.08.13.3.1.34-.3.56-.1s-.05.26,0,.36c-.15,0-.19-.13-.28-.14l.1.09a.18.18,0,0,1-.19,0c.06.13.52.13.74.28.05,0,.13-.06.11-.12h-.08c-.05-.12.17-.12.08-.19.12-.05.25-.15.38-.06v.15s-.07-.1-.12-.07.18.25.28.06l-.08-.12c.11-.06.27-.2.38-.13,0-.16,0,0-.09-.18,0,.23-.32-.06-.23.19-.06-.22-.15-.12-.23-.31,0,0,0,.1-.08.06l0,0h0a.18.18,0,0,1,0,.09c-.07.1-.24.07-.31.12s0-.06,0-.12l-.1.08c0-.12-.13-.22,0-.26l-.13,0c-.07-.07-.17-.12-.24-.09s-.19.09-.11,0l-.23,0v0c-.21-.06-.46.09-.66-.16a.33.33,0,0,1-.27,0V180c-.09,0-.25-.15-.31-.06-.05-.27-.44-.14-.59-.22l0,.12a.94.94,0,0,0-.37,0v.11c-.13.07-.29-.14-.48-.16,0,0,.07,0,.1,0-.19-.3-.5.09-.68-.14a.09.09,0,0,1-.12,0h0l-.06-.07,0,.07a.3.3,0,0,0-.16,0v-.12h0c-.06-.06-.06,0,0,.14a.16.16,0,0,0-.08.06c0-.21-.17,0-.21-.17-.05.1-.31,0-.36.26,0,0,0-.05,0,0s-.13-.07-.2,0v-.16l-.16.2c-.08-.1-.12-.16,0-.27-.23.16-.18.06-.37.23l0-.1c-.07,0-.18.14-.21.05s-.71,0-1.09-.18c.09.29-.18-.12-.18.11,0-.07-.08-.11,0-.17-.18.07-.29-.09-.41.12,0-.07,0-.11,0-.15s0,.07-.08,0,0-.06.05-.09c-.19,0-.19.24-.18.44-.11-.08-.16-.06-.21.08,0-.06-.11-.12,0-.16-.07,0-.43-.05-.41.12,0,0-.09,0-.1,0a1.54,1.54,0,0,0-.31.05l0,0c0,.2-.11.07-.22.11v0c-.3-.08-.11.08-.4,0l0,.11c0,.26-.27-.09-.39,0l.07.05c-.06.11-.32-.28-.42-.29s0,0,0-.06c-.26-.09,0,.15-.14.23-.05-.07,0-.22-.13-.2s-.24.37-.44.26c.06,0,.11.1,0,.17s-.39-.13-.43.1l0,0c-.07.08-.25.19-.26.31-.23-.35-.45.4-.6,0l-.25.14v0a.3.3,0,0,0-.22.28s0-.05,0-.07c-.27,0-.29.06-.4.34l-.07-.1c0,.09-.43,0-.59.26a.11.11,0,0,1,0-.06c-.18.26-.78.08-.63.51l-.1.2c.23-.1.08.18.2.19-.06.07-.28,0-.19-.06h0c-.09-.22-.3.09-.38,0-.39.3-.85.48-1.21.78l.16.1-.13.1c-.05,0-.13-.07,0-.14-.11,0-.09.19-.06.22-.22.09-.08-.22-.13-.17l-.07.07h0c0,.1,0,.16-.06.25s-.11-.05-.14,0,0,0,0,0l-.16.13.16.05c0,.11-.14.13,0,.18-.28-.09-.6.46-.7.48a.49.49,0,0,1-.2.35c.05,0,.18.09.08.17-.22-.25-.27.08-.52,0,.19,0-.2.32.07.34-.09.07-.1-.07-.21-.05-.06.28-.43.41-.57.69,0,0,.12,0,.13.12h-.27c0,.06.17.19,0,.19,0,0,.1,0,.09.07-.51.34-.64,1.11-1.32,1.09.1,0,.07.06,0,.1s.06.09.1.13a1.27,1.27,0,0,1-.28,0c0,.17-.2.11-.16.26l.05-.05c0,.22.3.33.39.54,0-.24.5.09.51-.3.07,0,0,.09.07.12,0-.12,0-.17.15-.22v0a6.32,6.32,0,0,1,.73-.55l-.11-.06a.24.24,0,0,1,.15-.05c-.08-.19-.15.17-.25,0,.26.07.35-.45.61-.34.08-.1-.13-.06-.06-.16l.08,0-.06-.08a.2.2,0,0,1,.21,0s0,.06,0,.08.14-.26.19-.27l-.11.07c.13-.32.44-.56.51-.89l-.06,0c.07-.25.16-.11.29-.34v0a.21.21,0,0,1,.07-.19c0,.09.18,0,.18.1.08-.26,0-.15,0-.41l.1,0c0-.1-.06-.13,0-.25,0,.14.16,0,.16.2.32-.06.14-.43.43-.31-.09-.27-.27.06-.26,0s-.06-.21,0-.25.34.13.49,0c0,0,0,0,0,0s.05-.18.19-.16c-.06-.16.11-.08,0-.24l-.12.17c.05-.12,0-.36.2-.4a.5.5,0,0,1,0,.17c.08,0,.06-.1.14-.09.12.16-.16.19-.15.38.1,0,.08-.26.17-.06-.11-.26.19-.11.16-.36l.07.1s0-.11,0-.13l0,.17c0-.18.24-.06.29-.18-.18.15-.13-.08-.26-.09.13-.31.32.14.55-.09,0,0-.18,0-.16-.05a.36.36,0,0,1,.23,0c.15-.15-.1-.08-.07-.19.14.07.05-.11.1-.21l.07.1c.24-.08-.09-.25.15-.29V183l.08-.1,0,.12c.05-.15.1-.15.22-.18a.17.17,0,0,1,0-.26c.1,0,0,.12.15,0,0,.09,0,.19-.09.13s0,.08,0,.12.17-.09.22-.12h-.06l.1-.26c.05,0,.05.07,0,.11s0-.09.08-.14.09.18,0,.27l.13-.2s.15.05.14.09.16-.3.33-.31a.13.13,0,0,1,0-.07c.14-.06.31,0,.41-.19l.16.11c.11-.09-.21-.14,0-.3s.11.11.18.13.09-.34.29-.26C329.66,181.75,329.62,181.73,329.58,181.77Zm1.56-.65s-.07.13-.11.06S331.07,181.1,331.14,181.12Zm2.48-.8s-.06,0-.11,0A.14.14,0,0,1,333.62,180.32Zm7.43.05h0C341,180.32,341,180.34,341.05,180.37Zm.14.08s0,0,0,0,0,0-.09,0S341.14,180.47,341.19,180.45Zm-16.27,3.07h0C324.93,183.59,324.93,183.56,324.92,183.52Z" transform="translate(-321 -177.49)"/><path class="cls-1" d="M333.35,180.52s0,0,0-.06S333.32,180.5,333.35,180.52Z" transform="translate(-321 -177.49)"/><polygon class="cls-1" points="7.67 4.78 7.66 4.79 7.67 4.81 7.67 4.78"/><path class="cls-1" d="M338.61,181a.12.12,0,0,1-.05-.07S338.56,181,338.61,181Z" transform="translate(-321 -177.49)"/><path class="cls-1" d="M342,180.4l-.1,0s.06,0,.08.05S342,180.4,342,180.4Z" transform="translate(-321 -177.49)"/><path class="cls-1" d="M342.78,181.28s0,0,0,0v-.06C342.76,181.2,342.71,181.24,342.78,181.28Z" transform="translate(-321 -177.49)"/><path class="cls-1" d="M342.06,180.81c0,.11.06.08.13.07h0C342.22,180.75,342.14,180.78,342.06,180.81Z" transform="translate(-321 -177.49)"/><path class="cls-1" d="M342.21,180.88h.06S342.25,180.88,342.21,180.88Z" transform="translate(-321 -177.49)"/><path class="cls-1" d="M341.4,180.43s.05-.13.06-.08C341.52,180.23,341.21,180.46,341.4,180.43Z" transform="translate(-321 -177.49)"/><polygon class="cls-1" points="21.06 3.66 21.05 3.53 21 3.62 21.06 3.66"/><path class="cls-1" d="M341.53,181l.1.06s0,0,0,0S341.53,180.93,341.53,181Z" transform="translate(-321 -177.49)"/><path class="cls-1" d="M341.67,181s.07,0,.09,0Z" transform="translate(-321 -177.49)"/><polygon class="cls-1" points="20.9 3.67 20.87 3.64 20.8 3.62 20.9 3.67"/><path class="cls-1" d="M340.35,180.7h-.13s0,.07,0,.06S340.35,180.74,340.35,180.7Z" transform="translate(-321 -177.49)"/><path class="cls-1" d="M340.64,181.11a.18.18,0,0,1,0-.1l0,.15Z" transform="translate(-321 -177.49)"/><path class="cls-1" d="M340.28,181.07s-.21.08,0,.11S340.38,181.13,340.28,181.07Z" transform="translate(-321 -177.49)"/><polygon class="cls-1" points="17.5 3.01 17.53 3.02 17.57 2.77 17.5 3.01"/><path class="cls-1" d="M336.82,180.79c.13.09.05-.15.17,0,0-.05-.1-.08-.06-.12S336.8,180.62,336.82,180.79Z" transform="translate(-321 -177.49)"/><path class="cls-1" d="M336.93,180.62l.05,0Z" transform="translate(-321 -177.49)"/><path class="cls-1" d="M321.13,187.49l-.08,0,.07.07Z" transform="translate(-321 -177.49)"/><path class="cls-1" d="M321.07,187.71l-.07-.15v.16S321.05,187.68,321.07,187.71Z" transform="translate(-321 -177.49)"/><path class="cls-1" d="M331.47,181.36v0s0,0-.09,0Z" transform="translate(-321 -177.49)"/><polygon class="cls-1" points="9.29 4.13 9.31 4.12 9.22 4 9.29 4.13"/><path class="cls-1" d="M329.43,182.19s.07-.07.11-.08S329.34,182,329.43,182.19Z" transform="translate(-321 -177.49)"/><path class="cls-1" d="M330,182s0,.09.06.1S330,181.94,330,182Z" transform="translate(-321 -177.49)"/><polygon class="cls-1" points="9.23 4.06 9.24 4.1 9.26 3.98 9.23 4.06"/><path class="cls-1" d="M330.64,181.4c-.1-.16-.14.08-.24,0l0,0,0,.15C330.47,181.51,330.56,181.37,330.64,181.4Z" transform="translate(-321 -177.49)"/><path class="cls-1" d="M331,181.7c0-.06,0-.07,0,0h0Z" transform="translate(-321 -177.49)"/><path class="cls-1" d="M330.92,181.71s0,0,0,0Z" transform="translate(-321 -177.49)"/><path class="cls-1" d="M331.1,181.62l0,.08s.07,0,.06.06S331.15,181.68,331.1,181.62Z" transform="translate(-321 -177.49)"/><path class="cls-1" d="M331.12,181.48l0,0S331.12,181.54,331.12,181.48Z" transform="translate(-321 -177.49)"/><path class="cls-1" d="M331.05,181.58l.05-.06s0-.09,0,0C331.07,181.49,331.07,181.54,331.05,181.58Z" transform="translate(-321 -177.49)"/><path class="cls-1" d="M331,181.57s-.09,0-.05-.12S330.91,181.62,331,181.57Z" transform="translate(-321 -177.49)"/><path class="cls-1" d="M330.6,181.22l-.06,0,0,.07S330.62,181.27,330.6,181.22Z" transform="translate(-321 -177.49)"/><path class="cls-1" d="M331.46,181.65a.53.53,0,0,0,0-.15l0,.05A.14.14,0,0,1,331.46,181.65Z" transform="translate(-321 -177.49)"/><path class="cls-1" d="M331.41,181.5l.06-.07C331.41,181.43,331.4,181.46,331.41,181.5Z" transform="translate(-321 -177.49)"/><polygon class="cls-1" points="10.09 3.79 10.02 3.95 10.11 3.79 10.09 3.79"/><polygon class="cls-1" points="10.69 4.13 10.67 4.22 10.72 4.08 10.69 4.13"/><path class="cls-1" d="M331.85,181.59c0,.08,0,.12,0,.17a.32.32,0,0,0,.1-.14S331.9,181.65,331.85,181.59Z" transform="translate(-321 -177.49)"/><path class="cls-1" d="M332,181.54l0,.08A.16.16,0,0,0,332,181.54Z" transform="translate(-321 -177.49)"/><path class="cls-1" d="M331.58,181.43s0,.08.06.1l0-.1Z" transform="translate(-321 -177.49)"/><path class="cls-1" d="M331.6,181.43Z" transform="translate(-321 -177.49)"/><path class="cls-1" d="M331.57,181.43h0S331.57,181.42,331.57,181.43Z" transform="translate(-321 -177.49)"/><path class="cls-1" d="M331.28,181.35c0-.07.1-.14,0-.22C331.27,181.21,331.32,181.25,331.28,181.35Z" transform="translate(-321 -177.49)"/><path class="cls-1" d="M331.52,181.3h-.07a.17.17,0,0,1,0,.1Z" transform="translate(-321 -177.49)"/><polygon class="cls-1" points="10.55 3.77 10.52 3.81 10.55 3.81 10.55 3.77"/><path class="cls-1" d="M331.9,181.44c0-.05.06-.05.1-.06a.27.27,0,0,0-.12,0S331.86,181.45,331.9,181.44Z" transform="translate(-321 -177.49)"/><path class="cls-1" d="M331.76,181.42Z" transform="translate(-321 -177.49)"/><polygon class="cls-1" points="11.36 3.88 11.36 3.86 11.35 3.88 11.36 3.88"/><path class="cls-1" d="M331.87,181.33s-.05,0-.06,0,0,0,.07,0S331.88,181.33,331.87,181.33Z" transform="translate(-321 -177.49)"/><path class="cls-1" d="M332.12,181.48l-.05,0S332.12,181.51,332.12,181.48Z" transform="translate(-321 -177.49)"/><path class="cls-1" d="M331.78,181.45h0S331.78,181.46,331.78,181.45Z" transform="translate(-321 -177.49)"/><path class="cls-1" d="M331.78,181.45l0-.07-.05,0Z" transform="translate(-321 -177.49)"/><path class="cls-1" d="M332.51,180.71c0,.1-.1.17-.18.07-.07.07,0,.4,0,.58a.16.16,0,0,1,.06-.14c0-.06-.14-.13-.08-.22s.08,0,.11.1c0-.13.13-.17.14-.35l-.09.05S332.53,180.73,332.51,180.71Z" transform="translate(-321 -177.49)"/><path class="cls-1" d="M332.23,181.35h0a.4.4,0,0,1,.09.13.14.14,0,0,0,.06-.11l-.13,0Z" transform="translate(-321 -177.49)"/><path class="cls-1" d="M332.07,181.36c0-.11.09-.16.05-.27s-.06.09-.11.14c.13,0,0,.06.06.12l-.07,0,.07.05h0v0s0,0,0,0v0h0l.13-.06S332.13,181.35,332.07,181.36Z" transform="translate(-321 -177.49)"/><path class="cls-1" d="M331.32,180.89v0S331.34,180.89,331.32,180.89Z" transform="translate(-321 -177.49)"/><path class="cls-1" d="M331.39,180.94s0,.06,0,.06,0-.05,0-.09-.06.09,0,.13h0a.36.36,0,0,1,.15.16A1.36,1.36,0,0,0,331.39,180.94Z" transform="translate(-321 -177.49)"/><path class="cls-1" d="M331.75,181.11l.11-.06-.07-.09V181C331.73,181,331.75,181.07,331.75,181.11Z" transform="translate(-321 -177.49)"/><polygon class="cls-1" points="11.37 3.94 11.35 4.05 11.41 3.9 11.37 3.94"/><polygon class="cls-1" points="11.48 3.94 11.46 4.04 11.49 3.98 11.48 3.94"/><path class="cls-1" d="M332.2,187.33l0,0S332.2,187.35,332.2,187.33Z" transform="translate(-321 -177.49)"/><path class="cls-1" d="M332.5,187.29v0S332.49,187.29,332.5,187.29Z" transform="translate(-321 -177.49)"/><path class="cls-1" d="M334.61,183.58c-.08.06-.22.12-.11.1l.11,0A0,0,0,0,1,334.61,183.58Z" transform="translate(-321 -177.49)"/><path class="cls-1" d="M334.32,185.85h0l-.05-.1Z" transform="translate(-321 -177.49)"/><path class="cls-1" d="M334.61,186.2h0Z" transform="translate(-321 -177.49)"/><path class="cls-1" d="M330.58,187.46l-.07.1C330.59,187.57,330.56,187.51,330.58,187.46Z" transform="translate(-321 -177.49)"/><path class="cls-1" d="M333.61,182a.17.17,0,0,0,0,.12C333.65,182,333.68,181.91,333.61,182Z" transform="translate(-321 -177.49)"/><path class="cls-1" d="M332.11,186.18a.11.11,0,0,0,0,.07A.06.06,0,0,0,332.11,186.18Z" transform="translate(-321 -177.49)"/><path class="cls-1" d="M333.72,182.15v0s-.06,0-.08,0S333.64,182.18,333.72,182.15Z" transform="translate(-321 -177.49)"/><path class="cls-1" d="M327.83,182.77h0S327.83,182.76,327.83,182.77Z" transform="translate(-321 -177.49)"/><path class="cls-1" d="M329.61,182.1s0,0,0,.05S329.6,182.14,329.61,182.1Z" transform="translate(-321 -177.49)"/><path class="cls-1" d="M332.9,181.6s0,0,0,0Z" transform="translate(-321 -177.49)"/><path class="cls-1" d="M332.93,181.15l0,0Z" transform="translate(-321 -177.49)"/><path class="cls-1" d="M334.43,181.92h0S334.44,181.91,334.43,181.92Z" transform="translate(-321 -177.49)"/><path class="cls-1" d="M332.88,181.54l0,0S332.9,181.56,332.88,181.54Z" transform="translate(-321 -177.49)"/><path class="cls-1" d="M332.87,181.59l0,0S332.84,181.6,332.87,181.59Z" transform="translate(-321 -177.49)"/><path class="cls-1" d="M332.94,181.61l0,0v0Z" transform="translate(-321 -177.49)"/><path class="cls-1" d="M328.31,185.88h0C328.25,185.86,328.27,185.87,328.31,185.88Z" transform="translate(-321 -177.49)"/><polygon class="cls-1" points="14.73 6.92 14.72 6.91 14.72 6.92 14.73 6.92"/><path class="cls-1" d="M335.78,184.58c-.12-.1-.1-.13-.06-.17l-.31,0Z" transform="translate(-321 -177.49)"/><path class="cls-1" d="M331.5,187.43l.1.09c-.11.17-.21.12-.11.25,0-.34.4-.05.38-.4l.07.07s0,0,0,0c.15.14.07-.26.23-.23s.1.06.07.1l.11-.1a0,0,0,1,1,0,.06l.18-.06h0a2.07,2.07,0,0,1,.08-.2c.06,0,0,0,0,.08l.07-.1a.11.11,0,0,1-.07.18c.19.3.07-.1.33,0l-.09.07c.12.16.18.08.31.16-.05-.05-.29-.23-.22-.34s.08,0,.11-.07c0,.12.08.07.14,0l0,.15c.05-.07,0-.14,0-.22s.14.1.19.19-.15-.16,0-.24.18-.06.28-.2c.09,0,0,.09.06.13l0-.15s0,0,0,.06-.06-.15,0-.23.31.15.34-.11c.06,0,0,.09.08.14.1-.23.11-.19.1-.42h.15c-.14,0-.16-.21-.19-.35l-.14,0,0-.15s.06,0,.09.11v0c.08,0,.12.09.16.18l-.1,0a.78.78,0,0,0,.17.26.09.09,0,0,1,0-.07.09.09,0,0,0,0,.06s0,0,0-.07l.15.1,0,0,.2-.05c0-.23-.13-.5-.07-.7.08.12.17.14.29.23-.17,0-.05.18-.16.26.05,0,.1,0,.11,0a2.45,2.45,0,0,0,0-.27c.1.09.11,0,.18,0-.22-.11,0-.23-.06-.34s.14.1.06.18c.23,0-.17-.28,0-.3,0,0,0,0,0,.06s.08-.19.13-.12v0c.11-.14.21-.5,0-.58a2,2,0,0,1,.28.11,3.2,3.2,0,0,0-.63-.43c.17.05.62,0,.7.18,0,0,.07-.08,0-.19s-.27,0-.28,0c.21-.08.12-.05.3-.18,0,0-.33,0-.32-.08a3,3,0,0,1,.31,0l-.28-.17s.24,0,.31-.05,0-.16,0-.2l-.05.08c0-.2-.42-.12-.45-.27s.36,0,.37-.14a4.14,4.14,0,0,1-.86-.05l.07,0-.13-.06a2.9,2.9,0,0,1,.93.05c0-.08.09-.05,0-.15s.14,0,.15,0,0-.17,0-.26c-.16.07-.23-.12-.36-.05a2.48,2.48,0,0,1,.26.19c-.15.06-.49,0-.53-.12s.28-.1.33-.13-.17-.1-.14-.13l.11,0c0-.12-.26,0-.18-.21s.13-.21,0-.17a3,3,0,0,1-.78.51,2.92,2.92,0,0,1,.12-.33c.09-.13.35-.13.43-.24a.39.39,0,0,1-.13,0c0-.06.13-.07.06-.13-.15.09-.09-.15-.14.05-.09,0,0-.09-.09-.17a.6.6,0,0,1-.43.14.39.39,0,0,0,.08-.1c-.1-.12-.1-.24-.21-.35s0-.13.07-.16-.09,0-.13,0,.1.05.17-.13c-.08.07-.19,0-.28,0s.09.13.19.13a.78.78,0,0,1-.55.22c-.12,0,.05-.14,0-.12-.15-.17-.36.19-.41,0s.13-.23.17-.32.08.15.14.18l0-.09c.05,0,.12,0,.13,0,0-.14-.31-.24-.43-.41,0,0-.12.05-.11.11h0c0,.12-.15.1-.11.17s-.2.13-.27,0l0-.15s0,.11.07.07-.08-.24-.18-.06l0,.12c-.09.06-.19.19-.25.14,0,.15,0,0,0,.17,0-.23.17,0,.16-.19,0,.2.06.11.07.3,0,0,0-.1.05-.06l0,0h0v-.08c.07-.1.17-.06.23-.09s0,0,0,.1l.08-.05c0,.1,0,.21-.1.23l.06,0c0,.07.05.13.11.11s.15,0,.07,0l.15,0,0,0c.09.08.33,0,.3.28a.15.15,0,0,1,.14.1l-.06.07c.06,0,0,.19.13.15-.17.21.12.24.13.35l.11-.06a.56.56,0,0,0,.18.14l.1-.06c.12,0,0,.21.08.31s0,0,0-.05c-.18.22.29.2.14.38.05,0,0,0,0,.07h0l-.05.06.05-.05a.33.33,0,0,0,.06.08l-.11,0h0s.06,0,.15,0a.11.11,0,0,0,.08,0c-.19.06.08.09-.13.14.1,0,.09.15.3.18,0,0,0,0,0,0s-.06.08,0,.12h-.16l.2.11a.24.24,0,0,1-.27,0c.15.15.05.1.19.26l-.09,0s.1.14,0,.14-.2.4-.48.48c.26.14-.16,0,0,.14-.06,0-.11,0-.14-.1,0,.13-.18.05-.1.23-.06,0-.05-.08-.09-.1s0,.06,0,0,0,0,0-.09.05.27.19.42c-.12,0-.14,0-.08.14s-.14,0-.1-.12-.24.1-.14.22-.05,0,0,0a.35.35,0,0,0-.16.08h0c.06.19-.05.07-.11.12v0c-.22-.06-.05.1-.28,0l.05.11c.07.25-.21-.09-.28,0l.06.05c0,.11-.27-.28-.34-.29s0,0,0-.06c-.19-.1,0,.16-.07.23-.05-.08,0-.22-.12-.21s-.13.33-.26.2c0,0,.07.11,0,.17s-.26-.19-.28,0a.13.13,0,0,1,0-.05c0,.07-.17.12-.19.23-.1-.4-.36.24-.39-.15l-.18,0v0c-.12,0-.16.06-.21.15s0-.06,0-.08c-.17-.08-.17-.08-.34.1v-.13c-.06.07-.21-.23-.4-.12,0,0,0,0,0-.05-.23.1-.3-.44-.52,0l-.15,0c.13.1-.1.17-.06.27s-.11-.2,0-.18v0c.12-.2-.16-.16-.08-.3a1.53,1.53,0,0,1-.55-.59l-.12.14-.05-.08s.1-.1.13-.06-.12,0-.16,0c0-.13.2-.07.19-.11l0,0h0c-.08,0-.16.05-.18,0s.1-.06.1-.08,0,0,0,0l0-.1-.12.08c-.09,0,0-.11-.17,0,.21-.15,0-.5.06-.57a.22.22,0,0,1-.11-.25s-.19.05-.17,0c.33,0,.14-.16.38-.22-.16.05,0-.24-.25-.16,0-.07.12,0,.2,0-.11-.18.13-.34.14-.53,0,0-.11,0-.16-.06l.24,0s-.23-.12-.06-.12c0,0-.1,0-.1,0,.32-.23.28-.82.87-.85-.1,0-.08,0-.05-.08s-.08-.08-.12-.12h.24c-.09-.14.12-.12,0-.25l0,.05c-.06-.19-.34-.25-.5-.43.08.22-.41-.05-.3.28-.06,0,0-.08-.09-.1s0,.15-.07.19v0c-.15.21-.3.23-.52.45l.11,0c-.05.05-.09,0-.13.05.11.16.11-.15.24,0-.26-.07-.24.37-.5.32-.05.1.13,0,.09.12H328l.08.06c0,.06-.14.06-.2,0s0-.06,0-.08-.05.26-.09.28l.08-.08c0,.28-.18.6-.05.88l.06,0c.09.2-.07.16,0,.37h0a.17.17,0,0,1,.08.16c-.06,0-.12.11-.19,0,.12.21.09.1.31.22l-.09,0c.09,0,.13,0,.17.13-.09-.07-.13.09-.25,0-.16.26.26.28,0,.45.28,0,.1-.22.17-.18s.2,0,.19.11-.29.19-.21.4c0,0,0,0,0,0s.14.11.1.24c.16,0,.05.12.23,0l-.13-.14c.1.07.33,0,.34.21a.29.29,0,0,1-.16,0c0,.08.09.05.07.13s-.17-.14-.35-.18.24.12,0,.19c.27-.09.11.19.35.17l-.09.07s.1,0,.13,0l-.16.06c.17,0,.08.24.22.26-.18-.15.05-.14,0-.27.3.06-.08.34.21.49,0,0-.09-.16,0-.16a.48.48,0,0,1,.07.2c.19.08,0-.12.15-.14,0,.16.11,0,.2,0l-.05.11c.16.17.16-.2.29,0l-.14.12h.11l-.08.12c.15-.05.16,0,.25.06,0-.08.09-.2.18-.17s-.07.1.06.12c-.05.07-.12.14-.14,0,0,0-.05.06-.07.1s.17.07.21.09l0-.05.23-.1c0,.05,0,.08-.05.11s.09-.05.14-.05-.06.19-.15.21l.21-.05s.07.13,0,.16.28-.13.41,0a.07.07,0,0,1,.05,0c.12,0,.23.17.39,0l.08.18c.12,0-.11-.23.09-.28s.05.15.1.2.18-.27.31-.13C331.57,187.44,331.54,187.42,331.5,187.43Zm1.41-.31s-.05.12-.09.06S332.86,187.1,332.91,187.12Zm1.71-1.23s0,0-.07,0S334.58,185.89,334.62,185.89Zm-1.42-4.24h0C333.22,181.71,333.22,181.68,333.2,181.65Zm-.05-.1s0,0,0,0,0,0,.06,0S333.19,181.54,333.15,181.55Zm-4.29,3.65,0,0S328.82,185.2,328.86,185.2Z" transform="translate(-321 -177.49)"/><path class="cls-1" d="M334.58,186.16l-.05,0S334.55,186.15,334.58,186.16Z" transform="translate(-321 -177.49)"/><polygon class="cls-1" points="9.59 9.95 9.58 9.95 9.58 9.97 9.59 9.95"/><path class="cls-1" d="M335.1,182a.15.15,0,0,1,0,.08A.06.06,0,0,0,335.1,182Z" transform="translate(-321 -177.49)"/><path class="cls-1" d="M332.65,181.57l.06,0s0,0,0-.05S332.66,181.57,332.65,181.57Z" transform="translate(-321 -177.49)"/><path class="cls-1" d="M332.21,180.77s0,0,0,0v.05S332.26,180.8,332.21,180.77Z" transform="translate(-321 -177.49)"/><path class="cls-1" d="M332.7,181.17c0-.1,0-.08-.08-.07h0C332.59,181.24,332.64,181.2,332.7,181.17Z" transform="translate(-321 -177.49)"/><path class="cls-1" d="M332.61,181.1h0C332.56,181.15,332.58,181.11,332.61,181.1Z" transform="translate(-321 -177.49)"/><path class="cls-1" d="M333,181.56s-.06.11-.06.07C332.88,181.74,333.14,181.55,333,181.56Z" transform="translate(-321 -177.49)"/><polygon class="cls-1" points="11.73 3.34 11.72 3.46 11.77 3.37 11.73 3.34"/><path class="cls-1" d="M333.09,181,333,181s0,0,0,0S333.08,181.08,333.09,181Z" transform="translate(-321 -177.49)"/><path class="cls-1" d="M333,181s-.05,0-.06,0S333,181,333,181Z" transform="translate(-321 -177.49)"/><polygon class="cls-1" points="11.85 3.33 11.87 3.36 11.92 3.38 11.85 3.33"/><path class="cls-1" d="M333.81,181.5l.09,0s0-.06,0-.07S333.82,181.46,333.81,181.5Z" transform="translate(-321 -177.49)"/><path class="cls-1" d="M333.79,181.06s0,.06,0,.1l.09-.12Z" transform="translate(-321 -177.49)"/><path class="cls-1" d="M334,181.2s.19,0,.08-.08S334,181.12,334,181.2Z" transform="translate(-321 -177.49)"/><polygon class="cls-1" points="13.83 4.89 13.81 4.87 13.6 5.01 13.83 4.89"/><path class="cls-1" d="M335.9,183.38c0-.15-.16,0-.12-.13s0,.11-.09.09S335.74,183.45,335.9,183.38Z" transform="translate(-321 -177.49)"/><path class="cls-1" d="M335.69,183.34l-.05,0Z" transform="translate(-321 -177.49)"/><polygon class="cls-1" points="8.86 4.57 8.94 4.57 8.86 4.53 8.86 4.57"/><path class="cls-1" d="M329.83,181.85l.11.12-.07-.14S329.86,181.87,329.83,181.85Z" transform="translate(-321 -177.49)"/><path class="cls-1" d="M333.2,187.37v0s0,0-.07,0Z" transform="translate(-321 -177.49)"/><polygon class="cls-1" points="11.13 10.01 11.15 10.02 11.09 9.87 11.13 10.01"/><path class="cls-1" d="M331.22,187.75s.08,0,.12,0S331.21,187.56,331.22,187.75Z" transform="translate(-321 -177.49)"/><path class="cls-1" d="M342.09,181.27s0-.1,0-.11S342.09,181.3,342.09,181.27Z" transform="translate(-321 -177.49)"/><polygon class="cls-1" points="20.6 4.15 20.59 4.11 20.55 4.23 20.6 4.15"/><path class="cls-1" d="M341.14,181.84c.11.14.15-.1.26-.08l0,0,0-.15C341.31,181.7,341.23,181.85,341.14,181.84Z" transform="translate(-321 -177.49)"/><path class="cls-1" d="M340.72,181.62s0,.08.06,0h0Z" transform="translate(-321 -177.49)"/><path class="cls-1" d="M340.77,181.6s-.07,0,0,0Z" transform="translate(-321 -177.49)"/><path class="cls-1" d="M340.56,181.76l0-.09s-.09,0-.08,0S340.49,181.72,340.56,181.76Z" transform="translate(-321 -177.49)"/><path class="cls-1" d="M340.57,181.9l0,0S340.56,181.85,340.57,181.9Z" transform="translate(-321 -177.49)"/><path class="cls-1" d="M340.63,181.77l0,.09s.05.07,0,0S340.62,181.82,340.63,181.77Z" transform="translate(-321 -177.49)"/><path class="cls-1" d="M340.68,181.78c.06,0,.11,0,.08.09C340.87,181.79,340.79,181.69,340.68,181.78Z" transform="translate(-321 -177.49)"/><path class="cls-1" d="M341.2,182l.06,0,0-.07S341.17,182,341.2,182Z" transform="translate(-321 -177.49)"/><path class="cls-1" d="M340.14,181.92s.08.07.11.11l0-.07S340.18,182,340.14,181.92Z" transform="translate(-321 -177.49)"/><path class="cls-1" d="M340.25,182l0,.09C340.28,182.09,340.28,182.06,340.25,182Z" transform="translate(-321 -177.49)"/><polygon class="cls-1" points="19.66 4.58 19.7 4.4 19.64 4.6 19.66 4.58"/><polygon class="cls-1" points="18.9 4.59 18.88 4.49 18.9 4.65 18.9 4.59"/><path class="cls-1" d="M339.75,182.21c0-.08-.11-.07-.11-.13a.3.3,0,0,0,0,.19C339.63,182.22,339.67,182.2,339.75,182.21Z" transform="translate(-321 -177.49)"/><path class="cls-1" d="M339.61,182.38a.37.37,0,0,0,0-.11A.34.34,0,0,0,339.61,182.38Z" transform="translate(-321 -177.49)"/><path class="cls-1" d="M340.11,182.18s-.07-.06-.11-.05l.08.07Z" transform="translate(-321 -177.49)"/><path class="cls-1" d="M340.08,182.2h0l-.05,0Z" transform="translate(-321 -177.49)"/><path class="cls-1" d="M340.11,182.18Z" transform="translate(-321 -177.49)"/><path class="cls-1" d="M340.45,182.1c0,.08,0,.18.08.21S340.44,182.21,340.45,182.1Z" transform="translate(-321 -177.49)"/><path class="cls-1" d="M340.22,182.26l.08,0a.13.13,0,0,1-.05-.09Z" transform="translate(-321 -177.49)"/><polygon class="cls-1" points="19.21 4.82 19.22 4.77 19.19 4.78 19.21 4.82"/><path class="cls-1" d="M339.78,182.37a.15.15,0,0,1,0,.12.23.23,0,0,0,.12-.06S339.82,182.34,339.78,182.37Z" transform="translate(-321 -177.49)"/><path class="cls-1" d="M339.93,182.29h0S339.94,182.31,339.93,182.29Z" transform="translate(-321 -177.49)"/><polygon class="cls-1" points="18.41 5.24 18.43 5.25 18.42 5.24 18.41 5.24"/><path class="cls-1" d="M339.87,182.44s0,0,0-.07l-.06.06Z" transform="translate(-321 -177.49)"/><path class="cls-1" d="M339.56,182.49h.08S339.54,182.46,339.56,182.49Z" transform="translate(-321 -177.49)"/><path class="cls-1" d="M339.9,182.29h0S339.89,182.28,339.9,182.29Z" transform="translate(-321 -177.49)"/><path class="cls-1" d="M339.9,182.29a.25.25,0,0,0,0,.08.14.14,0,0,0,0-.07Z" transform="translate(-321 -177.49)"/><path class="cls-1" d="M339.75,183.35c-.05-.08-.05-.21.08-.17,0-.11-.23-.33-.4-.43,0,0,.05.07,0,.16s.21,0,.22.1-.09,0-.16,0c.11.07,0,.22.15.35l0-.1S339.72,183.34,339.75,183.35Z" transform="translate(-321 -177.49)"/><path class="cls-1" d="M339.55,182.67v0s-.08,0-.16,0,0,.11,0,.13l.13-.08Z" transform="translate(-321 -177.49)"/><path class="cls-1" d="M339.67,182.55c.05.1,0,.18.13.25s0-.11,0-.19c-.1.12,0-.07-.13-.05a.18.18,0,0,1,.05-.07h-.08l0,0s0,0,0,0h0l-.08.14A.22.22,0,0,0,339.67,182.55Z" transform="translate(-321 -177.49)"/><path class="cls-1" d="M340.59,182.54h0S340.58,182.55,340.59,182.54Z" transform="translate(-321 -177.49)"/><path class="cls-1" d="M340.51,182.52s0-.06,0-.07,0,.05.05.08,0-.11-.06-.12v0a.38.38,0,0,1-.21-.08A.87.87,0,0,0,340.51,182.52Z" transform="translate(-321 -177.49)"/><path class="cls-1" d="M340.1,182.55l-.06.12.1,0,0-.05C340.18,182.64,340.12,182.59,340.1,182.55Z" transform="translate(-321 -177.49)"/><polygon class="cls-1" points="18.37 5.21 18.31 5.11 18.35 5.28 18.37 5.21"/><polygon class="cls-1" points="18.25 5.32 18.2 5.24 18.2 5.31 18.25 5.32"/><path class="cls-1" d="M332,187.84l0,0Z" transform="translate(-321 -177.49)"/><path class="cls-1" d="M332.3,187.8v-.05S332.29,187.8,332.3,187.8Z" transform="translate(-321 -177.49)"/><path class="cls-1" d="M336.24,185c-.09-.06-.2-.15-.14-.06l.06.09A.06.06,0,0,1,336.24,185Z" transform="translate(-321 -177.49)"/><path class="cls-1" d="M334.21,186.69l0,0v-.11Z" transform="translate(-321 -177.49)"/><path class="cls-1" d="M334.33,187.12l-.09,0A.19.19,0,0,0,334.33,187.12Z" transform="translate(-321 -177.49)"/><path class="cls-1" d="M330.62,188.14l0,.11C330.65,188.24,330.62,188.19,330.62,188.14Z" transform="translate(-321 -177.49)"/><path class="cls-1" d="M338.05,183.82a.2.2,0,0,0-.12,0C338,183.85,338.09,183.9,338.05,183.82Z" transform="translate(-321 -177.49)"/><path class="cls-1" d="M331.94,186.69a.06.06,0,0,0,0,.07S332,186.71,331.94,186.69Z" transform="translate(-321 -177.49)"/><path class="cls-1" d="M337.83,183.91h0a.13.13,0,0,1,.07-.08C337.87,183.82,337.81,183.82,337.83,183.91Z" transform="translate(-321 -177.49)"/><path class="cls-1" d="M325.48,188.06h0S325.47,188.06,325.48,188.06Z" transform="translate(-321 -177.49)"/><path class="cls-1" d="M324.1,186.86h.06S324.13,186.84,324.1,186.86Z" transform="translate(-321 -177.49)"/><path class="cls-1" d="M338.75,183.17s0,0,0,0Z" transform="translate(-321 -177.49)"/><path class="cls-1" d="M339.14,183.41l0,.05Z" transform="translate(-321 -177.49)"/><path class="cls-1" d="M338,184.64Z" transform="translate(-321 -177.49)"/><path class="cls-1" d="M338.81,183.18h0Z" transform="translate(-321 -177.49)"/><path class="cls-1" d="M338.78,183.15h0S338.79,183.11,338.78,183.15Z" transform="translate(-321 -177.49)"/><path class="cls-1" d="M338.71,183.21l.05,0a0,0,0,0,1,0,0Z" transform="translate(-321 -177.49)"/><path class="cls-1" d="M328.22,187.86h0S328.19,187.89,328.22,187.86Z" transform="translate(-321 -177.49)"/><polygon class="cls-1" points="15.04 8.91 15.04 8.91 15.04 8.9 15.04 8.91"/><path class="cls-1" d="M336,186.54c0-.15,0-.15.07-.14l-.18-.26Z" transform="translate(-321 -177.49)"/><path class="cls-1" d="M331.42,188l.1.08c-.09.17-.17.13-.07.25,0-.33.33-.08.29-.42l.07.07s0,0,0,0c.13.14,0-.26.19-.24s.09.06.07.11l.09-.1s0,.06,0,.06l.16-.06h0a.84.84,0,0,1,.07-.19c.05,0,0,0,0,.08l.08-.1a.12.12,0,0,1-.07.18c.15.31.06-.1.28.05l-.08.07c.1.17.15.09.28.18,0-.05-.26-.25-.18-.35s.07,0,.11-.06c0,.12.07.08.14.06l0,.15c.06-.06,0-.14.06-.22s.13.11.17.21-.13-.17,0-.24.18,0,.28-.17c.08,0,0,.1,0,.13l0-.14s0,0,0,.06,0-.16,0-.22.25.19.3,0c0,0,0,.1,0,.15a.88.88,0,0,0,.15-.34l.14.07c-.12-.09-.07-.26,0-.39l-.11-.11.1-.12a.22.22,0,0,1,0,.14v0c.07,0,.08.13.07.23l-.07-.08a.71.71,0,0,0,0,.3.05.05,0,0,1,0,0s0,0,0,.06,0,0,0-.07l.09.16,0-.07.21,0c.06-.21.06-.49.22-.64,0,.14.07.2.13.34-.12-.13-.12.13-.23.14.05,0,.07.07.07.1l.11-.21c.05.12.08.07.14.1-.13-.22.07-.21.11-.31,0,.07.05.16,0,.18.17.13,0-.32.16-.22,0,0,0,0,0,.05s.16-.09.16,0h0c.15,0,.42-.2.34-.4a2.33,2.33,0,0,1,.11.28l-.09-.75c.06.17.35.51.28.66s.1,0,.14-.08-.18-.2-.16-.23a1.4,1.4,0,0,0,.29.16c-.05,0-.15-.29-.1-.31s.14.25.14.28v-.31c0,.06.11.21.18.26s.11,0,.13-.1l-.09,0c.17-.05-.06-.43.09-.49s.14.33.23.32a2.73,2.73,0,0,1-.17-.85l.07.06,0-.14a5.08,5.08,0,0,1,.15.91c.08,0,.06.08.14,0s0,.13,0,.15l.21-.07c-.09-.14.05-.23,0-.35l-.1.27c-.1-.13-.14-.47,0-.53s.14.27.18.32.06-.17.09-.15v.11c.11,0,0-.25.17-.18s.21.12.15,0a3.33,3.33,0,0,1-.54-.76,2.51,2.51,0,0,1,.34.11c.13.1.13.35.24.43a.39.39,0,0,1,0-.13c.05,0,.07.13.12.06s.14-.07-.05-.13c0-.09.09,0,.16-.08a.6.6,0,0,1-.12-.44.25.25,0,0,0,.09.09c.13-.07.25-.06.36-.15s.13,0,.15.1,0-.09,0-.12-.07.08.09.18c-.05-.08,0-.18,0-.27s-.14.07-.15.16a.66.66,0,0,1-.11-.58c.06-.12.12.07.12,0,.2-.11-.07-.41.17-.4s.16.21.23.27-.17,0-.21.07h.1c0,.06,0,.12-.08.11.12.06.31-.21.52-.23,0-.06,0-.13-.05-.15l0,.05c-.1-.06,0-.18-.1-.18s0-.25.12-.27l.11.11s-.11,0-.1,0,.25.06.16-.13l-.12,0c0-.1,0-.29.07-.31-.12-.09,0,0-.16-.07.18.14-.19.15,0,.27-.19-.12-.15,0-.33-.08,0,0,.09.06,0,.09a.08.08,0,0,1,0,0h0a.2.2,0,0,1,.08,0c.05.11,0,.19,0,.26s0-.06-.08-.09v.11c-.08-.08-.21-.07-.17-.19l-.07.06c-.09,0-.16,0-.17.07s0,.17,0,.08l-.08.15v0c-.13.08-.14.34-.39.27,0,.06,0,.12-.13.14l-.07-.07c0,.06-.21,0-.17.13-.21-.18-.29.13-.4.15l.06.11a.42.42,0,0,0-.15.2l.06.09c0,.12-.22.05-.32.13s0,0,.05,0c-.26-.13-.17.33-.39.24,0,.06,0,.06-.08,0h0l-.08,0,.07,0a.23.23,0,0,0-.07.09l-.08-.09h0c-.06,0,0,.07.06.14s0,0,0,.09c-.12-.16,0,.1-.19-.05,0,.1-.14.16-.06.36,0,0,0,0,0,0s-.1,0-.11.07l-.09-.13v.23c-.1-.06-.14-.09-.15-.22,0,.22-.07.11-.09.32l0-.09s0,.18-.1.11-.45.19-.74.12c.15.25-.16-.08-.08.14,0-.06-.09-.09-.07-.16-.09.11-.22,0-.23.18,0-.06,0-.11,0-.14s0,.07,0,0,0-.06,0-.1-.05.26,0,.45c-.09-.06-.12,0-.12.1,0-.06-.1-.11,0-.16s-.29,0-.25.15c0,0-.06,0-.07,0a1.17,1.17,0,0,0-.2.06h0c0,.2-.06.07-.13.11v0c-.21-.08-.06.09-.28,0l.05.11c.05.26-.2-.1-.28,0l.06.05c0,.1-.25-.3-.31-.31s0,0,0-.07c-.18-.11,0,.16-.09.22s0-.21-.1-.21-.15.31-.28.17c0,.06.07.12,0,.18s-.26-.2-.3,0a.08.08,0,0,1,0,0c-.05.06-.18.12-.2.23-.12-.39-.35.26-.4-.12l-.19,0v0c-.12,0-.15.08-.19.18s0-.06,0-.08c-.18-.06-.2,0-.33.16l0-.12c0,.07-.27-.17-.43,0a.11.11,0,0,1,0-.05c-.18.15-.48-.32-.53.14l-.13.11c.17,0,0,.2.06.27s-.18-.13-.1-.15l0,0c0-.24-.22-.07-.22-.24a7.57,7.57,0,0,1-1-.11l0,.19h-.11s0-.14,0-.14-.13.09-.13.13.06-.21,0-.22h-.06v0c-.05.07-.05.15-.15.14s0-.11-.05-.12,0,0,0,0h-.14l.05.14c-.06.07-.13,0-.07.16-.09-.25-.51-.1-.56-.18a.26.26,0,0,1-.28.08s0,.2-.05.17c0-.33-.16-.15-.23-.39.06.16-.25,0-.16.26-.07,0,0-.13-.05-.21-.19.12-.39-.1-.61-.07,0,0,0,.11,0,.17l-.1-.22s-.05.25-.12.09c0,0,0,.1,0,.11-.42-.24-.9.11-1.3-.33.05.09,0,.09,0,.09s0,.11,0,.17l-.16-.18c-.05.16-.2,0-.23.14l.06,0c-.1.18.06.43,0,.66.11-.2.2.34.37,0,0,.05,0,.07,0,.13.05-.1.09-.12.17-.06v0c.23,0,.32.11.57.19v-.12c.06,0,.07.06.09.09.08-.17-.15,0-.08-.21.05.25.39,0,.42.31.09,0,0-.14.07-.14l0,.08,0-.09c.05,0,.07.11.07.17l0,0c.06.09.2,0,.23,0l-.08,0c.24-.05.52.06.75-.08v-.06c.17-.09.13.07.32,0h0a.17.17,0,0,1,.15-.07c-.05.06.08.13,0,.2.19-.1.09-.08.22-.29l0,.1c0-.09,0-.13.14-.15-.08.08.06.14,0,.24.2.21.3-.2.39.1.09-.25-.17-.14-.12-.2s.08-.19.14-.16.1.33.26.32l0,0c.06.07.12-.09.19,0,0-.16.09,0,.11-.19l-.15,0c.08-.06.16-.29.3-.17a.32.32,0,0,1-.08.12c0,.06.08,0,.12,0s-.18,0-.27.19.17-.14.12.07c.07-.27.16,0,.27-.17v.12s.06-.08.09-.08l-.06.16c.09-.13.17.11.26,0-.18,0,0-.14-.12-.23.21-.16.13.31.37.25,0,0-.12-.07-.07-.13a.35.35,0,0,1,.14.13c.16,0,0-.12,0-.2.06.15.08-.06.14-.1v.12c.19.07,0-.26.21-.17l-.07.17.09-.05v.14c.09-.11.12-.08.21,0s0-.22.09-.22,0,.11.09.09c0,.08-.05.17-.11.06s0,.08,0,.12.15,0,.19,0,0,0,0,0l.15-.18a.13.13,0,0,1,0,.12s.05-.07.1-.08,0,.2-.07.25l.16-.12s.09.11.07.15.21-.21.33-.15l0-.05c.11,0,.23.12.35,0l.09.17c.1,0-.13-.21,0-.29s.06.14.11.18.13-.28.26-.16C331.48,188,331.45,188,331.42,188Zm1.26-.3s-.06.11-.09.05S332.63,187.64,332.68,187.67Zm1.78-.83s0,0-.08,0A.07.07,0,0,1,334.46,186.84Zm4.07-3.37Zm.12,0s0,0,0,0,0,0,0,0S338.64,183.48,338.65,183.44ZM327.87,187l0,0C327.84,187.11,327.85,187.08,327.87,187Z" transform="translate(-321 -177.49)"/><path class="cls-1" d="M334.31,187.07l0-.06A.06.06,0,0,0,334.31,187.07Z" transform="translate(-321 -177.49)"/><polygon class="cls-1" points="9.62 10.62 9.62 10.62 9.62 10.64 9.62 10.62"/><path class="cls-1" d="M337.86,185.29l-.07,0S337.83,185.31,337.86,185.29Z" transform="translate(-321 -177.49)"/><path class="cls-1" d="M339,182.92l0,.07s0,0,.07,0S339,182.93,339,182.92Z" transform="translate(-321 -177.49)"/><path class="cls-1" d="M339.92,183.1s0,0,0,0l0,0S339.87,183.11,339.92,183.1Z" transform="translate(-321 -177.49)"/><path class="cls-1" d="M339.28,183.19c.06.07.08,0,.1,0h0C339.3,183.05,339.29,183.12,339.28,183.19Z" transform="translate(-321 -177.49)"/><path class="cls-1" d="M339.39,183.15s0,0,0,0S339.4,183.12,339.39,183.15Z" transform="translate(-321 -177.49)"/><path class="cls-1" d="M338.72,183.3s-.07-.11,0-.08C338.62,183.1,338.66,183.43,338.72,183.3Z" transform="translate(-321 -177.49)"/><polygon class="cls-1" points="18.52 5.92 18.43 5.84 18.47 5.93 18.52 5.92"/><path class="cls-1" d="M339.16,183.6l.08,0a.06.06,0,0,1,0,0S339.13,183.57,339.16,183.6Z" transform="translate(-321 -177.49)"/><path class="cls-1" d="M339.23,183.53s0,0,0-.06A.15.15,0,0,0,339.23,183.53Z" transform="translate(-321 -177.49)"/><polygon class="cls-1" points="18.46 6.02 18.42 6.02 18.37 6.05 18.46 6.02"/><path class="cls-1" d="M338.46,184.11l0,.08s.05,0,.07,0S338.5,184.13,338.46,184.11Z" transform="translate(-321 -177.49)"/><path class="cls-1" d="M338.88,184.22l-.09-.05.1.12Z" transform="translate(-321 -177.49)"/><path class="cls-1" d="M338.7,184.4s0,.18.06.1S338.79,184.38,338.7,184.4Z" transform="translate(-321 -177.49)"/><polygon class="cls-1" points="16.51 7.52 16.53 7.51 16.38 7.3 16.51 7.52"/><path class="cls-1" d="M336.84,186.17c.12,0-.06-.15.06-.14s-.1,0-.1-.07C336.77,186.05,336.72,186,336.84,186.17Z" transform="translate(-321 -177.49)"/><path class="cls-1" d="M336.8,186v-.05S336.79,186,336.8,186Z" transform="translate(-321 -177.49)"/><polygon class="cls-1" points="2.87 9.2 2.81 9.14 2.84 9.23 2.87 9.2"/><path class="cls-1" d="M323.72,186.87v-.16l-.06.14S323.72,186.83,323.72,186.87Z" transform="translate(-321 -177.49)"/><path class="cls-1" d="M332.94,187.94v0s0,0-.07,0Z" transform="translate(-321 -177.49)"/><polygon class="cls-1" points="10.98 10.51 10.99 10.52 10.94 10.38 10.98 10.51"/><path class="cls-1" d="M331.21,188.31s.07,0,.1,0S331.18,188.13,331.21,188.31Z" transform="translate(-321 -177.49)"/><path class="cls-1" d="M344,178.29l-.09-.08S344,178.3,344,178.29Z" transform="translate(-321 -177.49)"/><polygon class="cls-1" points="23.12 1.02 23.09 1 23.16 1.07 23.12 1.02"/><path class="cls-1" d="M344.05,178.6c.14.11,0,0,.06,0l0,0-.11-.09S344.1,178.62,344.05,178.6Z" transform="translate(-321 -177.49)"/><path class="cls-1" d="M343.72,178.4c.06,0,0,0,0,0h0A0,0,0,0,1,343.72,178.4Z" transform="translate(-321 -177.49)"/><path class="cls-1" d="M343.73,178.39Z" transform="translate(-321 -177.49)"/><path class="cls-1" d="M343.73,178.46l0-.06-.07,0A.37.37,0,0,0,343.73,178.46Z" transform="translate(-321 -177.49)"/><path class="cls-1" d="M343.82,178.55l0,0S343.78,178.52,343.82,178.55Z" transform="translate(-321 -177.49)"/><path class="cls-1" d="M343.77,178.48l0,.05s.07.05,0,0S343.8,178.51,343.77,178.48Z" transform="translate(-321 -177.49)"/><path class="cls-1" d="M343.8,178.49a.31.31,0,0,1,.1.08S343.8,178.46,343.8,178.49Z" transform="translate(-321 -177.49)"/><path class="cls-1" d="M344.19,178.73l.05,0,0-.05S344.15,178.69,344.19,178.73Z" transform="translate(-321 -177.49)"/><path class="cls-1" d="M343.6,178.46l.12.09,0,0Z" transform="translate(-321 -177.49)"/><path class="cls-1" d="M343.72,178.55l0,.06S343.75,178.58,343.72,178.55Z" transform="translate(-321 -177.49)"/><polygon class="cls-1" points="22.96 1.19 22.88 1.08 22.96 1.19 22.96 1.19"/><polygon class="cls-1" points="22.56 1 22.5 0.94 22.59 1.04 22.56 1"/><path class="cls-1" d="M343.54,178.54c0-.06-.09-.08-.12-.12a.29.29,0,0,0,.08.11S343.49,178.5,343.54,178.54Z" transform="translate(-321 -177.49)"/><path class="cls-1" d="M343.55,178.6l-.05-.07Z" transform="translate(-321 -177.49)"/><path class="cls-1" d="M343.72,178.62a.31.31,0,0,0-.09-.07l.09.07Z" transform="translate(-321 -177.49)"/><path class="cls-1" d="M343.72,178.62Z" transform="translate(-321 -177.49)"/><path class="cls-1" d="M343.72,178.62Z" transform="translate(-321 -177.49)"/><path class="cls-1" d="M343.86,178.65a.47.47,0,0,0,.16.15A2.06,2.06,0,0,1,343.86,178.65Z" transform="translate(-321 -177.49)"/><path class="cls-1" d="M343.83,178.7h0l-.08-.06Z" transform="translate(-321 -177.49)"/><polygon class="cls-1" points="22.84 1.23 22.82 1.21 22.81 1.2 22.84 1.23"/><path class="cls-1" d="M343.64,178.65s0,0,0,.06h0S343.64,178.64,343.64,178.65Z" transform="translate(-321 -177.49)"/><path class="cls-1" d="M343.68,178.64h0S343.7,178.65,343.68,178.64Z" transform="translate(-321 -177.49)"/><polygon class="cls-1" points="22.6 1.27 22.61 1.28 22.6 1.27 22.6 1.27"/><path class="cls-1" d="M343.72,178.72s0,0,0,0v0Z" transform="translate(-321 -177.49)"/><path class="cls-1" d="M343.57,178.65l.05,0Z" transform="translate(-321 -177.49)"/><path class="cls-1" d="M343.66,178.63h0S343.65,178.62,343.66,178.63Z" transform="translate(-321 -177.49)"/><path class="cls-1" d="M343.66,178.63l0,.05,0,0Z" transform="translate(-321 -177.49)"/><path class="cls-1" d="M344.06,179.27c-.07-.07-.11-.15,0-.08a3.9,3.9,0,0,0-.41-.41.52.52,0,0,1,.08.11.7.7,0,0,1,.17.14c0,.05,0,0-.08,0s.1.15.23.27l0-.06Z" transform="translate(-321 -177.49)"/><path class="cls-1" d="M343.65,178.77v0s-.05,0-.11-.08l.07.1,0,0Z" transform="translate(-321 -177.49)"/><path class="cls-1" d="M343.66,178.73c.08.08.1.12.19.2s-.05-.08-.08-.12,0-.05-.1-.07v0l0,0h0l0,0s0,0,0,0h0l0,.06S343.66,178.75,343.66,178.73Z" transform="translate(-321 -177.49)"/><path class="cls-1" d="M344.18,179l0,0S344.17,179,344.18,179Z" transform="translate(-321 -177.49)"/><path class="cls-1" d="M344.12,178.94s0,0,0,0,0,0,.07,0a.29.29,0,0,0-.1-.08h0l-.16-.1Z" transform="translate(-321 -177.49)"/><path class="cls-1" d="M343.91,178.86l0,0,.07.06,0,0S343.94,178.89,343.91,178.86Z" transform="translate(-321 -177.49)"/><polygon class="cls-1" points="22.56 1.24 22.48 1.15 22.58 1.28 22.56 1.24"/><polygon class="cls-1" points="22.54 1.27 22.48 1.2 22.51 1.25 22.54 1.27"/><path class="cls-1" d="M342.3,181v0Z" transform="translate(-321 -177.49)"/><path class="cls-1" d="M342.37,181l0,0Z" transform="translate(-321 -177.49)"/><path class="cls-1" d="M342.88,179.32l-.08-.1.06.09S342.87,179.3,342.88,179.32Z" transform="translate(-321 -177.49)"/><path class="cls-1" d="M342.66,180.19l0,0,0-.1Z" transform="translate(-321 -177.49)"/><path class="cls-1" d="M342.85,180.6l-.05-.06Z" transform="translate(-321 -177.49)"/><path class="cls-1" d="M342,181.2l0,.11S342,181.25,342,181.2Z" transform="translate(-321 -177.49)"/><path class="cls-1" d="M343.31,179l-.07,0C343.29,179,343.36,179.11,343.31,179Z" transform="translate(-321 -177.49)"/><path class="cls-1" d="M341.93,179.88a.13.13,0,0,0,0,.06A.13.13,0,0,0,341.93,179.88Z" transform="translate(-321 -177.49)"/><path class="cls-1" d="M343.22,179l0,0s0,0,0,0S343.18,179,343.22,179Z" transform="translate(-321 -177.49)"/><path class="cls-1" d="M340.5,181.34h0Z" transform="translate(-321 -177.49)"/><path class="cls-1" d="M340.12,180.25h0S340.13,180.23,340.12,180.25Z" transform="translate(-321 -177.49)"/><path class="cls-1" d="M343.41,178.83Z" transform="translate(-321 -177.49)"/><path class="cls-1" d="M343.73,179.12l0,0Z" transform="translate(-321 -177.49)"/><path class="cls-1" d="M343.58,179.6Z" transform="translate(-321 -177.49)"/><path class="cls-1" d="M343.45,178.86l0,0Z" transform="translate(-321 -177.49)"/><path class="cls-1" d="M343.42,178.82h0S343.41,178.8,343.42,178.82Z" transform="translate(-321 -177.49)"/><path class="cls-1" d="M343.41,178.84h0Z" transform="translate(-321 -177.49)"/><path class="cls-1" d="M341.23,181h0S341.22,181,341.23,181Z" transform="translate(-321 -177.49)"/><polygon class="cls-1" points="22.3 2.89 22.3 2.88 22.3 2.88 22.3 2.89"/><path class="cls-1" d="M343.32,180.47c-.06-.12-.05-.11,0-.09l-.17-.27Z" transform="translate(-321 -177.49)"/><path class="cls-1" d="M342.14,181.05l.06.09c0,.16,0,.11.05.24-.11-.33.08-.07,0-.39l0,.06s0,0,0,0-.06-.24,0-.21a.23.23,0,0,1,.05.1v-.08s0,.05,0,.05l0,0h0l0-.17s0,0,0,.08v-.09c0,.08.05.17,0,.16.14.31,0-.09.11.08v0c.09.17.08.1.15.2a1.63,1.63,0,0,1-.17-.35s0,0,0,0c0,.11,0,.08.06.06l.06.15a.9.9,0,0,0,0-.19s.08.11.13.21-.1-.18-.07-.22,0,0,0-.12,0,.09.06.13l0-.13,0,.06c0-.05-.07-.15-.06-.2s.15.22.09,0a1.07,1.07,0,0,1,.07.15,1.29,1.29,0,0,0-.06-.28l.07.08a1,1,0,0,1-.14-.35l-.08-.11V180l.06.13v0a1,1,0,0,1,.1.21l-.05-.08a2.18,2.18,0,0,0,.11.27v0l0,.06s0,0,0-.06l.08.16,0-.07.1.08a2.5,2.5,0,0,1-.14-.51c.05.12.1.19.17.33-.09-.14,0,.08,0,.06s.05.08.06.1l0-.15c.06.11.06.08.09.11-.12-.21,0-.16-.06-.24,0,.08.08.15,0,.15.12.15-.11-.28,0-.15s0,0,0,0,0,0,.06,0h0s.11-.06,0-.25l.15.26-.31-.64a4.81,4.81,0,0,1,.36.62s.05,0,0,0a2.22,2.22,0,0,1-.15-.23,2.09,2.09,0,0,0,.19.21,1.73,1.73,0,0,1-.16-.28l.17.27-.12-.26a1.75,1.75,0,0,0,.18.26s0,0,0,0l0,0c.06,0-.18-.36-.14-.37a1.65,1.65,0,0,0,.23.32c-.07-.12-.35-.6-.39-.7l.05.06,0-.09c.11.18.33.59.41.75s.06.08.07.06.06.1.05.11h.08c-.1-.14-.06-.17-.14-.28l0,.18c-.1-.14-.24-.41-.2-.41s.17.25.2.29,0-.11,0-.08l0,.08c.05,0-.1-.2,0-.09s.15.16.09.08-.47-.62-.55-.74l.21.19c.1.11.19.3.28.39a.37.37,0,0,1-.06-.1s.08.12.09.09,0,0-.08-.12,0,0,.05,0a2.33,2.33,0,0,1-.23-.36l.08.1c.05,0,.11,0,.14,0a.44.44,0,0,1,.11.12s0-.08,0-.09,0,0,.12.16a.75.75,0,0,1-.09-.18c-.1-.12,0,0,0,.06a2.18,2.18,0,0,1-.29-.45c0-.06.1.09.09.07s-.21-.31-.08-.22a2.85,2.85,0,0,1,.25.27c0,.05-.09,0-.1,0l.06,0s0,.07,0,0,.09,0,.2,0a.44.44,0,0,0-.09-.11v0c-.08-.07-.08-.13-.12-.15s-.11-.17-.05-.15l.11.11s-.08,0,0,0,.17.12,0,0l-.08-.07c0-.07-.14-.2-.09-.18-.12-.1,0,0-.13-.1.16.15,0,0,.13.18-.15-.14-.08,0-.21-.16,0,0,.07.07,0,.06l0,0h0l.06,0c.07.09.05.11.08.16s0,0-.07-.08l.05.08c-.08-.09-.15-.12-.18-.19h0c-.05,0-.08,0-.05,0s.06.11,0,0l0,.07,0,0s.06.19-.1.06c0,0,0,.06,0,.05l-.06-.07s-.1-.05,0,0c-.17-.2-.09,0-.14,0l.08.11s0,0,0,.09l.07.09c0,.09-.09,0-.11,0s0,0,0,0c-.17-.18,0,.2-.09.06,0,0,0,0,0,0h0l-.05,0,0,0a.13.13,0,0,0,0,0l-.07-.1h0s0,.05.08.12l0,.07c-.12-.16,0,.07-.11-.1.05.09,0,.09.11.27,0,0,0,0,0,0s-.05,0,0,0l-.09-.12.09.18a.76.76,0,0,1-.14-.22c.06.17,0,.07.07.24l-.05-.08s.05.13,0,.06-.11,0-.25-.09c.15.25-.09-.1,0,.1a.55.55,0,0,1-.08-.15c0,.08-.09-.07,0,.11l-.07-.13s0,.05,0,0a.41.41,0,0,1,0-.08,1.29,1.29,0,0,0,.16.39c-.06-.08-.06-.06,0,.06a.3.3,0,0,1-.07-.14s-.1-.06,0,.09c0,0,0,0,0,0s0,0-.05,0v0c.07.18,0,0,0,.07h0c-.09-.11,0,.06-.09-.06l.05.11c.1.23-.1-.13-.08,0l0,.06c0,.09-.17-.3-.2-.33a.09.09,0,0,1,0-.05c-.09-.13.06.15.05.19a1.42,1.42,0,0,0-.1-.21c0-.06.05.28,0,.13a.44.44,0,0,1,.06.17s-.13-.21-.08,0l0-.05a1,1,0,0,0,0,.21c-.15-.39,0,.22-.15-.14l0,0v0s0,.07,0,.16a.24.24,0,0,1,0-.08c-.07-.06-.07,0-.05.15l0-.12c0,.07-.11-.17-.11,0v0c0,.15-.19-.31-.1.13v.12c.05,0,0,.19.07.26s-.07-.12-.06-.15v0c-.05-.23-.07-.07-.1-.22-.08,0-.18-.08-.25-.09l0,.18h0a.27.27,0,0,1,0-.14c0-.1,0,.09,0,.13s0-.21,0-.21h0v0c0,.08,0,.16,0,.15s0-.11,0-.11,0,0,0,0h0l0,.14c0,.07,0,0,0,.16-.06-.25-.13-.07-.16-.15,0,.11,0,.11,0,.1s0,.19,0,.17c0-.34-.05-.14-.09-.38,0,.16-.06,0,0,.27a.85.85,0,0,1,0-.2c0,.13-.1-.08-.15,0a1.07,1.07,0,0,1,0,.18l0-.22s0,.26,0,.1a.54.54,0,0,1,0,.11c-.11-.21-.22.18-.31-.23,0,.09,0,.1,0,.1s0,.11,0,.17l0-.17c0,.16-.05,0-.06.17v0c0,.18,0,.41,0,.65,0-.21,0,.32.1,0,0,0,0,.07,0,.13,0-.1,0-.12.05-.08v0c.06,0,.09.08.16.15v-.12s0,.05,0,.08c0-.18,0,0,0-.21,0,.24.11,0,.13.28,0,0,0-.14,0-.14v0a1.09,1.09,0,0,1,0,.17s0,0,0,0,.06,0,.07,0l0-.05c.06-.07.15,0,.2-.13v-.06c0-.1,0,.06.09,0h0c0-.05,0-.08,0-.08s0,.13,0,.2c0-.12,0-.09,0-.3l0,.09c0-.08,0-.13,0-.15s0,.14,0,.24,0-.21.12.08c0-.26-.07-.13-.06-.19s0-.19,0-.17.08.32.12.31v0c0,.06,0-.1.06,0,0-.15,0,0,0-.19l0,.06c0-.06,0-.29.06-.19V181c0,.05,0,0,0,0s0,0,0,.21,0-.15,0,.06c0-.27.05,0,0-.18l0,.11s0-.07,0-.07v.15c0-.13.07.11.08,0s0-.13-.07-.22.09.3.15.23-.05-.06-.05-.12a.31.31,0,0,1,.07.12s0-.11,0-.19c0,.14,0-.06,0-.11l0,.12c.07.06,0-.25,0-.17l0,.17,0,0,0,.13c0-.1,0-.08.05-.05s0-.21,0-.22,0,.12,0,.09,0,.17,0,.07l0,.11c0,.07,0,0,.05,0V181a.27.27,0,0,1,0,.12s0-.07,0-.08a.85.85,0,0,1,0,.24l0-.12s.05.11.06.14,0-.2.06-.13a.06.06,0,0,1,0-.06s.09.12.09,0l.07.16c0-.05-.09-.21-.06-.28s.05.14.08.18,0-.27,0-.15S342.15,181,342.14,181.05Zm.31-.19s0,.1,0,0S342.42,180.83,342.45,180.86Zm.35-.48s0,0,0,0S342.78,180.35,342.8,180.38Zm.62-1.42Zm.05,0,0,0s0,0,0,0S343.48,179,343.47,179ZM341,180.19v0S341,180.22,341,180.19Z" transform="translate(-321 -177.49)"/><path class="cls-1" d="M342.83,180.55l0-.06Z" transform="translate(-321 -177.49)"/><polygon class="cls-1" points="20.95 3.68 20.95 3.68 20.95 3.7 20.95 3.68"/><path class="cls-1" d="M343.78,180.05l0-.05Z" transform="translate(-321 -177.49)"/><path class="cls-1" d="M343.43,178.74v0s0,0,0,0Z" transform="translate(-321 -177.49)"/><path class="cls-1" d="M344.06,179.17v0l0,0A.09.09,0,0,0,344.06,179.17Z" transform="translate(-321 -177.49)"/><path class="cls-1" d="M343.72,179c.07.07,0,0,0,0h0C343.67,178.93,343.69,179,343.72,179Z" transform="translate(-321 -177.49)"/><path class="cls-1" d="M343.77,179h0S343.76,179,343.77,179Z" transform="translate(-321 -177.49)"/><path class="cls-1" d="M343.45,178.91s-.08-.1-.05-.07S343.48,179,343.45,178.91Z" transform="translate(-321 -177.49)"/><polygon class="cls-1" points="22.95 1.75 22.86 1.67 22.93 1.75 22.95 1.75"/><path class="cls-1" d="M343.82,179.25h0s0,0,0,0S343.79,179.23,343.82,179.25Z" transform="translate(-321 -177.49)"/><path class="cls-1" d="M343.83,179.23s0,0,0,0Z" transform="translate(-321 -177.49)"/><polygon class="cls-1" points="22.96 1.8 22.94 1.79 22.92 1.79 22.96 1.8"/><path class="cls-1" d="M343.64,179.38v0s.05.05,0,0A.15.15,0,0,0,343.64,179.38Z" transform="translate(-321 -177.49)"/><path class="cls-1" d="M343.92,179.59l-.07-.06.1.12Z" transform="translate(-321 -177.49)"/><path class="cls-1" d="M343.89,179.66s.05.12.07.09S343.93,179.68,343.89,179.66Z" transform="translate(-321 -177.49)"/><polygon class="cls-1" points="22.49 2.23 22.5 2.23 22.34 2.02 22.49 2.23"/><path class="cls-1" d="M343.58,180.41c.06,0-.08-.14,0-.09s-.06,0-.08-.08S343.48,180.27,343.58,180.41Z" transform="translate(-321 -177.49)"/><path class="cls-1" d="M343.49,180.24v0Z" transform="translate(-321 -177.49)"/><polygon class="cls-1" points="19.07 2.61 19.06 2.56 19.07 2.65 19.07 2.61"/><path class="cls-1" d="M340,180.3v-.17l0,.15S340,180.26,340,180.3Z" transform="translate(-321 -177.49)"/><path class="cls-1" d="M342.62,181.14v0l0,0Z" transform="translate(-321 -177.49)"/><polygon class="cls-1" points="21.33 3.63 21.33 3.63 21.28 3.49 21.33 3.63"/><path class="cls-1" d="M342.18,181.37s0,0,0,0S342.12,181.2,342.18,181.37Z" transform="translate(-321 -177.49)"/><path class="cls-1" d="M339.16,177.51s-.1,0-.11,0Z" transform="translate(-321 -177.49)"/><polygon class="cls-1" points="18.38 0.12 18.34 0.11 18.44 0.14 18.38 0.12"/><path class="cls-1" d="M339.37,177.69c.18,0,0,0,0,0h0l-.14,0S339.42,177.69,339.37,177.69Z" transform="translate(-321 -177.49)"/><path class="cls-1" d="M339,177.66c.07,0,.06,0,0,0h0Z" transform="translate(-321 -177.49)"/><path class="cls-1" d="M339,177.65Z" transform="translate(-321 -177.49)"/><path class="cls-1" d="M339,177.69l-.06,0h-.08A.37.37,0,0,0,339,177.69Z" transform="translate(-321 -177.49)"/><path class="cls-1" d="M339.15,177.73h0Z" transform="translate(-321 -177.49)"/><path class="cls-1" d="M339.07,177.7l.05,0s.09,0,0,0C339.16,177.72,339.11,177.71,339.07,177.7Z" transform="translate(-321 -177.49)"/><path class="cls-1" d="M339.1,177.7l.12,0S339.08,177.67,339.1,177.7Z" transform="translate(-321 -177.49)"/><path class="cls-1" d="M339.55,177.73h.05l-.05,0S339.5,177.72,339.55,177.73Z" transform="translate(-321 -177.49)"/><path class="cls-1" d="M338.92,177.73l.14,0,0,0Z" transform="translate(-321 -177.49)"/><path class="cls-1" d="M339.06,177.76l.06,0S339.1,177.77,339.06,177.76Z" transform="translate(-321 -177.49)"/><polygon class="cls-1" points="18.34 0.28 18.21 0.23 18.34 0.28 18.34 0.28"/><polygon class="cls-1" points="17.9 0.27 17.82 0.24 17.94 0.28 17.9 0.27"/><path class="cls-1" d="M338.91,177.79l-.16,0,.12.06S338.85,177.78,338.91,177.79Z" transform="translate(-321 -177.49)"/><path class="cls-1" d="M339,177.83l-.08,0Z" transform="translate(-321 -177.49)"/><path class="cls-1" d="M339.1,177.8l-.11,0,.11,0Z" transform="translate(-321 -177.49)"/><path class="cls-1" d="M339.1,177.8Z" transform="translate(-321 -177.49)"/><path class="cls-1" d="M339.1,177.8Z" transform="translate(-321 -177.49)"/><path class="cls-1" d="M339.24,177.78a.68.68,0,0,0,.2.06Z" transform="translate(-321 -177.49)"/><path class="cls-1" d="M339.23,177.83h0l-.1,0Z" transform="translate(-321 -177.49)"/><polygon class="cls-1" points="18.26 0.35 18.23 0.33 18.22 0.33 18.26 0.35"/><path class="cls-1" d="M339.05,177.84l.05,0h0Z" transform="translate(-321 -177.49)"/><path class="cls-1" d="M339.08,177.82h0S339.1,177.83,339.08,177.82Z" transform="translate(-321 -177.49)"/><polygon class="cls-1" points="18.08 0.44 18.09 0.44 18.08 0.43 18.08 0.44"/><path class="cls-1" d="M339.15,177.87s0,0,0,0h0S339.16,177.87,339.15,177.87Z" transform="translate(-321 -177.49)"/><path class="cls-1" d="M339,177.86h0Z" transform="translate(-321 -177.49)"/><path class="cls-1" d="M339.06,177.82Z" transform="translate(-321 -177.49)"/><path class="cls-1" d="M339.06,177.82l.06,0,0,0Z" transform="translate(-321 -177.49)"/><path class="cls-1" d="M339.71,178.19c-.09,0-.17-.09-.06-.07l-.55-.18a.36.36,0,0,1,.13.06.69.69,0,0,1,.21.05s0,0-.1,0c.12,0,.16.09.34.15l-.06,0Z" transform="translate(-321 -177.49)"/><path class="cls-1" d="M339.11,177.92h0l-.13,0,.11.05,0,0Z" transform="translate(-321 -177.49)"/><path class="cls-1" d="M339.11,177.89a1.58,1.58,0,0,0,.26.09s-.09,0-.13-.06-.05,0-.12,0l0,0h0l0,0S339.12,177.9,339.11,177.89Z" transform="translate(-321 -177.49)"/><path class="cls-1" d="M339.66,177.91h0Z" transform="translate(-321 -177.49)"/><path class="cls-1" d="M339.6,177.91l0,0,.08,0a.33.33,0,0,0-.13,0h0l-.19,0Z" transform="translate(-321 -177.49)"/><path class="cls-1" d="M339.38,177.91l0,0,.1,0-.06,0S339.42,177.93,339.38,177.91Z" transform="translate(-321 -177.49)"/><polygon class="cls-1" points="18.02 0.42 17.92 0.38 18.07 0.44 18.02 0.42"/><polygon class="cls-1" points="18.03 0.45 17.94 0.41 17.99 0.44 18.03 0.45"/><path class="cls-1" d="M338.75,180.05v0Z" transform="translate(-321 -177.49)"/><path class="cls-1" d="M338.81,180l0-.05Z" transform="translate(-321 -177.49)"/><path class="cls-1" d="M338.74,178.47c-.08-.05-.19-.13-.11-.06l.09.07S338.72,178.46,338.74,178.47Z" transform="translate(-321 -177.49)"/><path class="cls-1" d="M338.86,179.27l0,0-.06-.09Z" transform="translate(-321 -177.49)"/><path class="cls-1" d="M339.15,179.62l-.06,0Z" transform="translate(-321 -177.49)"/><path class="cls-1" d="M338.49,180.32l0,.11S338.51,180.37,338.49,180.32Z" transform="translate(-321 -177.49)"/><path class="cls-1" d="M339,178.19l-.06,0C339,178.2,339,178.23,339,178.19Z" transform="translate(-321 -177.49)"/><path class="cls-1" d="M338.18,179.06l0,.05Z" transform="translate(-321 -177.49)"/><path class="cls-1" d="M338.89,178.19h0s0,0,0,0S338.83,178.15,338.89,178.19Z" transform="translate(-321 -177.49)"/><path class="cls-1" d="M337.17,180.54v0Z" transform="translate(-321 -177.49)"/><path class="cls-1" d="M336.91,179.43h0Z" transform="translate(-321 -177.49)"/><path class="cls-1" d="M339,178Z" transform="translate(-321 -177.49)"/><path class="cls-1" d="M339.36,178.16l0,0Z" transform="translate(-321 -177.49)"/><path class="cls-1" d="M339.44,178.58Z" transform="translate(-321 -177.49)"/><path class="cls-1" d="M339,178h0Z" transform="translate(-321 -177.49)"/><path class="cls-1" d="M339,178h0Z" transform="translate(-321 -177.49)"/><path class="cls-1" d="M339,178h0Z" transform="translate(-321 -177.49)"/><path class="cls-1" d="M337.81,180.16h0S337.81,180.19,337.81,180.16Z" transform="translate(-321 -177.49)"/><polygon class="cls-1" points="18.49 1.84 18.48 1.84 18.48 1.84 18.49 1.84"/><path class="cls-1" d="M339.53,179.41c-.09-.1-.08-.09,0-.08l-.24-.2Z" transform="translate(-321 -177.49)"/><path class="cls-1" d="M338.63,180.16l.07.07c.05.16,0,.12.09.23-.16-.3.06-.08-.1-.37l.05,0s0,0,0,0-.1-.23-.05-.2a.16.16,0,0,1,.07.09l0-.08s0,.05,0,.05l0,0h0l-.07-.15s0,0,0,.06l0-.08c.06.07.09.16.07.15.2.28,0-.08.11.06v0c.12.15.09.08.18.17a1.25,1.25,0,0,1-.23-.31s0,0,0,0c.07.1.06.07.07.05l.09.13s-.06-.11-.09-.18a1.22,1.22,0,0,1,.17.19s-.14-.15-.12-.2,0,0,0-.12.05.08.09.11l-.07-.11,0,.05a1.62,1.62,0,0,1-.1-.18c-.11-.14.19.18.08,0,0,0,.06.08.1.12a1.34,1.34,0,0,0-.12-.25l.08.07a1.78,1.78,0,0,1-.23-.31l-.09-.09,0-.08.1.11,0,0a1.14,1.14,0,0,1,.15.19l-.07-.07.18.23a.08.08,0,0,1,0,0l0,.06s0,0,0-.06l.12.13,0-.05.1.06a4.76,4.76,0,0,1-.27-.45,3,3,0,0,0,.25.27c-.12-.11,0,.07,0,.07s.07.06.08.08l-.06-.14c.08.09.07.06.11.09-.18-.17-.09-.14-.13-.21s.12.12.09.12c.14.12-.19-.23-.06-.13s0,0,0,0,0,0,.06,0h0s.07-.08-.08-.22l.22.21-.49-.53c.13.13.47.4.53.49s.05,0,0,0a2.13,2.13,0,0,1-.22-.18,1.79,1.79,0,0,0,.24.15,1.24,1.24,0,0,1-.23-.21l.23.2-.19-.21a1.36,1.36,0,0,0,.25.2s0,0,0,0l-.06,0c.06,0-.28-.28-.25-.3a3,3,0,0,0,.32.24c-.11-.1-.53-.45-.6-.54l.07,0-.07-.07c.17.13.51.44.64.57s.08.05.08,0,.09.08.09.09l.07,0c-.13-.09-.11-.13-.22-.21l.1.15c-.13-.1-.36-.31-.32-.32s.24.18.29.21-.07-.09,0-.07l.07.07c.06,0-.17-.16,0-.09s.19.1.11.05-.66-.43-.78-.52l.26.12c.13.07.29.21.4.27l-.09-.07s.12.08.11.05,0,0-.12-.08,0,0,.05,0a2.29,2.29,0,0,1-.35-.25l.11.06s.11,0,.13,0a.35.35,0,0,1,.14.07s-.07,0-.07-.07,0,0,.18.11a.8.8,0,0,1-.16-.13c-.14-.07,0,0,0,.05a2.72,2.72,0,0,1-.45-.29c0-.05.13,0,.1,0s-.31-.19-.16-.15a2.63,2.63,0,0,1,.33.15s-.09,0-.09,0l.07,0s.06.05,0,0,.06-.06.17,0a.27.27,0,0,0-.13-.07l0,0c-.11,0-.13-.08-.18-.09s-.17-.1-.11-.1l.14.06s-.09,0,0,0,.2.05,0,0l-.11,0c-.06,0-.21-.12-.16-.12l-.15,0c.2.07,0,0,.19.1-.19-.06-.08,0-.25-.07.05,0,.09,0,.06,0l0,0h0l.07,0c.11,0,.09.07.15.1a.37.37,0,0,1-.11,0l.08,0c-.1,0-.18-.06-.23-.11v0c-.06,0-.09,0,0,0s.1.07,0,0l.05.05h0s.14.13,0,.06c0,0,0,.05,0,0l-.09,0s-.1,0,0,0c-.23-.13-.08,0-.13,0l.11.07s0,0,0,.07l.1.07c.06.06-.09,0-.09,0s0,0,0,0c-.22-.12.11.16-.05.07,0,0,0,0,0,0h0l-.05,0,.05,0,0,0-.1-.07h0s0,0,.12.09l.05.06c-.16-.12,0,.05-.13-.07.07.06,0,.07.19.21l0,0s0,0,0,0l-.12-.1.14.15a.76.76,0,0,1-.2-.17l.15.2-.07-.07s.08.11,0,.06-.08,0-.23-.05c.2.21-.11-.08,0,.09l-.11-.12c0,.06-.1-.06,0,.09l-.1-.11s0,0,0,0a.23.23,0,0,1-.05-.07,2.42,2.42,0,0,0,.25.34c-.07-.07-.06-.05,0,.05-.05-.05-.1-.09-.1-.12s-.1,0,0,.08c0,0,0,0,0,0s0,0,0,0h0c.12.16,0,0,0,.08v0c-.11-.09,0,.06-.1,0l.07.09c.15.21-.11-.1-.07,0l0,.05c0,.08-.23-.27-.26-.29l0,0c-.11-.11.09.13.09.18s-.12-.19-.14-.19.12.25,0,.12a.53.53,0,0,1,.09.16s-.16-.19-.06,0l0,0a.82.82,0,0,0,.06.2c-.21-.36,0,.21-.15-.12l0,0,0,0s0,.07,0,.15l0-.07c-.06-.05-.05,0,0,.15l-.05-.12c0,.07-.12-.15-.09,0l0,0c0,.15-.2-.29-.05.13v.12c.05,0,.07.18.11.25s-.08-.12-.08-.15v0c-.07-.22-.06-.06-.11-.21-.06,0-.15-.07-.2-.08l.05.18h0s0-.13,0-.13,0,.09,0,.13,0-.21-.05-.21h0v0c0,.08,0,.16,0,.15s0-.11,0-.11,0,0,0,0h0l0,.14c0,.07,0,0,0,.16-.07-.24-.11-.07-.13-.15,0,.11,0,.11,0,.1s0,.18,0,.17c0-.34-.05-.14-.09-.38,0,.16,0,0,0,.27,0,0,0-.13,0-.2,0,.13-.07-.08-.1,0a1.07,1.07,0,0,1,0,.18l0-.22s0,.25,0,.1a.4.4,0,0,1,0,.11c-.07-.21-.18.17-.21-.24,0,.08,0,.09,0,.09a1.23,1.23,0,0,1,0,.17l0-.17c0,.17,0,0-.06.17l0,0c-.05.18,0,.41-.08.65.05-.21,0,.32.09,0,0,.05,0,.08,0,.13,0-.1,0-.12,0-.07v0c.06,0,.07.09.14.16v-.12s0,.05,0,.08c0-.18,0,0,0-.21,0,.25.09,0,.11.28,0,0,0-.14,0-.13v0s0,.11,0,.17,0,0,0,0,.06,0,.06,0l0,0c.06-.07.14,0,.18-.13v-.06c0-.11,0,.06.08,0h0c0-.06,0-.09,0-.08s0,.12,0,.2c0-.12,0-.09,0-.3l0,.09c0-.09,0-.13,0-.16s0,.14,0,.25,0-.22.11.07c0-.26-.06-.13-.06-.19s0-.19,0-.17.09.32.12.3v0c0,.06,0-.09.05,0,0-.15,0,0,0-.19l0,.05c0-.05,0-.28,0-.18a.6.6,0,0,1,0,.12c0,.06,0,0,0,0s0,0,0,.2,0-.15.05.06c-.05-.27.05,0,0-.18l0,.11s0-.07,0-.07l0,.15c0-.13.07.1.08,0s0-.13-.1-.21.12.29.17.22-.06-.06-.06-.12a.31.31,0,0,1,.07.12s0-.12-.05-.19c.06.13,0-.06,0-.11l0,.11c.07.06-.07-.24,0-.17l0,.17v0l0,.13c0-.1,0-.08,0-.05s-.08-.21-.06-.22,0,.11.05.09,0,.16,0,.06l0,.11c0,.07,0,0,.05,0l0,0,0-.17a.15.15,0,0,1,0,.11s0-.07,0-.09a1.16,1.16,0,0,1,.07.24v-.12s.07.1.07.13,0-.19,0-.14a.09.09,0,0,1,0-.05s.11.11.08,0l.1.15c0-.05-.13-.19-.12-.26s.08.13.11.16-.09-.25,0-.14S338.63,180.14,338.63,180.16Zm.23-.23s.05.1,0,0S338.83,179.9,338.86,179.93Zm.19-.51s0,0,0,0S339,179.4,339.05,179.42Zm0-1.31Zm.05,0,0,0s0,0,0,0S339.1,178.13,339.07,178.11Zm-1.52,1.28v0S337.55,179.42,337.55,179.39Z" transform="translate(-321 -177.49)"/><path class="cls-1" d="M339.12,179.58l-.05-.05A.12.12,0,0,0,339.12,179.58Z" transform="translate(-321 -177.49)"/><polygon class="cls-1" points="17.48 2.81 17.48 2.81 17.48 2.83 17.48 2.81"/><path class="cls-1" d="M339.79,178.92l-.06,0Z" transform="translate(-321 -177.49)"/><path class="cls-1" d="M338.92,178l0,0h0Z" transform="translate(-321 -177.49)"/><path class="cls-1" d="M339.66,178.1h0l-.06,0S339.63,178.1,339.66,178.1Z" transform="translate(-321 -177.49)"/><path class="cls-1" d="M339.3,178.08c.09,0,.06,0,.05,0h0C339.22,178,339.26,178.06,339.3,178.08Z" transform="translate(-321 -177.49)"/><path class="cls-1" d="M339.35,178.08s0,0,0,0S339.33,178.07,339.35,178.08Z" transform="translate(-321 -177.49)"/><path class="cls-1" d="M339,178.06l-.08,0C338.83,178,339.08,178.11,339,178.06Z" transform="translate(-321 -177.49)"/><polygon class="cls-1" points="18.61 0.7 18.49 0.66 18.58 0.7 18.61 0.7"/><path class="cls-1" d="M339.5,178.24h0l0,0S339.46,178.22,339.5,178.24Z" transform="translate(-321 -177.49)"/><path class="cls-1" d="M339.5,178.22l0,0S339.48,178.21,339.5,178.22Z" transform="translate(-321 -177.49)"/><polygon class="cls-1" points="18.64 0.74 18.61 0.73 18.6 0.74 18.64 0.74"/><path class="cls-1" d="M339.4,178.39l0,0s.06,0,.05,0S339.44,178.4,339.4,178.39Z" transform="translate(-321 -177.49)"/><path class="cls-1" d="M339.73,178.49l-.09,0,.14.07Z" transform="translate(-321 -177.49)"/><path class="cls-1" d="M339.74,178.56s.09.08.1.05S339.78,178.56,339.74,178.56Z" transform="translate(-321 -177.49)"/><polygon class="cls-1" points="18.42 1.22 18.42 1.21 18.2 1.07 18.42 1.22"/><path class="cls-1" d="M339.75,179.29c.06,0-.12-.1-.05-.07s-.06,0-.1-.06S339.61,179.2,339.75,179.29Z" transform="translate(-321 -177.49)"/><path class="cls-1" d="M339.6,179.16l0,0Z" transform="translate(-321 -177.49)"/><polygon class="cls-1" points="15.89 1.8 15.89 1.74 15.88 1.83 15.89 1.8"/><path class="cls-1" d="M336.84,179.48l0-.16,0,.14S336.85,179.44,336.84,179.48Z" transform="translate(-321 -177.49)"/><path class="cls-1" d="M339.09,180.17l0,0s0,0,0,0Z" transform="translate(-321 -177.49)"/><polygon class="cls-1" points="17.81 2.71 17.82 2.71 17.74 2.58 17.81 2.71"/><path class="cls-1" d="M338.72,180.47s0,0,0,0S338.64,180.31,338.72,180.47Z" transform="translate(-321 -177.49)"/><path class="cls-1" d="M334.59,178.69l-.1,0Z" transform="translate(-321 -177.49)"/><polygon class="cls-1" points="13.81 1.3 13.77 1.28 13.86 1.32 13.81 1.3"/><path class="cls-1" d="M334.8,178.82c.16.06,0,0,0,0h0l-.13-.05Z" transform="translate(-321 -177.49)"/><path class="cls-1" d="M334.43,178.69h0Z" transform="translate(-321 -177.49)"/><path class="cls-1" d="M334.44,178.69Z" transform="translate(-321 -177.49)"/><path class="cls-1" d="M334.47,178.72l-.06,0-.07,0Z" transform="translate(-321 -177.49)"/><path class="cls-1" d="M334.59,178.77h0Z" transform="translate(-321 -177.49)"/><path class="cls-1" d="M334.52,178.74l0,0s.08,0,0,0Z" transform="translate(-321 -177.49)"/><path class="cls-1" d="M334.54,178.74l.12,0A.42.42,0,0,0,334.54,178.74Z" transform="translate(-321 -177.49)"/><path class="cls-1" d="M335,178.89l0,0-.06,0S334.92,178.87,335,178.89Z" transform="translate(-321 -177.49)"/><path class="cls-1" d="M334.38,178.7l.13.06,0,0Z" transform="translate(-321 -177.49)"/><path class="cls-1" d="M334.51,178.76l.06,0Z" transform="translate(-321 -177.49)"/><polygon class="cls-1" points="13.77 1.35 13.65 1.3 13.77 1.36 13.77 1.35"/><polygon class="cls-1" points="13.37 1.22 13.29 1.18 13.4 1.24 13.37 1.22"/><path class="cls-1" d="M334.38,178.72l-.15-.07.11.06Z" transform="translate(-321 -177.49)"/><path class="cls-1" d="M334.41,178.75l-.07,0Z" transform="translate(-321 -177.49)"/><path class="cls-1" d="M334.55,178.79l-.1,0,.1,0Z" transform="translate(-321 -177.49)"/><path class="cls-1" d="M334.55,178.79Z" transform="translate(-321 -177.49)"/><path class="cls-1" d="M334.55,178.79Z" transform="translate(-321 -177.49)"/><path class="cls-1" d="M334.68,178.82l.19.09Z" transform="translate(-321 -177.49)"/><path class="cls-1" d="M334.67,178.84h0l-.09,0Z" transform="translate(-321 -177.49)"/><polygon class="cls-1" points="13.7 1.36 13.67 1.35 13.66 1.34 13.7 1.36"/><path class="cls-1" d="M334.51,178.79l.05,0h0Z" transform="translate(-321 -177.49)"/><path class="cls-1" d="M334.54,178.8Z" transform="translate(-321 -177.49)"/><polygon class="cls-1" points="13.54 1.35 13.56 1.36 13.54 1.35 13.54 1.35"/><path class="cls-1" d="M334.61,178.84l0,0h0Z" transform="translate(-321 -177.49)"/><path class="cls-1" d="M334.46,178.78l.05,0Z" transform="translate(-321 -177.49)"/><path class="cls-1" d="M334.52,178.79h0Z" transform="translate(-321 -177.49)"/><path class="cls-1" d="M334.52,178.79l.05,0,0,0Z" transform="translate(-321 -177.49)"/><path class="cls-1" d="M335.15,179.17c-.09,0-.17-.1-.07-.06-.06,0-.35-.18-.52-.26l.13.07.19.09s0,0-.08,0l.31.18-.05,0Z" transform="translate(-321 -177.49)"/><path class="cls-1" d="M334.58,178.85h0l-.13-.06.11.06h0Z" transform="translate(-321 -177.49)"/><path class="cls-1" d="M334.57,178.83l.24.13a.54.54,0,0,0-.12-.07s-.05,0-.11,0l0,0-.05,0h0l0,0,0,0h0l.05,0S334.58,178.84,334.57,178.83Z" transform="translate(-321 -177.49)"/><path class="cls-1" d="M335.08,179h0Z" transform="translate(-321 -177.49)"/><path class="cls-1" d="M335,179l0,0,.08,0a.73.73,0,0,0-.12-.05h0l-.17-.07Z" transform="translate(-321 -177.49)"/><path class="cls-1" d="M334.82,178.93l0,0,.09,0-.05,0S334.86,179,334.82,178.93Z" transform="translate(-321 -177.49)"/><polygon class="cls-1" points="13.5 1.32 13.39 1.27 13.54 1.35 13.5 1.32"/><polygon class="cls-1" points="13.5 1.34 13.42 1.29 13.47 1.32 13.5 1.34"/><path class="cls-1" d="M334.85,180.23v0Z" transform="translate(-321 -177.49)"/><path class="cls-1" d="M334.88,180.22l0,0Z" transform="translate(-321 -177.49)"/><path class="cls-1" d="M334.39,179l-.1-.08.08.07S334.37,179,334.39,179Z" transform="translate(-321 -177.49)"/><path class="cls-1" d="M334.71,179.62l0,0-.07-.08Z" transform="translate(-321 -177.49)"/><path class="cls-1" d="M335,180l-.05-.05Z" transform="translate(-321 -177.49)"/><path class="cls-1" d="M334.76,180.42l.05.1S334.79,180.47,334.76,180.42Z" transform="translate(-321 -177.49)"/><path class="cls-1" d="M334.49,178.93l-.06,0Z" transform="translate(-321 -177.49)"/><path class="cls-1" d="M334.21,179.28l0,.05Z" transform="translate(-321 -177.49)"/><path class="cls-1" d="M334.43,178.91h0l0,0S334.37,178.87,334.43,178.91Z" transform="translate(-321 -177.49)"/><path class="cls-1" d="M334.11,180.59h0Z" transform="translate(-321 -177.49)"/><path class="cls-1" d="M333.76,179.55h0Z" transform="translate(-321 -177.49)"/><path class="cls-1" d="M334.45,178.84Z" transform="translate(-321 -177.49)"/><path class="cls-1" d="M334.82,179l.05,0Z" transform="translate(-321 -177.49)"/><path class="cls-1" d="M335,179.31Z" transform="translate(-321 -177.49)"/><path class="cls-1" d="M334.49,178.86h0Z" transform="translate(-321 -177.49)"/><path class="cls-1" d="M334.45,178.84h0Z" transform="translate(-321 -177.49)"/><path class="cls-1" d="M334.45,178.85h0Z" transform="translate(-321 -177.49)"/><path class="cls-1" d="M334.33,180.21h0C334.34,180.25,334.34,180.24,334.33,180.21Z" transform="translate(-321 -177.49)"/><polygon class="cls-1" points="14.18 2.34 14.17 2.33 14.17 2.33 14.18 2.34"/><path class="cls-1" d="M335.23,179.9c-.1-.1-.08-.09-.06-.07l-.23-.21Z" transform="translate(-321 -177.49)"/><path class="cls-1" d="M334.8,180.3l.07.08c.07.14,0,.1.11.21-.18-.29,0-.06-.16-.34l0,.05v0c.1.12-.13-.21-.09-.18l.07.09,0-.08s0,.06,0,0v0h0l-.08-.15s0,0,0,.07l0-.08c.06.07.1.15.08.14.21.27,0-.07.1.07v0c.12.16.09.09.17.18s-.2-.23-.24-.3,0,0,0,0,.06.06.07,0l.09.13-.11-.17a1.34,1.34,0,0,1,.16.19s-.13-.15-.13-.19,0,0,0-.1l.09.11-.08-.1,0,.05c0-.05-.1-.13-.12-.17s.18.19.06,0l.11.12-.16-.23.08.07a1.68,1.68,0,0,1-.24-.29l-.1-.09,0-.07.09.11,0,0,.16.18-.07-.07.19.22,0,0,0,0,0,0,.13.13,0-.05.09.07-.32-.41.26.26c-.12-.11,0,.07,0,0l.08.08-.09-.12.11.1a.72.72,0,0,1-.15-.19c.06.06.12.12.1.11.14.13-.2-.22-.08-.11l0,0c-.05-.06,0,0,.05,0h0s0,0-.11-.19l.21.21-.5-.51c.13.13.46.42.52.5s.05,0,0,0l-.21-.19.22.18-.23-.22.23.21-.2-.2.24.21s0,0,0,0l-.05,0s-.29-.27-.27-.27l.3.25-.6-.53.07,0-.07-.07.64.56.07.05c.07,0,.09.08.09.09h.06c-.13-.11-.12-.13-.23-.21l.12.13a2.1,2.1,0,0,1-.33-.31l.27.23s-.07-.09,0-.06l.07.06c.05,0-.17-.15,0-.06s.18.12.1.06l-.75-.56.24.15.39.3-.1-.08.1.07c-.13-.11,0,0-.11-.09s0,0,0,0-.3-.23-.33-.26l.1.07s.09,0,.1,0l.14.09-.07-.06c.13.08,0,0,.16.12l-.15-.13c-.13-.08,0,0,0,0l-.43-.31s.12.07.1,0-.31-.21-.17-.14l.31.19s-.08,0-.08,0l.06,0,0,0c.1.06,0,0,.14,0a.5.5,0,0,0-.12-.08h0l-.17-.1c-.06,0-.17-.11-.11-.09l.14.08-.05,0c-.05,0,.19.09,0,0l-.1,0-.16-.11-.14-.07c.19.1,0,0,.19.11l-.24-.12.07,0,0,0h0l.07,0c.1.06.09.07.14.1l-.1-.06.08.05a1.35,1.35,0,0,1-.22-.12h0s-.08,0,0,0l0,0,.05,0h0s.15.12,0,0c0,0,.05,0,0,0l-.08,0s-.09-.05,0,0c-.22-.15-.06,0-.1,0l.1.07.06.06.08.07c.07.06-.07,0-.06,0s0,0,0,0c-.21-.15.12.13,0,0,0,0,0,0,0,0h0l0,0,0,0,0,0-.09-.08h0l.12.1.05,0c-.15-.13,0,.05-.12-.09l.21.21,0,0s0,0,0,0l-.11-.1.14.15-.19-.18.16.18-.07-.07s.1.1,0,.05,0,0-.17-.11c.2.21-.1-.09.05.08l-.11-.12s-.08-.08,0,.07l-.1-.11s0,0,0,0l0-.07a2.4,2.4,0,0,0,.27.32c-.06-.06-.06,0,0,.05l-.1-.12s-.08-.06,0,.06c0,0,0,0,0,0s0,0,0,0l0,0c.12.15,0,0,0,.05h0c-.1-.1,0,.06-.07-.06l.07.09c.16.21-.1-.11-.05,0l.05,0a2.7,2.7,0,0,1-.25-.3l0,0c-.1-.12.09.13.11.16l-.14-.18c0-.06.15.23,0,.1a.65.65,0,0,1,.1.15s-.15-.2,0,0l0,0,.1.18c-.23-.34.08.18-.12-.14v0l0,0s0,.06.07.14l0-.07c-.05-.06,0-.05,0,.12l-.07-.1c0,.06-.11-.16-.05,0l0-.05c.06.14-.18-.29,0,.11l0,.11a1.63,1.63,0,0,1,.13.24.75.75,0,0,1-.08-.14v0c-.1-.21-.05-.07-.12-.21,0,0-.09-.09-.12-.09l.08.16h0s-.06-.13-.05-.13,0,.08,0,.12-.08-.2-.09-.2h0v0a.55.55,0,0,1,0,.14l0-.11s0,0,0,0h0l.06.13a.55.55,0,0,0,.05.15c-.1-.24-.07-.07-.1-.15,0,.1,0,.1,0,.1s.07.18,0,.16c-.1-.32-.06-.13-.13-.36a2.15,2.15,0,0,0,.07.26,2,2,0,0,1-.07-.2c0,.13,0-.07,0,0l0,.17-.07-.21s.06.25,0,.1l0,.11c-.08-.2,0,.18-.14-.21l0,.1,0,.16,0-.16c0,.17,0,0,0,.17v0c0,.19.06.41.09.65,0-.21.08.31,0,0l0,.14c0-.11,0-.13,0-.08v0s.05.07.09.13l0-.12,0,.08c0-.18,0,0-.06-.2.06.23,0,0,.11.26,0,0,0-.13,0-.13l0,.07,0-.1s0,.11.05.17v0c0,.08,0,0,0,0l0,0c0-.07.07,0,.05-.14l0-.05c0-.11,0,.05,0,0h0c0-.05,0-.08,0-.08a1.46,1.46,0,0,0,.07.19c0-.11,0-.09-.07-.29l0,.09a1.17,1.17,0,0,1,0-.15c0,.08.06.13.08.23s0-.2.08.07c-.08-.24-.07-.12-.08-.18a.36.36,0,0,1-.05-.16s.13.31.15.29v0c0,.06,0-.09,0,0-.06-.15,0,0-.06-.18v.05c0-.05-.09-.27,0-.17l0,.11c0,.06,0,0,0,0s0,.05,0,.19,0-.14,0,.06c-.1-.26,0,0,0-.17l.05.11a.41.41,0,0,1,0-.07l.05.14c0-.12.07.1,0,0s-.06-.13-.1-.21.14.28.14.21a.33.33,0,0,1-.06-.11.54.54,0,0,1,.07.12s-.05-.11-.08-.18c.07.12,0-.06,0-.11l.06.11c.05.06-.11-.23,0-.15l.07.15v0l.06.12c0-.09,0-.07,0,0l-.09-.2c0,.06.05.1.06.08s.07.15,0,.06l.05.1c.05.07,0,0,0,0s0,0,0,0l-.06-.16s0,.08.06.11l0-.08a1.45,1.45,0,0,1,.11.22l0-.1.08.13s-.07-.18,0-.12l0,0s.09.11,0,0l.1.15s-.13-.18-.14-.25.08.12.11.16-.13-.24,0-.12S334.8,180.29,334.8,180.3Zm.09-.15s.05.09,0,0S334.86,180.12,334.89,180.15Zm0-.37s0,0,0,0S334.85,179.76,334.88,179.78Zm-.36-.87h0S334.5,178.9,334.52,178.91Zm.05,0,0,0s0,0,0,0S334.59,179,334.57,178.93Zm-.57.54v0Z" transform="translate(-321 -177.49)"/><path class="cls-1" d="M335,179.92l-.05,0Z" transform="translate(-321 -177.49)"/><polygon class="cls-1" points="13.75 2.91 13.75 2.91 13.76 2.93 13.75 2.91"/><path class="cls-1" d="M335.33,179.63l-.05,0Z" transform="translate(-321 -177.49)"/><path class="cls-1" d="M334.41,178.8l0,0h0Z" transform="translate(-321 -177.49)"/><path class="cls-1" d="M335.09,179.11h0l-.05,0S335.07,179.1,335.09,179.11Z" transform="translate(-321 -177.49)"/><path class="cls-1" d="M334.76,179c.09,0,.06,0,.05,0h0C334.68,178.94,334.72,179,334.76,179Z" transform="translate(-321 -177.49)"/><path class="cls-1" d="M334.8,179h0C334.75,179,334.79,179,334.8,179Z" transform="translate(-321 -177.49)"/><path class="cls-1" d="M334.52,178.89l-.08,0Z" transform="translate(-321 -177.49)"/><polygon class="cls-1" points="14.05 1.65 13.94 1.59 14.03 1.64 14.05 1.65"/><path class="cls-1" d="M335,179.13h0l0,0S334.93,179.11,335,179.13Z" transform="translate(-321 -177.49)"/><path class="cls-1" d="M335,179.12l0,0S334.94,179.11,335,179.12Z" transform="translate(-321 -177.49)"/><polygon class="cls-1" points="14.08 1.68 14.06 1.67 14.05 1.67 14.08 1.68"/><path class="cls-1" d="M334.9,179.18l0,0s.06,0,.05,0Z" transform="translate(-321 -177.49)"/><path class="cls-1" d="M335.2,179.34l-.08,0,.13.08Z" transform="translate(-321 -177.49)"/><path class="cls-1" d="M335.22,179.39s.09.08.09.06Z" transform="translate(-321 -177.49)"/><polygon class="cls-1" points="13.98 1.89 13.98 1.89 13.77 1.74 13.98 1.89"/><path class="cls-1" d="M335.37,179.87c.06,0-.12-.1-.05-.06l-.09-.07S335.24,179.77,335.37,179.87Z" transform="translate(-321 -177.49)"/><path class="cls-1" d="M335.23,179.74l0,0Z" transform="translate(-321 -177.49)"/><polygon class="cls-1" points="12.72 1.92 12.71 1.87 12.72 1.95 12.72 1.92"/><path class="cls-1" d="M333.74,179.6l0-.16v.15S333.73,179.57,333.74,179.6Z" transform="translate(-321 -177.49)"/><path class="cls-1" d="M335.1,180.39l0,0,0,0Z" transform="translate(-321 -177.49)"/><polygon class="cls-1" points="13.93 2.87 13.93 2.88 13.85 2.76 13.93 2.87"/><path class="cls-1" d="M334.94,180.58s0,0,0,0S334.85,180.43,334.94,180.58Z" transform="translate(-321 -177.49)"/></svg>