<svg id="view-gh" xmlns="http://www.w3.org/2000/svg" viewBox="0 0 234.62 51.31" width="100" height="50"><defs><style>.cls-1{font-size:39.98px;fill:#f6685d;font-family:AmerikaSans, Amerika Sans;}.cls-2{fill:#e33b26;}</style></defs><text class="cls-1" transform="translate(67.6 40.56)">in GitHub</text><path class="cls-2" d="M1348.35,1508.38v0Z" transform="translate(-1244.13 -1495)"/><polygon class="cls-2" points="101.58 14.53 101.58 14.37 101.21 14.82 101.58 14.53"/><path class="cls-2" d="M1343.13,1509.61c.25.74.95,0,1.4,0h0V1509C1344.24,1509.32,1343.5,1509.82,1343.13,1509.61Z" transform="translate(-1244.13 -1495)"/><path class="cls-2" d="M1341.78,1508c0,.29-.29,0,.33,0h-.33Z" transform="translate(-1244.13 -1495)"/><path class="cls-2" d="M1342.07,1508" transform="translate(-1244.13 -1495)"/><path class="cls-2" d="M1340.79,1508.13l.37-.24s-.37-.21-.24-.33S1340.63,1507.85,1340.79,1508.13Z" transform="translate(-1244.13 -1495)"/><path class="cls-2" d="M1340.46,1508.67Z" transform="translate(-1244.13 -1495)"/><path class="cls-2" d="M1341,1508.34l-.41.25s0,.32.2,0S1340.88,1508.5,1341,1508.34Z" transform="translate(-1244.13 -1495)"/><path class="cls-2" d="M1341.24,1508.46s.46.29,0,.54C1342,1508.91,1341.94,1508.38,1341.24,1508.46Z" transform="translate(-1244.13 -1495)"/><path class="cls-2" d="M1343,1510.35l.25.21.24-.25S1343,1510.15,1343,1510.35Z" transform="translate(-1244.13 -1495)"/><path class="cls-2" d="M1338.54,1507.64v.62h.28A1.43,1.43,0,0,1,1338.54,1507.64Z" transform="translate(-1244.13 -1495)"/><path class="cls-2" d="M1338.74,1508.26l-.41.24C1338.54,1508.54,1338.78,1508.42,1338.74,1508.26Z" transform="translate(-1244.13 -1495)"/><polygon class="cls-2" points="96.21 14.45 96.9 13.91 96.08 14.45 96.21 14.45"/><polygon class="cls-2" points="93.05 12.48 93.29 12.15 92.84 12.64 93.05 12.48"/><path class="cls-2" d="M1336.2,1507.44c.2-.29,0-.54,0-.7a1.78,1.78,0,0,0-.74.49C1335.7,1507.11,1335.91,1507.19,1336.2,1507.44Z" transform="translate(-1244.13 -1495)"/><path class="cls-2" d="M1335.09,1507.52l.37-.29A.76.76,0,0,0,1335.09,1507.52Z" transform="translate(-1244.13 -1495)"/><path class="cls-2" d="M1337.67,1508.38a.55.55,0,0,0-.24-.49v.45Z" transform="translate(-1244.13 -1495)"/><path class="cls-2" d="M1337.55,1508.34" transform="translate(-1244.13 -1495)"/><path class="cls-2" d="M1337.71,1508.38" transform="translate(-1244.13 -1495)"/><path class="cls-2" d="M1339.36,1509c-.25,0-.78.45-.33.86C1339.23,1509.61,1339,1509.32,1339.36,1509Z" transform="translate(-1244.13 -1495)"/><path class="cls-2" d="M1337.88,1508.91h.41v-.41Z" transform="translate(-1244.13 -1495)"/><polygon class="cls-2" points="93.5 14.04 93.74 13.91 93.58 13.87 93.5 14.04"/><path class="cls-2" d="M1335.74,1508a.91.91,0,0,1-.65,0l.74.21S1336,1508,1335.74,1508Z" transform="translate(-1244.13 -1495)"/><path class="cls-2" d="M1336.61,1508.22Z" transform="translate(-1244.13 -1495)"/><polygon class="cls-2" points="88.78 12.85 88.82 12.93 88.82 12.85 88.78 12.85"/><path class="cls-2" d="M1335.83,1508.46h0Z" transform="translate(-1244.13 -1495)"/><path class="cls-2" d="M1334.43,1507.64l.29.29S1334.43,1507.52,1334.43,1507.64Z" transform="translate(-1244.13 -1495)"/><path class="cls-2" d="M1336.52,1508.09" transform="translate(-1244.13 -1495)"/><path class="cls-2" d="M1336.52,1508.09l-.28.25a.47.47,0,0,0,.33,0S1336.52,1508.13,1336.52,1508.09Z" transform="translate(-1244.13 -1495)"/><path class="cls-2" d="M1331.8,1510.56a.54.54,0,0,1,1-.21c.45-.25.37-1.6,0-2.42,0,.2,0,.37-.53.53s.86.66.45,1-.45-.21-.66-.46c0,.54-.82.62-.82,1.36h.53A.2.2,0,0,0,1331.8,1510.56Z" transform="translate(-1244.13 -1495)"/><path class="cls-2" d="M1333.73,1508.09h0a1.83,1.83,0,0,1-.49-.65c-.33,0-.41.28-.45.45h.82Z" transform="translate(-1244.13 -1495)"/><path class="cls-2" d="M1334.68,1508.18c-.21.41-.66.53-.45,1.06s.41-.33.73-.49c-.82,0,.25-.21-.28-.53h.41l-.37-.25h-.82A2.1,2.1,0,0,0,1334.68,1508.18Z" transform="translate(-1244.13 -1495)"/><path class="cls-2" d="M1338.54,1510.8Z" transform="translate(-1244.13 -1495)"/><path class="cls-2" d="M1338.21,1510.51s0-.24.33,0,0,.21,0,.33.45-.24,0-.49h0a1.61,1.61,0,0,1-.66-.82A3.44,3.44,0,0,0,1338.21,1510.51Z" transform="translate(-1244.13 -1495)"/><path class="cls-2" d="M1336.36,1509.32h-.7l.33.41h0C1336.36,1509.94,1336.32,1509.65,1336.36,1509.32Z" transform="translate(-1244.13 -1495)"/><polygon class="cls-2" points="88.74 12.6 88.9 12.15 88.41 12.77 88.74 12.6"/><polygon class="cls-2" points="87.88 12.52 87.96 12.15 87.67 12.35 87.88 12.52"/><path class="cls-2" d="M1282.47,1511.09" transform="translate(-1244.13 -1495)"/><path class="cls-2" d="M1283.78,1510.68v-.21S1283.74,1510.68,1283.78,1510.68Z" transform="translate(-1244.13 -1495)"/><path class="cls-2" d="M1310.22,1503.29c-.25-.45-.5-1.11-.54-.66v.5A.55.55,0,0,1,1310.22,1503.29Z" transform="translate(-1244.13 -1495)"/><path class="cls-2" d="M1294.78,1505.71h0v0Z" transform="translate(-1244.13 -1495)"/><path class="cls-2" d="M1294.82,1507.56l-.41-.25A.6.6,0,0,0,1294.82,1507.56Z" transform="translate(-1244.13 -1495)"/><path class="cls-2" d="M1275.62,1514.66v.53C1275.94,1515,1275.7,1514.87,1275.62,1514.66Z" transform="translate(-1244.13 -1495)"/><path class="cls-2" d="M1323.06,1506a1.28,1.28,0,0,0-.57-.37C1322.73,1505.88,1322.9,1506.33,1323.06,1506Z" transform="translate(-1244.13 -1495)"/><path class="cls-2" d="M1281.4,1506.45a.29.29,0,0,0,0,.33A.38.38,0,0,0,1281.4,1506.45Z" transform="translate(-1244.13 -1495)"/><path class="cls-2" d="M1321.75,1505.43h0a.91.91,0,0,1,.61,0A.43.43,0,0,0,1321.75,1505.43Z" transform="translate(-1244.13 -1495)"/><path class="cls-2" d="M1254.85,1533Z" transform="translate(-1244.13 -1495)"/><path class="cls-2" d="M1245.9,1535.92h.25A.18.18,0,0,0,1245.9,1535.92Z" transform="translate(-1244.13 -1495)"/><path class="cls-2" d="M1328.52,1506.74" transform="translate(-1244.13 -1495)"/><path class="cls-2" d="M1329.14,1508.67Z" transform="translate(-1244.13 -1495)"/><path class="cls-2" d="M1319.29,1507.76" transform="translate(-1244.13 -1495)"/><path class="cls-2" d="M1328.77,1507h-.21A.38.38,0,0,0,1328.77,1507Z" transform="translate(-1244.13 -1495)"/><path class="cls-2" d="M1328.77,1506.78Z" transform="translate(-1244.13 -1495)"/><path class="cls-2" d="M1328.27,1506.74h0Z" transform="translate(-1244.13 -1495)"/><path class="cls-2" d="M1264,1520.78h0C1263.88,1521,1263.92,1520.94,1264,1520.78Z" transform="translate(-1244.13 -1495)"/><polygon class="cls-2" points="60.66 12.27 60.7 12.27 60.66 12.23 60.66 12.27"/><path class="cls-2" d="M1304.14,1507.6c.29-.53.45-.49.66-.33V1506Z" transform="translate(-1244.13 -1495)"/><path class="cls-2" d="M1279.35,1512.48h.58c-.25.83-.66.83,0,1.11-.5-1.31,1.6-.78,1.1-2.09h.41c.78.41,0-1.11.82-1.19s.54,0,.46.33l.41-.54c.2,0,.24,0,0,.25l.86-.37h0a5.44,5.44,0,0,1,.29-.86c.28,0,0,.2,0,.33l.37-.49c.28.28,0,.77-.33.82.86,1.19.28-.46,1.47,0l-.37.32c.5.66.78.25,1.4.58,0,0-1.35-.86-.94-1.36s.37,0,.57-.32c0,.49.41.28.74,0v.65c.33-.28.2-.61.33-.94s.65.41.86.82-.66-.66,0-1a4.89,4.89,0,0,0,1.56-.82c.45,0,0,.41.2.58l.25-.58v.25c0,.25,0-.66.33-.9s1.15.82,1.6,0v.65a4.8,4.8,0,0,0,1.15-1.31l.66.33c-.5-.41,0-1.07.37-1.6a2.67,2.67,0,0,0-.46-.49l.74-.46v.62h0c.29.2.21.62,0,1l-.33-.36a2.73,2.73,0,0,0,0,1.27.43.43,0,0,1,.25-.21v.25s0,0,.21-.25l.24.7v-.29l1,.33c.61-.82,1.15-1.93,2.26-2.3-.25.58,0,.91,0,1.52-.33-.66-.83.33-1.4,0a.37.37,0,0,1,.21.48h0l.94-.65c0,.49.25.37.53.57-.24-1,.74-.74,1.15-1.07,0,.37,0,.7-.57.66.57.74.7-1.23,1.27-.61h-.25s1,0,.82.24h0c.83,0,2.51,0,2.67-.82,0,0,0,1.07-.2,1.23.53-1,1.06-2,1.64-2.87,0,.74,0,2.54-.49,2.91a.69.69,0,0,0,.86,0s-.29-1.1,0-1.15a5.61,5.61,0,0,0,.86,1.24s0-1.32.45-1.28a6.2,6.2,0,0,1-.2,1.28l.9-1.07c-.21,0,0,1,0,1.31s.7,0,.9,0l-.29-.33c.87.33,1.07-1.43,2-1.19,0,.21-.46,1.4,0,1.64.28-.57,1.31-2.66,2.17-3v.37l.66-.25a20,20,0,0,1-2.55,3c.33.33,0,.41.54.49s-.33.41-.46.41l1.11.45c0-.69,1-.53,1-1.1l-1.36.45c0-.7,1-1.77,1.81-1.48s-.33,1.15-.37,1.4.86-.29.9,0l-.41.28c.41.37.91-.74,1.36,0,0,0,.41,1,.53.58a8.69,8.69,0,0,1,.49-3.78,7.16,7.16,0,0,1,1,1.36c.21.69-.74,1.35-.57,1.93a.84.84,0,0,1,.32-.42c.21,0,0,.54.29.54.21-.66.86.24.29-.54.49,0,.45.25.94.29s.74-1.39,1.23-1.52,0,.41,0,.54c.87.24,1.28.65,2.1.82,0,0,.41.45,0,.7a.69.69,0,0,1,.57-.25c.33.7-.61,0-.41.74,0-.37.78-.41,1.23-.58s-.82-.28-1.23,0a2.5,2.5,0,0,1,1.93-1.8c.74,0,0,.61.33.53,1.23.41,1.39-1.23,2.3-.41s-.21,1.07,0,1.48c-.62,0-.78-.54-1.15-.58l.41.37a.73.73,0,0,1-.78,0c.24.54,2.13.54,3,1.15.2,0,.53-.24.45-.49h-.33c-.21-.49.7-.49.33-.78.49-.21,1-.62,1.56-.25v.62s-.29-.41-.5-.29.74,1,1.15.25l-.32-.49c.45-.25,1.1-.83,1.55-.54,0-.65,0,0-.36-.74,0,1-1.32-.24-1,.78-.24-.9-.61-.49-.94-1.27,0,0,0,.41-.33.25h0a.77.77,0,0,1,0,.37c-.29.41-1,.28-1.27.49s0-.25,0-.49l-.41.32c0-.49-.54-.9,0-1.06h-.54a1,1,0,0,0-1-.37c-.29.12-.78.37-.45,0h-1c-.86-.25-1.89.37-2.71-.66a1.32,1.32,0,0,1-1.1,0v.33c-.37,0-1-.62-1.28-.25-.2-1.1-1.8-.57-2.42-.9v.49a3.89,3.89,0,0,0-1.52,0v.45c-.53.29-1.19-.57-2-.65h.41c-.78-1.23-2.05.37-2.79-.58a.36.36,0,0,1-.49,0h0l-.25-.28v.28a1.2,1.2,0,0,0-.65,0v-.49h0c-.25-.25-.25,0,0,.58a.62.62,0,0,0-.33.24c0-.86-.7,0-.86-.7-.21.41-1.28,0-1.48,1.07h0c0,.21-.53-.29-.82,0v-.66l-.66.83c-.33-.42-.49-.66,0-1.11-.94.65-.74.24-1.52.94v-.41c-.28,0-.74.58-.86.21s-2.91,0-4.47-.74c.37,1.19-.74-.5-.74.45,0-.29-.33-.45,0-.7-.74.29-1.19-.37-1.68.49v-.61c0-.17,0,.29-.33,0s0-.25.2-.37c-.78,0-.78,1-.74,1.8-.45-.32-.65-.24-.86.33,0-.24-.45-.49,0-.65-.29,0-1.76-.21-1.68.49h-.41a6,6,0,0,0-1.27.2h0c0,.82-.46.29-.91.46h0c-1.23-.33-.45.32-1.64,0v.45c0,1.06-1.11-.37-1.6,0l.29.2c-.25.45-1.32-1.15-1.73-1.19s0,0,0-.24c-1.06-.37,0,.61-.57.94-.21-.29,0-.9-.53-.82s-1,1.52-1.81,1.07c.25,0,.45.41,0,.69s-1.6-.53-1.77.41h0c-.28.33-1,.78-1.06,1.28-1-1.44-1.85,1.64-2.46,0l-1,.57h0a1.22,1.22,0,0,0-.9,1.15v-.29c-1.11,0-1.19.25-1.65,1.4l-.28-.41c0,.37-1.77,0-2.42,1.06a.33.33,0,0,1,0-.24c-.74,1.07-3.21.33-2.59,2.09l-.41.82c.94-.41.33.74.82.78-.25.29-1.15,0-.78-.24h0c-.37-.91-1.23.37-1.56,0-1.6,1.23-3.49,2-5,3.2l.66.41-.53.41c-.21,0-.54-.29,0-.58-.45,0-.37.78-.25.91-.9.37-.33-.91-.53-.7l-.29.29h0a1.5,1.5,0,0,1-.25,1c-.24.37-.45-.2-.57,0h0l-.66.54.66.2c0,.45-.58.53,0,.74-1.15-.37-2.46,1.89-2.87,2a2.07,2.07,0,0,1-.82,1.44c.2,0,.73.37.32.69-.9-1-1.1.33-2.13,0,.78,0-.82,1.32.29,1.4-.37.29-.41-.29-.87-.21-.24,1.15-1.76,1.69-2.33,2.84a.53.53,0,0,1,.53.49h-1.11c0,.25.7.78,0,.78,0,0,.41,0,.37.29-2.09,1.39-2.63,4.55-5.42,4.47.41,0,.29.25,0,.41s.25.37.41.53a4.43,4.43,0,0,1-1.15,0c0,.7-.82.46-.65,1.07l.2-.2c0,.9,1.23,1.35,1.6,2.21,0-1,2,.37,2.1-1.23.28,0,0,.37.28.49,0-.49,0-.69.62-.9h0a25.59,25.59,0,0,1,3-2.26l-.46-.24a1,1,0,0,1,.62-.21c-.33-.78-.62.7-1,0,1.07.29,1.44-1.85,2.51-1.39.33-.41-.54-.25-.25-.66h.33l-.25-.33a.83.83,0,0,1,.86,0v.33c0,.08.58-1.07.78-1.11l-.45.29c.54-1.31,1.81-2.3,2.1-3.65h-.25c.29-1,.66-.46,1.19-1.4h0a.86.86,0,0,1,.29-.78c0,.37.74,0,.74.41.32-1.07,0-.61,0-1.68h.41c0-.41-.25-.54,0-1,0,.58.65,0,.65.82,1.32-.24.58-1.76,1.77-1.27-.37-1.11-1.11.25-1.07,0s-.25-.86,0-1,1.4.54,2,0h0s.21-.73.78-.65c-.24-.66.45-.33,0-1l-.49.7c.2-.49,0-1.48.82-1.64a2.06,2.06,0,0,1,0,.7c.33,0,.25-.41.58-.37.49.65-.66.78-.62,1.56.41,0,.33-1.07.7-.25-.45-1.07.78-.45.65-1.48l.29.41v.17c0-.74,1-.25,1.19-.74-.74.61-.53-.33-1.07-.37.54-1.27,1.32.57,2.26-.37,0,0-.74,0-.65-.21a1.51,1.51,0,0,1,.94,0c.61-.61-.41-.32-.29-.78.58.29.21-.45.41-.86l.29.41c1-.32-.37-1,.62-1.19v.78l.32-.41v.5c.21-.62.41-.62.91-.74a.7.7,0,0,1-.09-1l.09-.08c.41,0,0,.49.61,0,0,.37,0,.78-.37.53s0,.33,0,.5.7-.37.91-.5h-.25l.41-1.06c.21,0,.21.28,0,.45s0-.37.33-.58.37.74,0,1.11l.53-.82s.62.21.58.37.65-1.23,1.35-1.27a.48.48,0,0,1,0-.29c.58-.25,1.27,0,1.68-.78l.66.45c.45-.37-.86-.57,0-1.23s.45.45.74.53.37-1.39,1.19-1.06C1279.68,1512.4,1279.51,1512.32,1279.35,1512.48Zm6.4-2.66s-.28.53-.45.24.17-.33.45-.24Zm10.18-3.29h-.45A.59.59,0,0,1,1295.93,1506.53Zm30.5.21h0c-.21-.21-.21-.12,0,0Zm.57.33h-.37c-.37,0,.17.08.37,0Zm-66.78,12.6h0c0,.28,0,.16,0,0Z" transform="translate(-1244.13 -1495)"/><path class="cls-2" d="M1294.82,1507.35v-.24C1294.82,1506.86,1294.7,1507.27,1294.82,1507.35Z" transform="translate(-1244.13 -1495)"/><polygon class="cls-2" points="31.48 19.54 31.44 19.58 31.48 19.66 31.48 19.54"/><path class="cls-2" d="M1316.41,1509.32a.47.47,0,0,1-.2-.28S1316.21,1509.32,1316.41,1509.32Z" transform="translate(-1244.13 -1495)"/><path class="cls-2" d="M1330.33,1506.86h-.41a.35.35,0,0,1,.32.21C1330.33,1507.27,1330.33,1506.86,1330.33,1506.86Z" transform="translate(-1244.13 -1495)"/><path class="cls-2" d="M1333.53,1510.47h0v-.24C1333.45,1510.15,1333.24,1510.31,1333.53,1510.47Z" transform="translate(-1244.13 -1495)"/><path class="cls-2" d="M1330.57,1508.54c0,.46.25.33.54.29h0C1331.23,1508.3,1330.9,1508.42,1330.57,1508.54Z" transform="translate(-1244.13 -1495)"/><path class="cls-2" d="M1331.19,1508.83h0Z" transform="translate(-1244.13 -1495)"/><path class="cls-2" d="M1327.86,1507s.21-.53.25-.32C1328.36,1506.16,1327.08,1507.11,1327.86,1507Z" transform="translate(-1244.13 -1495)"/><polygon class="cls-2" points="86.44 14.94 86.4 14.41 86.19 14.78 86.44 14.94"/><path class="cls-2" d="M1328.4,1509.32l.41.25h0S1328.4,1509,1328.4,1509.32Z" transform="translate(-1244.13 -1495)"/><path class="cls-2" d="M1329,1509.32h0Z" transform="translate(-1244.13 -1495)"/><polygon class="cls-2" points="85.78 14.98 85.66 14.86 85.37 14.78 85.78 14.98"/><path class="cls-2" d="M1323.55,1508.09H1323v.25S1323.55,1508.26,1323.55,1508.09Z" transform="translate(-1244.13 -1495)"/><path class="cls-2" d="M1324.74,1509.78a.94.94,0,0,1,0-.41v.41Z" transform="translate(-1244.13 -1495)"/><path class="cls-2" d="M1323.27,1509.61s-.86.33,0,.45S1323.68,1509.86,1323.27,1509.61Z" transform="translate(-1244.13 -1495)"/><polygon class="cls-2" points="71.83 12.27 71.95 12.31 72.11 11.29 71.83 12.27"/><path class="cls-2" d="M1309.07,1508.46c.53.37.2-.61.69,0,0-.2-.41-.33-.24-.49S1309,1507.76,1309.07,1508.46Z" transform="translate(-1244.13 -1495)"/><path class="cls-2" d="M1309.52,1507.76h0Z" transform="translate(-1244.13 -1495)"/><path class="cls-2" d="M1244.67,1536h-.33l.29.29Z" transform="translate(-1244.13 -1495)"/><path class="cls-2" d="M1244.42,1536.86l-.29-.61v.66S1244.34,1536.74,1244.42,1536.86Z" transform="translate(-1244.13 -1495)"/><path class="cls-2" d="M1287.11,1510.8Z" transform="translate(-1244.13 -1495)"/><polygon class="cls-2" points="38.13 16.87 38.21 16.83 37.84 16.34 38.13 16.87"/><path class="cls-2" d="M1278.73,1514.21a1.54,1.54,0,0,1,.46-.33C1279.35,1513.84,1278.37,1513.43,1278.73,1514.21Z" transform="translate(-1244.13 -1495)"/><path class="cls-2" d="M1281.07,1513.43s0,.37.25.41S1281.07,1513.18,1281.07,1513.43Z" transform="translate(-1244.13 -1495)"/><polygon class="cls-2" points="37.88 16.58 37.92 16.75 38.01 16.25 37.88 16.58"/><path class="cls-2" d="M1283.7,1511c-.41-.66-.57.32-1,0h0v.61C1283,1511.42,1283.37,1510.84,1283.7,1511Z" transform="translate(-1244.13 -1495)"/><path class="cls-2" d="M1285.18,1512.2Z" transform="translate(-1244.13 -1495)"/><path class="cls-2" d="M1284.85,1512.24" transform="translate(-1244.13 -1495)"/><path class="cls-2" d="M1285.59,1511.87v.33s.29,0,.25.24S1285.79,1512.12,1285.59,1511.87Z" transform="translate(-1244.13 -1495)"/><path class="cls-2" d="M1285.67,1511.29Z" transform="translate(-1244.13 -1495)"/><path class="cls-2" d="M1285.38,1511.7l.21-.24h0C1285.47,1511.34,1285.47,1511.54,1285.38,1511.7Z" transform="translate(-1244.13 -1495)"/><path class="cls-2" d="M1285.18,1511.66s-.37,0-.21-.49S1284.81,1511.87,1285.18,1511.66Z" transform="translate(-1244.13 -1495)"/><path class="cls-2" d="M1283.54,1510.23h-.25v.28S1283.62,1510.43,1283.54,1510.23Z" transform="translate(-1244.13 -1495)"/><path class="cls-2" d="M1287.07,1512a2.08,2.08,0,0,0,0-.61v.2A.58.58,0,0,1,1287.07,1512Z" transform="translate(-1244.13 -1495)"/><path class="cls-2" d="M1286.86,1511.38l.25-.29C1286.86,1511.09,1286.82,1511.21,1286.86,1511.38Z" transform="translate(-1244.13 -1495)"/><polygon class="cls-2" points="41.41 15.47 41.13 16.13 41.49 15.47 41.41 15.47"/><polygon class="cls-2" points="43.88 16.87 43.79 17.24 44 16.66 43.88 16.87"/><path class="cls-2" d="M1288.67,1511.75v.69a1.37,1.37,0,0,0,.41-.57A.32.32,0,0,1,1288.67,1511.75Z" transform="translate(-1244.13 -1495)"/><path class="cls-2" d="M1289.28,1511.54v.33A.62.62,0,0,0,1289.28,1511.54Z" transform="translate(-1244.13 -1495)"/><path class="cls-2" d="M1287.56,1511.09s0,.33.25.41v-.41Z" transform="translate(-1244.13 -1495)"/><path class="cls-2" d="M1287.64,1511.09" transform="translate(-1244.13 -1495)"/><path class="cls-2" d="M1287.52,1511.09Z" transform="translate(-1244.13 -1495)"/><path class="cls-2" d="M1286.33,1510.76c0-.29.41-.57,0-.9C1286.29,1510.19,1286.49,1510.35,1286.33,1510.76Z" transform="translate(-1244.13 -1495)"/><path class="cls-2" d="M1287.31,1510.56H1287a.72.72,0,0,1,0,.41Z" transform="translate(-1244.13 -1495)"/><polygon class="cls-2" points="43.3 15.39 43.18 15.56 43.3 15.56 43.3 15.39"/><path class="cls-2" d="M1288.87,1511.13c0-.2.25-.2.41-.25a1.35,1.35,0,0,0-.49,0S1288.71,1511.17,1288.87,1511.13Z" transform="translate(-1244.13 -1495)"/><path class="cls-2" d="M1288.3,1511.05" transform="translate(-1244.13 -1495)"/><polygon class="cls-2" points="46.63 15.84 46.63 15.76 46.59 15.84 46.63 15.84"/><path class="cls-2" d="M1288.75,1510.68h0Z" transform="translate(-1244.13 -1495)"/><path class="cls-2" d="M1289.78,1511.29h-.21S1289.78,1511.42,1289.78,1511.29Z" transform="translate(-1244.13 -1495)"/><path class="cls-2" d="M1288.38,1511.17Z" transform="translate(-1244.13 -1495)"/><path class="cls-2" d="M1288.38,1511.17v-.29h-.21Z" transform="translate(-1244.13 -1495)"/><path class="cls-2" d="M1291.38,1508.13c0,.41-.41.7-.74.29-.29.29,0,1.64,0,2.38a.66.66,0,0,1,.24-.57c0-.25-.57-.54-.32-.91s.32,0,.45.41c0-.53.53-.69.57-1.43l-.37.2S1291.46,1508.22,1291.38,1508.13Z" transform="translate(-1244.13 -1495)"/><path class="cls-2" d="M1290.23,1510.76h0a1.8,1.8,0,0,1,.37.53.57.57,0,0,0,.24-.45h-.53Z" transform="translate(-1244.13 -1495)"/><path class="cls-2" d="M1289.57,1510.8c0-.45.37-.65.21-1.11s-.25.37-.46.58c.54,0,0,.24.25.49h-.29l.29.21h0l.53-.25Z" transform="translate(-1244.13 -1495)"/><path class="cls-2" d="M1286.49,1508.87Z" transform="translate(-1244.13 -1495)"/><path class="cls-2" d="M1286.78,1509.08V1509c0-.16-.25.37,0,.54h0a1.52,1.52,0,0,1,.62.66A6,6,0,0,0,1286.78,1509.08Z" transform="translate(-1244.13 -1495)"/><path class="cls-2" d="M1288.26,1509.78l.45-.25-.29-.37v.16C1288.17,1509.32,1288.26,1509.61,1288.26,1509.78Z" transform="translate(-1244.13 -1495)"/><polygon class="cls-2" points="46.67 16.09 46.59 16.54 46.83 15.93 46.67 16.09"/><polygon class="cls-2" points="47.12 16.09 47.04 16.5 47.16 16.25 47.12 16.09"/><path class="cls-2" d="M1290.1,1535.31Z" transform="translate(-1244.13 -1495)"/><path class="cls-2" d="M1291.34,1535.14Z" transform="translate(-1244.13 -1495)"/><path class="cls-2" d="M1300,1519.91c-.33.25-.91.5-.46.41h.46Z" transform="translate(-1244.13 -1495)"/><path class="cls-2" d="M1298.81,1529.23h0l-.21-.41Z" transform="translate(-1244.13 -1495)"/><path class="cls-2" d="M1300,1530.67" transform="translate(-1244.13 -1495)"/><path class="cls-2" d="M1283.45,1535.84l-.28.41C1283.5,1536.29,1283.37,1536,1283.45,1535.84Z" transform="translate(-1244.13 -1495)"/><path class="cls-2" d="M1295.89,1513.43a.69.69,0,0,0,0,.49C1296.06,1513.43,1296.18,1513.06,1295.89,1513.43Z" transform="translate(-1244.13 -1495)"/><path class="cls-2" d="M1289.73,1530.58a.48.48,0,0,0,0,.29A.23.23,0,0,0,1289.73,1530.58Z" transform="translate(-1244.13 -1495)"/><path class="cls-2" d="M1296.34,1514H1296C1295.93,1514,1296,1514.17,1296.34,1514Z" transform="translate(-1244.13 -1495)"/><path class="cls-2" d="M1272.17,1516.59Z" transform="translate(-1244.13 -1495)"/><path class="cls-2" d="M1279.47,1513.84v.2C1279.47,1514.25,1279.43,1514,1279.47,1513.84Z" transform="translate(-1244.13 -1495)"/><path class="cls-2" d="M1293,1511.79" transform="translate(-1244.13 -1495)"/><path class="cls-2" d="M1293.1,1509.94" transform="translate(-1244.13 -1495)"/><path class="cls-2" d="M1299.26,1513.1Z" transform="translate(-1244.13 -1495)"/><path class="cls-2" d="M1292.89,1511.54Z" transform="translate(-1244.13 -1495)"/><path class="cls-2" d="M1292.85,1511.75Z" transform="translate(-1244.13 -1495)"/><path class="cls-2" d="M1293.14,1511.83Z" transform="translate(-1244.13 -1495)"/><path class="cls-2" d="M1274.14,1529.35h0C1273.89,1529.27,1274,1529.31,1274.14,1529.35Z" transform="translate(-1244.13 -1495)"/><polygon class="cls-2" points="60.46 28.32 60.42 28.28 60.42 28.32 60.46 28.32"/><path class="cls-2" d="M1304.8,1524c-.49-.41-.41-.54-.25-.7h-1.27Z" transform="translate(-1244.13 -1495)"/><path class="cls-2" d="M1287.23,1535.72l.41.36c-.45.7-.86.5-.45,1,0-1.39,1.64-.2,1.56-1.64l.29.29h0c.61.57.28-1.07.94-1s.41.25.29.41l.45-.41m0,.25.74-.25h0a6.38,6.38,0,0,1,.33-.82c.24,0,0,0,0,.33l.28-.41a.46.46,0,0,1,0,.64.52.52,0,0,1-.23.1c.78,1.23.28-.41,1.35,0l-.37.29c.49.65.74.32,1.27.65-.2-.2-1.19-.94-.9-1.39s.33,0,.45-.29c0,.49.33.29.58,0v.62c.2-.29,0-.58,0-.91s.57.41.78.78-.62-.65,0-1,.74-.25,1.15-.82c.37,0,0,.37.24.53v-.37c0,.25-.24-.62,0-.94s1.27.61,1.4-.46c.24,0,0,.37.33.58.41-.94.45-.78.41-1.72h.61c-.57,0-.65-.87-.78-1.44h-.57v-.62s.24,0,.37.45h0c.33,0,.49.37.65.74h-.41a3.2,3.2,0,0,0,.7,1.07.37.37,0,0,1,0-.29.36.36,0,0,0,0,.25v-.29l.62.41h0l.82-.2c0-1-.54-2-.29-2.88.33.5.7.58,1.19.95-.7,0-.2.74-.66,1.07h.46a10.28,10.28,0,0,0,0-1.11c.41.37.45,0,.73,0-.9-.45,0-.95-.24-1.4s.57.41.24.74c.95,0-.69-1.15,0-1.23v.25c0,.24.33-.78.54-.5h0c.45-.57.86-2,0-2.38a9.45,9.45,0,0,1,1.15.45,13,13,0,0,0-2.59-1.76c.7.2,2.55,0,2.87.74a.65.65,0,0,0,0-.78c-.28-.45-1.1,0-1.14,0,.86-.33.49-.21,1.23-.74,0,0-1.36,0-1.32-.33.43,0,.85,0,1.28,0l-1.15-.7a3.52,3.52,0,0,0,1.27-.2c.29-.21,0-.66,0-.82l-.21.33c0-.83-1.72-.5-1.84-1.11s1.47,0,1.51-.58a16.57,16.57,0,0,1-3.52-.2h.28l-.53-.25a11.7,11.7,0,0,1,3.82.21c0-.33.37-.21,0-.62s.57,0,.61,0a8.91,8.91,0,0,0,0-1.07c-.66.29-.94-.49-1.48-.2a10.47,10.47,0,0,1,1.07.78c-.61.24-2,0-2.17-.49s1.15-.41,1.35-.54-.7-.41-.57-.53h.45c0-.49-1.07,0-.74-.86s.53-.87,0-.7a12.1,12.1,0,0,1-3.2,2.09,10.89,10.89,0,0,1,.49-1.35c.37-.54,1.44-.54,1.76-1a1.57,1.57,0,0,1-.53,0c0-.24.53-.28.25-.53-.62.37-.37-.62-.58.2-.37,0,0-.37-.37-.69a2.45,2.45,0,0,1-1.76.57,1.86,1.86,0,0,0,.33-.41c-.41-.49-.41-1-.87-1.44s0-.53.29-.65-.37,0-.53,0,.41.2.7-.54c-.33.29-.78,0-1.15,0s.37.54.78.54a3.23,3.23,0,0,1-2.26.9c-.49,0,.2-.57,0-.49-.62-.7-1.48.78-1.68,0s.53-1,.69-1.32.33.62.58.74v-.37h.53c0-.57-1.27-1-1.76-1.68,0,0-.49.21-.45.45h0c0,.5-.62.41-.46.7s-.82.53-1.1,0V1509s0,.46.28.29-.32-1-.73-.24v.49c-.37.24-.78.78-1,.57v.7c0-.94.7,0,.66-.78,0,.82.24.45.28,1.23,0,0,0-.41.21-.24h0v-.33c.29-.41.7-.25.94-.37s0,0,0,.41l.33-.21c0,.41,0,.87-.41,1h.25c0,.28.2.53.45.45s.61,0,.29,0h.61c.37.33,1.36,0,1.23,1.15a.61.61,0,0,1,.58.41l-.25.29c.25,0,0,.78.53.61-.69.86.5,1,.54,1.44l.45-.25a2.22,2.22,0,0,0,.74.58l.41-.25c.49,0,0,.86.33,1.27s0,0,0-.2c-.74.9,1.19.82.57,1.56.21,0,0,0,0,.28h0l-.2.25.2-.2a1.31,1.31,0,0,0,.25.32h.16a.47.47,0,0,0,.33,0c-.78.25.33.37-.53.58.41,0,.37.61,1.23.74h0s-.25.33,0,.49h-.66l.82.45a1,1,0,0,1-1.11,0c.62.62.21.41.78,1.07H1300s.41.57,0,.57-.82,1.64-2,2c1.07.58-.65,0,0,.58a.48.48,0,0,1-.57-.41c0,.53-.74.2-.41.94-.25,0-.21-.33-.37-.41s0,.25,0,0v-.37c0-.37.2,1.11.78,1.72-.49,0-.58,0-.33.58s-.57,0-.41-.49-1,.41-.57.9-.21,0,0,0a1.38,1.38,0,0,0-.66.33h0c.25.78-.21.29-.45.49h0c-.9-.25-.21.41-1.15,0l.2.45c.29,1-.86-.37-1.15,0l.25.21c0,.45-1.11-1.15-1.39-1.19s0,0,0-.25c-.78-.41,0,.66-.29,1-.21-.33,0-.91-.49-.87s-.54,1.36-1.07.82c0,0,.29.46,0,.7s-1.07-.78-1.15,0a.67.67,0,0,1,0-.2c0,.28-.7.49-.78.94-.41-1.64-1.48,1-1.6-.62h-.74c-.49,0-.66.25-.86.62s0-.25,0-.33c-.7-.33-.7-.33-1.4.41V1530c-.24.29-.86-.94-1.64-.49v-.21c-.94.41-1.23-1.8-2.13,0H1279c.53.41-.41.7-.25,1.11s-.45-.82,0-.74h0c.5-.82-.65-.66-.32-1.23a6.26,6.26,0,0,1-2.26-2.42l-.49.57-.21-.33s.41-.41.53-.24-.49,0-.65,0c0-.54.82-.29.78-.45h0c-.33,0-.66.2-.74,0s.41-.25.41-.33h0v-.41l-.49.33c-.37,0,0-.46-.7,0,.86-.62,0-2.06.25-2.34a.92.92,0,0,1-.46-1s-.78.21-.69,0c1.35,0,.57-.66,1.56-.9-.66.2,0-1-1-.66,0-.29.49,0,.82,0-.45-.74.53-1.39.58-2.17a1,1,0,0,1-.66-.25h1s-.94-.49-.24-.49h-.41c1.31-1,1.15-3.37,3.57-3.49-.41,0-.33,0-.21-.33s-.33-.33-.49-.49h1c-.37-.58.49-.5,0-1v.21c-.25-.78-1.4-1-2.06-1.77.33.9-1.68-.2-1.23,1.15-.24,0,0-.33-.37-.41s0,.62-.28.78h0c-.62.86-1.24.94-2.14,1.85h.45c-.2.2-.37,0-.53.2.45.66.45-.61,1,0-1.06-.29-1,1.52-2,1.32-.2.41.54,0,.37.49h.58l.32.24c0,.25-.57.25-.82,0s0-.24,0-.32-.2,1.06-.37,1.15l.33-.33c0,1.15-.74,2.46-.2,3.61h.24c.37.82-.28.66,0,1.52h0a.67.67,0,0,1,.33.65c-.25,0-.49.46-.78,0,.49.87.37.41,1.27.91h-.37c.37,0,.54,0,.7.53-.37-.29-.53.37-1,0-.66,1.07,1.06,1.15,0,1.85,1.15,0,.41-.91.69-.74s.82,0,.78.45-1.19.78-.86,1.64h0s.58.45.41,1c.66,0,.21.49,1,0l-.54-.58c.41.29,1.36,0,1.4.86a1.06,1.06,0,0,1-.66,0c0,.33.37.21.29.54s-.7-.58-1.44-.74,1,.49,0,.78c1.11-.37.45.78,1.44.7l-.37.28h.53l-.65.25c.69,0,.32,1,.9,1.07-.74-.62.2-.58,0-1.11,1.23.25-.33,1.39.86,2,0,0-.37-.66,0-.66a2,2,0,0,1,.29.82c.78.33,0-.49.61-.57,0,.66.46,0,.82,0l-.2.45c.66.7.66-.82,1.19,0l-.57.49h.45l-.33.5c.61-.21.66,0,1,.24,0-.33.37-.82.74-.7s-.28.42.25.5c-.21.28-.49.57-.57,0a2.37,2.37,0,0,0-.29.41c-.08.16.7.29.86.37v-.21l.94-.41c0,.21,0,.33-.2.45s.37-.2.57-.2-.24.78-.61.86l.86-.21s.29.54,0,.66,1.15-.53,1.68,0a.37.37,0,0,1,.21,0c.49,0,.94.7,1.6,0l.33.74c.49,0-.46-.94.37-1.15s.2.62.41.82.74-1.11,1.27-.53c-.41,1.11-.53,1-.7,1.07Zm2.3-.62s-.21.5-.37.25S1292.81,1534.36,1293,1534.44Zm7-5h0Zm-5.83-17.4h0c.08.25.08.13,0,0Zm-.21-.41h.25c.25,0-.08,0-.25,0Zm-17.6,15Z" transform="translate(-1244.13 -1495)"/><path class="cls-2" d="M1299.87,1530.5h-.2A.28.28,0,0,1,1299.87,1530.5Z" transform="translate(-1244.13 -1495)"/><polygon class="cls-2" points="39.36 40.76 39.32 40.76 39.32 40.84 39.36 40.76"/><path class="cls-2" d="M1302,1513.43a.62.62,0,0,1,0,.33A.26.26,0,0,0,1302,1513.43Z" transform="translate(-1244.13 -1495)"/><path class="cls-2" d="M1292,1511.66h.25v-.2C1292.2,1511.25,1292,1511.66,1292,1511.66Z" transform="translate(-1244.13 -1495)"/><path class="cls-2" d="M1290.14,1508.38h0v.21S1290.35,1508.5,1290.14,1508.38Z" transform="translate(-1244.13 -1495)"/><path class="cls-2" d="M1292.16,1510c0-.41,0-.33-.33-.29h0C1291.7,1510.31,1291.91,1510.15,1292.16,1510Z" transform="translate(-1244.13 -1495)"/><path class="cls-2" d="M1291.79,1509.73h0C1291.58,1509.94,1291.66,1509.78,1291.79,1509.73Z" transform="translate(-1244.13 -1495)"/><path class="cls-2" d="M1293.39,1511.62s-.25.45-.25.29C1292.89,1512.36,1294,1511.58,1293.39,1511.62Z" transform="translate(-1244.13 -1495)"/><polygon class="cls-2" points="48.14 13.63 48.1 14.12 48.31 13.75 48.14 13.63"/><path class="cls-2" d="M1293.76,1509.32h-.37S1293.72,1509.65,1293.76,1509.32Z" transform="translate(-1244.13 -1495)"/><path class="cls-2" d="M1293.39,1509.32h0Z" transform="translate(-1244.13 -1495)"/><polygon class="cls-2" points="48.64 13.59 48.72 13.71 48.92 13.79 48.64 13.59"/><path class="cls-2" d="M1296.71,1511.38h.37v-.29S1296.75,1511.21,1296.71,1511.38Z" transform="translate(-1244.13 -1495)"/><path class="cls-2" d="M1296.63,1509.57v.41l.37-.49Z" transform="translate(-1244.13 -1495)"/><path class="cls-2" d="M1297.49,1510.15s.78,0,.33-.33S1297.49,1509.82,1297.49,1510.15Z" transform="translate(-1244.13 -1495)"/><polygon class="cls-2" points="56.76 19.99 56.68 19.91 55.82 20.48 56.76 19.99"/><path class="cls-2" d="M1305.29,1519.09c0-.61-.66,0-.49-.53s0,.45-.37.37S1304.63,1519.38,1305.29,1519.09Z" transform="translate(-1244.13 -1495)"/><path class="cls-2" d="M1304.43,1518.93h0Z" transform="translate(-1244.13 -1495)"/><polygon class="cls-2" points="36.37 18.68 36.69 18.68 36.37 18.51 36.37 18.68"/><path class="cls-2" d="M1280.38,1512.81l.45.5-.29-.58S1280.5,1512.9,1280.38,1512.81Z" transform="translate(-1244.13 -1495)"/><path class="cls-2" d="M1294.21,1535.47Z" transform="translate(-1244.13 -1495)"/><polygon class="cls-2" points="45.68 41 45.76 41.04 45.52 40.43 45.68 41"/><path class="cls-2" d="M1286.08,1537h.49C1286.74,1537,1286,1536.25,1286.08,1537Z" transform="translate(-1244.13 -1495)"/><path class="cls-2" d="M1330.7,1510.43v0Z" transform="translate(-1244.13 -1495)"/><polygon class="cls-2" points="84.55 16.95 84.51 16.79 84.34 17.28 84.55 16.95"/><path class="cls-2" d="M1326.8,1512.77c.45.58.61-.41,1.06-.33h0v-.61C1327.49,1512.2,1327.17,1512.81,1326.8,1512.77Z" transform="translate(-1244.13 -1495)"/><path class="cls-2" d="M1325.07,1511.87s0,.33.25,0h-.25Z" transform="translate(-1244.13 -1495)"/><path class="cls-2" d="M1325.28,1511.79" transform="translate(-1244.13 -1495)"/><path class="cls-2" d="M1324.42,1512.44v-.37h-.33S1324.13,1512.28,1324.42,1512.44Z" transform="translate(-1244.13 -1495)"/><path class="cls-2" d="M1324.46,1513Z" transform="translate(-1244.13 -1495)"/><path class="cls-2" d="M1324.7,1512.48v.37h0C1324.5,1512.57,1324.66,1512.69,1324.7,1512.48Z" transform="translate(-1244.13 -1495)"/><path class="cls-2" d="M1324.91,1512.53c.25,0,.45,0,.33.37C1325.69,1512.57,1325.36,1512.16,1324.91,1512.53Z" transform="translate(-1244.13 -1495)"/><path class="cls-2" d="M1327,1513.43h.25v-.29S1326.92,1513.43,1327,1513.43Z" transform="translate(-1244.13 -1495)"/><path class="cls-2" d="M1322.69,1513.1a4.52,4.52,0,0,1,.45.45v-.29A.31.31,0,0,1,1322.69,1513.1Z" transform="translate(-1244.13 -1495)"/><path class="cls-2" d="M1323.14,1513.43v.37C1323.27,1513.8,1323.27,1513.67,1323.14,1513.43Z" transform="translate(-1244.13 -1495)"/><polygon class="cls-2" points="80.69 18.72 80.86 17.98 80.61 18.8 80.69 18.72"/><polygon class="cls-2" points="77.57 18.76 77.49 18.35 77.57 19 77.57 18.76"/><path class="cls-2" d="M1321.09,1514.29c0-.33-.45-.29-.45-.53a1.3,1.3,0,0,0,0,.78C1320.6,1514.33,1320.76,1514.25,1321.09,1514.29Z" transform="translate(-1244.13 -1495)"/><path class="cls-2" d="M1320.52,1515a1.7,1.7,0,0,0,0-.45A1.14,1.14,0,0,0,1320.52,1515Z" transform="translate(-1244.13 -1495)"/><path class="cls-2" d="M1322.57,1514.17s-.29-.25-.45-.21l.33.29Z" transform="translate(-1244.13 -1495)"/><path class="cls-2" d="M1322.45,1514.25Z" transform="translate(-1244.13 -1495)"/><path class="cls-2" d="M1322.57,1514.17" transform="translate(-1244.13 -1495)"/><path class="cls-2" d="M1324,1513.84c0,.33,0,.74.32.86S1323.92,1514.29,1324,1513.84Z" transform="translate(-1244.13 -1495)"/><path class="cls-2" d="M1323,1514.5h.33a.56.56,0,0,1-.21-.37Z" transform="translate(-1244.13 -1495)"/><polygon class="cls-2" points="78.84 19.7 78.89 19.5 78.76 19.54 78.84 19.7"/><path class="cls-2" d="M1321.22,1515a.69.69,0,0,1,0,.49,1,1,0,0,0,.49-.25S1321.38,1514.82,1321.22,1515Z" transform="translate(-1244.13 -1495)"/><path class="cls-2" d="M1321.83,1514.62Z" transform="translate(-1244.13 -1495)"/><polygon class="cls-2" points="75.56 21.43 75.64 21.47 75.6 21.43 75.56 21.43"/><path class="cls-2" d="M1321.58,1515.23V1515l-.24.24Z" transform="translate(-1244.13 -1495)"/><path class="cls-2" d="M1320.31,1515.44h.33S1320.23,1515.32,1320.31,1515.44Z" transform="translate(-1244.13 -1495)"/><path class="cls-2" d="M1321.71,1514.62Z" transform="translate(-1244.13 -1495)"/><path class="cls-2" d="M1321.71,1514.62a.91.91,0,0,0,0,.33.71.71,0,0,0,0-.29Z" transform="translate(-1244.13 -1495)"/><path class="cls-2" d="M1321.09,1519c-.2-.33-.2-.86.33-.7,0-.45-.94-1.35-1.64-1.76a.63.63,0,0,1,0,.65c-.21.37.86,0,.9.41s-.37,0-.66,0c.46.29,0,.91.62,1.44v-.41A2.45,2.45,0,0,0,1321.09,1519Z" transform="translate(-1244.13 -1495)"/><path class="cls-2" d="M1320.27,1516.18h-.66c-.32,0,0,.45,0,.53l.54-.33Z" transform="translate(-1244.13 -1495)"/><path class="cls-2" d="M1320.76,1515.69c.21.41,0,.73.54,1s0-.45,0-.78c-.41.49,0-.28-.54-.2a.86.86,0,0,1,.21-.29h-.33l-.33.57A.86.86,0,0,0,1320.76,1515.69Z" transform="translate(-1244.13 -1495)"/><path class="cls-2" d="M1324.54,1515.65Z" transform="translate(-1244.13 -1495)"/><path class="cls-2" d="M1324.21,1515.56v-.28a.47.47,0,0,0,.21.32c.2.13,0-.45-.25-.49h0a1.53,1.53,0,0,1-.86-.33A3.35,3.35,0,0,0,1324.21,1515.56Z" transform="translate(-1244.13 -1495)"/><path class="cls-2" d="M1322.53,1515.69l-.25.49h.41V1516C1322.86,1516.06,1322.61,1515.85,1322.53,1515.69Z" transform="translate(-1244.13 -1495)"/><polygon class="cls-2" points="75.4 21.3 75.15 20.89 75.31 21.59 75.4 21.3"/><polygon class="cls-2" points="74.91 21.75 74.7 21.43 74.7 21.71 74.91 21.75"/><path class="cls-2" d="M1289.28,1537.4" transform="translate(-1244.13 -1495)"/><path class="cls-2" d="M1290.51,1537.23v-.2S1290.47,1537.23,1290.51,1537.23Z" transform="translate(-1244.13 -1495)"/><path class="cls-2" d="M1306.69,1525.74c-.37-.24-.83-.61-.58-.24l.25.36a.24.24,0,0,1,.32-.12Z" transform="translate(-1244.13 -1495)"/><path class="cls-2" d="M1298.35,1532.68h0v0Z" transform="translate(-1244.13 -1495)"/><path class="cls-2" d="M1298.85,1534.44h-.37A.77.77,0,0,0,1298.85,1534.44Z" transform="translate(-1244.13 -1495)"/><path class="cls-2" d="M1283.62,1538.63v.45C1283.74,1539,1283.62,1538.83,1283.62,1538.63Z" transform="translate(-1244.13 -1495)"/><path class="cls-2" d="M1314.11,1520.9a.82.82,0,0,0-.49,0C1313.91,1521,1314.28,1521.23,1314.11,1520.9Z" transform="translate(-1244.13 -1495)"/><path class="cls-2" d="M1289,1532.68a.26.26,0,0,0,0,.29S1289.28,1532.76,1289,1532.68Z" transform="translate(-1244.13 -1495)"/><path class="cls-2" d="M1313.21,1521.27h0a.53.53,0,0,1,.29-.33C1313.38,1520.9,1313.13,1520.9,1313.21,1521.27Z" transform="translate(-1244.13 -1495)"/><path class="cls-2" d="M1262.52,1538.3Z" transform="translate(-1244.13 -1495)"/><path class="cls-2" d="M1256.86,1533.38h.24A.21.21,0,0,0,1256.86,1533.38Z" transform="translate(-1244.13 -1495)"/><path class="cls-2" d="M1317,1518.23" transform="translate(-1244.13 -1495)"/><path class="cls-2" d="M1318.59,1519.22v0Z" transform="translate(-1244.13 -1495)"/><path class="cls-2" d="M1313.91,1524.26" transform="translate(-1244.13 -1495)"/><path class="cls-2" d="M1317.23,1518.27" transform="translate(-1244.13 -1495)"/><path class="cls-2" d="M1317.11,1518.15Z" transform="translate(-1244.13 -1495)"/><path class="cls-2" d="M1316.82,1518.4h0Z" transform="translate(-1244.13 -1495)"/><path class="cls-2" d="M1273.77,1537.48Z" transform="translate(-1244.13 -1495)"/><polygon class="cls-2" points="61.73 36.49 61.73 36.49 61.73 36.45 61.73 36.49"/><path class="cls-2" d="M1305.7,1532.06c0-.61,0-.61.29-.57l-.74-1.07Z" transform="translate(-1244.13 -1495)"/><path class="cls-2" d="M1286.9,1538.06l.41.32c-.37.7-.69.54-.28,1,0-1.35,1.35-.33,1.19-1.72l.28.28h0c.54.58,0-1.06.78-1s.37.24.29.45l.37-.41v.25l.66-.25h0a3.63,3.63,0,0,1,.28-.78c.21,0,0,0,0,.33l.33-.41a.49.49,0,0,1-.15.68l-.14.06c.62,1.27.25-.41,1.15.2l-.32.29c.41.7.61.37,1.15.74,0-.21-1.07-1-.74-1.44s.28,0,.45-.25c0,.5.29.33.57.25v.62c.25-.25,0-.58.25-.91s.53.45.7.87-.54-.7,0-1,.74,0,1.15-.7c.32,0,0,.41,0,.54v-1.24c0-.24,1,.78,1.23,0v.62a3.59,3.59,0,0,0,.61-1.4l.58.29c-.5-.37-.29-1.07,0-1.6l-.45-.45.41-.49a.93.93,0,0,1,0,.57h0c.28,0,.32.54.28,1l-.28-.33a2.84,2.84,0,0,0,0,1.23h0v0l.37.65v-.28h.86c.24-.86.24-2,.9-2.63,0,.58.29.82.53,1.4-.49-.54-.49.53-.94.57.21,0,.29.29.29.41l.45-.86c.2.49.33.29.57.41-.53-.9.29-.86.45-1.27,0,.28.21.65,0,.74.7.53,0-1.32.66-.91v.21c0,.2.66-.37.66,0h0c.61,0,1.72-.82,1.39-1.64a8.89,8.89,0,0,1,.46,1.15l-.37-3.08c.24.7,1.43,2.09,1.15,2.71s.41,0,.57-.33-.74-.82-.66-1a5.55,5.55,0,0,0,1.19.66c-.2,0-.61-1.19-.41-1.27s.58,1,.58,1.15v-1.27a2.17,2.17,0,0,0,.74,1.06c.28.21.45,0,.53-.41h-.37c.7-.2-.25-1.76.37-2s.57,1.36.94,1.31a11.16,11.16,0,0,1-.69-3.48l.28.24V1526a20.46,20.46,0,0,1,.62,3.73c.33,0,.25.33.57,0s0,.54,0,.62l.87-.29c-.37-.57.2-.94,0-1.44l-.41,1.11c-.42-.53-.58-1.93,0-2.17s.57,1.1.73,1.31.25-.7.37-.62v.46c.45,0,0-1,.7-.74s.86.49.62,0a13.72,13.72,0,0,1-2.22-3.12,9.92,9.92,0,0,1,1.4.45c.53.41.53,1.44,1,1.76a1.57,1.57,0,0,1,0-.53c.21,0,.29.53.49.25s.58-.29-.2-.54c0-.37.37,0,.65-.33a2.47,2.47,0,0,1-.49-1.8,1.09,1.09,0,0,0,.37.37c.54-.29,1-.25,1.48-.62s.53,0,.61.41,0-.37,0-.49-.28.33.37.74c-.2-.33,0-.74,0-1.11s-.57.29-.61.66a2.68,2.68,0,0,1-.45-2.38c.24-.5.49.28.49,0,.82-.45-.29-1.69.7-1.64s.65.86.94,1.1-.7,0-.86.29h.41c0,.25,0,.49-.33.45.49.25,1.27-.86,2.14-.94,0-.25,0-.53-.21-.62v.21c-.41-.25,0-.74-.41-.74s0-1,.49-1.11l.45.45H1318s1,.25.66-.53h-.49c0-.41,0-1.19.29-1.27-.5-.37,0,0-.66-.29.74.57-.78.62,0,1.11-.78-.49-.62,0-1.36-.33,0,0,.37.25,0,.37h0a.92.92,0,0,1,.33,0c.21.45,0,.78,0,1.07s0-.25-.33-.37v.45c-.32-.33-.86-.29-.69-.78l-.29.24c-.37,0-.66,0-.7.29s0,.7,0,.33l-.33.62h0c-.53.32-.57,1.39-1.6,1.1,0,.25,0,.5-.53.58l-.29-.29c0,.25-.86,0-.7.53-.86-.73-1.19.54-1.64.62l.25.45a1.73,1.73,0,0,0-.62.82l.25.37c0,.49-.9.21-1.31.54s0,0,.2,0c-1.07-.54-.7,1.35-1.6,1,0,.25,0,.25-.33,0h0a1.06,1.06,0,0,0-.29.37l-.33-.37h0c-.24,0,0,.29.25.58s0,0,0,.36c-.49-.65,0,.42-.78-.2,0,.41-.57.66-.24,1.48h0s-.42,0-.46.28l-.37-.53v.94c-.41-.24-.57-.36-.61-.9,0,.9-.29.45-.37,1.32v-.37s0,.73-.41.45-1.85.78-3,.49c.62,1-.66-.33-.33.57,0-.24-.37-.36-.28-.65-.37.45-.91,0-1,.74v-.58h0v-.41a4.93,4.93,0,0,0,0,1.85c-.37-.25-.49,0-.49.41,0-.25-.41-.45,0-.66s-1.19,0-1,.62h-.28a6,6,0,0,0-.83.24h0c0,.82-.24.29-.53.46h0c-.86-.33-.24.36-1.15,0l.21.45c.2,1.06-.82-.41-1.15,0l.24.2c0,.41-1-1.23-1.27-1.27s0,0,0-.29c-.74-.45,0,.66-.37.91s0-.87-.41-.87-.61,1.28-1.15.7c0,.25.29.49,0,.74s-1.06-.82-1.23,0h0c-.2.25-.74.49-.82.94-.49-1.6-1.44,1.07-1.64-.49h-.78c-.49,0-.62.33-.78.74s0-.25,0-.33c-.74-.24-.82,0-1.36.66v-.49c0,.28-1.1-.7-1.76,0a.38.38,0,0,1,0-.21c-.74.62-2-1.31-2.18.58l-.53.45c.7,0,0,.82.25,1.11s-.74-.54-.41-.62h0c0-1-.91-.29-.91-1a29.89,29.89,0,0,1-4.1-.45v.78h-.45v-.57s-.54.37-.54.53.25-.86,0-.9h-.24c-.21.29-.21.61-.62.57s0-.45-.2-.49h-.58l.21.58c-.25.28-.54,0-.29.65-.37-1-2.09-.41-2.3-.74a1,1,0,0,1-1.15.33s0,.82-.2.7c0-1.35-.66-.62-1-1.6.25.66-1,0-.65,1.07-.29,0,0-.54-.21-.87-.78.5-1.6-.41-2.5-.28v.69l-.41-.9s-.21,1-.49.37v.45c-1.73-1-3.7.45-5.34-1.35.2.37,0,.37,0,.37v.7l-.66-.74c-.2.65-.82,0-.94.57h.25c-.42.74.24,1.77,0,2.71.45-.82.82,1.4,1.51,0v.53c.21-.41.37-.49.7-.24h0c1,0,1.32.45,2.34.78v-.5c.25,0,.29.25.37.37.33-.69-.62,0-.33-.86.21,1,1.6,0,1.73,1.27.37,0,0-.57.28-.57v0c.21,0,.29.45.29.7h0c.25.37.82,0,.94,0h-.32c1-.21,2.13.24,3.07-.33v-.25c.7-.37.54.29,1.32,0h0a.72.72,0,0,1,.61-.29c-.2.25.33.54,0,.83.78-.42.37-.33.91-1.19v.41c0-.37,0-.54.57-.62-.33.33.25.57,0,1,.82.86,1.23-.83,1.6.41.37-1-.7-.58-.49-.83s.33-.78.57-.65.41,1.35,1.07,1.31h0c.25.29.49-.37.78,0,0-.66.37,0,.45-.78h-.61c.33-.24.65-1.19,1.23-.7a1.29,1.29,0,0,1-.33.5c0,.24.33,0,.49,0a1.52,1.52,0,0,0-1.11.78c-.36.78.7-.58.5.28.28-1.1.65,0,1.11-.69v.49s.24-.33.36-.33l-.24.66c.37-.54.7.45,1.07,0-.74,0,0-.58-.5-1,.86-.65.54,1.27,1.52,1,0,0-.49-.29-.29-.53a1.41,1.41,0,0,1,.58.53c.66,0,0-.49,0-.82.25.61.33-.25.57-.41v.49c.78.29,0-1.07.87-.7l-.29.7.37-.21v.58c.37-.45.49-.33.86,0s0-.9.37-.9,0,.45.37.37c0,.32-.21.69-.45.24s0,.33,0,.49.61,0,.78,0h0l.61-.73a.53.53,0,0,1,0,.49s.21-.29.41-.33,0,.82-.28,1l.65-.5s.37.45.29.62.86-.86,1.35-.62v-.2c.46,0,1,.49,1.44,0l.37.7c.41,0-.53-.87,0-1.19s.25.57.45.73.53-1.14,1.07-.65C1287.15,1538.06,1287,1538.06,1286.9,1538.06Zm5.17-1.24s-.24.46-.37.21a.26.26,0,0,1,.37-.33Zm7.31-3.4h-.33a.31.31,0,0,1,.33-.13Zm17.2-13.83h0a.41.41,0,0,1,0-.25ZM1272.33,1534h0C1272.21,1534.4,1272.25,1534.28,1272.33,1534Z" transform="translate(-1244.13 -1495)"/><path class="cls-2" d="M1298.76,1534.24V1534A.28.28,0,0,0,1298.76,1534.24Z" transform="translate(-1244.13 -1495)"/><polygon class="cls-2" points="39.48 43.51 39.48 43.51 39.48 43.59 39.48 43.51"/><path class="cls-2" d="M1313.33,1526.93h-.28A.31.31,0,0,0,1313.33,1526.93Z" transform="translate(-1244.13 -1495)"/><path class="cls-2" d="M1318,1517.2v.29h.29C1318.59,1517.49,1318,1517.25,1318,1517.2Z" transform="translate(-1244.13 -1495)"/><path class="cls-2" d="M1321.79,1517.94Z" transform="translate(-1244.13 -1495)"/><path class="cls-2" d="M1319.16,1518.31c.25.29.33,0,.41,0h0C1319.24,1517.74,1319.2,1518,1319.16,1518.31Z" transform="translate(-1244.13 -1495)"/><path class="cls-2" d="M1319.61,1518.15Z" transform="translate(-1244.13 -1495)"/><path class="cls-2" d="M1316.86,1518.76s-.28-.45,0-.32C1316.45,1517.94,1316.62,1519.3,1316.86,1518.76Z" transform="translate(-1244.13 -1495)"/><polygon class="cls-2" points="76.01 24.22 75.64 23.89 75.81 24.26 76.01 24.22"/><path class="cls-2" d="M1318.67,1520h.33S1318.55,1519.87,1318.67,1520Z" transform="translate(-1244.13 -1495)"/><path class="cls-2" d="M1319,1519.71v-.25A.53.53,0,0,0,1319,1519.71Z" transform="translate(-1244.13 -1495)"/><polygon class="cls-2" points="75.77 24.63 75.6 24.63 75.4 24.75 75.77 24.63"/><path class="cls-2" d="M1315.8,1522.09v.33h.28C1316.17,1522.42,1316,1522.17,1315.8,1522.09Z" transform="translate(-1244.13 -1495)"/><path class="cls-2" d="M1317.52,1522.54l-.37-.2.41.49Z" transform="translate(-1244.13 -1495)"/><path class="cls-2" d="M1316.78,1523.28s0,.74.25.41S1317.15,1523.2,1316.78,1523.28Z" transform="translate(-1244.13 -1495)"/><polygon class="cls-2" points="67.76 30.78 67.84 30.74 67.23 29.88 67.76 30.78"/><path class="cls-2" d="M1309.15,1530.54c.49,0-.25-.61.24-.57s-.41,0-.41-.29C1308.86,1530.05,1308.66,1529.85,1309.15,1530.54Z" transform="translate(-1244.13 -1495)"/><path class="cls-2" d="M1309,1529.85v-.21S1308.94,1529.85,1309,1529.85Z" transform="translate(-1244.13 -1495)"/><polygon class="cls-2" points="11.78 37.68 11.53 37.43 11.66 37.8 11.78 37.68"/><path class="cls-2" d="M1255.3,1533.42v-.66l-.25.57S1255.3,1533.25,1255.3,1533.42Z" transform="translate(-1244.13 -1495)"/><path class="cls-2" d="M1293.14,1537.81Z" transform="translate(-1244.13 -1495)"/><polygon class="cls-2" points="45.07 43.05 45.11 43.1 44.9 42.52 45.07 43.05"/><path class="cls-2" d="M1286,1539.33h.41C1286.57,1539.33,1285.92,1538.59,1286,1539.33Z" transform="translate(-1244.13 -1495)"/><path class="cls-2" d="M1338.54,1498.2l-.37-.33S1338.54,1498.24,1338.54,1498.2Z" transform="translate(-1244.13 -1495)"/><polygon class="cls-2" points="94.89 4.1 94.77 4.02 95.06 4.31 94.89 4.1"/><path class="cls-2" d="M1338.74,1499.47c.58.46,0,0,.25,0h0l-.45-.37S1339,1499.56,1338.74,1499.47Z" transform="translate(-1244.13 -1495)"/><path class="cls-2" d="M1337.39,1498.65Z" transform="translate(-1244.13 -1495)"/><path class="cls-2" d="M1337.43,1498.61" transform="translate(-1244.13 -1495)"/><path class="cls-2" d="M1337.43,1498.9v-.25h-.29A1.37,1.37,0,0,0,1337.43,1498.9Z" transform="translate(-1244.13 -1495)"/><path class="cls-2" d="M1337.8,1499.27Z" transform="translate(-1244.13 -1495)"/><path class="cls-2" d="M1337.59,1499v.21h0C1337.3,1499,1337.71,1499.1,1337.59,1499Z" transform="translate(-1244.13 -1495)"/><path class="cls-2" d="M1337.71,1499a1.34,1.34,0,0,1,.42.33S1337.71,1498.9,1337.71,1499Z" transform="translate(-1244.13 -1495)"/><path class="cls-2" d="M1339.32,1500h.2v-.21S1339.15,1499.84,1339.32,1500Z" transform="translate(-1244.13 -1495)"/><path class="cls-2" d="M1336.89,1498.9l.5.37h0Z" transform="translate(-1244.13 -1495)"/><path class="cls-2" d="M1337.39,1499.27v.24A.17.17,0,0,0,1337.39,1499.27Z" transform="translate(-1244.13 -1495)"/><polygon class="cls-2" points="94.24 4.8 93.91 4.35 94.24 4.8 94.24 4.8"/><polygon class="cls-2" points="92.59 4.02 92.35 3.78 92.72 4.19 92.59 4.02"/><path class="cls-2" d="M1336.65,1499.23c0-.25-.37-.33-.49-.49a1.28,1.28,0,0,0,.32.45S1336.44,1499.06,1336.65,1499.23Z" transform="translate(-1244.13 -1495)"/><path class="cls-2" d="M1336.69,1499.47l-.21-.28Z" transform="translate(-1244.13 -1495)"/><path class="cls-2" d="M1337.39,1499.56a1.28,1.28,0,0,0-.37-.29Z" transform="translate(-1244.13 -1495)"/><path class="cls-2" d="M1337.39,1499.56" transform="translate(-1244.13 -1495)"/><path class="cls-2" d="M1337.39,1499.56" transform="translate(-1244.13 -1495)"/><path class="cls-2" d="M1338,1499.68a1.93,1.93,0,0,0,.66.61A7.57,7.57,0,0,1,1338,1499.68Z" transform="translate(-1244.13 -1495)"/><path class="cls-2" d="M1337.84,1499.88h0l-.33-.24Z" transform="translate(-1244.13 -1495)"/><polygon class="cls-2" points="93.74 4.97 93.66 4.88 93.62 4.84 93.74 4.97"/><path class="cls-2" d="M1337.06,1499.68v.25h0Z" transform="translate(-1244.13 -1495)"/><path class="cls-2" d="M1337.22,1499.64Z" transform="translate(-1244.13 -1495)"/><polygon class="cls-2" points="92.76 5.13 92.8 5.17 92.76 5.13 92.76 5.13"/><path class="cls-2" d="M1337.39,1500Z" transform="translate(-1244.13 -1495)"/><path class="cls-2" d="M1336.77,1499.68h0Z" transform="translate(-1244.13 -1495)"/><path class="cls-2" d="M1337.14,1499.6Z" transform="translate(-1244.13 -1495)"/><path class="cls-2" d="M1337.14,1499.6v.2h0Z" transform="translate(-1244.13 -1495)"/><path class="cls-2" d="M1338.78,1502.22c-.29-.28-.45-.61,0-.32a15.77,15.77,0,0,0-1.68-1.69,2.36,2.36,0,0,1,.33.45,3.23,3.23,0,0,1,.7.58c0,.2,0,0-.33,0s.41.61.94,1.11v-.25Z" transform="translate(-1244.13 -1495)"/><path class="cls-2" d="M1337.1,1500.17h0s-.21,0-.45-.33l.28.41h0Z" transform="translate(-1244.13 -1495)"/><path class="cls-2" d="M1337.14,1500c.33.33.41.49.78.82s-.21-.33-.33-.49,0-.21-.41-.29h0v.24A2.26,2.26,0,0,1,1337.14,1500Z" transform="translate(-1244.13 -1495)"/><path class="cls-2" d="M1339.27,1501.12Z" transform="translate(-1244.13 -1495)"/><path class="cls-2" d="M1339,1500.87h.29a1.34,1.34,0,0,0-.42-.33h0l-.65-.41Z" transform="translate(-1244.13 -1495)"/><path class="cls-2" d="M1338.17,1500.54h0l.28.25h0S1338.29,1500.66,1338.17,1500.54Z" transform="translate(-1244.13 -1495)"/><polygon class="cls-2" points="92.59 5.01 92.27 4.64 92.68 5.17 92.59 5.01"/><polygon class="cls-2" points="92.51 5.13 92.27 4.84 92.39 5.05 92.51 5.13"/><path class="cls-2" d="M1331.56,1509.32" transform="translate(-1244.13 -1495)"/><path class="cls-2" d="M1331.85,1509.32" transform="translate(-1244.13 -1495)"/><path class="cls-2" d="M1333.94,1502.43l-.33-.41.25.37S1333.9,1502.35,1333.94,1502.43Z" transform="translate(-1244.13 -1495)"/><path class="cls-2" d="M1333,1506h0v0Z" transform="translate(-1244.13 -1495)"/><path class="cls-2" d="M1333.82,1507.68l-.21-.24Z" transform="translate(-1244.13 -1495)"/><path class="cls-2" d="M1330.33,1510.15v0Z" transform="translate(-1244.13 -1495)"/><path class="cls-2" d="M1335.7,1501.12h-.28C1335.62,1501.12,1335.91,1501.57,1335.7,1501.12Z" transform="translate(-1244.13 -1495)"/><path class="cls-2" d="M1330,1504.73a.49.49,0,0,0,0,.24A.49.49,0,0,0,1330,1504.73Z" transform="translate(-1244.13 -1495)"/><path class="cls-2" d="M1335.33,1501.12Z" transform="translate(-1244.13 -1495)"/><path class="cls-2" d="M1324.17,1510.72" transform="translate(-1244.13 -1495)"/><path class="cls-2" d="M1322.61,1506.25Z" transform="translate(-1244.13 -1495)"/><path class="cls-2" d="M1336.11,1500.42" transform="translate(-1244.13 -1495)"/><path class="cls-2" d="M1337.43,1501.61" transform="translate(-1244.13 -1495)"/><path class="cls-2" d="M1336.81,1503.58" transform="translate(-1244.13 -1495)"/><path class="cls-2" d="M1336.28,1500.54" transform="translate(-1244.13 -1495)"/><path class="cls-2" d="M1336.16,1500.38Z" transform="translate(-1244.13 -1495)"/><path class="cls-2" d="M1336.11,1500.46" transform="translate(-1244.13 -1495)"/><path class="cls-2" d="M1327.17,1509.32Z" transform="translate(-1244.13 -1495)"/><polygon class="cls-2" points="91.53 11.78 91.53 11.74 91.53 11.74 91.53 11.78"/><path class="cls-2" d="M1335.74,1507.15c-.24-.49-.2-.45,0-.37l-.69-1.11Z" transform="translate(-1244.13 -1495)"/><path class="cls-2" d="M1330.9,1509.53l.25.37a1.54,1.54,0,0,0,.2,1c-.45-1.35.33-.28,0-1.6v.25h0s-.24-1,0-.86a1.07,1.07,0,0,1,.21.41V1509h0v-.73c0,.32.2.69,0,.65.57,1.28,0-.37.45.33h0c.37.7.33.41.62.82a6.54,6.54,0,0,1-.7-1.43h0c0,.45,0,.32.24.24l.25.62a3.39,3.39,0,0,0,0-.78,6.73,6.73,0,0,1,.53.86c.21.41-.41-.74-.28-.9s0,0,0-.5,0,.37.24.54v-.29c0-.2-.28-.62-.24-.82s.61.9.37,0a4.34,4.34,0,0,1,.28.62,5.46,5.46,0,0,0-.24-1.15l.28.32a4.05,4.05,0,0,1-.57-1.43l-.33-.45v-.25l.25.53h0a4.34,4.34,0,0,1,.41.87l-.21-.33a10.73,10.73,0,0,0,.45,1.11h0v0l.33.65v-.29l.41.33a9.94,9.94,0,0,1-.57-2.09c.2.49.41.78.7,1.35-.37-.57,0,.33,0,.25s.2.33.24.41v-.61c.25.45.25.32.37.45-.49-.87,0-.66-.24-1,0,.33.32.62,0,.62.49.61-.46-1.15,0-.62h.24s.45-.24,0-1l.62,1.06-1.28-2.62a19.55,19.55,0,0,1,1.48,2.54h0a9.43,9.43,0,0,1-.61-.94,9,9,0,0,0,.78.86,6.58,6.58,0,0,1-.66-1.15l.7,1.11-.49-1.07a7.77,7.77,0,0,0,.73,1.07h0c.25,0-.73-1.48-.57-1.52a7.12,7.12,0,0,0,.94,1.31c-.28-.49-1.43-2.46-1.6-2.87l.21.25v-.37c.45.74,1.35,2.42,1.68,3.07s.25.33.29.25.24.41.2.45h.33c-.41-.57-.25-.7-.57-1.15v.74c-.41-.57-1-1.68-.82-1.68s.69,1,.82,1.19,0-.45,0-.33v.33c.2,0-.41-.82,0-.37s.61.66.37.33-1.93-2.55-2.26-3l.86.78c.41.45.78,1.23,1.15,1.6a1.55,1.55,0,0,1-.25-.41s.33.49.37.37,0,0-.33-.49,0,0,.21,0a8.81,8.81,0,0,1-.94-1.48l.32.41h.58a1.91,1.91,0,0,1,.45.49v-.37s0,0,.49.66a3.41,3.41,0,0,1-.37-.74c-.41-.49,0,0,0,.25a9.26,9.26,0,0,1-1.19-1.85c0-.25.41.37.37.29s-.86-1.27-.33-.9a10.72,10.72,0,0,1,1,1.1c0,.21-.37,0-.41,0h.25c0-.28.37,0,.82,0a2,2,0,0,0-.37-.45h0c-.33-.29-.33-.53-.5-.61s-.45-.7-.2-.62l.45.45h0c.33,0,.7.5,0,0l-.33-.28c0-.29-.57-.83-.37-.74a6.11,6.11,0,0,0-.53-.41c.66.61,0,0,.53.73-.61-.57-.32,0-.86-.65,0,0,.29.29,0,.24h.25c.29.37.2.46.33.66s0,0-.29-.33l.2.33c-.32-.37-.61-.49-.73-.78h-.21c.12,0,.25.45,0,0v.29h0s.25.78-.41.24v.21l-.25-.29h0c-.69-.82-.37,0-.57,0l.33.45v.37l.28.37c0,.37-.37,0-.45,0h0c-.7-.74,0,.82-.37.25h-.2l-.29-.41h0s0,.2.33.49v.29c-.49-.66,0,.29-.45-.41.2.37,0,.37.45,1.11h0l-.37-.5.37.74a3.16,3.16,0,0,1-.58-.9c.25.7,0,.29.29,1l-.2-.32s.2.53,0,.24-.45,0-1-.37c.62,1-.37-.41,0,.41a2.25,2.25,0,0,1-.33-.61c0,.33-.37-.29,0,.45l-.29-.53h0a1.82,1.82,0,0,1,0-.33,5.58,5.58,0,0,0,.66,1.6q-.36-.49,0,.24a1.34,1.34,0,0,1-.29-.57s-.41-.25,0,.37h-.2c.29.74,0,0,0,.29h0c-.37-.45,0,.24-.37-.25l.2.45c.42.95-.41-.53-.32,0v.25c0,.37-.7-1.23-.82-1.36a.34.34,0,0,1,0-.2c-.37-.54.24.61.2.78a5.22,5.22,0,0,0-.41-.86c0-.25.21,1.15,0,.53a1.89,1.89,0,0,1,.25.7s-.54-.86-.33,0v-.21a4.12,4.12,0,0,0,0,.86c-.62-1.6,0,.91-.62-.57h0v.66a.91.91,0,0,1,0-.33c-.28-.25-.28,0-.2.61v-.49c0,.29-.45-.7-.45,0h0c0,.62-.78-1.27-.41.53v.5c.2,0,0,.78.28,1.06s-.28-.49-.24-.61h0c-.21-1-.29-.29-.41-.9-.33,0-.74-.33-1-.37v.74h0a1.14,1.14,0,0,1,0-.58v-.33h0v.17h0v1.23c-.25-1-.53-.29-.66-.62v1.11c0-1.4-.2-.57-.37-1.56,0,.66-.24,0,0,1.11a3.75,3.75,0,0,1,0-.82c0,.53-.41-.33-.61,0a4.57,4.57,0,0,1,0,.74v-.5a3.53,3.53,0,0,1,0,.46c-.45-.87-.9.73-1.27-.95v.41c0,.66-.21,0-.25.7h0v2.67c0-.86,0,1.31.41,0v.53c0-.41,0-.49.21-.33h0c.24,0,.36.33.65.62v-1c0,1,.45,0,.54,1.15v-.57h0q0,.35,0,.69h.28v-.2c.25-.29.62,0,.82-.53v-.25c0-.41,0,.25.37,0h0v0c0,.41,0-.86.5.33,0-1.07-.29-.54-.25-.78a3.58,3.58,0,0,0,0-.7c0,.08.33,1.31.49,1.27h0c0,.25,0-.41.25,0v-.53c0-.25,0-1.19.24-.78v1h0v1.11c0-1.11.21,0,0-.74v.78c0-.53.29.46.33,0a1,1,0,0,0-.28-.9c-.29-.37.37,1.23.61.94s-.2-.24-.2-.49a1.21,1.21,0,0,1,.28.49v-.73c.29.24,0-1,0-.7v.7h0v.53c0-.41,0-.33.21-.21s0-.86,0-.9v1.11c0,.29,0,0,.2,0v-1a1.06,1.06,0,0,1,0,.5v-.33a3.22,3.22,0,0,1,0,1V1510s.21.45.25.58,0-.83.25-.54a.21.21,0,0,1,0-.24s.37.49.37,0l.28.65c0-.2-.37-.86-.24-1.15s.2.58.33.74,0-1.11,0-.61S1330.94,1509.32,1330.9,1509.53Zm1.27-.78h0C1332.17,1508.34,1332.05,1508.63,1332.17,1508.75Zm1.44-2Zm2.75-5.83h0s0,.17,0,.17Zm-10.14,5Z" transform="translate(-1244.13 -1495)"/><path class="cls-2" d="M1333.73,1507.48v0Z" transform="translate(-1244.13 -1495)"/><polygon class="cls-2" points="85.99 15.02 85.99 15.02 85.99 15.1 85.99 15.02"/><path class="cls-2" d="M1337.63,1505.43v0Z" transform="translate(-1244.13 -1495)"/><path class="cls-2" d="M1336.2,1500.05Z" transform="translate(-1244.13 -1495)"/><path class="cls-2" d="M1338.78,1501.81Z" transform="translate(-1244.13 -1495)"/><path class="cls-2" d="M1337.39,1501.12h0C1337.18,1500.83,1337.26,1501.12,1337.39,1501.12Z" transform="translate(-1244.13 -1495)"/><path class="cls-2" d="M1337.59,1501.12Z" transform="translate(-1244.13 -1495)"/><path class="cls-2" d="M1336.28,1500.75s-.33-.41-.21-.29S1336.4,1501.12,1336.28,1500.75Z" transform="translate(-1244.13 -1495)"/><polygon class="cls-2" points="94.2 7.1 93.83 6.77 94.11 7.1 94.2 7.1"/><path class="cls-2" d="M1337.8,1502.14Z" transform="translate(-1244.13 -1495)"/><path class="cls-2" d="M1337.84,1502.06" transform="translate(-1244.13 -1495)"/><polygon class="cls-2" points="94.24 7.31 94.16 7.26 94.07 7.26 94.24 7.31"/><path class="cls-2" d="M1337.06,1502.68Z" transform="translate(-1244.13 -1495)"/><path class="cls-2" d="M1338.21,1503.54l-.29-.25.41.49Z" transform="translate(-1244.13 -1495)"/><path class="cls-2" d="M1338.08,1503.82s.21.5.29.37S1338.25,1503.91,1338.08,1503.82Z" transform="translate(-1244.13 -1495)"/><polygon class="cls-2" points="92.31 9.07 92.35 9.07 91.69 8.21 92.31 9.07"/><path class="cls-2" d="M1336.81,1506.9c.25,0-.33-.57,0-.37s-.24,0-.33-.32S1336.4,1506.33,1336.81,1506.9Z" transform="translate(-1244.13 -1495)"/><path class="cls-2" d="M1336.44,1506.21" transform="translate(-1244.13 -1495)"/><polygon class="cls-2" points="78.27 10.63 78.23 10.43 78.27 10.79 78.27 10.63"/><path class="cls-2" d="M1322.12,1506.45v0Z" transform="translate(-1244.13 -1495)"/><path class="cls-2" d="M1332.87,1509.9Z" transform="translate(-1244.13 -1495)"/><polygon class="cls-2" points="87.55 14.82 87.55 14.82 87.34 14.24 87.55 14.82"/><path class="cls-2" d="M1331.07,1510.84Z" transform="translate(-1244.13 -1495)"/><path class="cls-2" d="M1318.67,1495h0Z" transform="translate(-1244.13 -1495)"/><polygon class="cls-2" points="75.44 0.41 75.27 0.37 75.69 0.49 75.44 0.41"/><path class="cls-2" d="M1319.53,1495.74Z" transform="translate(-1244.13 -1495)"/><path class="cls-2" d="M1318,1495.62Z" transform="translate(-1244.13 -1495)"/><path class="cls-2" d="M1318,1495.57" transform="translate(-1244.13 -1495)"/><path class="cls-2" d="M1318,1495.74h-.57A1.37,1.37,0,0,0,1318,1495.74Z" transform="translate(-1244.13 -1495)"/><path class="cls-2" d="M1318.63,1495.9" transform="translate(-1244.13 -1495)"/><path class="cls-2" d="M1318.3,1495.78h.21C1318.67,1495.86,1318.47,1495.82,1318.3,1495.78Z" transform="translate(-1244.13 -1495)"/><path class="cls-2" d="M1318.42,1495.78h.5S1318.34,1495.66,1318.42,1495.78Z" transform="translate(-1244.13 -1495)"/><path class="cls-2" d="M1320.27,1495.9h0Z" transform="translate(-1244.13 -1495)"/><path class="cls-2" d="M1317.69,1495.9h0Z" transform="translate(-1244.13 -1495)"/><path class="cls-2" d="M1318.26,1496h.25A.41.41,0,0,1,1318.26,1496Z" transform="translate(-1244.13 -1495)"/><polygon class="cls-2" points="75.27 1.07 74.74 0.86 75.27 1.07 75.27 1.07"/><polygon class="cls-2" points="73.47 1.03 73.14 0.9 73.63 1.07 73.47 1.03"/><path class="cls-2" d="M1317.64,1496.15H1317l.49.25S1317.4,1496.11,1317.64,1496.15Z" transform="translate(-1244.13 -1495)"/><path class="cls-2" d="M1318,1496.31h0Z" transform="translate(-1244.13 -1495)"/><path class="cls-2" d="M1318.42,1496.19h0Z" transform="translate(-1244.13 -1495)"/><path class="cls-2" d="M1318.42,1496.19" transform="translate(-1244.13 -1495)"/><path class="cls-2" d="M1318.42,1496.19" transform="translate(-1244.13 -1495)"/><path class="cls-2" d="M1319,1496.11a2.58,2.58,0,0,0,.82.24Z" transform="translate(-1244.13 -1495)"/><path class="cls-2" d="M1319,1496.31Z" transform="translate(-1244.13 -1495)"/><polygon class="cls-2" points="74.95 1.35 74.82 1.27 74.78 1.27 74.95 1.35"/><path class="cls-2" d="M1318.22,1496.35h0Z" transform="translate(-1244.13 -1495)"/><path class="cls-2" d="M1318.34,1496.27Z" transform="translate(-1244.13 -1495)"/><polygon class="cls-2" points="74.21 1.72 74.25 1.72 74.21 1.68 74.21 1.72"/><path class="cls-2" d="M1318.63,1496.48Z" transform="translate(-1244.13 -1495)"/><path class="cls-2" d="M1318,1496.44" transform="translate(-1244.13 -1495)"/><path class="cls-2" d="M1318.26,1496.27" transform="translate(-1244.13 -1495)"/><path class="cls-2" d="M1318.26,1496.27h0Z" transform="translate(-1244.13 -1495)"/><path class="cls-2" d="M1320.93,1497.79c-.37,0-.7-.37-.25-.29l-2.26-.74a1.48,1.48,0,0,1,.54.25,2.64,2.64,0,0,1,.86.21h-.41c.49,0,.66.37,1.39.61h-.24Z" transform="translate(-1244.13 -1495)"/><path class="cls-2" d="M1318.47,1496.68h-.54l.45.21h0Z" transform="translate(-1244.13 -1495)"/><path class="cls-2" d="M1318.47,1496.56a6.66,6.66,0,0,0,1.06.37.69.69,0,0,1-.53-.25c-.17-.24-.21,0-.49,0h0A.2.2,0,0,0,1318.47,1496.56Z" transform="translate(-1244.13 -1495)"/><path class="cls-2" d="M1320.72,1496.64" transform="translate(-1244.13 -1495)"/><path class="cls-2" d="M1320.48,1496.64h.32a1.57,1.57,0,0,0-.53,0h.21Z" transform="translate(-1244.13 -1495)"/><path class="cls-2" d="M1319.57,1496.64h.17S1319.74,1496.72,1319.57,1496.64Z" transform="translate(-1244.13 -1495)"/><polygon class="cls-2" points="73.96 1.64 73.55 1.48 74.17 1.72 73.96 1.64"/><polygon class="cls-2" points="74 1.76 73.63 1.6 73.84 1.72 74 1.76"/><path class="cls-2" d="M1317,1505.43" transform="translate(-1244.13 -1495)"/><path class="cls-2" d="M1317.23,1505.22v0Z" transform="translate(-1244.13 -1495)"/><path class="cls-2" d="M1317,1498.94c-.33-.2-.78-.53-.45-.25l.36.29S1316.86,1498.9,1317,1498.94Z" transform="translate(-1244.13 -1495)"/><path class="cls-2" d="M1317.44,1502.22h0l-.25-.37Z" transform="translate(-1244.13 -1495)"/><path class="cls-2" d="M1318.63,1503.66h0Z" transform="translate(-1244.13 -1495)"/><path class="cls-2" d="M1315.92,1506.53v.45A.76.76,0,0,0,1315.92,1506.53Z" transform="translate(-1244.13 -1495)"/><path class="cls-2" d="M1318,1497.79h-.24C1318,1497.83,1318,1498,1318,1497.79Z" transform="translate(-1244.13 -1495)"/><path class="cls-2" d="M1314.65,1501.36v0Z" transform="translate(-1244.13 -1495)"/><path class="cls-2" d="M1317.56,1497.79Z" transform="translate(-1244.13 -1495)"/><path class="cls-2" d="M1310.5,1507.44" transform="translate(-1244.13 -1495)"/><path class="cls-2" d="M1309.44,1502.88" transform="translate(-1244.13 -1495)"/><path class="cls-2" d="M1318,1497" transform="translate(-1244.13 -1495)"/><path class="cls-2" d="M1319.49,1497.67" transform="translate(-1244.13 -1495)"/><path class="cls-2" d="M1319.82,1499.39" transform="translate(-1244.13 -1495)"/><path class="cls-2" d="M1318,1497" transform="translate(-1244.13 -1495)"/><path class="cls-2" d="M1318,1497" transform="translate(-1244.13 -1495)"/><path class="cls-2" d="M1318,1497" transform="translate(-1244.13 -1495)"/><path class="cls-2" d="M1313.13,1505.88Z" transform="translate(-1244.13 -1495)"/><polygon class="cls-2" points="75.89 7.47 75.85 7.47 75.85 7.47 75.89 7.47"/><path class="cls-2" d="M1320.19,1502.8c-.37-.41-.33-.37,0-.33l-1-.82Z" transform="translate(-1244.13 -1495)"/><path class="cls-2" d="M1316.5,1505.88l.28.28c.21.66,0,.5.37.95-.65-1.23.25-.33-.41-1.52h.21s-.41-.94-.21-.82a.64.64,0,0,1,.29.37V1505h0l-.29-.61v-.08c.25.28.37.65.29.61.82,1.15,0-.33.45.25h0c.49.61.37.33.74.7a5.39,5.39,0,0,1-1-1.28h0c.29.41.25.29.29.21l.37.53s-.24-.45-.37-.74a5.14,5.14,0,0,1,.7.78s-.57-.61-.49-.82,0,0,0-.49.2.33.37.45l-.29-.45v.21a7.68,7.68,0,0,1-.41-.74c-.45-.58.78.74.33,0a4.55,4.55,0,0,0,.41.49,6.48,6.48,0,0,0-.49-1l.32.29a7.32,7.32,0,0,1-.94-1.27l-.37-.37v-.33l.41.45h0a5.18,5.18,0,0,1,.62.78l-.29-.29.74,1h0v0l.49.53v-.2l.41.24a21.38,21.38,0,0,1-1.11-1.84,10.72,10.72,0,0,0,1,1.1c-.49-.45,0,.29,0,.29a2.52,2.52,0,0,1,.33.33l-.25-.57c.33.37.29.24.45.37-.74-.7-.37-.58-.53-.87s.49.5.37.5c.57.49-.78-.95-.25-.54h.25s.29-.33-.33-.9l.9.86-2-2.17c.53.53,1.93,1.64,2.18,2s.2,0,0,0a10.87,10.87,0,0,1-.91-.74,6.76,6.76,0,0,0,1,.61,4.84,4.84,0,0,1-1-.86l1,.82-.78-.86a5.46,5.46,0,0,0,1,.82h-.25c.25,0-1.15-1.15-1-1.23a12.62,12.62,0,0,0,1.32,1c-.46-.41-2.18-1.85-2.47-2.22h.29l-.29-.29c.7.54,2.1,1.81,2.63,2.34s.33.21.33,0,.37.33.37.37h.29c-.54-.37-.46-.53-.91-.86l.41.61c-.53-.41-1.47-1.27-1.31-1.31s1,.74,1.19.86-.29-.37,0-.28l.29.28c.24,0-.7-.65,0-.37s.78.41.45.21-2.71-1.77-3.2-2.14l1.06.5c.54.28,1.19.86,1.65,1.11l-.37-.29s.49.33.45.2,0,0-.49-.33,0,0,.2,0a9,9,0,0,1-1.44-1l.46.24h.53a1.47,1.47,0,0,1,.57.29.28.28,0,0,1-.28-.29c0-.28,0,0,.74.46a2.89,2.89,0,0,1-.66-.54c-.58-.28,0,0,0,.21a12.39,12.39,0,0,1-1.85-1.19c0-.21.54,0,.41,0s-1.27-.78-.65-.62a11.71,11.71,0,0,1,1.35.62h-.08c-.25-.21.24-.25.7,0a1.06,1.06,0,0,0-.54-.29h0c-.45,0-.53-.33-.74-.37s-.69-.41-.45-.41l.58.25h0c.37,0,.82.2,0,0h-.46c-.24,0-.86-.5-.65-.5H1318c.82.29,0,0,.78.41-.78-.24-.33,0-1-.28h.53c.45,0,.37.28.62.41a1.77,1.77,0,0,1-.46,0h.33a1.38,1.38,0,0,1-.94-.45h0c.37,0,.41.28,0,0l.2.2h0s.58.54,0,.25h-.37c-.94-.54-.32,0-.53,0l.45.29v.28l.41.29c.25.25-.37,0-.37,0h0c-.9-.49.45.66-.2.29h0l-.41-.29h0l.49.37.21.25c-.66-.5,0,.2-.54-.29.29.24,0,.29.78.86h0l-.49-.41.57.62a3.24,3.24,0,0,1-.82-.7l.62.82-.29-.29s.33.45,0,.25-.33,0-.94-.21c.82.86-.45-.33,0,.37l-.45-.49c0,.25-.42-.25,0,.37l-.42-.45h0a1.15,1.15,0,0,1-.2-.29,9.88,9.88,0,0,0,1,1.4c-.29-.29-.25-.21,0,.2-.21-.2-.41-.37-.41-.49s-.42,0,0,.33h0c.49.65,0,0,0,.32h0c-.46-.36,0,.25-.42,0l.29.37c.62.87-.45-.41-.29,0v.21c0,.33-.94-1.11-1.06-1.19h0c-.45-.45.37.53.37.74s-.5-.78-.58-.78.49,1,0,.49a2.15,2.15,0,0,1,.37.66s-.65-.78-.24,0h0a3.36,3.36,0,0,0,.24.82c-.86-1.48,0,.86-.61-.49h0v.32c-.25-.2-.21,0,0,.62l-.21-.49c0,.28-.49-.62-.37,0h0c0,.61-.82-1.19-.2.53v.49c.2,0,.28.74.45,1s-.33-.49-.33-.62h0c-.29-.9-.25-.24-.45-.86-.25,0-.62-.29-.82-.33l.2.74h0v0c0,.17,0-.86-.2-.86h0v.16h0v1.24c-.29-1-.45-.29-.54-.62v1.11c0-1.4-.2-.58-.37-1.56v.29c0,.53-.28-.33-.41,0a4.45,4.45,0,0,1,0,.73v-.49a1.69,1.69,0,0,1,0,.45c-.28-.86-.73.7-.86-1v.37a4.09,4.09,0,0,1,0,.7v-.7c0,.7,0,0-.24.7h0c-.21.73,0,1.68-.33,2.66.2-.86,0,1.32.37,0v.25h0c.24,0,.28.37.57.66v-1c0,1,.37,0,.45,1.15V1507h0v.69h.25c.25-.28.57,0,.74-.53v-.25c0-.45,0,.25.33,0h0v0c0,.46,0-.9.45.29,0-1.07-.25-.53-.25-.78v-.7c0,.09.37,1.32.49,1.23h0c0,.25,0-.36.21,0v-1.31a2,2,0,0,1,0,.49h0v.82c0,.83,0-.61.2.25-.2-1.11.21,0,0-.74v.78c0-.53.29.41.33,0s0-.53-.41-.86.49,1.19.7.9-.25-.24-.25-.49a1.23,1.23,0,0,1,.29.49,1.64,1.64,0,0,0-.2-.78c.24.54,0-.24,0-.45v.45c.28.25-.29-1,0-.69v.69h0v.33a2.42,2.42,0,0,1-.25-.9c.08,0,0,.45.2.37s0,.65,0,.24v.46c0,.28,0,0,.21,0h0v-.7a.58.58,0,0,1,0,.45v-.37a4.89,4.89,0,0,1,.29,1v-.5a2,2,0,0,1,.28.54v-.58a.67.67,0,0,1,0-.2s.46.45.33,0l.41.61c0-.2-.53-.78-.49-1.07s.33.54.45.66-.37-1,0-.57S1316.5,1505.79,1316.5,1505.88Zm.94-1h0c-.21-.41-.12-.12,0,0Zm.78-2.09Zm.2-5.38h0s0,.08-.12,0Zm-6.23,5.26h0s-.13.12-.13,0Z" transform="translate(-1244.13 -1495)"/><path class="cls-2" d="M1318.51,1503.5l-.21-.21A.53.53,0,0,0,1318.51,1503.5Z" transform="translate(-1244.13 -1495)"/><polygon class="cls-2" points="71.75 11.45 71.75 11.45 71.75 11.53 71.75 11.45"/><path class="cls-2" d="M1321.26,1500.79h0Z" transform="translate(-1244.13 -1495)"/><path class="cls-2" d="M1317.69,1497Z" transform="translate(-1244.13 -1495)"/><path class="cls-2" d="M1320.72,1497.42Z" transform="translate(-1244.13 -1495)"/><path class="cls-2" d="M1319.24,1497.34h.21C1318.92,1497,1319.08,1497.26,1319.24,1497.34Z" transform="translate(-1244.13 -1495)"/><path class="cls-2" d="M1319.45,1497.34Z" transform="translate(-1244.13 -1495)"/><path class="cls-2" d="M1318,1497.26h-.32C1317.32,1497,1318.34,1497.46,1318,1497.26Z" transform="translate(-1244.13 -1495)"/><polygon class="cls-2" points="76.38 2.79 75.89 2.63 76.26 2.79 76.38 2.79"/><path class="cls-2" d="M1320.07,1498Z" transform="translate(-1244.13 -1495)"/><path class="cls-2" d="M1320.07,1497.91Z" transform="translate(-1244.13 -1495)"/><polygon class="cls-2" points="76.51 2.96 76.38 2.91 76.34 2.96 76.51 2.96"/><path class="cls-2" d="M1319.66,1498.61h.2A.28.28,0,0,1,1319.66,1498.61Z" transform="translate(-1244.13 -1495)"/><path class="cls-2" d="M1321,1499h-.37l.58.29Z" transform="translate(-1244.13 -1495)"/><path class="cls-2" d="M1321.05,1499.31s.37.33.41.2S1321.22,1499.31,1321.05,1499.31Z" transform="translate(-1244.13 -1495)"/><polygon class="cls-2" points="75.6 4.92 75.6 4.88 74.7 4.31 75.6 4.92"/><path class="cls-2" d="M1321.09,1502.31c.25,0-.49-.41-.2-.29s-.25,0-.41-.25S1320.52,1501.94,1321.09,1502.31Z" transform="translate(-1244.13 -1495)"/><path class="cls-2" d="M1320.48,1501.77" transform="translate(-1244.13 -1495)"/><polygon class="cls-2" points="65.22 7.31 65.22 7.06 65.18 7.43 65.22 7.31"/><path class="cls-2" d="M1309.15,1503.09V1503S1309.19,1502.92,1309.15,1503.09Z" transform="translate(-1244.13 -1495)"/><path class="cls-2" d="M1318.38,1505.92Z" transform="translate(-1244.13 -1495)"/><polygon class="cls-2" points="73.1 11.04 73.14 11.04 72.81 10.51 73.1 11.04"/><path class="cls-2" d="M1316.86,1507.15Z" transform="translate(-1244.13 -1495)"/><path class="cls-2" d="M1299.91,1499.84h0Z" transform="translate(-1244.13 -1495)"/><polygon class="cls-2" points="56.68 5.25 56.52 5.17 56.89 5.34 56.68 5.25"/><path class="cls-2" d="M1300.78,1500.38h0l-.54-.21Z" transform="translate(-1244.13 -1495)"/><path class="cls-2" d="M1299.26,1499.84" transform="translate(-1244.13 -1495)"/><path class="cls-2" d="M1299.3,1499.84" transform="translate(-1244.13 -1495)"/><path class="cls-2" d="M1299.42,1500h0Z" transform="translate(-1244.13 -1495)"/><path class="cls-2" d="M1299.91,1500.17" transform="translate(-1244.13 -1495)"/><path class="cls-2" d="M1299.63,1500.05Z" transform="translate(-1244.13 -1495)"/><path class="cls-2" d="M1299.71,1500.05h.49A1.35,1.35,0,0,0,1299.71,1500.05Z" transform="translate(-1244.13 -1495)"/><path class="cls-2" d="M1301.6,1500.66h-.25S1301.27,1500.58,1301.6,1500.66Z" transform="translate(-1244.13 -1495)"/><path class="cls-2" d="M1299.05,1499.88l.54.25h0Z" transform="translate(-1244.13 -1495)"/><path class="cls-2" d="M1299.59,1500.13h0Z" transform="translate(-1244.13 -1495)"/><polygon class="cls-2" points="56.52 5.46 56.02 5.25 56.52 5.5 56.52 5.46"/><polygon class="cls-2" points="54.88 4.92 54.55 4.76 55 5.01 54.88 4.92"/><path class="cls-2" d="M1299.05,1500l-.61-.29.45.25Z" transform="translate(-1244.13 -1495)"/><path class="cls-2" d="M1299.17,1500.09h0Z" transform="translate(-1244.13 -1495)"/><path class="cls-2" d="M1299.75,1500.25h0Z" transform="translate(-1244.13 -1495)"/><path class="cls-2" d="M1299.75,1500.25" transform="translate(-1244.13 -1495)"/><path class="cls-2" d="M1299.75,1500.25" transform="translate(-1244.13 -1495)"/><path class="cls-2" d="M1300.28,1500.38l.78.37Z" transform="translate(-1244.13 -1495)"/><path class="cls-2" d="M1300.24,1500.46Z" transform="translate(-1244.13 -1495)"/><polygon class="cls-2" points="56.23 5.5 56.11 5.46 56.07 5.42 56.23 5.5"/><path class="cls-2" d="M1299.59,1500.25h0Z" transform="translate(-1244.13 -1495)"/><path class="cls-2" d="M1299.71,1500.29" transform="translate(-1244.13 -1495)"/><polygon class="cls-2" points="55.57 5.46 55.66 5.5 55.57 5.46 55.57 5.46"/><path class="cls-2" d="M1300,1500.46Z" transform="translate(-1244.13 -1495)"/><path class="cls-2" d="M1299.38,1500.21h0Z" transform="translate(-1244.13 -1495)"/><path class="cls-2" d="M1299.63,1500.25" transform="translate(-1244.13 -1495)"/><path class="cls-2" d="M1299.63,1500.25h0Z" transform="translate(-1244.13 -1495)"/><path class="cls-2" d="M1302.21,1501.81c-.37,0-.7-.41-.29-.24a20.78,20.78,0,0,1-2.13-1.07l.53.29.78.37h-.32l1.27.74h-.21Z" transform="translate(-1244.13 -1495)"/><path class="cls-2" d="M1299.87,1500.5h0l-.53-.25.45.25h.08Z" transform="translate(-1244.13 -1495)"/><path class="cls-2" d="M1299.83,1500.42l1,.53a2.25,2.25,0,0,0-.5-.29h-.45S1299.87,1500.46,1299.83,1500.42Z" transform="translate(-1244.13 -1495)"/><path class="cls-2" d="M1301.92,1501.12" transform="translate(-1244.13 -1495)"/><path class="cls-2" d="M1301.6,1501.12h.32a2.13,2.13,0,0,0-.49-.21h0l-.7-.29Z" transform="translate(-1244.13 -1495)"/><path class="cls-2" d="M1300.86,1500.83h.16S1301,1501.12,1300.86,1500.83Z" transform="translate(-1244.13 -1495)"/><polygon class="cls-2" points="55.41 5.34 54.96 5.13 55.57 5.46 55.41 5.34"/><polygon class="cls-2" points="55.41 5.42 55.08 5.21 55.29 5.34 55.41 5.42"/><path class="cls-2" d="M1301,1506.16" transform="translate(-1244.13 -1495)"/><path class="cls-2" d="M1301.1,1506.12" transform="translate(-1244.13 -1495)"/><path class="cls-2" d="M1299.09,1501.12l-.41-.33.33.28S1299,1501.12,1299.09,1501.12Z" transform="translate(-1244.13 -1495)"/><path class="cls-2" d="M1300.41,1503.66h0l-.29-.33Z" transform="translate(-1244.13 -1495)"/><path class="cls-2" d="M1301.6,1505.22l-.21-.21Z" transform="translate(-1244.13 -1495)"/><path class="cls-2" d="M1300.61,1506.94l.21.41S1300.73,1507.15,1300.61,1506.94Z" transform="translate(-1244.13 -1495)"/><path class="cls-2" d="M1299.5,1500.83h0Z" transform="translate(-1244.13 -1495)"/><path class="cls-2" d="M1298.35,1502.26v0Z" transform="translate(-1244.13 -1495)"/><path class="cls-2" d="M1299.26,1500.75Z" transform="translate(-1244.13 -1495)"/><path class="cls-2" d="M1297.94,1507.64" transform="translate(-1244.13 -1495)"/><path class="cls-2" d="M1296.51,1503.37" transform="translate(-1244.13 -1495)"/><path class="cls-2" d="M1299.34,1500.46" transform="translate(-1244.13 -1495)"/><path class="cls-2" d="M1300.86,1501.12h0Z" transform="translate(-1244.13 -1495)"/><path class="cls-2" d="M1301.6,1502.39" transform="translate(-1244.13 -1495)"/><path class="cls-2" d="M1299.5,1500.54" transform="translate(-1244.13 -1495)"/><path class="cls-2" d="M1299.34,1500.46" transform="translate(-1244.13 -1495)"/><path class="cls-2" d="M1299.34,1500.5" transform="translate(-1244.13 -1495)"/><path class="cls-2" d="M1298.85,1506.08h0C1298.89,1506.25,1298.89,1506.21,1298.85,1506.08Z" transform="translate(-1244.13 -1495)"/><polygon class="cls-2" points="58.2 9.52 58.16 9.48 58.16 9.48 58.2 9.52"/><path class="cls-2" d="M1302.54,1504.81c-.41-.41-.33-.37-.25-.29l-.94-.86Z" transform="translate(-1244.13 -1495)"/><path class="cls-2" d="M1300.78,1506.45l.28.33c.29.57,0,.41.45.86-.73-1.19,0-.24-.65-1.39v.2h0c.41.49-.54-.86-.37-.74l.29.37v-.33h0l-.33-.61v0c.24.28.41.61.33.57.86,1.11,0-.29.41.29h0c.49.66.37.37.69.74s-.82-1-1-1.23h0s.24.24.29,0l.37.53-.46-.7a4.87,4.87,0,0,1,.66.78s-.53-.61-.53-.78v-.41l.37.45-.33-.41v.21c0-.21-.41-.54-.49-.7s.73.78.24,0l.45.49-.65-.94.32.29a7,7,0,0,1-1-1.19l-.41-.37v-.29l.37.45h0l.66.74-.29-.29.78.9h0l.53.54v-.21l.37.29-1.31-1.68,1.06,1.06c-.49-.45,0,.29,0,0l.33.33-.37-.49.45.41a3.1,3.1,0,0,1-.61-.78c.25.25.49.49.41.45.57.54-.82-.9-.33-.45h0c-.2-.24,0,0,.21,0h0l-.45-.78.86.86-2.06-2.09c.54.53,1.89,1.72,2.14,2s.2,0,0,0l-.86-.78.9.74-.94-.9.94.86-.82-.82,1,.86h-.2a14.52,14.52,0,0,1-1.11-1.11l1.23,1-2.46-2.18h.29l-.29-.28,2.63,2.3.28.2c.29,0,.37.33.37.37h.25c-.53-.45-.49-.53-.94-.86l.49.53a8.61,8.61,0,0,1-1.36-1.27l1.11.94s-.29-.37,0-.24l.29.24c.2,0-.7-.61,0-.24s.74.49.41.24l-3.08-2.3,1,.62,1.6,1.23-.41-.33.41.29-.45-.37h0s-1.24-.94-1.36-1.07l.41.29h.41l.58.37-.29-.25c.53.33,0,0,.66.5l-.62-.54h0l-1.76-1.27s.49.29.41,0-1.28-.86-.7-.57l1.27.78h-.08c.41.24,0,0,.57,0a1.63,1.63,0,0,0-.49-.33h0l-.7-.41c-.24,0-.69-.45-.45-.37l.58.33H1301c-.2,0,.78.37,0,0h-.41l-.66-.45-.57-.29a7.81,7.81,0,0,1,.78.45l-1-.49h.58a4.63,4.63,0,0,1,.57.41l-.41-.25.33.21a5.28,5.28,0,0,1-.9-.5h-.12c-.91-.61-.25,0-.42,0l.42.29.24.25.33.28c.29.25-.29,0-.25,0h0c-.86-.61.5.54,0,0h0l-.37-.32h0l.5.41h.2c-.61-.54,0,.2-.49-.37l.86.86h0l-.45-.41.57.61-.78-.73.66.73-.29-.28s.41.41,0,.2,0,0-.69-.45c.82.86-.41-.37.2.33l-.45-.49s-.33-.33,0,.28l-.41-.45h0v-.28a10.54,10.54,0,0,0,1.11,1.31c-.25-.25-.25,0,0,.2l-.41-.49s-.33-.24,0,.25h0c.49.61,0,0,0,.2h0c-.41-.41,0,.25-.29-.24l.29.37c.65.86-.41-.46-.21,0h.21a11.1,11.1,0,0,1-1-1.24h0c-.41-.49.37.54.45.66l-.57-.74c0-.24.61,1,0,.41a3.17,3.17,0,0,1,.41.62h0l.41.74c-1-1.4.33.74-.49-.58h0a1,1,0,0,0,.28.58v-.29c-.2-.25,0-.21,0,.49l-.28-.41c0,.25-.46-.65-.21,0v-.2c.25.57-.74-1.19,0,.45v.45a6.18,6.18,0,0,1,.53,1,2.45,2.45,0,0,1-.32-.57h0c-.41-.86-.21-.29-.5-.86,0,0-.37-.37-.49-.37l.33.66h0a3,3,0,0,1-.21-.54s0,.33,0,.49-.32-.82-.37-.82h0a1.88,1.88,0,0,1,0,.58v-.45h0l.25.53a2.39,2.39,0,0,0,.21.62c-.41-1-.29-.29-.41-.62v.41s.28.74,0,.66c-.41-1.32-.25-.54-.54-1.48a10,10,0,0,0,.29,1.07c-.11-.27-.21-.55-.29-.82h0v.69l-.29-.86s.25,1,0,.41v.45c-.32-.82,0,.74-.57-.86v1.11h0a26.81,26.81,0,0,0,.37,2.67c0-.86.33,1.27,0,0v.24h0l.37.54v-.17c0-.73,0,0-.25-.82.25,1,0,0,.45,1.07v-.66a1.28,1.28,0,0,0,.21.7h0c0-.29.29,0,.2-.57v-.21h0v-.33a6.58,6.58,0,0,0,.29.78c0-.45,0-.37-.29-1.19v.37c0-.2,0-.41,0-.61,0,.32.25.53.33.94s0-.82.33.29c-.33-1-.29-.49-.33-.74a1.41,1.41,0,0,1-.2-.66s.53,1.27.61,1.19h0a5,5,0,0,1-.24-.74v.21c0-.21-.37-1.11,0-.7v.45h0v1c-.41-1.07,0,0,0-.7l.2.45a1.31,1.31,0,0,1,0-.28l.21.57c0-.49.28.41,0,0a3.63,3.63,0,0,1-.41-.86c-.17-.33.57,1.15.57.86a1.31,1.31,0,0,1-.24-.45,2.15,2.15,0,0,1,.28.49l-.33-.74c.29.49,0-.24,0-.45l.25.45c.21.25-.45-.94,0-.61l.29.61h0l.24.49h0l-.37-.82c0,.25.21.41.25.33s.29.62,0,.25l.21.41h0l-.25-.66a.53.53,0,0,0,.25.45V1505a6.3,6.3,0,0,1,.45.9v-.41l.33.53s-.29-.74,0-.49h0l.41.61a4.12,4.12,0,0,1-.58-1c0-.29.33.49.45.65s-.53-1,0-.49A3.84,3.84,0,0,1,1300.78,1506.45Zm.36-.61h0c-.2-.37-.12-.13,0,0Zm0-1.52h0s-.16-.09,0,0Zm-1.47-3.57h0s-.13,0,0,0Zm.2,0h0s0,.37,0,.08Zm-2.34,2.21" transform="translate(-1244.13 -1495)"/><path class="cls-2" d="M1301.6,1504.89h0Z" transform="translate(-1244.13 -1495)"/><polygon class="cls-2" points="56.44 11.86 56.44 11.86 56.48 11.94 56.44 11.86"/><path class="cls-2" d="M1303,1503.7h0Z" transform="translate(-1244.13 -1495)"/><path class="cls-2" d="M1299.17,1500.29Z" transform="translate(-1244.13 -1495)"/><path class="cls-2" d="M1302,1501.57h-.21A.34.34,0,0,1,1302,1501.57Z" transform="translate(-1244.13 -1495)"/><path class="cls-2" d="M1300.61,1501.12h.21C1300.28,1500.87,1300.45,1501.12,1300.61,1501.12Z" transform="translate(-1244.13 -1495)"/><path class="cls-2" d="M1300.78,1501.12Z" transform="translate(-1244.13 -1495)"/><path class="cls-2" d="M1299.63,1500.66h0Z" transform="translate(-1244.13 -1495)"/><polygon class="cls-2" points="57.67 6.69 57.22 6.44 57.58 6.65 57.67 6.69"/><path class="cls-2" d="M1301.6,1501.65Z" transform="translate(-1244.13 -1495)"/><path class="cls-2" d="M1301.6,1501.61Z" transform="translate(-1244.13 -1495)"/><polygon class="cls-2" points="57.79 6.81 57.71 6.77 57.67 6.77 57.79 6.81"/><path class="cls-2" d="M1301.19,1501.85Z" transform="translate(-1244.13 -1495)"/><path class="cls-2" d="M1302.42,1502.51h-.33l.53.33Z" transform="translate(-1244.13 -1495)"/><path class="cls-2" d="M1302.5,1502.72s.37.32.37.24Z" transform="translate(-1244.13 -1495)"/><polygon class="cls-2" points="57.38 7.67 57.38 7.67 56.52 7.06 57.38 7.67"/><path class="cls-2" d="M1303.11,1504.69c.25,0-.49-.41-.2-.25l-.37-.29S1302.58,1504.28,1303.11,1504.69Z" transform="translate(-1244.13 -1495)"/><path class="cls-2" d="M1302.54,1504.15" transform="translate(-1244.13 -1495)"/><polygon class="cls-2" points="52.21 7.8 52.17 7.59 52.21 7.92 52.21 7.8"/><path class="cls-2" d="M1296.42,1503.58v0S1296.38,1503.46,1296.42,1503.58Z" transform="translate(-1244.13 -1495)"/><path class="cls-2" d="M1302,1506.82Z" transform="translate(-1244.13 -1495)"/><polygon class="cls-2" points="57.17 11.7 57.17 11.74 56.85 11.25 57.17 11.7"/><path class="cls-2" d="M1301.35,1507.6Z" transform="translate(-1244.13 -1495)"/></svg>