<svg id="wavy-top" xmlns="http://www.w3.org/2000/svg" viewBox="0 0 1919 86.47"><defs><style>.cls-1{fill:#eab7a0;}</style></defs><path class="cls-1" d="M1783.49,2509.32c-51.94,1.12-98.45-34.48-150.28-38.07-47.77-3.31-92.52,20.69-138,35.58-44.63,14.61-94.78,20.32-137.67,1.2-25.07-11.18-46.48-30.3-72.82-38-61.82-18.14-121.06,30.75-182.56,49.95a203.94,203.94,0,0,1-106.28,3.94c-59-13.69-113.91-53.84-173.89-45.7-41.23,5.59-76.25,33.46-116.75,43-98.29,23.17-197-65.41-295.61-43.7-54.69,12-102.45,57.22-158.11,51-40.35-4.49-72.58-35.23-110.91-48.6C92.66,2463.19,36,2477.77.5,2513.66v37.84l1919,1v-68.63C1875.38,2478.17,1829.78,2508.33,1783.49,2509.32Z" transform="translate(-0.5 -2466.03)"/></svg>