<svg id="arrow-down" xmlns="http://www.w3.org/2000/svg" viewBox="0 0 36.34 45.18" width="50px" height="50px"><defs><style>.cls-1{fill:#e54f38;}</style></defs><path class="cls-1" d="M842.79,146.82c.09,0,.28,0,.25,0l-.33-.05Z" transform="translate(-823.63 -106.5)"/><path class="cls-1" d="M843.42,146.44a1.45,1.45,0,0,0-.75-.12c.32.07.18.09.56.17,0,.06-.11.1-.23.09.09,0-.07.08.13.12s.27-.17.06-.27A.59.59,0,0,1,843.42,146.44Z" transform="translate(-823.63 -106.5)"/><path class="cls-1" d="M844.07,140.73l0,0Z" transform="translate(-823.63 -106.5)"/><path class="cls-1" d="M844.33,137.19s0,0,.07.05S844.36,137.19,844.33,137.19Z" transform="translate(-823.63 -106.5)"/><path class="cls-1" d="M844.71,136.6l0,0S844.74,136.61,844.71,136.6Z" transform="translate(-823.63 -106.5)"/><path class="cls-1" d="M844.07,140.73l.1-.09C844.07,140.63,844.09,140.69,844.07,140.73Z" transform="translate(-823.63 -106.5)"/><path class="cls-1" d="M842.64,145.63a.12.12,0,0,0,.08.05l0,0Z" transform="translate(-823.63 -106.5)"/><path class="cls-1" d="M844.3,142.3v0l.13,0Z" transform="translate(-823.63 -106.5)"/><path class="cls-1" d="M844.32,143.5s-.27,0-.39-.06c.12,0,.17,0,.19.07Z" transform="translate(-823.63 -106.5)"/><path class="cls-1" d="M843.78,145.39l0,0Z" transform="translate(-823.63 -106.5)"/><path class="cls-1" d="M844.38,141.44h0Z" transform="translate(-823.63 -106.5)"/><path class="cls-1" d="M843.07,107.87h0S843.07,107.86,843.07,107.87Z" transform="translate(-823.63 -106.5)"/><path class="cls-1" d="M844.49,106.52l0,0h.15Z" transform="translate(-823.63 -106.5)"/><path class="cls-1" d="M845.1,135.5h0S845.12,135.52,845.1,135.5Z" transform="translate(-823.63 -106.5)"/><path class="cls-1" d="M845.13,125.33c-.25.11-.31-.19-.6,0C844.64,125.29,845,125.47,845.13,125.33Z" transform="translate(-823.63 -106.5)"/><path class="cls-1" d="M842.67,145.6v0A0,0,0,0,0,842.67,145.6Z" transform="translate(-823.63 -106.5)"/><path class="cls-1" d="M844.53,125.31Z" transform="translate(-823.63 -106.5)"/><path class="cls-1" d="M845,133l-.12,0Z" transform="translate(-823.63 -106.5)"/><path class="cls-1" d="M844.55,134.84l0-.05S844.55,134.82,844.55,134.84Z" transform="translate(-823.63 -106.5)"/><path class="cls-1" d="M844.62,132s.06,0,0-.07h0S844.66,131.92,844.62,132Z" transform="translate(-823.63 -106.5)"/><path class="cls-1" d="M844.64,130.92l-.06,0,0,0Z" transform="translate(-823.63 -106.5)"/><path class="cls-1" d="M843.13,111a1.09,1.09,0,0,1,.25,0C843.18,111,843.11,110.81,843.13,111Z" transform="translate(-823.63 -106.5)"/><path class="cls-1" d="M842.79,145.63c-.07,0-.1,0-.12,0l0,0Z" transform="translate(-823.63 -106.5)"/><path class="cls-1" d="M842.4,131.86l.05-.17A.34.34,0,0,0,842.4,131.86Z" transform="translate(-823.63 -106.5)"/><path class="cls-1" d="M843,118.36l0,0S843,118.35,843,118.36Z" transform="translate(-823.63 -106.5)"/><path class="cls-1" d="M842.42,131.21a.47.47,0,0,0,.19-.09l-.07,0Z" transform="translate(-823.63 -106.5)"/><path class="cls-1" d="M843.38,111Z" transform="translate(-823.63 -106.5)"/><path class="cls-1" d="M842.74,109.86c0,.16.36.09.57.12.1.19-.27.08-.46.14.09.12.43.22.42.3a.29.29,0,0,1-.16,0c.29.13,0,.37.37.52l-.1,0a3,3,0,0,1,.51,0c0,.07.23.13,0,.15,0,0-.09,0-.16-.07l.1.08c-.35,0-.12-.11-.37-.11.1.14.39.32.29.42-.34,0-.11-.26-.42-.12l.14-.16c-.54.11,0-.1-.54,0-.1.22.17.25.06.47.19.06.28,0,.47,0,.33.32-.86.22-.41.47.22.06.65.1.42.25l-.38-.06c-.05.21.55.14.28.35-.15,0-.12-.17-.17-.14-.3.14.22.11.22.22l-.34,0c0,.23.28.49.34.74-.1,0-.21-.06-.31,0,.16.32-.06.68-.27,1l.29.13s-.13,0-.19,0c-.11.12.19,0,.3.08s-.17.08-.26,0c.25.21.53.61.21.83l-.09,0c-.12.18.6.22.32.37l0,0c-.14.37.12.8-.33,1.07.42.07-.2.37.39.41-.3.21-.4.15-.6.45,0,.08.36.13.42.23h-.31l.32.15-.37.06.08.1a.29.29,0,0,1,.23-.07c.13.15-.22.35-.38.35l.25.35a.49.49,0,0,1-.24-.11c.31.19-.33,0,0,.2a.93.93,0,0,1,.24,0,.29.29,0,0,0-.12.42l-.21,0c-.06.25.09.54.08.83.1-.1.47-.07.5,0l-.33,0c.2.06.13-.09.37,0,0,.11-.37.06-.47,0l.11.13a1,1,0,0,1-.28,0c.21.06-.33.22,0,.31h-.1a5.15,5.15,0,0,0,.11.65c.29,0,.22.11.45.18-.1.17-.32.36-.3.57s.23,0,.4.12c-.26,0-.24.21-.42.1a1.25,1.25,0,0,0,.24.64c.11,0,.16-.07.24-.05s-.11.13-.23.12h0c.38.36-.76.8-.24,1.1l0,0,.27.3c0,.13-.19-.09-.35,0,.42.33-.08.5.2.77-.76.18,0,.71-.45,1l.18,0c.17.08-.11.09-.15.14.14,0,.16-.08.26,0,.2.6-.29,1.23-.46,1.83-.06.23.91.15.48.43l-.33-.09c.39.46,0,.92.29,1.37-.07,0-.17,0-.17-.07-.24.08,0,.34.18.35,0,.07-.18,0-.28,0s.3.24.06.29a.16.16,0,0,1-.1-.05c.12.06,0,.28.25.23-.14.16.11.32-.06.45.31.09-.15.28.29.32-.46,0-.38.28-.17.39-.13,0-.14.09-.33,0,0,.12.09.23.32.22-.55.21.42.45-.27.56a4.28,4.28,0,0,1,.49,1c-.45,0,0-.36-.51-.35.18.3.56.49.44.79-.06.07-.19-.05-.27-.08.18.31-.05.58.19.86a.22.22,0,0,1-.13-.06s-.06.12.14.12l0,0c.3-.08.61.22.77.24-.59-.11-.15.26-.89.1a.42.42,0,0,0,.27.08c0,.05-.12.06-.28,0,.11.19.33.13.32.3a1.29,1.29,0,0,1-.25-.06c.19.09.38.18.29.33-.06,0-.14,0-.13,0,0,.25.5.44.31.71-.43-.09-.15.09-.52.09l.11.15.18-.05c0,.13.26.25.14.36l-.16-.1.07.24.14-.13c.19.13.48,0,.37.17,0,0,0,.12-.23.19h0c.12.06.24.13.14.23s-.41,0-.49,0c.31.07.08.31.41.39a.86.86,0,0,0-.31,0l.25.06a.37.37,0,0,1-.28.05c-.05.18.48-.05.27.16,0,0-.06,0-.1-.05-.11.22.15.42,0,.62-.37.05-.08-.18-.4-.12.06.29.43.6.34.88l0,0c.53,0-.27.2,0,.34a.73.73,0,0,0-.23,0c-.09.19.12.39.28.68l-.14,0c-.12.11-.07.29-.14.41.14,0,.11.11.31.07-.78.35.4.72-.25,1,0,0-.12-.1-.12-.07l.12.29c.23,0,.14,0,.32-.09s.24.12.24.19c-.15-.13-.37,0-.5,0a1.55,1.55,0,0,0,.22,0c-.42.14.46,0,.18.23h-.12c.06.07.22.15.18.23-.27,0-.12-.09-.34-.1,0,.12.5.24.23.34-.07,0-.07-.12-.15-.17-.31.1-.23.12-.28.2h0l-.14.19.08-.05c.7.16.12.29.58.49-.43-.19-.25,0-.56-.05-.08,0-.18.11-.26.09.24.1-.2.15.16.28-.1,0,0,.1-.26.07.07.12.17,0,.29,0,.33.19-.41.42,0,.69.18.23.51.28.67.49a.48.48,0,0,1-.36-.07c-.14.11-.12.2,0,.31a.43.43,0,0,0-.27,0c0,.09.36.07.21.18a1.86,1.86,0,0,1-.39-.1c.09.11.27.21.35.32-.17,0-.25-.07-.36-.11a.54.54,0,0,0,.41.35l.1-.07s-.23,0-.28,0c-.21-.1.1-.14.2-.15l.06.08c.57-.06-.09-.3-.05-.45l.41.07-.34-.16c.11,0,.34,0,.4,0,.21-.1-.14-.1.09-.19a.08.08,0,0,1,.07,0l-.12-.11c.09,0,.29,0,.23.05.25-.18-.3-.31,0-.37l0,0c-.13-.27-.31,0-.66-.24l.76-.12-.31,0s0-.08.16-.06c-.21-.11-.13,0-.33-.05.28-.13-.12-.36.37-.38-.23,0-.19.12-.34,0,.52,0-.09-.17.15-.28s.13.15.37,0c-.45-.08.11-.23,0-.33-.36,0-.14-.22-.26-.39.12,0,.21-.31.34-.47h.06c-.37,0-.29-.2-.37-.32a.68.68,0,0,1,.41.1v-.11c-.12,0-.18-.06-.22-.14l.27,0c0-.15-.31-.31-.12-.49-.26,0-.72.13-.89-.07.14,0,.38,0,.43.05s-.11-.07,0-.1l.23.09c.11-.09-.19-.05-.17-.12.2,0,.14-.05.3,0s-.08.06,0,.09a.46.46,0,0,1,.31-.2c-.11,0-.27,0-.29-.06s.24,0,.34-.13c-.13,0,0-.13-.29-.14,0,0,.15,0,.23-.06-.13-.08,0-.35-.35-.27h0c-.29-.25.18-.51.06-.76h.09c-.1-.15,0-.33-.26-.44,0,0,.18-.1.3-.08-.08-.11-.19-.13,0-.28.17.11.15,0,.12.11.09-.14.25-.17,0-.33.25.06.32-.11.24-.18l-.18.1a.25.25,0,0,1,0-.21l.33,0c.42-.29-.67-.56,0-.77-.23-.08-.17.16-.44.08,0-.13.53-.26.53-.31.19-.18-.48-.19-.35-.38-.12,0-.43,0-.54-.11s.5-.16.59-.07,0,.05-.07.05a.18.18,0,0,0,.22,0l-.11,0c.12-.07.11-.26.3-.21-.11-.1-.19-.05-.25,0,.17-.17,0-.28.13-.46-.07,0-.21.05-.2,0,.15-.27-.23-.13-.27-.31.18-.1.43.05.28-.14.12-.11.31,0,.41,0-.22-.17.16-.3.2-.4l.1.09a.15.15,0,0,1-.06-.14l-.23.05c0-.05,0-.1.14-.09-.16-.06-.4,0-.61-.08.13-.07-.12-.21.19-.23-.11.21.32,0,.37.17,0,0,0-.08,0-.13a.11.11,0,0,1,.08,0c.29-.2-.35-.1-.34-.32.17,0,.34,0,.3-.07s-.3,0-.43-.05c.14-.13-.1-.15-.08-.22l-.07.08c-.18,0-.15-.1-.21-.2.14,0,.1.09.16.06-.31-.12.33-.24.12-.39.12-.06.33,0,.42,0-.23-.18.24-.18.06-.36-.24.05-.18.06-.41-.07l.16.29-.34-.19c0,.08.14.18.1.23s-.13-.08-.33,0c.36-.11-.21-.24,0-.37l.59,0c.27-.2-.29-.37-.14-.64l-.1.09c-.24-.05,0-.17-.13-.26a.9.9,0,0,0,.4-.07c-.15,0,0-.2-.38-.23l.26-.11c.12-.21-.55-.26-.48-.47.21.07.36,0,.51.12,0-.07,0-.13-.1-.13.12,0-.26-.2-.07-.26-.09,0-.29,0-.28-.12a.31.31,0,0,1,.1,0c-.1,0-.13-.12-.35-.06.62-.2,0-.6.5-.77a1.75,1.75,0,0,1-.13-.47c.06,0,.1,0,.08,0,.19-.19-.57-.13-.36-.34s.17.11.3.05c.65,0-.09-.26.3-.4l0,0c.23-.11-.24-.28-.18-.46h.09a.94.94,0,0,1-.52-.55c.26.06.14.09.39.06,0-.08-.41,0-.48-.15a1.58,1.58,0,0,1,.54-.16v.15c.36-.07,0-.19.06-.27h.15c0-.22-.43-.23-.4-.47l-.12,0c-.38-.14.22-.11-.06-.25l.39,0a2.22,2.22,0,0,1-.44-.47,2.3,2.3,0,0,1,.61.4.33.33,0,0,0-.22-.34s.13.08.07.11c-.31-.11-.46-.25-.45-.43.77,0,.21-.44.81-.55-.28-.31.13-.6.09-1-.59.11,0-.1-.62-.09,0-.09,0-.12,0-.12l.37-.25c.18,0,.13.09.27.08.05-.18.26-.07.43-.18-.22,0-.31-.07-.23-.18l-.28.14c-.32-.26.52-.2.2-.47l.19.09c-.11-.13,0-.48-.47-.62.07,0,.24,0,.28,0,.08-.31-.51-.71-.2-.94l.15,0c0-.06-.28-.1-.13-.17s.15,0,.16,0-.26-.16-.17-.24l.17.07c.2-.3-.4-.48-.5-.73a.69.69,0,0,0,.67-.35h.06c.06-.36-.35-.61-.52-.95.49-.19.22-.68.5-1a.47.47,0,0,1-.39-.08c.09-.07-.3-.22.1-.2v0c.39-.05.29-.21.3-.33l-.52,0c.77-.31-.26-.86.43-1-.13-.08-.13-.17-.26-.25h.28a.84.84,0,0,0,.06-.59l.2.06c0-.15-.81-.21-.83-.35l.43,0c0-.27.37-.52,0-.79.06,0,.18,0,.2.06,0-.12.3-.47-.29-.44.38,0,0-.27-.12-.42l.28,0c-.35-.13-.45-.13-.54-.3s.22,0,.15,0c.15-.13-.26-.11-.11-.27l.18.07c0-.14-.07-.13-.28-.21s.08-.25.33-.27c-.15,0-.36-.1-.28-.18a.26.26,0,0,1,.18,0c.19-.22-.32-.35,0-.5a.54.54,0,0,0,.17,0c0,.18,0,.33-.05.31.25,0,.3-.14.65,0-.19-.12-.6-.33-.48-.47l.09,0,0,0s0-.06,0-.09.08-.08.08-.12c.21,0,.12-.16.13-.24-.28,0-.23-.09-.47,0,0,0,0,0,.05.07s0,0,0,0h0s0,.11,0,.18c-.15-.06-.26-.12-.11-.2l-.45-.11c.4-.09.61-.28.85-.3-.15-.22-.09-.52-.61-.67-.07-.07.15-.07.24-.09s0,.08.11.1c-.13-.13,0-.38-.41-.41.17-.16.34.09.28-.13l.12,0c.6-.41-.93-.72-.16-1.17a.29.29,0,0,1-.13.05c.35-.54-.29-1.13.25-1.65.11-.15-.12-.17-.3-.27l.3,0-.34-.17c-.25-.23.75-.37.28-.67l-.21,0c0-.1-.11-.33.12-.3,0,0-.21,0-.1-.08H845l-.27-.26c.12-.19.63,0,.67-.24a.92.92,0,0,0-.56-.27s-.1.11-.26.11l-.08-.1a2,2,0,0,0-1.27.11l.28.17-.23.05v-.14c-.22.08,0,.13.1.19a.56.56,0,0,0-.25.06l.44.18c-.18,0-.36-.08-.46,0,.2.08.41-.06.54.07-.21.07-.39,0-.21.14a.36.36,0,0,1-.25,0c.15.09.06.22.31.27-.27.08.06.28-.38.26.1,0,.34.16.36.23-.53-.15,0,.29-.61.24.48.11.21.37.46.56,0,0-.11,0-.08-.05s-.19.13-.28.2c.39,0,.48.18.72.27-.38.12-.46-.09-.83,0,.32,0,.32.22.58.18a1.09,1.09,0,0,1-.44.13c.49,0,.08.09.38.17-.25.14-.46,0-.32.19A.37.37,0,0,1,842.74,109.86Zm.76,3.66h0a.45.45,0,0,0,0-.08A.45.45,0,0,1,843.5,113.52Zm0,.3a.28.28,0,0,0,0-.13c.1,0,.2,0,.2,0S843.58,113.78,843.5,113.82Zm2-.6s0,.07-.07.07a.41.41,0,0,0,0-.08h0Z" transform="translate(-823.63 -106.5)"/><path class="cls-1" d="M845.1,113.13s0,0,0,0l-.07,0,.09,0Z" transform="translate(-823.63 -106.5)"/><path class="cls-1" d="M844,140.78h0Z" transform="translate(-823.63 -106.5)"/><polygon class="cls-1" points="19.23 11.52 19.3 11.53 19.24 11.5 19.23 11.52"/><path class="cls-1" d="M843,142.43l-.08,0Z" transform="translate(-823.63 -106.5)"/><path class="cls-1" d="M842.94,143.16l-.11.1Z" transform="translate(-823.63 -106.5)"/><path class="cls-1" d="M842.78,143.71l.12,0h-.12Z" transform="translate(-823.63 -106.5)"/><path class="cls-1" d="M842.66,134.83s0,0,0,0S842.62,134.79,842.66,134.83Z" transform="translate(-823.63 -106.5)"/><path class="cls-1" d="M843.26,137.49l-.13-.09S843.1,137.48,843.26,137.49Z" transform="translate(-823.63 -106.5)"/><path class="cls-1" d="M842.4,131.87Z" transform="translate(-823.63 -106.5)"/><path class="cls-1" d="M843.14,137.28c-.06,0,0,.08,0,.12S843.18,137.32,843.14,137.28Z" transform="translate(-823.63 -106.5)"/><path class="cls-1" d="M842.6,146.13v0h0Z" transform="translate(-823.63 -106.5)"/><path class="cls-1" d="M842.63,146.16l0,0S842.66,146.16,842.63,146.16Z" transform="translate(-823.63 -106.5)"/><path class="cls-1" d="M842.73,146.25l-.07-.06S842.65,146.24,842.73,146.25Z" transform="translate(-823.63 -106.5)"/><path class="cls-1" d="M842.75,145.39h0Z" transform="translate(-823.63 -106.5)"/><path class="cls-1" d="M842.72,145.17c0,.05-.22.13-.16.2h.08C842.49,145.34,842.89,145.22,842.72,145.17Z" transform="translate(-823.63 -106.5)"/><path class="cls-1" d="M844,144.26l-.08.19c.11,0,.25-.07.28,0C844.53,144.23,844,144.51,844,144.26Z" transform="translate(-823.63 -106.5)"/><path class="cls-1" d="M844.17,143.68c.05.1.16,0,.22,0S844.27,143.61,844.17,143.68Z" transform="translate(-823.63 -106.5)"/><path class="cls-1" d="M844.28,139.46l.25,0C844.5,139.4,844.43,139.48,844.28,139.46Z" transform="translate(-823.63 -106.5)"/><polygon class="cls-1" points="19.34 32.13 19.18 32.2 19.41 32.24 19.34 32.13"/><polygon class="cls-1" points="21.17 31.7 21.21 31.73 21.12 31.6 21.17 31.7"/><path class="cls-1" d="M844.88,131.11l-.31,0C844.62,131.18,845,131.2,844.88,131.11Z" transform="translate(-823.63 -106.5)"/><path class="cls-1" d="M844.64,128.05c.16,0,.26-.12.11-.17S844.6,128,844.64,128.05Z" transform="translate(-823.63 -106.5)"/><polygon class="cls-1" points="21.73 12.39 21.84 12.46 21.75 12.34 21.73 12.39"/><path class="cls-1" d="M860,136.45c0-.08-.18-.22-.21-.14l.19.28Z" transform="translate(-823.63 -106.5)"/><path class="cls-1" d="M859.23,136.29a1.3,1.3,0,0,0,.41.64c-.15-.29,0-.2-.24-.54,0-.08.16,0,.23.1,0-.08.13,0,0-.2s-.33-.06-.28.17A.75.75,0,0,1,859.23,136.29Z" transform="translate(-823.63 -106.5)"/><path class="cls-1" d="M854,140.27h.06A.06.06,0,0,0,854,140.27Z" transform="translate(-823.63 -106.5)"/><path class="cls-1" d="M850.83,142.83a.06.06,0,0,0,0-.08S850.81,142.82,850.83,142.83Z" transform="translate(-823.63 -106.5)"/><path class="cls-1" d="M850.07,143h0S850.06,143,850.07,143Z" transform="translate(-823.63 -106.5)"/><path class="cls-1" d="M854,140.27h-.15C853.91,140.35,853.93,140.28,854,140.27Z" transform="translate(-823.63 -106.5)"/><path class="cls-1" d="M859.09,137.49a.2.2,0,0,0,0-.1.14.14,0,0,1,0,.06Z" transform="translate(-823.63 -106.5)"/><path class="cls-1" d="M855.15,138.88l0,0-.07-.12Z" transform="translate(-823.63 -106.5)"/><path class="cls-1" d="M856.14,137.92s.15.23.22.33a.41.41,0,0,1-.08-.19A1.82,1.82,0,0,0,856.14,137.92Z" transform="translate(-823.63 -106.5)"/><path class="cls-1" d="M858.1,136.84v0Z" transform="translate(-823.63 -106.5)"/><path class="cls-1" d="M854.37,139.48l-.07-.06Z" transform="translate(-823.63 -106.5)"/><path class="cls-1" d="M825.05,137.35v0S825,137.35,825.05,137.35Z" transform="translate(-823.63 -106.5)"/><polygon class="cls-1" points="0.09 29.24 0.12 29.23 0.14 29.07 0.09 29.24"/><path class="cls-1" d="M848.88,143.6h0S848.89,143.57,848.88,143.6Z" transform="translate(-823.63 -106.5)"/><path class="cls-1" d="M842.82,145.62c-.12.26-.39,0-.49.35C842.41,145.89,842.79,145.85,842.82,145.62Z" transform="translate(-823.63 -106.5)"/><path class="cls-1" d="M859,137.49l0,0S859,137.5,859,137.49Z" transform="translate(-823.63 -106.5)"/><path class="cls-1" d="M842.33,146h0v0Z" transform="translate(-823.63 -106.5)"/><path class="cls-1" d="M846.81,145.67l.11.07Z" transform="translate(-823.63 -106.5)"/><path class="cls-1" d="M848.71,144.52h0Z" transform="translate(-823.63 -106.5)"/><path class="cls-1" d="M846.23,146.72s-.07,0-.07,0l0,0S846.18,146.7,846.23,146.72Z" transform="translate(-823.63 -106.5)"/><path class="cls-1" d="M845.35,147.5l.06,0v0Z" transform="translate(-823.63 -106.5)"/><path class="cls-1" d="M828.38,138.09a1.09,1.09,0,0,1,0-.26C828.36,138,828.18,138,828.38,138.09Z" transform="translate(-823.63 -106.5)"/><path class="cls-1" d="M859,137.37c0,.06.06.09.06.12v0Z" transform="translate(-823.63 -106.5)"/><path class="cls-1" d="M847.67,148.4l-.17.1A.42.42,0,0,0,847.67,148.4Z" transform="translate(-823.63 -106.5)"/><path class="cls-1" d="M835.56,141.75h-.06A0,0,0,0,0,835.56,141.75Z" transform="translate(-823.63 -106.5)"/><path class="cls-1" d="M847.11,148.9a.68.68,0,0,0-.2-.08.36.36,0,0,0,0,.07Z" transform="translate(-823.63 -106.5)"/><path class="cls-1" d="M828.41,137.83Z" transform="translate(-823.63 -106.5)"/><path class="cls-1" d="M827.09,138.13c.16.05.17-.33.27-.52s0,.28,0,.48c.15-.06.34-.36.43-.32a.34.34,0,0,1,0,.16c.22-.25.38.1.65-.2,0,0,0,.07,0,.1a3.08,3.08,0,0,1,.13-.49c.08,0,.21-.18.17.06-.05,0-.08.07-.13.13l.11-.07c0,.36-.14.08-.22.32.18-.05.45-.26.54-.13-.09.33-.31,0-.26.35l-.13-.18c0,.55-.1-.07-.16.51.2.18.32-.07.51.1.12-.16.08-.27.2-.43.45-.19,0,.89.35.56.14-.19.33-.58.41-.29l-.2.33c.2.13.33-.46.47-.12-.1.12-.22,0-.21.1,0,.34.19-.16.3-.11l-.1.32c.25.05.6-.07.89,0a.41.41,0,0,0-.13.28c.39,0,.66.37.87.7l.25-.21s0,.14-.07.18.1-.16.21-.24,0,.2-.08.25c.33-.12.84-.14.91.25l-.09,0c.11.2.49-.41.51-.09l-.06,0c.31.3.84.34.87.88.28-.32.24.38.59-.1,0,.38-.07.42.09.78,0,.07.31-.23.44-.21l-.17.25.3-.17-.15.34h.13a.28.28,0,0,1,.07-.23c.22,0,.2.4.1.53l.47,0a.45.45,0,0,1-.25.12c.36-.13-.16.28.16.16,0-.07.12-.14.16-.18a.34.34,0,0,0,.29.38l-.15.14c.18.22.52.3.76.5,0-.15.24-.41.34-.38l-.19.27c.18-.11,0-.15.26-.26.07.1-.18.33-.3.37h.19c-.06.08-.12.09-.21.18.18-.11,0,.41.26.21l-.06.07c.23.22.41.23.62.39.19-.2.22-.08.44-.2.08.2.07.51.25.65s.2-.13.37-.2c-.17.19,0,.34-.21.38a1.44,1.44,0,0,0,.67.33c.05-.1.06-.16.14-.21s0,.18-.08.26h0c.56,0,0,1.18.64,1.06h0l.43.07c.06.14-.21.05-.26.24.55,0,.29.47.69.52-.48.63.53.58.29,1.12l.14-.12c.18,0,0,.14,0,.21.1-.09.08-.16.19-.18a1.3,1.3,0,0,1,.31.39,1.63,1.63,0,0,1,.11.23,1.84,1.84,0,0,0,.14.34c.24.62.48,1.35.81,2.05.25.52.51-.93.63.1l-.19.32a1.07,1.07,0,0,1,.22.15c.07,0,.12.21.22,0s.36-.34.53-.49a3.94,3.94,0,0,0,1-1.07c0,.12,0,.22,0,.28.23.12.56-.48.45-.65.11-.07.11.14.23.17s.18-.57.41-.45c0,0,0,.09,0,.13,0-.19.28-.21.06-.38.23,0,.19-.34.42-.32-.14-.29.34-.1.07-.45.29.35.49,0,.44-.19.06.13.17,0,.26.21a.25.25,0,0,0,0-.4c.55.24.09-.66.66-.24a4.53,4.53,0,0,1,.52-1.15c.29.35-.28.3,0,.65.14-.37,0-.8.36-.94.11,0,.09.18.12.25.14-.37.53-.41.6-.8a.28.28,0,0,1,0,.13s.15,0,0-.19v.08c-.27-.16-.23-.62-.33-.75.31.51.33-.09.7.57a.39.39,0,0,0-.12-.26c.07,0,.14,0,.19.2.09-.23-.11-.34,0-.47.07.07.06.13.13.23-.06-.21-.11-.42.07-.47s.1.1.06.13c.19-.22,0-.71.38-.78.22.38.18,0,.44.3l.05-.2-.17-.09c.11-.09,0-.38.21-.37l0,.18.16-.23h-.21c0-.25-.33-.35-.11-.4,0,.06.11-.1.31,0h0c0-.14-.06-.28.09-.29s.26.33.32.37c-.15-.28.2-.29,0-.6a1.08,1.08,0,0,0,.19.25l-.12-.23c.11,0,.14,0,.23.16.19-.1-.36-.31,0-.32,0,0,0,.05,0,.1.25-.08.25-.43.5-.49.3.24-.09.2.18.39.2-.27.21-.79.5-.93h-.07c-.32-.43.35,0,.3-.26,0,.06.16.26.13.2.22-.08.24-.39.38-.73l.06.13c.17,0,.29-.17.44-.22-.06-.13,0-.16-.16-.28.84.3.33-.85,1-.62,0,0,0,.16,0,.14l.16-.31c-.18-.15-.13-.07-.3-.16s-.06-.27,0-.32c0,.21.25.27.38.33a2.09,2.09,0,0,1-.14-.17c.39.19-.29-.37.06-.31l.07.1c0-.11,0-.28.07-.32.21.18,0,.16.16.33.08-.1-.15-.55.12-.43,0,.09-.05.14,0,.24.3.15.26.08.36,0h0l.26,0-.1,0c-.34-.63.16-.32,0-.81.13.47.14.21.33.45.1,0,.23,0,.26.12-.08-.25.26,0,.13-.33.07.06.09-.07.24.13.05-.15-.14-.11-.21-.21-.07-.38.63,0,.55-.56.07-.31-.12-.59,0-.87.17.06.19.31.19.31.19,0,.25-.06.26-.23a.48.48,0,0,0,.21.18c.06-.09-.19-.31,0-.29a1.73,1.73,0,0,1,.18.36c0-.15,0-.36,0-.51.13.11.11.25.15.36a.61.61,0,0,0,0-.58h-.13c0-.05.17.15.17.21.06.24-.18,0-.25,0l0-.11c-.44-.37-.19.3-.34.39l-.23-.36.1.37c-.1,0-.27-.21-.25-.31-.23-.07,0,.18-.22.08a.07.07,0,0,1,0-.06V137c0-.08-.21-.21-.11-.21-.32,0-.06.46-.33.28v0c-.13.3.18.25.25.66l-.61-.46.18.25s-.09,0-.17-.06c.06.23.11.08.19.27-.3-.11-.22.37-.57,0,.11.21.23,0,.21.27-.38-.36-.07.19-.33.1s0-.21-.22-.3c.24.4-.27.1-.3.24.24.28-.08.28-.14.5-.08-.1-.41.09-.63.11l0,0c.21.3,0,.37,0,.52a.62.62,0,0,1-.19-.37l-.1.08a.3.3,0,0,1,0,.27l-.16-.23c-.12.13,0,.47-.32.48.16.2.6.42.54.7-.1-.1-.26-.27-.25-.36s0,.14,0,.12l-.08-.24c-.15,0,.09.18,0,.22-.13-.15-.13-.07-.23-.19s.11,0,.08-.06a.47.47,0,0,1-.38-.08c.08.08.18.2.15.27s-.2-.14-.34-.15c.06.13-.12.09.08.31,0,0-.14-.06-.21-.11,0,.16-.28.3,0,.47h0v0h0c0,.41-.56.27-.69.55l-.06-.07c-.05.19-.24.3-.19.53,0,0-.21-.05-.27-.15,0,.14,0,.23-.23.23,0-.21-.13-.08,0-.18-.19.05-.32,0-.27.28-.13-.23-.31-.16-.32,0l.21.06a.37.37,0,0,1-.19.16l-.19-.28c-.53-.07,0,.93-.65.6.08.23.25,0,.37.25-.15.07-.59-.17-.63-.14-.28,0,.17.49-.08.55.1.07.33.29.28.48s-.48-.24-.47-.38.06,0,.09,0,0-.15-.11-.2l.07.1c-.14,0-.3.11-.39-.07,0,.17.09.18.2.17-.26,0-.24.21-.47.26.07,0,.18.11.16.13-.33.1.05.26-.08.44-.2-.06-.25-.35-.31-.1-.17,0-.23-.22-.25-.32,0,.29-.37.12-.48.16v-.14a.17.17,0,0,1-.08.15l.2.14c-.07,0-.11,0-.17,0,.06.16.3.27.35.51-.14,0-.1.25-.33,0,.26-.09-.23-.22-.1-.4a.11.11,0,0,1-.12.09.09.09,0,0,1,0-.07c-.36-.06.16.33,0,.49-.09-.15-.26-.21-.27-.16s.23.19.26.35c-.21,0-.06.19-.13.24l.11,0c.09.16,0,.19,0,.31-.09-.1,0-.14,0-.16.11.31-.42-.06-.41.21-.14,0-.23-.24-.33-.26,0,.3-.32,0-.34.23.2.14.17.09.22.36l.13-.35.08.4c.07-.06,0-.25.12-.26.06.22,0,.16.19.28-.34-.18-.06.33-.34.26l-.39-.45c-.35,0-.11.51-.43.6h.14c.12.2-.12.15-.13.29a.86.86,0,0,0-.33-.23c.1.11-.18.14.06.45l-.27-.1c-.26.08.16.6-.06.71-.09-.21-.26-.24-.25-.46-.06,0-.14.07,0,.18-.11-.07,0,.34-.16.25,0,.09.16.25.08.29a.27.27,0,0,1-.06-.07c.06.07,0,.19.19.3-.6-.29-.48.49-1,.24a2.57,2.57,0,0,1-.29.44c0-.05-.06-.07,0-.07-.19-.07.27.52,0,.48-.21-.23,0-.22-.11-.29-.17-.28-.18-.25-.19-.17s0,.22-.11,0v-.05c-.09-.22,0,.37-.15.4v-.12a2.17,2.17,0,0,1-.34,1,2.62,2.62,0,0,0,.11-.62,3.22,3.22,0,0,0-.07.36c0,.15-.07.41-.11.37a4,4,0,0,1,.08-.9l0,.05c.08-.56-.06-.07-.06-.2l.06-.21c-.07,0-.25.45-.33.25l0,.15c-.28.29.07-.3-.15-.11L844,148a.62.62,0,0,1-.51,0,3.4,3.4,0,0,0,.59-.21s-.09-.1-.26,0c0,0,.13-.05.09,0-.26.16-.44.16-.56,0,.66-.39-.13-.54.28-1-.43-.14-.31-.66-.61-1-.39.48-.09-.09-.56.3-.09-.05-.11-.09-.08-.12l.11-.45c.1-.17.16,0,.26-.1-.09-.21.15-.24.19-.45-.15.16-.29.13-.3,0l-.11.32c-.44,0,.24-.54-.21-.57l.21,0c-.19,0-.38-.45-.85-.24,0-.07.14-.21.22-.19-.2-.33-.93-.28-.92-.68l.13-.09c-.08,0-.29.11-.24-.06s.13-.08.11-.11-.31.05-.32-.08l.18-.06c-.11-.4-.68-.11-1-.25a.64.64,0,0,0,.14-.76l0,0c-.28-.33-.79-.22-1.19-.35.15-.53-.5-.68-.63-1.14,0,.1-.22.27-.3.26s-.39.08-.13-.23l0,0c.19-.36,0-.4-.14-.5l-.34.41c.15-.84-1-.36-.74-1-.15.05-.25,0-.39,0l.16-.23a1.09,1.09,0,0,0-.57-.42l.16-.14c-.14-.11-.63.56-.78.49l.19-.38c-.27-.16-.34-.66-.81-.48,0,0,.11-.15.16-.14-.12-.08-.36-.53-.6,0,.18-.33-.26-.19-.49-.13l.16-.23c-.3.24-.35.33-.56.32,0,0,.07-.22.09-.12-.07-.21-.23.17-.33-.05l.14-.12c-.13-.09-.16,0-.33.14s-.24-.19-.15-.43c-.09.13-.26.28-.31.17a.33.33,0,0,1,.11-.15c-.16-.28-.49.12-.54-.21a.32.32,0,0,0,0-.16c.19.1.34.19.32.2.11-.23,0-.35.25-.61-.22.11-.61.39-.71.21,0,0,0,0,0-.09l0,0s-.07,0-.12,0-.05-.11-.1-.13c.07-.2-.13-.18-.21-.23-.1.27-.19.18-.18.43,0,0,0,0,.08,0h.05l0,0,.21.06c-.13.11-.24.19-.26,0l-.29.37c0-.4-.08-.69,0-.92-.3,0-.61-.15-1,.29-.1,0,0-.17,0-.26s.11,0,.16-.07c-.19.08-.44-.1-.6.24-.12-.22.22-.29,0-.32l.07-.09c-.29-.72-1.06.6-1.37-.26a.17.17,0,0,1,0,.14c-.53-.49-1.33-.07-1.82-.7-.16-.15-.23.08-.37.23l0-.3-.25.3c-.3.19-.3-.83-.73-.41v.21c-.11-.05-.39.06-.33-.17,0,0-.08.21-.11.1l0-.16-.34.22c-.2-.15.13-.61-.2-.7-.13,0-.41.41-.38.52s.12.11.1.27l-.12.07a1.87,1.87,0,0,0,0,1.28l.22-.25,0,.23h-.15c.06.22.14,0,.22-.07a.42.42,0,0,0,0,.25l.24-.41c0,.19-.13.35,0,.46.11-.19,0-.41.14-.52,0,.22,0,.38.13.22a.31.31,0,0,1-.09.24c.12-.13.25,0,.34-.26,0,.27.32,0,.23.41,0-.1.22-.3.3-.3-.25.48.3.1.15.64.21-.44.44-.12.69-.33,0,0-.06.1-.07.07s.1.21.15.32c.11-.38.3-.43.45-.64,0,.4-.19.42-.24.78.07-.31.31-.24.33-.51a1,1,0,0,1,0,.47c.14-.47.11-.06.28-.32.08.27-.09.45.11.35C827.28,138,827.09,138.13,827.09,138.13Zm4,.56h0l-.09,0Zm.31.15a.57.57,0,0,0-.13-.08c0-.09.08-.18.11-.16S831.42,138.74,831.43,138.84Zm.12-2.09c.07,0,.07.05.05.1h-.1l0,0Z" transform="translate(-823.63 -106.5)"/><path class="cls-1" d="M831.31,137.05h0v.07l.05-.07Z" transform="translate(-823.63 -106.5)"/><path class="cls-1" d="M854.06,140.27h0l0,0Z" transform="translate(-823.63 -106.5)"/><polygon class="cls-1" points="11.54 35.14 11.58 35.08 11.52 35.12 11.54 35.14"/><path class="cls-1" d="M856.14,139.71s0,0,.06,0Z" transform="translate(-823.63 -106.5)"/><path class="cls-1" d="M856.8,139.2h0Z" transform="translate(-823.63 -106.5)"/><path class="cls-1" d="M857.37,138.88l-.07-.1h0Z" transform="translate(-823.63 -106.5)"/><path class="cls-1" d="M850,145.89a0,0,0,0,0,0,0C850,146,850,146,850,145.89Z" transform="translate(-823.63 -106.5)"/><path class="cls-1" d="M851.82,143.39c0,.06,0,.12,0,.16S851.92,143.51,851.82,143.39Z" transform="translate(-823.63 -106.5)"/><polygon class="cls-1" points="24.05 41.9 24.05 41.89 24.04 41.91 24.05 41.9"/><path class="cls-1" d="M851.72,143.64c.08,0,.11,0,.11-.09S851.73,143.58,851.72,143.64Z" transform="translate(-823.63 -106.5)"/><path class="cls-1" d="M859.53,137.13h0l0,0Z" transform="translate(-823.63 -106.5)"/><path class="cls-1" d="M859.53,137.08V137S859.52,137.06,859.53,137.08Z" transform="translate(-823.63 -106.5)"/><path class="cls-1" d="M859.54,136.93v.1S859.59,137,859.54,136.93Z" transform="translate(-823.63 -106.5)"/><path class="cls-1" d="M858.81,137.6l.06.08A.33.33,0,0,0,858.81,137.6Z" transform="translate(-823.63 -106.5)"/><path class="cls-1" d="M858.64,137.79c.06,0,.26.06.28,0l0-.06C858.94,137.82,858.57,137.62,858.64,137.79Z" transform="translate(-823.63 -106.5)"/><path class="cls-1" d="M857,137.56l.21-.08c-.1-.06-.23-.13-.18-.22C856.62,137.2,857.24,137.41,857,137.56Z" transform="translate(-823.63 -106.5)"/><path class="cls-1" d="M856.39,137.89c.06-.11-.1-.12-.14-.17C856.26,137.85,856.26,137.88,856.39,137.89Z" transform="translate(-823.63 -106.5)"/><path class="cls-1" d="M852.78,141.1l-.16-.19C852.58,141,852.68,141,852.78,141.1Z" transform="translate(-823.63 -106.5)"/><polygon class="cls-1" points="29.34 36.21 29.5 36.27 29.38 36.07 29.34 36.21"/><polygon class="cls-1" points="27.72 35.21 27.72 35.16 27.67 35.33 27.72 35.21"/><path class="cls-1" d="M845.34,147.18l.23.21C845.58,147.31,845.35,147,845.34,147.18Z" transform="translate(-823.63 -106.5)"/><path class="cls-1" d="M844,148.13c.07-.19.11-.32,0-.19S844,148.16,844,148.13Z" transform="translate(-823.63 -106.5)"/><polygon class="cls-1" points="13.78 33.65 13.91 33.61 13.74 33.59 13.78 33.65"/></svg>