<svg id="plus" xmlns="http://www.w3.org/2000/svg" viewBox="0 0 34.68 41.3"><defs><style>.cls-1{fill:#e43b26;}</style></defs><path class="cls-1" d="M292.66,255.78c0,.06.19.05.23.06S292.61,255.78,292.66,255.78Z" transform="translate(-278.37 -214.55)"/><polygon class="cls-1" points="13.9 40.19 13.98 40.21 13.79 40.04 13.9 40.19"/><path class="cls-1" d="M292.35,253.78c-.37.07,0,.35-.11.51l-.08,0,.28.1C292.41,254.2,292.24,253.92,292.35,253.78Z" transform="translate(-278.37 -214.55)"/><path class="cls-1" d="M293.16,253.35c-.14,0-.11-.12-.05.11l0,0A.51.51,0,0,1,293.16,253.35Z" transform="translate(-278.37 -214.55)"/><path class="cls-1" d="M293.14,253.44c0,.1.12-.05,0,0Z" transform="translate(-278.37 -214.55)"/><path class="cls-1" d="M293.11,253l.11.14c.08,0,.11-.14.17-.09C293.33,252.89,293.25,252.91,293.11,253Z" transform="translate(-278.37 -214.55)"/><path class="cls-1" d="M292.86,252.83l0,.07S293,252.87,292.86,252.83Z" transform="translate(-278.37 -214.55)"/><path class="cls-1" d="M293,253.05l-.1-.15c-.06,0-.17,0,0,.07C292.83,253,292.93,253,293,253.05Z" transform="translate(-278.37 -214.55)"/><path class="cls-1" d="M292.94,253.13c-.09.07-.14.16-.25,0C292.71,253.4,293,253.39,292.94,253.13Z" transform="translate(-278.37 -214.55)"/><path class="cls-1" d="M292,253.71l-.11.09.11.09C291.93,253.84,292.1,253.71,292,253.71Z" transform="translate(-278.37 -214.55)"/><path class="cls-1" d="M293.36,252.18a1.67,1.67,0,0,0-.3,0l.08.11C293.19,252.26,293.25,252.17,293.36,252.18Z" transform="translate(-278.37 -214.55)"/><path class="cls-1" d="M293.06,252.2l-.12-.15C292.92,252.17,293,252.2,293.06,252.2Z" transform="translate(-278.37 -214.55)"/><polygon class="cls-1" points="14.09 38.22 14.34 38.48 14.09 38.18 14.09 38.22"/><polygon class="cls-1" points="15.05 37.08 15.22 37.18 14.97 37.01 15.05 37.08"/><path class="cls-1" d="M293.43,251.26c.14.07.25-.06.33,0,0-.1-.13-.2-.23-.29C293.58,251.07,293.56,251.15,293.43,251.26Z" transform="translate(-278.37 -214.55)"/><path class="cls-1" d="M293.38,250.84a1.06,1.06,0,0,0,.15.14A.69.69,0,0,0,293.38,250.84Z" transform="translate(-278.37 -214.55)"/><path class="cls-1" d="M293,251.8a.3.3,0,0,0,.23-.09l-.22,0Z" transform="translate(-278.37 -214.55)"/><path class="cls-1" d="M293,251.75h0l0-.13Z" transform="translate(-278.37 -214.55)"/><path class="cls-1" d="M293,251.82v0S293,251.81,293,251.82Z" transform="translate(-278.37 -214.55)"/><path class="cls-1" d="M292.69,252.41c-.11-.1-.22-.29-.42-.13C292.41,252.35,292.52,252.26,292.69,252.41Z" transform="translate(-278.37 -214.55)"/><path class="cls-1" d="M292.73,251.86l-.06.15c.05,0,.14,0,.19,0Z" transform="translate(-278.37 -214.55)"/><polygon class="cls-1" points="14.3 37.23 14.36 37.31 14.38 37.26 14.3 37.23"/><path class="cls-1" d="M293.15,251.08a.31.31,0,0,1-.09-.23.62.62,0,0,0-.09.26C293,251.13,293.15,251.18,293.15,251.08Z" transform="translate(-278.37 -214.55)"/><path class="cls-1" d="M293.06,251.4h0S293,251.4,293.06,251.4Z" transform="translate(-278.37 -214.55)"/><polygon class="cls-1" points="14.77 35.49 14.73 35.5 14.77 35.51 14.77 35.49"/><path class="cls-1" d="M292.93,251.12c-.05.06,0,.11.06.15a.3.3,0,0,1,0-.16S292.92,251.1,292.93,251.12Z" transform="translate(-278.37 -214.55)"/><path class="cls-1" d="M293.3,250.6a.69.69,0,0,0-.13.11C293.24,250.68,293.36,250.62,293.3,250.6Z" transform="translate(-278.37 -214.55)"/><path class="cls-1" d="M293.11,251.37h0C293.17,251.36,293.14,251.36,293.11,251.37Z" transform="translate(-278.37 -214.55)"/><path class="cls-1" d="M293.11,251.37a.58.58,0,0,0-.12-.1.34.34,0,0,0,.06.12Z" transform="translate(-278.37 -214.55)"/><path class="cls-1" d="M291.81,249.65c.19,0,.35.23.13.36.13.16.79.13,1.16,0-.08,0-.16,0-.26-.19-.11,0-.29.32-.45.17s.08-.16.2-.25c-.26.06-.33-.29-.7-.28l.11.19C291.94,249.68,291.86,249.61,291.81,249.65Z" transform="translate(-278.37 -214.55)"/><path class="cls-1" d="M293.05,250.34l0,.06c0-.07.13-.11.29-.19a.31.31,0,0,0-.22-.15l-.06.3Z" transform="translate(-278.37 -214.55)"/><path class="cls-1" d="M293,250.68c-.21-.07-.28-.23-.52-.16,0,.19.16.15.24.27,0-.3.12.1.26-.11a.41.41,0,0,1,0,.17.76.76,0,0,1,.11-.14h-.05l-.08,0c.06-.08.06,0,.08,0h0l-.09-.31A.54.54,0,0,0,293,250.68Z" transform="translate(-278.37 -214.55)"/><path class="cls-1" d="M291.83,252.07h.05S291.83,252,291.83,252.07Z" transform="translate(-278.37 -214.55)"/><path class="cls-1" d="M292,252s.11,0,.08.12-.1,0-.17,0,.14.16.25,0l0,0c.08-.12.36-.25.39-.22A1.9,1.9,0,0,0,292,252Z" transform="translate(-278.37 -214.55)"/><path class="cls-1" d="M292.45,251.31l-.08-.26-.2.11h.11C292.22,251.3,292.36,251.28,292.45,251.31Z" transform="translate(-278.37 -214.55)"/><polygon class="cls-1" points="14.88 35.48 15.11 35.53 14.8 35.36 14.88 35.48"/><polygon class="cls-1" points="14.89 35.15 15.08 35.18 14.97 35.09 14.89 35.15"/><path class="cls-1" d="M293.29,231.22l-.05-.08A.28.28,0,0,0,293.29,231.22Z" transform="translate(-278.37 -214.55)"/><path class="cls-1" d="M293.19,231.75l.09,0S293.2,231.72,293.19,231.75Z" transform="translate(-278.37 -214.55)"/><path class="cls-1" d="M294.18,241.81c.19-.08.49-.16.27-.17h-.22A.13.13,0,0,1,294.18,241.81Z" transform="translate(-278.37 -214.55)"/><path class="cls-1" d="M293.66,236.23l-.07,0,.19.1Z" transform="translate(-278.37 -214.55)"/><path class="cls-1" d="M292.78,236l.16-.12A.42.42,0,0,0,292.78,236Z" transform="translate(-278.37 -214.55)"/><path class="cls-1" d="M293.54,228.31l-.2-.12C293.32,228.32,293.44,228.28,293.54,228.31Z" transform="translate(-278.37 -214.55)"/><path class="cls-1" d="M293.54,246.4a.45.45,0,0,0,.16-.21C293.56,246.28,293.37,246.35,293.54,246.4Z" transform="translate(-278.37 -214.55)"/><path class="cls-1" d="M295.53,231.8a.17.17,0,0,0-.12-.08A.13.13,0,0,0,295.53,231.8Z" transform="translate(-278.37 -214.55)"/><path class="cls-1" d="M293.73,245.92l-.06.05a.33.33,0,0,1,0,.22C293.8,246.12,293.87,246,293.73,245.92Z" transform="translate(-278.37 -214.55)"/><path class="cls-1" d="M295.7,218s0,0,0,0S295.7,217.94,295.7,218Z" transform="translate(-278.37 -214.55)"/><path class="cls-1" d="M298.5,215.43a.26.26,0,0,1,0,.12S298.52,215.5,298.5,215.43Z" transform="translate(-278.37 -214.55)"/><path class="cls-1" d="M293.49,248.42c0,.07,0,0,0,0Z" transform="translate(-278.37 -214.55)"/><path class="cls-1" d="M292.6,248.66a.13.13,0,0,0-.1,0A.19.19,0,0,1,292.6,248.66Z" transform="translate(-278.37 -214.55)"/><path class="cls-1" d="M292.47,245.08Z" transform="translate(-278.37 -214.55)"/><path class="cls-1" d="M293.38,248.51a.27.27,0,0,0,.07-.08A.31.31,0,0,0,293.38,248.51Z" transform="translate(-278.37 -214.55)"/><path class="cls-1" d="M293.48,248.51l0,.05S293.51,248.57,293.48,248.51Z" transform="translate(-278.37 -214.55)"/><path class="cls-1" d="M293.49,248.32a.21.21,0,0,1,0,.11s0,0,0,0Z" transform="translate(-278.37 -214.55)"/><path class="cls-1" d="M295.16,223.62h0C295.11,223.52,295.12,223.56,295.16,223.62Z" transform="translate(-278.37 -214.55)"/><polygon class="cls-1" points="13.81 25.19 13.82 25.2 13.83 25.19 13.81 25.19"/><path class="cls-1" d="M292.06,239.47c.25.14.21.19.14.27h.63Z" transform="translate(-278.37 -214.55)"/><path class="cls-1" d="M293.43,230l-.22.14c-.28-.26-.14-.39-.44-.28.66.14,0,.69.62.82l-.16.09s0,0,0-.07c-.36.16.46.24.31.51-.06.09-.17.14-.24.06l.13.25c0,.06-.14,0-.12,0v.35h0a2,2,0,0,1,.3.27c-.11.07-.06-.06-.15,0l.14.21a.23.23,0,0,1-.29-.25c-.7.06.15.18-.3.49l-.06-.19c-.4.05-.28.21-.55.38.13,0,.66-.31.79-.08-.06,0-.09.12,0,.25-.24,0-.2.08-.21.22l-.31-.06c.07.16.23.17.36.28-.06.15-.31.15-.52.15-.09.25.42-.11.43.2-.15.2-.05.37.1.65-.13.14-.19-.05-.29,0l.23.17s-.08,0-.12,0,.31,0,.37.24c.34.1-.56.29-.2.56-.1,0-.19,0-.32,0a2,2,0,0,0,.47.58l-.24.18c.26-.12.51.12.72.32a1.31,1.31,0,0,0,.28-.09l.13.3c-.06,0-.16,0-.29-.08l.07.06c-.13.08-.31,0-.47-.09l.21-.07a1.46,1.46,0,0,0-.58-.21.2.2,0,0,1,.08.1l-.13,0s0,0,.1.1h-.36l.14,0-.27.33c.31.3.8.6.89,1-.25-.14-.42-.08-.73-.13.34-.06-.09-.34,0-.54-.05.11-.19.06-.24,0l.24.42c-.25-.05-.2,0-.32.13.51,0,.29.33.42.51-.17,0-.33-.08-.27-.26-.4.15.55.35.2.51,0,0,0-.07,0-.1.14.13,0,.37-.15.29v0c-.1.3-.14.93.28,1a5.5,5.5,0,0,1-.59-.14l1.35.74c-.36-.1-1.25,0-1.42-.32a.22.22,0,0,0,0,.32c.06,0,.54-.05.56,0-.43.13-.23.1-.61.28.09-.06.65.1.61.21a3.66,3.66,0,0,1-.61-.12l.52.37a1,1,0,0,0-.64,0c.11,0,0,.25,0,.33l.15-.1c-.13.32.74.43.66.75-.11-.06-.69-.19-.78,0,.27.12,1.33.52,1.51.84l-.17,0,.15.24a10.67,10.67,0,0,1-1.58-1c-.15.11-.2,0-.21.2-.16,0-.22-.14-.22-.19l-.16.42c.34,0,.29.37.57.39l-.28-.51c.33,0,.91.39.81.68-.14.06-.58-.13-.7-.14.11.06.18.32.1.34l-.16-.16c-.15.16.4.34.06.5,0,.07-.45.16-.26.19a6,6,0,0,1,1.85.18,2.77,2.77,0,0,1-.6.37c-.32.08-.69-.26-1-.19a.55.55,0,0,1,.23.12c-.09.07-.28-.06-.26.1.33.07-.07.32.27.11.08.17-.09.16-.09.35a1.17,1.17,0,0,1,.8.42.73.73,0,0,0-.26,0c-.07.32-.24.47-.28.77-.09,0-.2.15-.34.08,0,0,.16.1.16.19-.31.15,0-.21-.39-.11.2,0,.25.27.35.41.31,0,.1-.29,0-.44a1.32,1.32,0,0,1,1,.66c.08.26-.28.08-.23.13-.13.46.69.48.34.83-.28.13-.53,0-.73,0-.08-.21.21-.29.21-.43l-.14.16c-.08-.08-.14-.22,0-.29-.26.11-.14.79-.4,1.12.08.08.16.2.28.16l0-.12c.23-.08.28.25.39.11.14.17.36.37.21.57h-.31c.09,0,.2-.12.11-.19.13.1-.44.28-.06.42l.23-.12c.14.17.44.39.33.57.31-.06,0-.05.33-.15-.45.07.07-.48-.41-.34.43-.1.2-.22.57-.37-.1,0-.2.05-.13-.11l-.09,0h0s0,0,0,0a.31.31,0,0,1-.16.06c-.22-.1-.19-.35-.29-.45s.11.05.22,0L293,248c.22,0,.39-.21.5,0l0-.2c.14-.1.21-.26.13-.37s-.22-.27-.06-.17l-.1-.33h.06c.06-.31-.3-.69.14-1a.43.43,0,0,1,0-.4h.2c-.05-.14.24-.38.05-.46.53-.08.19-.64.31-.86l-.25,0a1,1,0,0,0-.1-.54l-.22,0c-.16-.19.22-.42.23-.7.08,0,.05.1,0,.14.55-.26-.27-.74.13-1-.07-.08,0-.13,0-.18v0a0,0,0,0,1,0,0,1,1,0,0,0,.13-.09l-.13.07a.75.75,0,0,0-.06-.24h.24v0c.1-.07-.11-.08-.29-.06a.4.4,0,0,0-.13-.13c.39,0-.1-.25.32-.28-.19-.09-.09-.45-.51-.55.06,0,.09,0,.09,0s.12-.18,0-.28H294l-.38-.26a.41.41,0,0,1,.53,0c-.31-.35-.1-.27-.42-.57l.2,0c0-.1-.24-.28-.07-.31.4-.15.19-1,.62-1.48-.6,0,.29-.21-.15-.3.14,0,.23-.07.33,0-.09-.29.28-.37-.07-.61.14,0,.19.09.28.07s-.11-.1,0-.12.11.06.17.11c0-.28-.4-.37-.79-.44.2-.12.19-.19-.06-.33.14,0,.29-.09.31.09,0-.09.27-.56,0-.61.08,0,0-.13,0-.16a1.42,1.42,0,0,0,.08-.45l-.06.05c-.36-.14-.05-.18-.07-.36h0c.33-.35-.11-.19.26-.53h-.24c-.5-.12.36-.3.2-.55l-.15.06c-.16-.15.75-.23.83-.34s.06,0,.09.09c.35-.27-.3-.09-.34-.34.18,0,.42.13.48,0s-.47-.55-.12-.72c-.14,0-.27.06-.35-.07s.56-.38.18-.6a.14.14,0,0,1,.11,0c-.09-.15-.11-.45-.32-.57.84,0-.26-.87.49-.74l0-.41.07,0c.1-.24-.07-.36-.24-.48.07,0,.13,0,.17,0,.21-.34.19-.39-.13-.76h.25c-.13-.11.47-.47.25-.89a.3.3,0,0,1,.11.06c-.22-.46.84-.86,0-1.17l-.17-.31c-.13.34-.37-.12-.55,0,0-.15.33-.31.35-.13l-.05,0c.45.14.24-.41.56-.34.1-.7.48-1.32.62-2h-.38l.07-.23c.09,0,.29,0,.25.14.22-.05-.12-.3-.2-.32.21-.29.4.2.42.1v-.13l0,0c-.13-.13-.28-.17-.23-.36s.23,0,.26-.07,0,0,0-.07l.09-.28-.31.06c-.11-.15.07-.26-.28-.19.53-.1.38-1,.56-1.11a.58.58,0,0,1-.07-.6c-.07,0-.39,0-.31-.17.64.2.35-.28.85-.33-.34.07,0-.54-.46-.42.09-.15.25,0,.43,0-.18-.42.33-.77.34-1.24-.08,0-.23,0-.34-.1l.48-.15c0-.1-.48-.19-.14-.29-.08,0-.2,0-.21-.05.61-.79,0-1.88,1-2.6-.19.08-.19,0-.18-.1-.05.06-.21-.05-.33-.06l.41-.3c-.31-.14.07-.41-.23-.52l0,.13c-.33-.24-.86,0-1.32-.1.37.28-.72.33-.19.76-.11,0-.14-.09-.26-.08.18.12.21.22.08.37l-.05,0c-.06.48-.3.63-.54,1.13h.24c-.06.11-.14.11-.21.16.33.2.09-.32.45-.12-.5,0-.18.8-.73.79,0,.17.28,0,.24.18h-.16l.18.08c-.06.11-.25.13-.37.11s0-.09,0-.12c-.2.11,0,.43-.09.47l.12-.15c0,.51-.27,1-.07,1.57l.11,0c.14.4-.17.26-.16.67l0,0a.3.3,0,0,1,.09.31c-.11-.12-.28.14-.4,0,.14.42.13.22.49.55l-.19,0c.14.11.23.14.24.34-.13-.19-.3.07-.47-.15-.48.33.28.68-.33.75.46.28.34-.29.43-.17.18-.05.35.23.27.34s-.68.1-.74.43c0,0,0,0,0-.08-.15.1.13.27-.11.38.29.14-.05.19.33.29l0-.31c.07.18.49.43.22.66a.57.57,0,0,1-.21-.2c-.13.06,0,.17-.09.23-.38-.1,0-.38-.27-.61-.19,0,.21.39-.19.22.51.23-.13.31.24.61l-.23-.06s.12.13.11.2l-.29-.18c.23.23-.28.31-.17.5.05-.36.29,0,.49-.15.23.5-.66.15-.64.66,0-.07.19-.22.28-.1a.67.67,0,0,1-.31.23c0,.34.25,0,.37.16-.31.06.08.18.15.34l-.24,0c-.22.35.48.19.23.49l-.3-.2.05.19-.26-.08c.16.22.1.27,0,.45.17,0,.43.1.4.26s-.21-.1-.22.14c-.14-.08-.31-.17-.08-.23l-.21-.11c-.18.1-.09.3-.1.39a.11.11,0,0,1,.07-.08l.27.4a.22.22,0,0,1-.23-.08c0,.08.12.14.12.25-.19-.06-.39-.09-.46-.25l.16.36c-.09,0-.26.13-.32.08-.15.16.3.5.11.71a.2.2,0,0,1,.08.11c-.08.22-.35.38-.13.69l-.38.09c0,.22.47-.13.55.24s-.31,0-.42.11c.15.15.47.42.15.6C293.39,230.08,293.45,230,293.43,230Zm-.26,2.6c0-.06-.18-.19,0-.2S293.26,232.47,293.17,232.55Zm0,4c-.07,0,0-.1.08-.15S293.21,236.49,293.14,236.54Zm.24,11.11h0C293.47,247.54,293.43,247.58,293.38,247.65Zm-.13.22a.12.12,0,0,0,.1,0c-.06,0-.06-.07,0-.13S293.2,247.79,293.25,247.87Zm3.64-24.67-.07,0C296.77,223.12,296.83,223.16,296.89,223.2Z" transform="translate(-278.37 -214.55)"/><path class="cls-1" d="M292.88,236.05a.57.57,0,0,1,.13,0A.1.1,0,0,0,292.88,236.05Z" transform="translate(-278.37 -214.55)"/><path class="cls-1" d="M293.58,228.33h0Z" transform="translate(-278.37 -214.55)"/><path class="cls-1" d="M291.64,244a.27.27,0,0,1,.14-.07A.11.11,0,0,0,291.64,244Z" transform="translate(-278.37 -214.55)"/><path class="cls-1" d="M293.52,249.13l0-.15c0,.07-.06.09-.1.12S293.52,249.09,293.52,249.13Z" transform="translate(-278.37 -214.55)"/><path class="cls-1" d="M291.91,250.26s0,.05,0,.07H292C292.05,250.25,292,250.17,291.91,250.26Z" transform="translate(-278.37 -214.55)"/><path class="cls-1" d="M292.71,249.19c-.2,0-.14.09-.12.19h0C292.88,249.43,292.79,249.31,292.71,249.19Z" transform="translate(-278.37 -214.55)"/><path class="cls-1" d="M292.6,249.41s0,.06,0,.09S292.62,249.47,292.6,249.41Z" transform="translate(-278.37 -214.55)"/><path class="cls-1" d="M293.35,248.17c-.06.05.25.06.17.08C293.77,248.34,293.25,247.89,293.35,248.17Z" transform="translate(-278.37 -214.55)"/><polygon class="cls-1" points="13.67 34.65 13.92 34.64 13.72 34.56 13.67 34.65"/><path class="cls-1" d="M292.31,248.4l-.09.16a.09.09,0,0,1,.08.05C292.32,248.51,292.38,248.4,292.31,248.4Z" transform="translate(-278.37 -214.55)"/><path class="cls-1" d="M292.3,248.61a.14.14,0,0,0,0,.14A.27.27,0,0,0,292.3,248.61Z" transform="translate(-278.37 -214.55)"/><polygon class="cls-1" points="13.62 34.42 13.67 34.37 13.7 34.26 13.62 34.42"/><path class="cls-1" d="M292.56,246.62l-.05-.19c-.09,0-.14,0-.12.09S292.47,246.64,292.56,246.62Z" transform="translate(-278.37 -214.55)"/><path class="cls-1" d="M291.81,247.09a.59.59,0,0,1,.2-.06l-.31,0Z" transform="translate(-278.37 -214.55)"/><path class="cls-1" d="M291.8,246.55c-.08,0-.21-.29-.22-.06C291.66,246.52,291.71,246.71,291.8,246.55Z" transform="translate(-278.37 -214.55)"/><polygon class="cls-1" points="14.15 29.32 14.15 29.37 14.65 29.43 14.15 29.32"/><path class="cls-1" d="M291.63,241.31c-.15.2.3.09.12.26.12.07.15-.14.24-.07C291.89,241.35,292,241.29,291.63,241.31Z" transform="translate(-278.37 -214.55)"/><path class="cls-1" d="M292,241.5l.07.07A.15.15,0,0,0,292,241.5Z" transform="translate(-278.37 -214.55)"/><polygon class="cls-1" points="20.51 0.45 20.65 0.34 20.46 0.39 20.51 0.45"/><path class="cls-1" d="M298.58,214.65l.32,0-.27-.15S298.65,214.65,298.58,214.65Z" transform="translate(-278.37 -214.55)"/><path class="cls-1" d="M292.46,232.83l.08,0a.12.12,0,0,0,.12-.1Z" transform="translate(-278.37 -214.55)"/><polygon class="cls-1" points="14.63 16.45 14.62 16.48 14.92 16.47 14.63 16.45"/><path class="cls-1" d="M292.89,229.37c0,.06,0,.15,0,.21C292.87,229.43,293.26,229.41,292.89,229.37Z" transform="translate(-278.37 -214.55)"/><path class="cls-1" d="M313,231.73s.06-.19.08-.22S313,231.78,313,231.73Z" transform="translate(-278.37 -214.55)"/><polygon class="cls-1" points="33.69 17.52 33.72 17.44 33.56 17.63 33.69 17.52"/><path class="cls-1" d="M311.28,232c0,.36.29,0,.41.13v.09l.11-.28C311.63,231.91,311.38,232.07,311.28,232Z" transform="translate(-278.37 -214.55)"/><path class="cls-1" d="M311,231.12c0,.14-.11.11.09.06v0A.13.13,0,0,1,311,231.12Z" transform="translate(-278.37 -214.55)"/><path class="cls-1" d="M311.05,231.14c.08,0,0-.12,0,0Z" transform="translate(-278.37 -214.55)"/><path class="cls-1" d="M310.65,231.17l.13-.11c0-.08-.11-.11-.07-.17C310.59,231,310.6,231,310.65,231.17Z" transform="translate(-278.37 -214.55)"/><path class="cls-1" d="M310.51,231.42l.06,0S310.56,231.32,310.51,231.42Z" transform="translate(-278.37 -214.55)"/><path class="cls-1" d="M310.71,231.28l-.14.09c0,.06,0,.17.06,0C310.61,231.44,310.65,231.34,310.71,231.28Z" transform="translate(-278.37 -214.55)"/><path class="cls-1" d="M310.77,231.34c.05.08.12.14,0,.25C311,231.57,311,231.32,310.77,231.34Z" transform="translate(-278.37 -214.55)"/><path class="cls-1" d="M311.19,232.31l.06.12.09-.11C311.3,232.37,311.2,232.2,311.19,232.31Z" transform="translate(-278.37 -214.55)"/><path class="cls-1" d="M310,230.9c0,.08,0,.21,0,.31l.1-.08A.33.33,0,0,1,310,230.9Z" transform="translate(-278.37 -214.55)"/><path class="cls-1" d="M310,231.21l-.13.11C310,231.35,310,231.29,310,231.21Z" transform="translate(-278.37 -214.55)"/><polygon class="cls-1" points="32.07 17.26 32.3 17.01 32.03 17.26 32.07 17.26"/><polygon class="cls-1" points="31.15 16.29 31.24 16.12 31.09 16.37 31.15 16.29"/><path class="cls-1" d="M309.21,230.83c.07-.14,0-.26,0-.34-.09,0-.17.13-.25.24C309.06,230.67,309.13,230.7,309.21,230.83Z" transform="translate(-278.37 -214.55)"/><path class="cls-1" d="M308.85,230.88a.67.67,0,0,0,.13-.15A.51.51,0,0,0,308.85,230.88Z" transform="translate(-278.37 -214.55)"/><path class="cls-1" d="M309.65,231.26a.31.31,0,0,0-.07-.23l0,.22Z" transform="translate(-278.37 -214.55)"/><path class="cls-1" d="M309.61,231.25h0l-.1,0Z" transform="translate(-278.37 -214.55)"/><path class="cls-1" d="M309.67,231.26h0S309.66,231.29,309.67,231.26Z" transform="translate(-278.37 -214.55)"/><path class="cls-1" d="M310.15,231.58c-.09.11-.25.21-.13.41C310.09,231.85,310,231.74,310.15,231.58Z" transform="translate(-278.37 -214.55)"/><path class="cls-1" d="M309.69,231.53l.13.07a.35.35,0,0,1,0-.2Z" transform="translate(-278.37 -214.55)"/><polygon class="cls-1" points="31.25 17.04 31.32 16.98 31.28 16.96 31.25 17.04"/><path class="cls-1" d="M309.05,231.1a.19.19,0,0,1-.2.09.43.43,0,0,0,.22.1C309.09,231.22,309.13,231.1,309.05,231.1Z" transform="translate(-278.37 -214.55)"/><path class="cls-1" d="M309.32,231.2h0S309.32,231.23,309.32,231.2Z" transform="translate(-278.37 -214.55)"/><polygon class="cls-1" points="29.8 16.57 29.81 16.61 29.82 16.58 29.8 16.57"/><path class="cls-1" d="M309.08,231.33c.05,0,.09,0,.13-.06l-.14,0S309.06,231.33,309.08,231.33Z" transform="translate(-278.37 -214.55)"/><path class="cls-1" d="M308.65,231l.09.13C308.72,231,308.67,230.9,308.65,231Z" transform="translate(-278.37 -214.55)"/><path class="cls-1" d="M309.3,231.14h0S309.29,231.11,309.3,231.14Z" transform="translate(-278.37 -214.55)"/><path class="cls-1" d="M309.3,231.14a.3.3,0,0,0-.09.13l.1-.06A.15.15,0,0,1,309.3,231.14Z" transform="translate(-278.37 -214.55)"/><path class="cls-1" d="M307.83,232.47c0-.2.19-.37.3-.14a2.18,2.18,0,0,0,.05-1.17.32.32,0,0,1-.16.27c0,.11.26.28.13.45s-.13-.09-.2-.2c.05.25-.25.34-.25.7l.16-.11C307.86,232.33,307.8,232.41,307.83,232.47Z" transform="translate(-278.37 -214.55)"/><path class="cls-1" d="M308.42,231.21l.06,0c-.06,0-.09-.13-.15-.29a.37.37,0,0,0-.14.23l.26.05Z" transform="translate(-278.37 -214.55)"/><path class="cls-1" d="M308.72,231.21c-.07.21-.2.29-.15.53.15,0,.12-.17.23-.25-.26,0,.08-.11-.09-.26a.51.51,0,0,1,.14,0,.38.38,0,0,1-.11-.11h0s0,0,0,0h0a.24.24,0,0,0,0,.08c-.07-.05,0-.06,0-.08v0h0l-.26.1A.41.41,0,0,0,308.72,231.21Z" transform="translate(-278.37 -214.55)"/><path class="cls-1" d="M309.83,232.44a0,0,0,0,1,0-.05S309.8,232.43,309.83,232.44Z" transform="translate(-278.37 -214.55)"/><path class="cls-1" d="M309.74,232.29s.05-.11.11-.08,0,.1,0,.18.14-.14,0-.26l0,0a.77.77,0,0,1-.16-.4A2.32,2.32,0,0,0,309.74,232.29Z" transform="translate(-278.37 -214.55)"/><path class="cls-1" d="M309.22,231.81l-.22.08.08.19V232C309.2,232,309.19,231.89,309.22,231.81Z" transform="translate(-278.37 -214.55)"/><polygon class="cls-1" points="29.79 16.47 29.84 16.24 29.69 16.55 29.79 16.47"/><polygon class="cls-1" points="29.52 16.47 29.55 16.27 29.47 16.38 29.52 16.47"/><path class="cls-1" d="M292.79,233.28l-.05.06A.13.13,0,0,0,292.79,233.28Z" transform="translate(-278.37 -214.55)"/><path class="cls-1" d="M293.22,233.26v-.1C293.21,233.22,293.21,233.26,293.22,233.26Z" transform="translate(-278.37 -214.55)"/><path class="cls-1" d="M301.24,230.63c-.08-.19-.18-.48-.17-.26l0,.22C301.16,230.55,301.2,230.58,301.24,230.63Z" transform="translate(-278.37 -214.55)"/><path class="cls-1" d="M296.72,231.93l0,.07.05-.21Z" transform="translate(-278.37 -214.55)"/><path class="cls-1" d="M296.69,232.83l-.12-.13A.29.29,0,0,0,296.69,232.83Z" transform="translate(-278.37 -214.55)"/><path class="cls-1" d="M290.47,233.72l0,.23C290.53,233.94,290.47,233.83,290.47,233.72Z" transform="translate(-278.37 -214.55)"/><path class="cls-1" d="M305.12,230.86a.32.32,0,0,0-.19-.14C305,230.85,305.08,231,305.12,230.86Z" transform="translate(-278.37 -214.55)"/><path class="cls-1" d="M292.79,231a.23.23,0,0,0,0,.14A.15.15,0,0,0,292.79,231Z" transform="translate(-278.37 -214.55)"/><path class="cls-1" d="M304.71,230.7l0,.05a.23.23,0,0,1,.18,0C304.87,230.62,304.8,230.56,304.71,230.7Z" transform="translate(-278.37 -214.55)"/><path class="cls-1" d="M282,234.87l0,0S282,234.87,282,234.87Z" transform="translate(-278.37 -214.55)"/><path class="cls-1" d="M279.08,233.29a.23.23,0,0,1,.1,0S279.13,233.25,279.08,233.29Z" transform="translate(-278.37 -214.55)"/><path class="cls-1" d="M306.81,230.81c.06,0,0,0,0,0Z" transform="translate(-278.37 -214.55)"/><path class="cls-1" d="M307,231.7a.41.41,0,0,0,0,.1A.29.29,0,0,1,307,231.7Z" transform="translate(-278.37 -214.55)"/><path class="cls-1" d="M304.06,232Z" transform="translate(-278.37 -214.55)"/><path class="cls-1" d="M306.89,230.92a.23.23,0,0,0-.07-.07A.22.22,0,0,0,306.89,230.92Z" transform="translate(-278.37 -214.55)"/><path class="cls-1" d="M306.89,230.82l.05,0S306.94,230.78,306.89,230.82Z" transform="translate(-278.37 -214.55)"/><path class="cls-1" d="M306.73,230.82l.09,0a.08.08,0,0,1,0,0Z" transform="translate(-278.37 -214.55)"/><path class="cls-1" d="M286.43,233.47v0C286.38,233.55,286.4,233.53,286.43,233.47Z" transform="translate(-278.37 -214.55)"/><polygon class="cls-1" points="21.36 18.3 21.37 18.29 21.36 18.29 21.36 18.3"/><path class="cls-1" d="M299.53,233c.09-.27.14-.23.2-.18l-.06-.62Z" transform="translate(-278.37 -214.55)"/><path class="cls-1" d="M291.77,233.42l.16.19c-.14.33-.28.23-.12.49,0-.68.54-.11.5-.79l.1.14s0,0-.05,0c.2.31.09-.5.33-.42a.16.16,0,0,1,.1.22l.17-.18c.05,0,.05.13,0,.12l.27-.08v0a1.93,1.93,0,0,1,.15-.35c.07.09,0,.07,0,.15l.14-.17c.08.17,0,.35-.15.33.19.67.12-.18.45.2l-.14.09c.12.38.22.24.4.47,0-.13-.36-.59-.21-.77.05,0,.12.07.2-.07,0,.24.1.18.2.16l0,.32c.11-.1.09-.26.15-.41.13,0,.17.27.22.48.21,0-.17-.39.08-.47.18.12.29,0,.49-.22.13.1,0,.19,0,.28l.1-.26s0,.09,0,.13c.08-.11,0-.32.13-.42,0-.36.32.5.48.1.05.09,0,.19,0,.32a1.85,1.85,0,0,0,.39-.56l.18.21c-.14-.24,0-.53.15-.77-.05-.11-.09-.21-.12-.26l.23-.18a.48.48,0,0,1,0,.3l0-.08a.57.57,0,0,1,0,.48l-.09-.19a1.81,1.81,0,0,0-.08.6.16.16,0,0,1,.07-.09.31.31,0,0,0,0,.13s0,0,.06-.12l.06.36v-.15l.3.22c.2-.36.38-.9.71-1a2.21,2.21,0,0,0,0,.73c-.09-.33-.25.15-.43.09.09,0,.08.18.05.23l.31-.31c0,.25.07.19.15.3-.07-.51.22-.34.35-.49,0,.16,0,.34-.17.3.17.37.21-.59.38-.27,0,0-.06,0-.07.06.08-.15.3,0,.25.12h0c.25.06.76,0,.8-.43,0,.06,0,.52-.05.6l.46-1.43c-.05.37.1,1.23-.11,1.44.06,0,.13.11.26,0,0-.06-.1-.53,0-.57a2.52,2.52,0,0,0,.28.57c-.06-.08,0-.65.11-.63a4.22,4.22,0,0,1,0,.63l.25-.56a1.18,1.18,0,0,0,0,.64c0-.11.2,0,.27,0l-.1-.14c.27.1.28-.78.55-.75,0,.12-.09.72,0,.79a4.86,4.86,0,0,1,.56-1.59l0,.16.19-.18a14.34,14.34,0,0,1-.66,1.68c.1.14,0,.2.18.19a.19.19,0,0,1-.14.24l.35.1c0-.33.28-.33.27-.6l-.39.33c0-.33.25-.95.5-.88.06.14-.07.6-.07.71,0-.11.25-.21.27-.13l-.11.18c.13.13.24-.44.39-.11.06,0,.16.44.17.24a7.52,7.52,0,0,1,0-1.85,2.7,2.7,0,0,1,.34.57c.08.3-.17.71-.11,1a.81.81,0,0,1,.09-.24c.06.08,0,.29.1.25,0-.34.26,0,.07-.29.14-.09.14.08.29.07a1.31,1.31,0,0,1,.31-.83.9.9,0,0,0,0,.25c.27,0,.4.21.65.23,0,.09.13.19.07.34,0-.06.07-.17.15-.18.13.31-.17,0-.08.4,0-.2.21-.26.33-.38,0-.3-.25-.07-.36,0a1.34,1.34,0,0,1,.52-1c.21-.09.07.28.11.22.38.1.38-.71.68-.38.11.27,0,.53,0,.73-.18.08-.24-.19-.36-.19l.13.14c-.06.08-.18.14-.23.06.09.25.65.09.92.34.07-.08.16-.17.13-.28l-.1,0c-.06-.23.21-.28.1-.4.14-.14.3-.36.47-.22v.31c0-.09-.1-.2-.15-.11.08-.12.23.44.35.05l-.11-.22c.15-.14.34-.45.49-.34-.05-.31,0,0-.12-.33.05.45-.41-.06-.3.42-.07-.43-.18-.2-.3-.56,0,.1,0,.2-.09.13l0,.09h0s0,0,0,0a.28.28,0,0,1,.05.16c-.08.22-.3.19-.38.31-.07-.06.05-.12,0-.23l-.12.17c0-.22-.18-.38,0-.5l-.17,0c-.09-.14-.22-.2-.31-.11s-.23.23-.14.06l-.28.12v-.05c-.26,0-.56.33-.83-.1a.3.3,0,0,1-.33,0l0-.19c-.11.06-.33-.21-.39,0-.09-.53-.54-.14-.74-.25l0,.26a.7.7,0,0,0-.44.14V231c-.15.18-.37-.18-.6-.16,0-.09.07-.06.11,0-.26-.52-.59.35-.83,0-.07.08-.11,0-.15,0h0l-.09-.12a1,1,0,0,0,.07.12.41.41,0,0,0-.19.08l0-.24h0c-.07-.09-.06.11,0,.29a.56.56,0,0,0-.1.15c-.05-.39-.19.12-.26-.29-.05.2-.36.14-.4.57,0-.06,0-.09,0-.09s-.16-.1-.23,0l0-.31-.18.41a.5.5,0,0,1,0-.53c-.25.36-.2.14-.42.5v-.2c-.08,0-.2.27-.25.11-.17-.37-.85,0-1.29-.4.09.59-.21-.26-.22.2,0-.14-.1-.21,0-.34-.22.15-.34-.2-.49.18,0-.14,0-.2,0-.28s-.07.12-.1,0,0-.12.07-.18c-.23,0-.24.45-.25.85-.12-.18-.18-.15-.26.11,0-.13-.11-.26,0-.31-.08,0-.5-.18-.5.14,0-.08-.11,0-.13,0a.78.78,0,0,0-.37,0l.05.05c-.06.39-.15.09-.29.15v0c-.34-.26-.14.14-.48-.16l0,.24c0,.51-.3-.29-.48-.08l.08.13c-.09.18-.33-.69-.43-.75s0-.07.06-.1c-.29-.29,0,.31-.22.4,0-.17,0-.44-.11-.46s-.36.57-.57.26c0,.12.1.25,0,.36s-.42-.46-.52,0a.22.22,0,0,1,0-.1c-.1.11-.34.2-.39.43-.17-.82-.64.45-.71-.31l-.33.07v-.08c-.22,0-.27.16-.33.35-.06,0,0-.12,0-.16-.33-.12-.35-.08-.58.32l-.05-.24c-.06.15-.49-.34-.77,0a.22.22,0,0,1,0-.11c-.31.32-.91-.59-.93.32l-.2.25c.31,0,0,.4.15.53-.11.07-.33-.23-.2-.3l0,0c0-.47-.38-.11-.42-.43-.57.1-1.17-.09-1.72,0l.12.35h-.19c-.07-.08-.11-.27,0-.28-.1-.19-.2.21-.19.29-.28-.11,0-.44,0-.43l-.11,0,0,0c-.06.16,0,.32-.21.32s-.09-.21-.13-.22,0,0-.06,0h-.25l.15.27c-.09.16-.23,0-.07.32-.24-.47-.91,0-1-.16a.43.43,0,0,1-.44.26c.05.05.14.37,0,.36-.07-.67-.34-.24-.55-.69.17.3-.43.16-.17.57-.14,0,0-.24-.18-.38-.26.31-.71,0-1.07.14,0,.08.1.2.05.35l-.29-.39c-.07.06,0,.51-.17.24,0,.07.09.17.05.21-.84-.27-1.43.67-2.36.07.14.14.07.17,0,.2s.05.21.09.32l-.4-.24c0,.33-.33.1-.28.41l.08-.08c0,.4.39.76.48,1.23.05-.44.53.52.63-.12.07.08,0,.16,0,.26,0-.22.08-.27.23-.22v.06c.37-.14.57,0,1,0l-.09-.22c.1,0,.14.08.19.12,0-.37-.26,0-.25-.37.23.45.65-.13.85.39.14,0-.1-.26,0-.29l.07.14v-.19c.1,0,.18.18.21.3s-.06,0-.08.07c.16.14.33-.13.38-.09l-.15-.06c.35-.22.86-.13,1.18-.49l-.05-.1c.24-.26.25.08.54-.07v0c0-.12.11-.19.2-.19s.2.22.12.38c.27-.27.12-.2.25-.64l.08.17c0-.18,0-.26.18-.34-.1.18.15.26,0,.49.4.34.42-.48.67.08.07-.53-.33-.24-.26-.36-.1-.16.06-.4.17-.36s.29.61.55.56c0,0,0,0-.05,0s.17-.21.33,0c0-.32.16,0,.11-.4l-.22.13c.12-.13.18-.6.44-.42a.74.74,0,0,1-.1.26c.09.11.12-.09.21,0,0,.4-.29.14-.39.46.1.15.24-.33.23.11,0-.56.27,0,.39-.42l0,.24s.07-.16.12-.16L287,234c.11-.28.31.19.43,0-.29,0-.11-.28-.25-.43.31-.36.29.59.68.42-.05,0-.23-.11-.16-.23a.52.52,0,0,1,.26.23c.26-.08-.07-.24,0-.4.13.28.12-.13.23-.24l0,.24c.32.11,0-.51.31-.36l-.07.35.13-.11v.28c.13-.22.18-.18.34-.12-.05-.16,0-.44.11-.46.1.13,0,.23.16.17,0,.16-.05.35-.16.14a1.94,1.94,0,0,0,0,.24c.11.15.25,0,.32,0s-.06,0-.08,0l.23-.36a.26.26,0,0,1,0,.24c.05,0,.08-.15.16-.18,0,.2,0,.4-.08.5l.24-.24c0,.08.16.22.13.29.16.1.32-.41.53-.28a.24.24,0,0,1,.06-.11c.19,0,.38.24.57,0l.15.34c.17-.1-.21-.42.07-.58s.1.29.18.38c.08-.19.22-.56.43-.29C291.88,233.44,291.82,233.39,291.77,233.42Zm2.09-.31s-.11.21-.15.07S293.78,233,293.86,233.11Zm3.19-.72c0,.08-.08,0-.14,0S297,232.33,297.05,232.39Zm9.12-1.43h0C306.08,230.87,306.11,230.91,306.17,231Zm.18.12a.1.1,0,0,0,0-.1c0,.06-.06.06-.11,0S306.29,231.13,306.35,231.08Zm-20.77.88.05.06C285.56,232.1,285.57,232,285.58,232Z" transform="translate(-278.37 -214.55)"/><path class="cls-1" d="M296.69,232.73a.59.59,0,0,1,0-.13A.13.13,0,0,0,296.69,232.73Z" transform="translate(-278.37 -214.55)"/><polygon class="cls-1" points="12.11 19.13 12.1 19.13 12.1 19.17 12.11 19.13"/><path class="cls-1" d="M303.25,232.93a.54.54,0,0,1-.07-.13A.13.13,0,0,0,303.25,232.93Z" transform="translate(-278.37 -214.55)"/><path class="cls-1" d="M307.42,230.76l-.13.05c.06,0,.07.05.1.09S307.38,230.76,307.42,230.76Z" transform="translate(-278.37 -214.55)"/><path class="cls-1" d="M308.34,232.35s0,0,.06,0v-.12C308.33,232.21,308.26,232.3,308.34,232.35Z" transform="translate(-278.37 -214.55)"/><path class="cls-1" d="M307.45,231.57c0,.21.08.14.17.12h0C307.66,231.4,307.56,231.49,307.45,231.57Z" transform="translate(-278.37 -214.55)"/><path class="cls-1" d="M307.64,231.68a.11.11,0,0,1,.08,0C307.74,231.57,307.69,231.66,307.64,231.68Z" transform="translate(-278.37 -214.55)"/><path class="cls-1" d="M306.61,231c0,.06.05-.25.06-.17C306.74,230.54,306.37,231.08,306.61,231Z" transform="translate(-278.37 -214.55)"/><polygon class="cls-1" points="29.09 17.7 29.08 17.45 29.02 17.64 29.09 17.7"/><path class="cls-1" d="M306.8,232l.13.08A.08.08,0,0,1,307,232C306.89,232,306.8,231.92,306.8,232Z" transform="translate(-278.37 -214.55)"/><path class="cls-1" d="M307,232a.11.11,0,0,0,.11,0A.17.17,0,0,0,307,232Z" transform="translate(-278.37 -214.55)"/><polygon class="cls-1" points="28.89 17.75 28.86 17.7 28.76 17.67 28.89 17.75"/><path class="cls-1" d="M305.33,231.83l-.16.06c0,.09,0,.14.08.11S305.34,231.92,305.33,231.83Z" transform="translate(-278.37 -214.55)"/><path class="cls-1" d="M305.73,232.55a.39.39,0,0,1-.05-.2l0,.31Z" transform="translate(-278.37 -214.55)"/><path class="cls-1" d="M305.29,232.59c0,.08-.23.23,0,.22C305.27,232.73,305.42,232.67,305.29,232.59Z" transform="translate(-278.37 -214.55)"/><polygon class="cls-1" points="24.69 17.52 24.73 17.52 24.75 17.01 24.69 17.52"/><path class="cls-1" d="M301.05,233.22c.17.12.05-.31.2-.16.05-.12-.12-.13-.08-.23C301.06,233,301,232.88,301.05,233.22Z" transform="translate(-278.37 -214.55)"/><path class="cls-1" d="M301.17,232.83a.28.28,0,0,0,.06-.08A.26.26,0,0,0,301.17,232.83Z" transform="translate(-278.37 -214.55)"/><polygon class="cls-1" points="0.23 18.57 0.09 18.5 0.21 18.65 0.23 18.57"/><path class="cls-1" d="M278.48,233.54l-.11-.31v.3S278.44,233.47,278.48,233.54Z" transform="translate(-278.37 -214.55)"/><path class="cls-1" d="M294.21,233.74v-.07c0-.09,0-.09-.1-.1Z" transform="translate(-278.37 -214.55)"/><polygon class="cls-1" points="14.3 19.06 14.33 19.07 14.26 18.78 14.3 19.06"/><path class="cls-1" d="M291.44,234.08c.05,0,.1-.06.16-.05C291.49,234.09,291.39,233.72,291.44,234.08Z" transform="translate(-278.37 -214.55)"/></svg>