<svg id="clickArrow" xmlns="http://www.w3.org/2000/svg" viewBox="0 0 72.44 44.49" width=
"100" height="100"><defs><style>.cls-1{fill:#e43b26;}.cls-2{fill:#231f20;}</style></defs><path class="cls-1" d="M276.22,57.29s.16-.1.19-.12S276.17,57.32,276.22,57.29Z" transform="translate(-265.67 -32.69)"/><polygon class="cls-1" points="9.82 24.45 9.89 24.41 9.68 24.47 9.82 24.45"/><path class="cls-1" d="M275.16,56.72c-.25.27.16.12.12.27l0,.06.25-.14C275.37,56.84,275.13,56.85,275.16,56.72Z" transform="translate(-265.67 -32.69)"/><path class="cls-1" d="M275.57,56c-.09.1-.13,0,0,.08l0,0A.11.11,0,0,1,275.57,56Z" transform="translate(-265.67 -32.69)"/><path class="cls-1" d="M275.6,56.06s.07-.1,0,0Z" transform="translate(-265.67 -32.69)"/><path class="cls-1" d="M275.37,55.91l.15,0c.05-.07,0-.13.08-.15C275.5,55.73,275.45,55.79,275.37,55.91Z" transform="translate(-265.67 -32.69)"/><path class="cls-1" d="M275.13,56h.06S275.22,56,275.13,56Z" transform="translate(-265.67 -32.69)"/><path class="cls-1" d="M275.33,56h-.14s-.12.12.06,0C275.16,56.08,275.25,56,275.33,56Z" transform="translate(-265.67 -32.69)"/><path class="cls-1" d="M275.32,56.08c0,.08,0,.15-.18.18C275.27,56.33,275.45,56.16,275.32,56.08Z" transform="translate(-265.67 -32.69)"/><path class="cls-1" d="M274.85,56.94l0,.1.12,0C274.87,57,274.94,56.86,274.85,56.94Z" transform="translate(-265.67 -32.69)"/><path class="cls-1" d="M275.22,55.43c-.06,0-.14.15-.21.22h.1A.36.36,0,0,1,275.22,55.43Z" transform="translate(-265.67 -32.69)"/><path class="cls-1" d="M275,55.65l-.15,0C274.89,55.74,275,55.71,275,55.65Z" transform="translate(-265.67 -32.69)"/><polygon class="cls-1" points="9.15 23.58 9.44 23.51 9.13 23.56 9.15 23.58"/><polygon class="cls-1" points="9.35 22.5 9.52 22.42 9.26 22.53 9.35 22.5"/><path class="cls-1" d="M274.86,55.05c.13-.07.16-.2.25-.23a.65.65,0,0,0-.3.06C274.89,54.87,274.91,54.92,274.86,55.05Z" transform="translate(-265.67 -32.69)"/><path class="cls-1" d="M274.64,54.93a.77.77,0,0,0,.17,0A.58.58,0,0,0,274.64,54.93Z" transform="translate(-265.67 -32.69)"/><path class="cls-1" d="M274.79,55.54a.38.38,0,0,0,.13-.19l-.14.16Z" transform="translate(-265.67 -32.69)"/><path class="cls-1" d="M274.77,55.52h0l0-.06Z" transform="translate(-265.67 -32.69)"/><path class="cls-1" d="M274.8,55.55h0S274.78,55.56,274.8,55.55Z" transform="translate(-265.67 -32.69)"/><path class="cls-1" d="M274.83,56c-.13,0-.29,0-.37.23C274.6,56.15,274.64,56,274.83,56Z" transform="translate(-265.67 -32.69)"/><path class="cls-1" d="M274.62,55.75l0,.1a.4.4,0,0,1,.16-.12Z" transform="translate(-265.67 -32.69)"/><polygon class="cls-1" points="8.87 23.08 8.95 23.06 8.95 23.03 8.87 23.08"/><path class="cls-1" d="M274.59,55.18a.17.17,0,0,1-.17,0,.2.2,0,0,0,.05.15S274.63,55.21,274.59,55.18Z" transform="translate(-265.67 -32.69)"/><path class="cls-1" d="M274.66,55.35h0S274.64,55.38,274.66,55.35Z" transform="translate(-265.67 -32.69)"/><polygon class="cls-1" points="8.45 22.12 8.43 22.15 8.45 22.13 8.45 22.12"/><path class="cls-1" d="M274.44,55.34c0,.06.05,0,.11,0l-.08,0S274.43,55.34,274.44,55.34Z" transform="translate(-265.67 -32.69)"/><path class="cls-1" d="M274.48,54.9a.56.56,0,0,0,0,.12C274.47,55,274.53,54.87,274.48,54.9Z" transform="translate(-265.67 -32.69)"/><path class="cls-1" d="M274.68,55.31h0S274.71,55.28,274.68,55.31Z" transform="translate(-265.67 -32.69)"/><path class="cls-1" d="M274.68,55.31a.55.55,0,0,0-.13,0h.1Z" transform="translate(-265.67 -32.69)"/><path class="cls-1" d="M273,55.61c.15-.13.35-.17.25,0a3,3,0,0,0,.84-.8.36.36,0,0,1-.27.12c-.06.09-.06.31-.25.37s0-.11,0-.22c-.16.2-.37.13-.62.39l.16,0S273,55.56,273,55.61Z" transform="translate(-265.67 -32.69)"/><path class="cls-1" d="M274.19,55h0a.67.67,0,0,1,.12-.27.49.49,0,0,0-.23.1l.1.15Z" transform="translate(-265.67 -32.69)"/><path class="cls-1" d="M274.33,55.11c-.18.12-.3.11-.44.3.07.07.18-.06.29-.07-.15-.09.12,0,.14-.22a.18.18,0,0,1,.1,0,.36.36,0,0,1,0-.14v0h0l0,0h0l-.07,0c0-.07,0,0,.07,0l0,0h0l-.2,0S274.26,55.06,274.33,55.11Z" transform="translate(-265.67 -32.69)"/><path class="cls-1" d="M274.05,56.44l0,0S274,56.43,274.05,56.44Z" transform="translate(-265.67 -32.69)"/><path class="cls-1" d="M274.11,56.31s.1-.06.11,0-.08.07-.13.12.17,0,.2-.16h0a1,1,0,0,1,.2-.35A3.34,3.34,0,0,0,274.11,56.31Z" transform="translate(-265.67 -32.69)"/><path class="cls-1" d="M274.18,55.74l-.17,0-.1.18.09-.08C274,55.89,274.11,55.79,274.18,55.74Z" transform="translate(-265.67 -32.69)"/><polygon class="cls-1" points="8.52 22.04 8.7 21.9 8.41 22.05 8.52 22.04"/><polygon class="cls-1" points="8.38 21.92 8.53 21.8 8.41 21.84 8.38 21.92"/><path class="cls-1" d="M268.15,47.84v-.08A.25.25,0,0,0,268.15,47.84Z" transform="translate(-265.67 -32.69)"/><path class="cls-1" d="M267.75,48.08l.07.06S267.77,48.07,267.75,48.08Z" transform="translate(-265.67 -32.69)"/><path class="cls-1" d="M271,51.38c.08-.18.24-.43.09-.27l-.14.17S271,51.32,271,51.38Z" transform="translate(-265.67 -32.69)"/><path class="cls-1" d="M267.82,50.22h.24Z" transform="translate(-265.67 -32.69)"/><path class="cls-1" d="M266.51,50.26l.12-.09A.27.27,0,0,0,266.51,50.26Z" transform="translate(-265.67 -32.69)"/><path class="cls-1" d="M269.83,46.64l-.06-.22C269.7,46.45,269.78,46.54,269.83,46.64Z" transform="translate(-265.67 -32.69)"/><path class="cls-1" d="M272.73,53.28a.23.23,0,0,0,0-.18C272.69,53.23,272.59,53.39,272.73,53.28Z" transform="translate(-265.67 -32.69)"/><path class="cls-1" d="M269.88,49.49a.28.28,0,0,0-.09-.1Z" transform="translate(-265.67 -32.69)"/><path class="cls-1" d="M272.64,53l0,0c.05,0,.1,0,.12.06C272.78,53,272.78,52.92,272.64,53Z" transform="translate(-265.67 -32.69)"/><path class="cls-1" d="M275.64,44.78l0,0S275.65,44.77,275.64,44.78Z" transform="translate(-265.67 -32.69)"/><path class="cls-1" d="M277.69,46.64a.08.08,0,0,1-.06,0S277.67,46.67,277.69,46.64Z" transform="translate(-265.67 -32.69)"/><path class="cls-1" d="M273.63,54s0,0,0,0Z" transform="translate(-265.67 -32.69)"/><path class="cls-1" d="M273.12,54.71a.35.35,0,0,0-.09.06Z" transform="translate(-265.67 -32.69)"/><path class="cls-1" d="M271.4,53.64Z" transform="translate(-265.67 -32.69)"/><path class="cls-1" d="M273.6,54.11a.25.25,0,0,0,0-.08S273.6,54.07,273.6,54.11Z" transform="translate(-265.67 -32.69)"/><path class="cls-1" d="M273.67,54v0S273.72,54,273.67,54Z" transform="translate(-265.67 -32.69)"/><path class="cls-1" d="M273.59,54a.14.14,0,0,1,0,.07s0,0,0,0Z" transform="translate(-265.67 -32.69)"/><path class="cls-1" d="M272.7,46.23l0,0C272.72,46.15,272.71,46.17,272.7,46.23Z" transform="translate(-265.67 -32.69)"/><polygon class="cls-1" points="3.01 19.62 3.02 19.62 3.02 19.61 3.01 19.62"/><path class="cls-1" d="M268.47,52.33c.23-.15.23-.11.22,0l.4-.48Z" transform="translate(-265.67 -32.69)"/><path class="cls-1" d="M269.07,47.23a.7.7,0,0,0-.21-.11c0-.36.1-.29-.11-.49.41.55-.56.39-.15.94l-.18-.06s0,0,0,0c-.39-.15.19.45-.06.5s-.24,0-.25-.12l0,.21c-.05,0-.14-.06-.08-.08l-.2.19,0,0c.06.09.14.24.17.3-.15,0,0-.06-.13-.1l0,.17c-.22-.06-.28-.23-.16-.27-.77-.31,0,.16-.61.13l0-.14c-.48-.14-.45,0-.88,0,.2,0,1,.08,1,.27-.09,0-.17,0-.1.14-.27-.11-.28,0-.36,0l-.36-.14c0,.12.19.18.31.27a1.7,1.7,0,0,1-.78-.06c-.26.12.63.05.49.23-.32.06-.27.19-.17.35-.26,0-.26-.06-.42-.05l.27.12a.68.68,0,0,1-.19,0c.07.07.46.07.48.16.18,0,.1.05-.07.07l-.27,0a.49.49,0,0,0-.18.05s.07.07.27.11a3.76,3.76,0,0,1-.52,0,5.53,5.53,0,0,0,1.15.29l-.19.11a4.12,4.12,0,0,1,1.19,0l.32-.07.34.07a2.14,2.14,0,0,1-.42,0h.12a2,2,0,0,1-.66,0l.22-.07c-.3,0-.64,0-.9,0a.71.71,0,0,1,.17,0h-.19c-.05,0,.07,0,.21,0l-.46.08h.21a1.55,1.55,0,0,0-.08.23c.64.09,1.39,0,1.72.14a5.53,5.53,0,0,0-.82.26c.3-.17-.34-.12-.4-.26,0,.07-.17.1-.25.09l.58.12c-.29.08-.16.11-.21.2.5-.22.52,0,.76,0-.16.08-.35.14-.43,0-.24.29.74-.12.54.13,0,0,0,0-.11,0,.2,0,.23.17.07.22l0,0c.12.19.54.51.84.21a4.42,4.42,0,0,1-.44.41c.42-.26.81-.55,1.21-.83-.27.25-.8,1-1,1,0,.07,0,.15.14.11a1.53,1.53,0,0,1,.36-.43,3.67,3.67,0,0,0-.25.55c0-.09.46-.47.49-.41s-.39.41-.45.43l.51-.29a1.83,1.83,0,0,0-.42.48c.06-.09.09.1.16.09l0-.14c.07.18.68-.44.79-.29-.1.06-.54.47-.53.58a6.94,6.94,0,0,1,1.38-.9l-.09.14.22,0c-.37.25-1.16.74-1.49.91-.05.14-.13.16,0,.22a.22.22,0,0,1-.23.11l.09.23c.23-.24.36-.11.56-.31l-.43.06c.23-.24.78-.57.85-.41s-.44.4-.52.48c.1-.06.27,0,.22,0l-.18.07c0,.16.43-.2.28.1,0,0-.23.39-.09.25a10.91,10.91,0,0,1,1.31-1.32,2.73,2.73,0,0,1-.23.56c-.17.26-.58.44-.72.65a1.08,1.08,0,0,1,.2-.13c0,.09-.21.19-.12.22.25-.22.1.15.24-.17.12,0,0,.12.09.18a1.74,1.74,0,0,1,.73-.46,2,2,0,0,0-.16.19c.1.15.05.33.16.45-.05.07-.07.19-.2.27.06,0,.16-.09.2-.06-.14.28-.11,0-.31.25.14-.13.28-.09.42-.12.21-.23-.07-.17-.21-.13a1.82,1.82,0,0,1,1-.51c.17,0-.16.23-.1.21.13.24.7-.34.62,0s-.39.36-.52.51c-.15,0,0-.25-.05-.29l0,.15c-.09,0-.19,0-.16-.06-.13.22.26.35.22.65a.44.44,0,0,0,.27-.14l-.07,0c.12-.19.3-.12.32-.24.17,0,.41-.13.4,0l-.21.22c.06-.06.08-.18,0-.14.13-.05-.19.41.15.19l.1-.21c.17,0,.49-.17.49,0,.19-.24-.05,0,.17-.29-.29.34-.17-.21-.45.17.26-.33,0-.21.24-.52-.08.07-.12.15-.15,0l-.08,0h0a.42.42,0,0,1-.09.14c-.2.12-.29,0-.41.05s.1-.06.16-.15l-.18.07c.16-.16.18-.36.36-.35l-.07-.1c.05-.13,0-.23-.08-.21s-.28.07-.12,0l-.22,0,0,0c-.1-.15-.52,0-.36-.44-.08,0-.17,0-.2-.11l.13-.15c-.1,0,0-.3-.18-.18.32-.43-.18-.35-.21-.51l-.18.17a.45.45,0,0,0-.32-.1l-.16.16c-.2.06-.06-.29-.19-.38.07,0,.08,0,.07.05.22-.49-.54,0-.4-.4-.09,0-.09,0-.07-.07h0l0,0,0-.12a.28.28,0,0,0,0,.12.23.23,0,0,0-.16,0l.16-.19h0c0-.1-.1,0-.21.2l-.15.06c.25-.3-.18,0,.07-.33-.16.13-.28-.06-.59.23,0,0,0-.07.07,0s0-.15-.13-.09l.19-.24-.36.22a.67.67,0,0,1,.34-.41c-.37.15-.2,0-.54.17l.14-.14s-.26.13-.16,0c.25-.29-.24-.3,0-.54-.61.22.24-.14-.27,0a1.82,1.82,0,0,1,.38-.11c-.21,0,.21-.1-.3-.05l.36,0s-.16,0-.06,0l.23,0c-.05,0-.62,0-1.16.08.21-.06.17-.06-.23-.07a1.15,1.15,0,0,1,.45,0s.15-.12-.34-.14c.11,0,0,0-.07,0s0,0,0-.06,0,0,0,0h-.09c-.63-.07-.09-.05-.11-.1h.06c.55,0-.14-.07.45-.07l-.36-.07c-.71-.16.55,0,.34-.09l-.21,0c-.17-.11,1,.2,1.1.22l.12.06c.41.1-.38-.14-.41-.21.2.07.49.2.55.2s-.51-.34-.13-.19a1.17,1.17,0,0,1-.34-.21c0-.07.55.25.24,0l.09.07c-.06-.09,0-.19-.16-.38.31.31.28.21.27.09s0-.26.18.08l.17-.14,0,.07c.14,0,.1-.2.06-.39.05,0,.06.11.08.14.25,0,.25,0,.23-.41l.12.22c0-.16.43.22.48-.13a.35.35,0,0,1,0,.11c.08-.36.76.41.47-.45l0-.26c-.2,0-.13-.37-.26-.48.05-.08.29.17.22.25l0,0c.15.44.28,0,.4.35.34-.16.77-.05,1.1-.15l-.16-.33.12,0c.06.07.14.25.05.27.11.18.08-.22,0-.29.21.08.08.42.14.41l.05-.05,0,0c0-.16,0-.31.06-.33s.11.2.14.21,0,0,0,0l.15,0-.15-.26c0-.15.14,0,0-.32.26.45.61,0,.72.13,0-.23.12-.25.24-.26-.05-.05-.15-.36-.05-.35.15.66.26.23.47.68-.15-.29.25-.15,0-.56.09,0,.07.24.17.38.12-.31.46,0,.68-.09a.78.78,0,0,1-.07-.34l.22.4c0-.06-.06-.51.09-.23,0-.07-.07-.18,0-.21.55.32.92-.54,1.52.19-.09-.16-.05-.18,0-.2s0-.21-.05-.33l.25.3c0-.33.21-.05.19-.37l0,.07c0-.38-.23-.81-.28-1.28-.05.43-.36-.59-.44,0-.05-.09,0-.15,0-.26,0,.21-.06.26-.17.19V45c-.26.1-.41-.09-.74-.16l.07.23c-.07,0-.1-.09-.14-.14,0,.36.18,0,.19.38-.18-.45-.45.09-.62-.44-.1,0,.08.26,0,.28l-.05-.14v.19c-.07,0-.14-.19-.17-.31s0-.05.05-.06-.23.11-.27.07l.12.06c-.24.2-.62.09-.8.45l.05.1c-.15.26-.19-.07-.38.08v0c0,.12-.06.19-.12.19s-.17-.21-.14-.37c-.15.28-.06.2-.08.64l-.08-.17c0,.17,0,.26-.07.34,0-.18-.15-.25-.11-.48-.35-.32-.21.49-.49,0,.05.52.27.21.25.33s0,.39,0,.37-.32-.59-.5-.52c0,0,0,0,0,0s-.08.21-.23,0c.06.31-.11,0,0,.4l.13-.15c-.06.13,0,.6-.21.44a.76.76,0,0,1,0-.26c-.08-.09-.05.11-.14,0-.12-.38.17-.15.16-.47-.1-.14-.09.34-.18-.09.11.54-.2,0-.18.44l-.07-.23s0,.17-.05.17l0-.31c0,.28-.27-.14-.32,0,.2-.09.15.25.29.38-.12.39-.36-.53-.59-.31,0-.05.19.07.18.2a.54.54,0,0,1-.25-.18c-.16.11.12.21.1.38-.17-.25-.05.14-.09.26l-.09-.23c-.26-.05.14.49-.11.39l-.06-.34-.05.12-.09-.26c0,.24-.08.2-.21.18.09.14.17.4.08.45-.12-.11-.06-.23-.17-.14,0-.15-.08-.34.07-.16l-.06-.22c-.14-.12-.18,0-.23.06a.07.07,0,0,1,.07,0l0,.38a.35.35,0,0,1-.08-.22s0,.16-.05.2c-.07-.18-.16-.36-.12-.48l-.08.28c-.05-.08-.19-.17-.2-.25s-.07.46-.26.38a.17.17,0,0,1,0,.12c-.13,0-.35-.14-.36.17l-.25-.27c-.07.12.32.33.2.54s-.19-.24-.28-.3c0,.2.11.55-.2.4C269,47.24,269.05,47.27,269.07,47.23Zm-1.79,1.28s-.11-.18.07-.12S267.43,48.51,267.28,48.51Zm.09,1.93c-.13,0-.11,0,0-.08S267.42,50.4,267.37,50.44Zm5.83,3.38h0C273.22,53.71,273.2,53.75,273.2,53.82Zm0,.16a.16.16,0,0,0,.08-.06c-.05,0-.07,0-.08,0S273.14,54,273.21,54Zm.41-6.35,0-.05C273.61,47.49,273.61,47.56,273.62,47.63Z" transform="translate(-265.67 -32.69)"/><path class="cls-1" d="M266.67,50.26a.86.86,0,0,1,.17,0C266.77,50.23,266.7,50.23,266.67,50.26Z" transform="translate(-265.67 -32.69)"/><polygon class="cls-1" points="4.17 13.99 4.17 13.99 4.16 13.95 4.17 13.99"/><path class="cls-1" d="M270.36,53.94a.31.31,0,0,1,.06-.13A.13.13,0,0,0,270.36,53.94Z" transform="translate(-265.67 -32.69)"/><path class="cls-1" d="M274,54.22l-.1,0s0,.07,0,.11S274,54.21,274,54.22Z" transform="translate(-265.67 -32.69)"/><path class="cls-1" d="M273.33,55.75s0,0,.05,0l.09-.08A.1.1,0,0,0,273.33,55.75Z" transform="translate(-265.67 -32.69)"/><path class="cls-1" d="M273.43,54.81c-.15.14-.06.13,0,.15h0C273.65,54.78,273.54,54.8,273.43,54.81Z" transform="translate(-265.67 -32.69)"/><path class="cls-1" d="M273.45,55s0,0,0,0S273.49,55,273.45,55Z" transform="translate(-265.67 -32.69)"/><path class="cls-1" d="M273.42,54c0,.06.21-.16.15-.09C273.79,53.77,273.22,54,273.42,54Z" transform="translate(-265.67 -32.69)"/><polygon class="cls-1" points="7.29 22.61 7.47 22.42 7.29 22.53 7.29 22.61"/><path class="cls-1" d="M272.8,54.83V55a.1.1,0,0,1,.08,0S272.85,54.78,272.8,54.83Z" transform="translate(-265.67 -32.69)"/><path class="cls-1" d="M272.89,54.91a.06.06,0,0,0,.08,0A.11.11,0,0,0,272.89,54.91Z" transform="translate(-265.67 -32.69)"/><polygon class="cls-1" points="7.15 22.56 7.17 22.51 7.14 22.45 7.15 22.56"/><path class="cls-1" d="M272.16,54.07,272,54c-.07.05-.09.11,0,.11S272.11,54.13,272.16,54.07Z" transform="translate(-265.67 -32.69)"/><path class="cls-1" d="M271.87,54.76a.69.69,0,0,1,.11-.17l-.23.21Z" transform="translate(-265.67 -32.69)"/><path class="cls-1" d="M271.62,54.59c-.07,0-.28.07-.18.14S271.63,54.71,271.62,54.59Z" transform="translate(-265.67 -32.69)"/><polygon class="cls-1" points="5.2 20.55 5.22 20.56 5.58 20.2 5.2 20.55"/><path class="cls-1" d="M269.07,53.16c0,.17.24-.2.21,0,.11-.06,0-.15.12-.2C269.26,53,269.29,52.9,269.07,53.16Z" transform="translate(-265.67 -32.69)"/><path class="cls-1" d="M269.4,52.94l.08,0Z" transform="translate(-265.67 -32.69)"/><polygon class="cls-1" points="12.33 14.19 12.41 14.28 12.34 14.12 12.33 14.19"/><path class="cls-1" d="M278.09,46.48l.05.32v-.3S278.11,46.55,278.09,46.48Z" transform="translate(-265.67 -32.69)"/><path class="cls-1" d="M266.27,48.4l.08,0a.24.24,0,0,0,.21,0Z" transform="translate(-265.67 -32.69)"/><polygon class="cls-1" points="2.38 14.84 2.35 14.85 2.61 15.03 2.38 14.84"/><path class="cls-1" d="M269,46.54s0,.08-.08.09S269.2,46.86,269,46.54Z" transform="translate(-265.67 -32.69)"/><path class="cls-1" d="M329.31,77.15c.05.08.18-.09.22-.1C329.38,77,329.27,77.19,329.31,77.15Z" transform="translate(-265.67 -32.69)"/><polygon class="cls-1" points="62.17 43.63 62.25 43.59 61.93 43.57 62.17 43.63"/><path class="cls-1" d="M326.79,75.24c-.16.35.42.35.52.63l0,.09.29-.12C327.31,75.64,326.88,75.47,326.79,75.24Z" transform="translate(-265.67 -32.69)"/><path class="cls-1" d="M326.77,74.11c-.06.14-.21,0,.1.17v0A.76.76,0,0,1,326.77,74.11Z" transform="translate(-265.67 -32.69)"/><path class="cls-1" d="M326.87,74.23c.12.11,0-.16,0,0Z" transform="translate(-265.67 -32.69)"/><path class="cls-1" d="M326.28,73.77l.24.06c0-.09-.09-.23,0-.23C326.31,73.5,326.29,73.59,326.28,73.77Z" transform="translate(-265.67 -32.69)"/><path class="cls-1" d="M326,73.82l.11,0S326.07,73.79,326,73.82Z" transform="translate(-265.67 -32.69)"/><path class="cls-1" d="M326.32,73.94l-.25-.08c0,.06-.09.15.11,0C326.09,74,326.2,73.92,326.32,73.94Z" transform="translate(-265.67 -32.69)"/><path class="cls-1" d="M326.38,74.07c0,.13.11.27-.13.21C326.56,74.53,326.7,74.31,326.38,74.07Z" transform="translate(-265.67 -32.69)"/><path class="cls-1" d="M326.47,75.44l0,.19h.18C326.6,75.64,326.54,75.36,326.47,75.44Z" transform="translate(-265.67 -32.69)"/><path class="cls-1" d="M325.45,72.74c-.06.05-.08.2-.14.28l.17,0C325.46,73,325.38,72.83,325.45,72.74Z" transform="translate(-265.67 -32.69)"/><path class="cls-1" d="M325.31,73l-.26-.06C325.19,73.11,325.26,73.09,325.31,73Z" transform="translate(-265.67 -32.69)"/><polygon class="cls-1" points="59.99 41.4 60.45 41.46 59.93 41.35 59.99 41.4"/><polygon class="cls-1" points="59.14 39.44 59.36 39.4 59 39.44 59.14 39.44"/><path class="cls-1" d="M324.36,71.75c.17,0,.06-.28.2-.27a1,1,0,0,0-.48-.1A.49.49,0,0,1,324.36,71.75Z" transform="translate(-265.67 -32.69)"/><path class="cls-1" d="M323.81,71.37h.27A.6.6,0,0,0,323.81,71.37Z" transform="translate(-265.67 -32.69)"/><path class="cls-1" d="M324.79,72.66a.34.34,0,0,0,0-.29l-.08.22Z" transform="translate(-265.67 -32.69)"/><path class="cls-1" d="M324.72,72.6h0l-.13-.14Z" transform="translate(-265.67 -32.69)"/><path class="cls-1" d="M324.81,72.67h0S324.78,72.69,324.81,72.67Z" transform="translate(-265.67 -32.69)"/><path class="cls-1" d="M325.35,73.53c-.19,0-.48-.11-.41.21C325.12,73.7,325.07,73.52,325.35,73.53Z" transform="translate(-265.67 -32.69)"/><path class="cls-1" d="M324.71,73l.14.2s.06-.13.15-.13Z" transform="translate(-265.67 -32.69)"/><polygon class="cls-1" points="58.9 40.23 59.04 40.26 58.98 40.19 58.9 40.23"/><path class="cls-1" d="M324,71.8a.56.56,0,0,1-.34-.15,1.76,1.76,0,0,0,.27.33C324,72,324.11,71.9,324,71.8Z" transform="translate(-265.67 -32.69)"/><path class="cls-1" d="M324.33,72.2h0S324.31,72.23,324.33,72.2Z" transform="translate(-265.67 -32.69)"/><polygon class="cls-1" points="57.01 38.11 57 38.15 57.03 38.13 57.01 38.11"/><path class="cls-1" d="M323.91,72a.19.19,0,0,0,.22.1,1.37,1.37,0,0,1-.21-.15S323.88,72,323.91,72Z" transform="translate(-265.67 -32.69)"/><path class="cls-1" d="M323.48,71.2c0,.06,0,.13.06.21C323.55,71.32,323.53,71.17,323.48,71.2Z" transform="translate(-265.67 -32.69)"/><path class="cls-1" d="M324.32,72.13h0S324.33,72.09,324.32,72.13Z" transform="translate(-265.67 -32.69)"/><path class="cls-1" d="M324.32,72.13a.41.41,0,0,0-.19,0,.67.67,0,0,0,.18.07A.17.17,0,0,1,324.32,72.13Z" transform="translate(-265.67 -32.69)"/><path class="cls-1" d="M321.48,71.58a.31.31,0,0,1,.52.22c.27,0,.59-.55.67-1-.06.06-.12.12-.38,0,0,.14.25.54,0,.54s-.15-.22-.2-.4c-.06.27-.55,0-.73.33l.3.08S321.46,71.49,321.48,71.58Z" transform="translate(-265.67 -32.69)"/><path class="cls-1" d="M323,71.15l.09,0a1,1,0,0,1-.09-.43c-.19,0-.26,0-.31,0l.35.34Z" transform="translate(-265.67 -32.69)"/><path class="cls-1" d="M323.44,71.49c-.2.11-.44,0-.49.29.23.18.28,0,.47.06-.38-.29.18,0,0-.33a.93.93,0,0,1,.22.14,2.56,2.56,0,0,1-.11-.24h0s0,0,0,0h0l-.07,0c-.07-.12,0,0,.07,0l0,0h0l-.44-.22A1.36,1.36,0,0,0,323.44,71.49Z" transform="translate(-265.67 -32.69)"/><path class="cls-1" d="M324.44,73.91a.11.11,0,0,1,0,0S324.41,73.86,324.44,73.91Z" transform="translate(-265.67 -32.69)"/><path class="cls-1" d="M324.39,73.68c.05,0,.13,0,.19,0s-.07.08-.11.13.27,0,.19-.17h0a.84.84,0,0,1,0-.55A1.82,1.82,0,0,0,324.39,73.68Z" transform="translate(-265.67 -32.69)"/><path class="cls-1" d="M323.87,72.62l-.35-.19,0,.28.06-.09C323.74,72.8,323.8,72.67,323.87,72.62Z" transform="translate(-265.67 -32.69)"/><polygon class="cls-1" points="57.05 38 57.23 37.86 56.85 37.96 57.05 38"/><polygon class="cls-1" points="56.63 37.69 56.78 37.55 56.6 37.55 56.63 37.69"/><path class="cls-1" d="M296.72,57.54h0Z" transform="translate(-265.67 -32.69)"/><path class="cls-1" d="M297.47,57.86l.06-.08C297.47,57.81,297.44,57.84,297.47,57.86Z" transform="translate(-265.67 -32.69)"/><path class="cls-1" d="M312.16,62.85c0-.24-.05-.59-.15-.39l-.07.21A.32.32,0,0,1,312.16,62.85Z" transform="translate(-265.67 -32.69)"/><path class="cls-1" d="M304.07,59.69l0,.08.19-.13Z" transform="translate(-265.67 -32.69)"/><path class="cls-1" d="M303.56,60.43l-.13-.22A.66.66,0,0,0,303.56,60.43Z" transform="translate(-265.67 -32.69)"/><path class="cls-1" d="M292.46,56.16l-.2.16C292.46,56.39,292.41,56.25,292.46,56.16Z" transform="translate(-265.67 -32.69)"/><path class="cls-1" d="M318.16,67.12a.78.78,0,0,0-.21-.33C318,67,318,67.23,318.16,67.12Z" transform="translate(-265.67 -32.69)"/><path class="cls-1" d="M297.9,55.53c-.08,0-.13,0-.14.09S297.89,55.59,297.9,55.53Z" transform="translate(-265.67 -32.69)"/><path class="cls-1" d="M317.62,66.53a.24.24,0,0,0,0,.09.83.83,0,0,1,.3.17C317.9,66.64,317.82,66.5,317.62,66.53Z" transform="translate(-265.67 -32.69)"/><path class="cls-1" d="M276.82,52l0,0S276.79,52,276.82,52Z" transform="translate(-265.67 -32.69)"/><path class="cls-1" d="M272.35,49.24h.2A.39.39,0,0,0,272.35,49.24Z" transform="translate(-265.67 -32.69)"/><path class="cls-1" d="M320.79,69c.09.06,0,0,0,0Z" transform="translate(-265.67 -32.69)"/><path class="cls-1" d="M320.64,70a.22.22,0,0,0-.1.06A.22.22,0,0,1,320.64,70Z" transform="translate(-265.67 -32.69)"/><path class="cls-1" d="M316,67h0S315.94,67,316,67Z" transform="translate(-265.67 -32.69)"/><path class="cls-1" d="M320.85,69.14a.91.91,0,0,0-.07-.14Z" transform="translate(-265.67 -32.69)"/><path class="cls-1" d="M320.9,69.05l.06.08S321,69.08,320.9,69.05Z" transform="translate(-265.67 -32.69)"/><path class="cls-1" d="M320.66,68.87a.49.49,0,0,1,.12.13s0,0,0,0Z" transform="translate(-265.67 -32.69)"/><path class="cls-1" d="M285.47,53.22l0,0C285.33,53.25,285.38,53.25,285.47,53.22Z" transform="translate(-265.67 -32.69)"/><polygon class="cls-1" points="42.93 30.59 42.95 30.59 42.94 30.57 42.93 30.59"/><path class="cls-1" d="M308.19,63.23c.27-.15.34-.08.42,0l.21-.6Z" transform="translate(-265.67 -32.69)"/><path class="cls-1" d="M294.87,56.86l.18.28c-.41.18-.59,0-.45.34.28-.62,1,.32,1.26-.29l.11.2s-.06,0-.11,0c.2.43.42-.36.8-.1.12.1.19.23.06.27l.38,0c.09.05,0,.15-.07.1l.51.15v0a2.86,2.86,0,0,1,.44-.2c.08.14-.09.05-.1.14l.34,0c0,.21-.25.28-.43.18,0,.72.3-.08.67.53l-.28,0c0,.43.25.39.43.73,0-.14-.31-.81,0-.83a.32.32,0,0,0,.37.1c-.1.22.08.24.27.31l-.14.29c.24,0,.29-.15.47-.23.21.14.16.38.12.6.34.21-.08-.48.37-.34.25.25.52.23,1,.23.16.19-.12.16-.09.27l.3-.14s0,.09,0,.12c.2,0,.15-.28.44-.24.22-.3.28.7.76.5,0,.12-.12.16-.16.28a2.44,2.44,0,0,0,.94-.13l.2.34c-.1-.33.3-.44.64-.52a2.54,2.54,0,0,0-.06-.33l.46,0c0,.07-.06.15-.19.24l.11,0c.08.18-.07.31-.25.42l-.05-.25a1.06,1.06,0,0,0-.44.45.31.31,0,0,1,.17,0c-.05,0-.09.07-.09.11s.07,0,.17-.05l-.08.36.09-.11.39.45a3.18,3.18,0,0,1,1.72-.27c-.26.15-.23.36-.39.63,0-.38-.5-.11-.76-.32a.14.14,0,0,1,0,.25h.66c-.13.22,0,.23.1.4.14-.5.54-.08.83-.09-.07.15-.2.27-.44.09.1.49.65-.3.77.14-.07,0-.09-.08-.15,0,.22-.05.51.26.36.34l-.07,0c.38.28,1.25.72,1.53.39,0,.05-.32.41-.38.47l1.46-.81c-.25.28-.45,1.16-.89,1.15a.49.49,0,0,0,.43.23c0-.09.11-.55.21-.53a2.54,2.54,0,0,0,.18.78c-.06-.13.35-.55.5-.43-.07.06-.29.49-.38.5l.68-.23c-.15,0-.26.39-.26.58,0-.12.32.22.45.24l-.09-.22c.39.35.85-.39,1.27-.09-.12.06-.52.52-.34.71.26-.17,1.2-.88,1.71-.81l0,.18.4,0a11,11,0,0,1-1.91.8c.09.21-.06.19.19.33,0,.19-.26.12-.34.08l.51.44c.16-.3.61,0,.75-.25-.26-.05-.54-.07-.8-.1a.94.94,0,0,1,1.24-.26c0,.18-.41.45-.46.55.11-.07.49.07.48.16l-.27,0c.15.25.6-.12.68.32.08.08,0,.54.15.39a4,4,0,0,1,1-1.58,3.28,3.28,0,0,1,.26.86c0,.35-.63.43-.65.73a.46.46,0,0,1,.26-.11c.05.13-.21.21,0,.31.23-.25.4.32.26-.16.26.06.18.2.42.36.05-.24.65-.46.91-.4A.51.51,0,0,0,316,67c.4.31.51.62.88.9,0,.09.1.31-.06.37a.43.43,0,0,1,.33,0c0,.41-.28-.16-.33.25.13-.14.46,0,.7,0,.13-.28-.34-.34-.58-.36a1.26,1.26,0,0,1,1.32-.33c.37.16,0,.32.06.32.53.51,1-.2,1.25.42,0,.36-.33.42-.41.61-.31-.12-.28-.43-.46-.56l.14.26c-.14,0-.35-.06-.39-.2,0,.32,1,.79,1.25,1.33.13,0,.32,0,.33-.1l-.16-.09c0-.27.45,0,.34-.24.28,0,.64,0,.82.35l-.15.28c.05-.08-.05-.29-.18-.28.19,0,.13.66.5.45l0-.32c.28,0,.72,0,.89.26.09-.32-.07,0,0-.43-.14.46-.58-.52-.65,0,.1-.46-.18-.38-.18-.84-.05.09,0,.22-.2,0l-.1,0v0s0,0,0,0a.34.34,0,0,1,0,.2c-.24.1-.54-.17-.72-.17s.12,0,.12-.18H320c.13-.19-.08-.54.28-.43l-.24-.2a.65.65,0,0,0-.44-.44c-.09-.13-.45,0-.24-.09l-.48-.2,0,0c-.38-.33-1-.33-1.24-1a1,1,0,0,1-.53-.33l.07-.19c-.21-.08-.41-.53-.61-.42.12-.56-.79-.69-1-1l-.16.2a2.39,2.39,0,0,0-.77-.34l-.11.19c-.33,0-.5-.54-.87-.77.07-.06.15,0,.19.11-.15-.73-1.14-.29-1.33-.86a.21.21,0,0,1-.24-.16h0l0,0c0-.06-.05-.13-.08-.19a.65.65,0,0,0,0,.18,1,1,0,0,0-.35-.12l.08-.24h0c-.07-.15-.15,0-.19.23a.58.58,0,0,0-.23,0c.11-.39-.37-.08-.28-.51-.18.12-.65-.24-.94.08,0-.05,0-.09.07-.06-.1-.12-.2-.24-.38-.21l.11-.3-.5.19c-.08-.26-.09-.4.2-.5-.6.07-.41-.08-.95,0l.12-.16c-.13-.07-.47,0-.46-.14-.09-.49-1.37-.85-1.94-1.57-.13.59-.21-.42-.46,0,0-.14,0-.26.13-.31-.44-.07-.47-.48-.91-.28,0-.15.18-.14.17-.23s-.17,0-.17,0,.1-.08.19-.1c-.4-.18-.63.18-.85.52-.11-.27-.22-.3-.48-.14,0-.15-.06-.33.2-.25-.12-.09-.74-.6-.9-.32,0-.09-.18-.12-.23-.1a2.91,2.91,0,0,0-.62-.34l.06.09c-.29.28-.29,0-.56-.12l0,0c-.44-.51-.3,0-.72-.54l-.07.24c-.27.44-.36-.51-.77-.48l.06.18c-.25.08-.2-.86-.36-1s.09,0,.16,0c-.34-.49-.19.26-.57.17,0-.19.26-.36,0-.49-.07-.18-.9.18-1.1-.25,0,.15,0,.3-.16.32s-.49-.73-.88-.44a.2.2,0,0,1,0-.11c-.24,0-.7-.09-.9.07.13-.84-1.34-.11-1.06-.82l-.6-.2,0-.07a.65.65,0,0,0-.77.06c-.07-.08,0-.13,0-.16-.51-.34-.58-.33-1.17-.14l0-.25c-.17.09-.69-.66-1.33-.58a.18.18,0,0,1,.09-.08c-.71,0-1.29-1.16-1.79-.37l-.49.09c.52.23-.19.35,0,.56-.22,0-.46-.42-.19-.39l0,.06c.23-.43-.62-.37-.51-.67-1.07-.29-2-.87-3-1.13l0,.39-.35-.11c-.07-.11-.05-.31.2-.23-.08-.24-.47.06-.49.14-.46-.27.29-.37.15-.42l-.22,0,0,0c-.2.11-.26.26-.55.16s-.05-.24-.12-.27,0,0-.11,0l-.44-.15.11.33c-.23.09-.41-.12-.28.25-.18-.58-1.61-.58-1.76-.75a1.25,1.25,0,0,1-.93,0c.07.07.06.4-.23.3.24-.63-.47-.39-.62-.91.15.35-.84-.09-.6.42-.23-.1,0-.25-.12-.44-.63.12-1.26-.4-2-.43,0,.09.07.24-.1.34l-.32-.49c-.15,0-.21.48-.42.14,0,.08.06.2,0,.21a5.79,5.79,0,0,0-2.15-.41,3.82,3.82,0,0,1-2.15-.6c.18.2.05.2-.1.19.09,0,0,.21,0,.34l-.57-.4c-.15.32-.66,0-.75.26l.2,0c-.29.34.28.86.2,1.33.32-.39.68.71,1.2.15.09.11-.1.15-.06.26.14-.19.28-.22.54-.1l0,0a6.13,6.13,0,0,1,1.83.5l0-.25c.17.06.19.14.27.21.25-.32-.49-.09-.26-.46.17.52,1.25.2,1.32.77.27,0,0-.29.24-.24l.05.16.09-.18A.35.35,0,0,1,277,52s-.12,0-.17,0c.2.21.65,0,.72.11L277.3,52a17.45,17.45,0,0,0,2.39.16l0-.12c.58-.09.41.21,1,.23l0,0a.6.6,0,0,1,.47-.07c-.18.1.23.31,0,.41.63-.1.33-.11.8-.44l.05.2c.17-.13.2-.22.51-.21-.28.11.13.32-.19.47.53.51,1-.19,1.16.46.4-.43-.47-.42-.28-.48-.1-.2.32-.32.5-.22s.18.72.68.84c-.05,0-.06,0-.11,0,.15.17.4-.08.58.18.2-.27.29.09.42-.28l-.47,0c.28,0,.64-.42,1-.1a.94.94,0,0,1-.31.18c.09.14.26,0,.36.13-.14.37-.58-.05-.93.17.09.19.59-.15.35.23.34-.48.47.19.91-.13l-.09.23c.07,0,.21-.11.3-.08l-.25.26c.33-.19.46.34.75.29-.54-.15,0-.32-.23-.55.75-.11.22.72,1,.83-.11,0-.34-.25-.15-.31a1,1,0,0,1,.34.38c.5.1,0-.26.24-.34.08.33.27,0,.52-.06l-.07.23c.51.32.29-.43.74-.1l-.31.25h.29l-.14.24a.64.64,0,0,1,.68.13.34.34,0,0,1,.42-.34c.13.19-.16.19.2.27-.13.11-.27.27-.36,0,0,.07-.12.12-.16.19.13.21.44.17.57.21a.23.23,0,0,1-.12-.09l.61-.15c.05.11,0,.16-.12.2.11,0,.21-.07.37,0-.1.17-.16.37-.4.38l.55,0c0,.09.17.31.08.35.23.21.78-.13,1.08.14a.22.22,0,0,1,.16,0c.31.16.52.49,1,.37l.09.41c.34,0-.14-.52.41-.47s0,.33.12.47c.24-.1.68-.31.9.09C295.05,57,295,56.88,294.87,56.86Zm3.77,1.38c-.1,0-.3.09-.29-.06C298.54,58,298.55,58.11,298.64,58.24Zm5.75,2.13c-.09.05-.15,0-.2-.16A.31.31,0,0,1,304.39,60.37Zm15.34,8h0C319.64,68.18,319.66,68.25,319.73,68.36Zm.23.31a.09.09,0,0,0,.08-.07c-.06,0-.13,0-.2-.09S319.84,68.64,320,68.67ZM284.75,51.36l.06.08C284.63,51.47,284.69,51.42,284.75,51.36Z" transform="translate(-265.67 -32.69)"/><path class="cls-1" d="M303.62,60.35a.5.5,0,0,1,0-.13S303.58,60.28,303.62,60.35Z" transform="translate(-265.67 -32.69)"/><path class="cls-1" d="M292.5,56.13h0s0,0,0,0Z" transform="translate(-265.67 -32.69)"/><path class="cls-1" d="M314.21,66.92a.28.28,0,0,1,0-.19S314.13,66.84,314.21,66.92Z" transform="translate(-265.67 -32.69)"/><path class="cls-1" d="M321.72,69.61l-.22-.11a.29.29,0,0,1,.11.2S321.66,69.56,321.72,69.61Z" transform="translate(-265.67 -32.69)"/><path class="cls-1" d="M322.3,72.06s.06,0,.1,0l.07-.09C322.35,71.92,322.22,71.93,322.3,72.06Z" transform="translate(-265.67 -32.69)"/><path class="cls-1" d="M321.37,70.36c-.12.17,0,.21.19.29l0,0C321.76,70.45,321.56,70.4,321.37,70.36Z" transform="translate(-265.67 -32.69)"/><path class="cls-1" d="M321.59,70.67a.34.34,0,0,1,.12.09C321.8,70.69,321.68,70.7,321.59,70.67Z" transform="translate(-265.67 -32.69)"/><path class="cls-1" d="M320.41,68.86c0,.09.2-.17.18-.08C320.82,68.64,320,68.68,320.41,68.86Z" transform="translate(-265.67 -32.69)"/><polygon class="cls-1" points="55.37 38.27 55.48 38.04 55.28 38.14 55.37 38.27"/><path class="cls-1" d="M320.17,70l.15.22a.11.11,0,0,1,.11,0C320.32,70.07,320.21,69.92,320.17,70Z" transform="translate(-265.67 -32.69)"/><path class="cls-1" d="M320.43,70.18a.32.32,0,0,0,.19.11A.68.68,0,0,0,320.43,70.18Z" transform="translate(-265.67 -32.69)"/><polygon class="cls-1" points="55.05 38.1 55.02 38.01 54.89 37.87 55.05 38.1"/><path class="cls-1" d="M318,68.2l-.27-.12c-.08,0-.05.14,0,.18S318,68.29,318,68.2Z" transform="translate(-265.67 -32.69)"/><path class="cls-1" d="M318.25,69.26a.57.57,0,0,1,0-.22l-.2.24Z" transform="translate(-265.67 -32.69)"/><path class="cls-1" d="M317.56,68.82c-.08.05-.48-.06-.18.14C317.45,68.91,317.72,69,317.56,68.82Z" transform="translate(-265.67 -32.69)"/><polygon class="cls-1" points="48.67 33.28 48.73 33.32 49.02 32.9 48.67 33.28"/><path class="cls-1" d="M310.55,64.9c.21.28.23-.22.4.07.13-.06-.14-.24,0-.28C310.7,64.69,310.65,64.57,310.55,64.9Z" transform="translate(-265.67 -32.69)"/><path class="cls-1" d="M310.94,64.69h.13A.23.23,0,0,0,310.94,64.69Z" transform="translate(-265.67 -32.69)"/><polygon class="cls-1" points="5.9 16.2 5.69 16.07 5.82 16.26 5.9 16.2"/><path class="cls-1" d="M271.12,49.22l0-.33-.16.28C271,49.16,271.09,49.14,271.12,49.22Z" transform="translate(-265.67 -32.69)"/><path class="cls-1" d="M298.91,59.09l0-.07c0-.09,0-.11-.13-.17Z" transform="translate(-265.67 -32.69)"/><polygon class="cls-1" points="30.68 25.05 30.72 25.07 30.75 24.76 30.68 25.05"/><path class="cls-1" d="M294,57.18c.09,0,.22,0,.31.07C294.05,57.22,294.06,56.83,294,57.18Z" transform="translate(-265.67 -32.69)"/><path class="cls-2" d="M296.34,44.09l0,0-.23.09-.23.06-.55.17-.56.19-.37.12-.37.14-.29.13-.31.12-.25.09a1,1,0,0,0-.24.11l-.28.11a1.23,1.23,0,0,0-.29.13l-.14.06-.14,0-.37.18-.36.17-.79.38-.26.12a1.58,1.58,0,0,1-.26.13l-.29.15a1.35,1.35,0,0,1-.32.15,2.25,2.25,0,0,0-.31.16l-.31.16a1.54,1.54,0,0,0-.34.17,1.77,1.77,0,0,1-.31.15l-.27.14-.28.14-.22.11-.23.12-.4.19a2.87,2.87,0,0,0-.4.18l-.28.12-.28.12-.37.16-.39.18-.29.12-.34.12-.3.11a1.35,1.35,0,0,1-.32.09l-.58.17-.58.13a3.72,3.72,0,0,1-.57.08,3.84,3.84,0,0,1-.59,0l-.29,0-.26,0a1.83,1.83,0,0,1-.25-.06l-.25-.07-.39-.12a3.39,3.39,0,0,1-.57-.31,2.62,2.62,0,0,1-.72-.79,2.56,2.56,0,0,1-.21-.44,3.33,3.33,0,0,1-.21-1.06c0-.11,0-.23,0-.35s0-.24.05-.35a2.23,2.23,0,0,1,.1-.7c0-.1,0-.21.07-.31s.05-.2.08-.3l.07-.16c0-.05,0-.11,0-.17l.06-.18a1.07,1.07,0,0,1,.07-.19.51.51,0,0,0,.09-.18.66.66,0,0,1,.09-.19,3.25,3.25,0,0,1,.18-.43l.2-.41c.11-.2.22-.38.33-.56s.22-.36.33-.56.2-.27.29-.41.21-.28.32-.41.2-.3.31-.44.23-.27.34-.42l.17-.22.19-.22.34-.4a5,5,0,0,1,.39-.41l.43-.43.44-.43.23-.23.22-.2c.28-.26.56-.5.84-.73l.35-.29a3.32,3.32,0,0,1,.36-.26l.36-.29a2.53,2.53,0,0,1,.35-.28l.23-.16a1.88,1.88,0,0,1,.24-.14l.28-.2.28-.2h0l.27-.18a2.69,2.69,0,0,1,.29-.16l.5-.3.53-.29.48-.25c.16-.08.32-.16.5-.23a2.77,2.77,0,0,1,.46-.2l.47-.19A11.42,11.42,0,0,1,292,33a1.64,1.64,0,0,1,.38-.1l.41-.07a5.7,5.7,0,0,1,1.25-.11,2.71,2.71,0,0,1,.4,0l.43.09h.1l.12.06h.05l.12,0,.1,0a2.23,2.23,0,0,1,.73.38,1.88,1.88,0,0,1,.5.62,1.74,1.74,0,0,1,.13.36c0,.12.06.24.08.37a.76.76,0,0,0,0,.22.93.93,0,0,1,0,.29,1.45,1.45,0,0,0,0,.28l-.05.29a2,2,0,0,1-.07.26,1.28,1.28,0,0,1-.11.24,3.58,3.58,0,0,1-.24.48,4.34,4.34,0,0,1-.28.46l0,0s0,0-.05,0l-.1,0v-.08a1.06,1.06,0,0,1,.11-.25l.16-.32c.05-.1.11-.22.16-.34a2.25,2.25,0,0,0,.08-.24,1.42,1.42,0,0,0,.07-.22.14.14,0,0,1,0-.07l0-.08a.18.18,0,0,0,0-.14.76.76,0,0,1,0-.15v-.14a3.66,3.66,0,0,0,0-.57,1.79,1.79,0,0,0-.13-.58,1.46,1.46,0,0,0-.73-.78.54.54,0,0,0-.2-.1l-.2-.07-.13,0L295,33a4,4,0,0,0-.59,0h-.6a6,6,0,0,0-.63.09l-.62.13c-.23.06-.46.14-.69.22l-.69.24-.41.14a1.84,1.84,0,0,0-.38.17l-.32.15-.33.16c-.23.11-.46.22-.67.34l-.66.36a4,4,0,0,0-.57.36.62.62,0,0,1-.19.11,1,1,0,0,0-.19.12c-.14.08-.26.17-.38.25l-.35.26a6,6,0,0,0-.62.45l-.4.31-.4.32-.4.34-.4.35c-.16.15-.31.29-.47.42a6.25,6.25,0,0,0-.44.45c-.14.12-.27.25-.4.38s-.25.26-.37.4-.4.44-.6.67l-.58.69-.34.42-.34.45c-.09.12-.18.24-.26.37s-.16.25-.24.39-.13.21-.19.3l-.16.29q-.15.24-.27.48c-.08.16-.16.32-.25.48a2.71,2.71,0,0,0-.13.3,2.55,2.55,0,0,1-.13.29l-.08.2a1,1,0,0,0-.06.23.3.3,0,0,1,0,.1.3.3,0,0,0,0,.08v.09a.08.08,0,0,1-.05.07v0L279,46a3.44,3.44,0,0,0-.09.5,1.82,1.82,0,0,1,0,.33l0,.31a3.89,3.89,0,0,0,0,.47,4.63,4.63,0,0,0,.09.49,2.6,2.6,0,0,0,.26.64,2.23,2.23,0,0,0,.48.55,1.91,1.91,0,0,0,.21.14.9.9,0,0,0,.24.12l.12,0,.21.07h0a1.87,1.87,0,0,0,.42.11l.42,0,.59,0,.6-.07c.19,0,.39-.08.58-.14l.55-.15.5-.18.5-.17a2.5,2.5,0,0,1,.38-.15,3.29,3.29,0,0,0,.39-.17,2.75,2.75,0,0,1,.41-.17,3.39,3.39,0,0,0,.39-.18l.32-.15.3-.15.42-.2.43-.2.26-.12.24-.14.27-.12.27-.12A1.58,1.58,0,0,0,289,47a1.71,1.71,0,0,1,.27-.14l.26-.12a1.58,1.58,0,0,1,.26-.13l.27-.14a2.44,2.44,0,0,1,.28-.14l.38-.19.38-.19.44-.19.43-.2.51-.21.52-.21.36-.14.36-.14.53-.2.53-.19.41-.14.4-.12.27-.07.28-.1s0,0,.06,0h.07A.1.1,0,0,1,296.34,44.09Z" transform="translate(-265.67 -32.69)"/><path class="cls-2" d="M295.79,50.08a14.91,14.91,0,0,0,1.72-.06c.64-.05,1.28-.12,1.94-.21s1.32-.2,2-.32,1.28-.25,1.87-.37l1.59-.37c.47-.12.85-.22,1.14-.31a.21.21,0,0,1,.22,0c.06,0,.06.07,0,.09l-1.24.32c-.51.13-1.08.26-1.71.4l-2,.42c-.71.14-1.43.25-2.15.35s-1.43.16-2.11.2a15,15,0,0,1-1.9,0,6,6,0,0,1-1.52-.29,2.11,2.11,0,0,1-1-.65,1.12,1.12,0,0,1-.26-.84,1.52,1.52,0,0,1,.18-.6,6.77,6.77,0,0,1,1.35-1.62,14.18,14.18,0,0,1,1.84-1.37,21.89,21.89,0,0,1,2.08-1.13c.72-.34,1.4-.64,2.06-.9a22.35,22.35,0,0,1,3.65-1.17,6.79,6.79,0,0,1,2.12-.19c.48.07.73.22.77.46s-.11.48-.42.74a7.67,7.67,0,0,1-1.38.8,20.93,20.93,0,0,1-2.23.87,27,27,0,0,1-2.91.77,25.63,25.63,0,0,1-3.43.45,2,2,0,0,0-.45.21,6.39,6.39,0,0,0-.79.49,8.9,8.9,0,0,0-.91.7,5.3,5.3,0,0,0-.78.8,2.32,2.32,0,0,0-.44.81.8.8,0,0,0,.15.73,1.86,1.86,0,0,0,1,.52A8,8,0,0,0,295.79,50.08Zm.51-4.69.42,0c.27,0,.62-.06,1.07-.13s.95-.14,1.53-.25,1.18-.23,1.81-.4,1.28-.37,1.92-.61a13.26,13.26,0,0,0,1.84-.83l.33-.19a3.68,3.68,0,0,0,.4-.25,2.67,2.67,0,0,0,.36-.31,1,1,0,0,0,.23-.36c0-.15,0-.24-.2-.27a2.42,2.42,0,0,0-.67,0,8.27,8.27,0,0,0-.82.14l-.65.14a11.56,11.56,0,0,0-1.34.42c-.51.19-1,.4-1.58.63s-1.09.48-1.62.73l-1.46.7c-.44.22-.8.4-1.09.56a2,2,0,0,0-.48.32s0,0-.05,0h0v0h0S296.29,45.41,296.3,45.39Z" transform="translate(-265.67 -32.69)"/><path class="cls-2" d="M303.1,51.54a.86.86,0,0,1-.17-.5,1.19,1.19,0,0,1,.12-.51,2.6,2.6,0,0,1,.31-.48,2.17,2.17,0,0,1,.4-.36,5,5,0,0,1,.73-.43c.25-.12.5-.23.73-.32s.43-.17.61-.23a1.94,1.94,0,0,0,.37-.14.29.29,0,0,1,.26,0,1,1,0,0,1,.25.15.39.39,0,0,1,.14.19c0,.07,0,.12-.07.15l-.48.18-.37.14-.39.15-.55.22-.56.26a3.52,3.52,0,0,0-.54.33,2,2,0,0,0-.41.4.93.93,0,0,0-.18.51.64.64,0,0,0,.28.58,2.59,2.59,0,0,0,.78.4,9.14,9.14,0,0,0,1,.25c.37.07.7.12,1,.15l.56.1a5.58,5.58,0,0,0,.57.08l.76.08L309,53l.83.1,1.12.16,1.23.18,1.15.16,1.17.16a.3.3,0,0,1,.18.14c0,.07,0,.1,0,.09-2-.31-3.72-.54-5.09-.7s-2.48-.31-3.36-.45a10.91,10.91,0,0,1-2-.49A2.26,2.26,0,0,1,303.1,51.54Zm4.1-3.13c-.08-.11-.09-.19,0-.24l.4-.21a.4.4,0,0,1,.26,0,.54.54,0,0,1,.23.1.27.27,0,0,1,.11.15.1.1,0,0,1-.05.13l-.12.06-.13.07a1.3,1.3,0,0,0-.3.13C307.48,48.64,307.35,48.58,307.2,48.41Z" transform="translate(-265.67 -32.69)"/><path class="cls-2" d="M312.63,53.89a4.27,4.27,0,0,1,1.62-.06,2.91,2.91,0,0,1,1.17.4.79.79,0,0,1,.42.64c0,.24-.22.48-.64.7a.2.2,0,0,1-.26,0c-.09-.07-.1-.12,0-.16a2,2,0,0,0,.4-.21,1.17,1.17,0,0,0,.26-.32.43.43,0,0,0,0-.2.3.3,0,0,0-.08-.2,1.23,1.23,0,0,0-.9-.26,5.9,5.9,0,0,0-3,.8,2.18,2.18,0,0,0-1,1.08.84.84,0,0,0,.15.94,2.63,2.63,0,0,0,1.11.66,12.77,12.77,0,0,0,1.83.46c.72.12,1.5.24,2.35.34l2.62.29c.91.09,1.8.21,2.68.34h.14a.33.33,0,0,1,.14.06l.06,0s0,0,0,.05,0,0,0,0h-.06L319,59l-1.69-.18-1.09-.12-.79-.08-.83-.11-1.18-.19a6.21,6.21,0,0,1-1.84-.54,3,3,0,0,1-1-.8,1.45,1.45,0,0,1-.33-.92,1.66,1.66,0,0,1,.31-.91,2.92,2.92,0,0,1,.83-.76A3.52,3.52,0,0,1,312.63,53.89Z" transform="translate(-265.67 -32.69)"/><path class="cls-2" d="M317.86,60.67a.65.65,0,0,0,.24,0,1.9,1.9,0,0,1,.25,0,16,16,0,0,1,3.23-.1,7.53,7.53,0,0,1,2,.39,1.4,1.4,0,0,1,.83.6.4.4,0,0,1-.13.54,1.65,1.65,0,0,1-.94.23,4.38,4.38,0,0,1-1.6-.35,4.93,4.93,0,0,1-1-.51,6.34,6.34,0,0,0-.53-.36.35.35,0,0,0-.39,0,2.15,2.15,0,0,0-.55.61,2.31,2.31,0,0,0-.37.71,2,2,0,0,0-.09.61,1,1,0,0,0,.1.45.77.77,0,0,0,.17.25l.19.2a2.31,2.31,0,0,0,.53.34,7.88,7.88,0,0,0,1.09.42,11.5,11.5,0,0,0,1.9.39c.24,0,.56.08,1,.12l1.35.15,1.5.17c.51,0,1,.11,1.42.18s.82.13,1.13.2a1.39,1.39,0,0,1,.61.24s0,0,0,0a.3.3,0,0,1-.19,0l-.2-.06c-.66-.14-1.34-.25-2-.34l-2.06-.24-2-.21a16.66,16.66,0,0,1-1.76-.28,6.51,6.51,0,0,1-1.78-.6,2.64,2.64,0,0,1-1-.92,1.58,1.58,0,0,1-.19-1.17A3,3,0,0,1,319.3,61a.19.19,0,0,1,.11-.07s.06,0,.08-.12h-.3l-.43,0-.4,0a.41.41,0,0,0-.19,0l-1.45.18-.71.09a.62.62,0,0,1-.3,0,.75.75,0,0,1-.15-.13c-.08-.07.07-.18.46-.34s.91-.32,1.59-.52,1.49-.39,2.4-.59,1.87-.38,2.87-.54,2-.28,3-.37a28.15,28.15,0,0,1,2.84-.09,12.73,12.73,0,0,1,1.69.17,4.2,4.2,0,0,1,1,.31.81.81,0,0,1,.42.35.38.38,0,0,1,0,.33,2.18,2.18,0,0,1-1.22.61,10.78,10.78,0,0,1-2.21.25,17.34,17.34,0,0,1-2.72-.17,13.3,13.3,0,0,1-2.75-.64l-.19-.07a.78.78,0,0,0-.34,0L321,60l-1.46.29-1.15.24a2.39,2.39,0,0,0-.5.13.11.11,0,0,0-.15,0,0,0,0,0,0-.06,0s0,0,0,0h0s.05,0,.06,0A.11.11,0,0,0,317.86,60.67Zm-.31,0h0s0,0,0,0Zm6.38.6a3.25,3.25,0,0,0-1-.35,8.82,8.82,0,0,0-1.23-.16c-.41,0-.77,0-1.08,0a2.52,2.52,0,0,0-.52,0l.06.05h.07a5.46,5.46,0,0,0,1.78,1,3.76,3.76,0,0,0,1.36.16,1,1,0,0,0,.72-.29C324.17,61.55,324.13,61.41,323.93,61.31Zm-.87-1.62a19.8,19.8,0,0,0,2.27.52c.67.11,1.41.18,2.22.23a10.78,10.78,0,0,0,2.41-.15,3.66,3.66,0,0,0,1.1-.34,1.18,1.18,0,0,0,.53-.43c0-.07,0-.12,0-.15a1.28,1.28,0,0,0-.34-.1,7.25,7.25,0,0,0-1.45-.18c-.56,0-1.15,0-1.76,0s-1.21.06-1.82.11l-1.61.18c-.48.07-.85.13-1.14.19S323,59.67,323.06,59.69Z" transform="translate(-265.67 -32.69)"/><path class="cls-2" d="M326.29,70.68c-.06.06-.12.06-.21,0a.42.42,0,0,1-.23-.26c0-.06,0-.09,0-.1l.22,0a.22.22,0,0,1,.18.11A.14.14,0,0,1,326.29,70.68Zm.6-.41-.06-.07s0-.06,0-.08L327,70a1.47,1.47,0,0,1,.42-.13l.44-.08.37-.08a2.2,2.2,0,0,1,.37-.07l.63-.12a6,6,0,0,0,.61-.12l.31-.06.32-.08.63-.11.64-.12.64-.13.66-.13.39-.06a2.5,2.5,0,0,1,.38-.06l.71-.12.73-.09c.18,0,.37,0,.55-.06l.55-.05.23,0,.24,0,.42-.08a1.93,1.93,0,0,1,.43-.07.52.52,0,0,1,.43.24c0,.07,0,.11-.06.13a.26.26,0,0,1-.18.09l-.43.11a2.5,2.5,0,0,1-.41.07c-.33,0-.65.07-1,.12l-1,.14-.91.14-.9.15-.83.13-.83.13-.39.07-.4.08-.75.14-.74.14-.61.12-.59.14-.44.09a3.18,3.18,0,0,1-.43.06.52.52,0,0,1-.19,0A.65.65,0,0,1,326.89,70.27Z" transform="translate(-265.67 -32.69)"/></svg>