<svg id="intro-background" xmlns="http://www.w3.org/2000/svg" viewBox="0 0 1748.91 1182.29"><defs><style>.cls-1{fill:#eab7a0;opacity:0.3}</style></defs><path class="cls-1" d="M770.86,1730.4c7.58,121.9,131.81,199.71,246.16,191.5,125.78-9,236.51-91.74,285.83-206.74,4.34-10.13-54.57-5.14-61.48,11-36,84-117,176.37-216.85,170.69-96.35-5.47-185.28-85.62-191.34-183.1-.69-11.09-63.39-.51-62.32,16.69Z" transform="translate(-59.09 -1106.29)"/><path class="cls-1" d="M1235.14,1374.63" transform="translate(-59.09 -1106.29)"/><path class="cls-1" d="M1235.14,1392.06c9.12,0,17.85-8,17.43-17.43s-7.66-17.44-17.43-17.44c-9.13,0-17.86,8-17.44,17.44s7.66,17.43,17.44,17.43Z" transform="translate(-59.09 -1106.29)"/><path class="cls-1" d="M1522.08,2229.09c-303.78,47.46-618.54,14.33-905.82-95.54C485.69,2083.61,348,2021.15,243.07,1926.9c-97.79-87.81-159.74-217.21-91.26-342.63C217.4,1464.12,353.35,1396.11,471.49,1339c142.45-68.85,292.17-124.89,446-162.22,152.75-37.07,320.4-52.62,469.67,7.38,118.63,47.68,218.41,137.48,282.76,247.54a551.85,551.85,0,0,1,58.46,414.2c-36.25,143.4-126.8,271.6-253.77,348.37-10.47,6.33-16.34,18.34-4.9,26.45,11.87,8.4,33.49,1.25,44.28-5.28C1752.93,2071,1873.2,1762.18,1772,1498c-48.51-126.58-140-235.58-256-305.65-136-82.14-298.33-97.92-453.48-78.67-171.53,21.28-340.38,77.4-499.28,143.95C424.4,1315.74,273.88,1382.51,165,1489.39,118.46,1535.08,79.29,1591,64.91,1655.52c-14.64,65.63-.8,132.16,32,190,72.8,128.31,217.11,205.7,345.79,266.59,294.74,139.45,626.55,198.09,951.28,169.32,40.28-3.57,80.4-8.62,120.36-14.86,11.46-1.79,33.42-7.87,35.12-22.24,1.66-14.07-17.35-16.83-27.41-15.26Z" transform="translate(-59.09 -1106.29)"/><path class="cls-1" d="M882.14,1358.63" transform="translate(-59.09 -1106.29)"/><path class="cls-1" d="M882.14,1376.06c9.12,0,17.85-8,17.43-17.43s-7.66-17.44-17.43-17.44c-9.13,0-17.86,8-17.44,17.44s7.66,17.43,17.44,17.43Z" transform="translate(-59.09 -1106.29)"/></svg>